<?xml version="1.0" encoding="UTF-8" standalone="yes"?>
<!DOCTYPE svg PUBLIC "-//W3C//DTD SVG 1.0//EN" "http://www.w3.org/TR/2001/REC-SVG-20010904/DTD/svg10.dtd">
<svg height="183" width="295" xmlns="http://www.w3.org/2000/svg" xmlns:xlink="http://www.w3.org/1999/xlink">
	<line style="stroke: blue; stroke-width: 1" x1="70" x2="280" y1="163" y2="163" />	<text text-anchor="end" x="70" y="163">0.00
	</text>
	<line style="stroke: blue; stroke-width: 1" x1="70" x2="280" y1="113" y2="113" />	<text text-anchor="end" x="70" y="113">0.05
	</text>
	<line style="stroke: blue; stroke-width: 1" x1="70" x2="280" y1="63" y2="63" />	<text text-anchor="end" x="70" y="63">0.10
	</text>
	<circle cx="75" cy="162.97" r="3" />
	<circle cx="75" cy="162.971" r="3" />
	<circle cx="75" cy="162.977" r="3" />
	<circle cx="75" cy="162.984" r="3" />
	<circle cx="75" cy="162.986" r="3" />
	<circle cx="75" cy="162.982" r="3" />
	<circle cx="75" cy="162.983" r="3" />
	<circle cx="75" cy="162.987" r="3" />
	<circle cx="75" cy="162.982" r="3" />
	<circle cx="75" cy="162.985" r="3" />
	<circle cx="75" cy="162.986" r="3" />
	<circle cx="75" cy="162.977" r="3" />
	<circle cx="75" cy="162.983" r="3" />
	<circle cx="75" cy="162.982" r="3" />
	<circle cx="75" cy="162.982" r="3" />
	<circle cx="75" cy="162.982" r="3" />
	<circle cx="75" cy="162.983" r="3" />
	<circle cx="75" cy="162.982" r="3" />
	<circle cx="75" cy="162.984" r="3" />
	<circle cx="75" cy="162.982" r="3" />
	<circle cx="75" cy="162.981" r="3" />
	<circle cx="75" cy="162.982" r="3" />
	<circle cx="75" cy="162.985" r="3" />
	<circle cx="75" cy="162.982" r="3" />
	<circle cx="75" cy="162.982" r="3" />
	<circle cx="75" cy="162.985" r="3" />
	<circle cx="75" cy="162.987" r="3" />
	<circle cx="85" cy="156.323" r="3" />
	<circle cx="85" cy="161.877" r="3" />
	<circle cx="85" cy="162.153" r="3" />
	<circle cx="85" cy="162.563" r="3" />
	<circle cx="85" cy="160.947" r="3" />
	<circle cx="85" cy="161.993" r="3" />
	<circle cx="85" cy="162.565" r="3" />
	<circle cx="95" cy="154.504" r="3" />
	<circle cx="95" cy="161.129" r="3" />
	<circle cx="95" cy="162.152" r="3" />
	<circle cx="95" cy="162.15" r="3" />
	<circle cx="95" cy="161.547" r="3" />
	<circle cx="95" cy="158.508" r="3" />
	<circle cx="95" cy="161.189" r="3" />
	<circle cx="95" cy="162.127" r="3" />
	<circle cx="95" cy="161.557" r="3" />
	<circle cx="95" cy="159.113" r="3" />
	<circle cx="95" cy="159.75" r="3" />
	<circle cx="105" cy="151.022" r="3" />
	<circle cx="105" cy="161.415" r="3" />
	<circle cx="105" cy="161.751" r="3" />
	<circle cx="105" cy="155.712" r="3" />
	<circle cx="105" cy="157.692" r="3" />
	<circle cx="105" cy="161.752" r="3" />
	<circle cx="105" cy="157.873" r="3" />
	<circle cx="105" cy="159.609" r="3" />
	<circle cx="115" cy="153.447" r="3" />
	<circle cx="115" cy="160.68" r="3" />
	<circle cx="115" cy="161.335" r="3" />
	<circle cx="115" cy="159.339" r="3" />
	<circle cx="115" cy="151.074" r="3" />
	<circle cx="115" cy="161.348" r="3" />
	<circle cx="115" cy="156.902" r="3" />
	<circle cx="115" cy="150.53" r="3" />
	<circle cx="115" cy="158.988" r="3" />
	<circle cx="115" cy="159.094" r="3" />
	<circle cx="125" cy="150.641" r="3" />
	<circle cx="125" cy="156.365" r="3" />
	<circle cx="125" cy="156.616" r="3" />
	<circle cx="125" cy="160.939" r="3" />
	<circle cx="125" cy="156.465" r="3" />
	<circle cx="125" cy="158.783" r="3" />
	<circle cx="125" cy="158.247" r="3" />
	<circle cx="125" cy="158.001" r="3" />
	<circle cx="125" cy="151.544" r="3" />
	<circle cx="135" cy="151.732" r="3" />
	<circle cx="135" cy="159.867" r="3" />
	<circle cx="135" cy="157.781" r="3" />
	<circle cx="135" cy="157.82" r="3" />
	<circle cx="135" cy="153.651" r="3" />
	<circle cx="135" cy="160.58" r="3" />
	<circle cx="135" cy="160.577" r="3" />
	<circle cx="135" cy="155.619" r="3" />
	<circle cx="135" cy="147.046" r="3" />
	<circle cx="135" cy="160.527" r="3" />
	<circle cx="135" cy="154.886" r="3" />
	<circle cx="135" cy="149.833" r="3" />
	<circle cx="135" cy="156.141" r="3" />
	<circle cx="135" cy="155.176" r="3" />
	<circle cx="145" cy="153.277" r="3" />
	<circle cx="145" cy="159.056" r="3" />
	<circle cx="145" cy="153.029" r="3" />
	<circle cx="145" cy="157.783" r="3" />
	<circle cx="145" cy="144.858" r="3" />
	<circle cx="145" cy="157.489" r="3" />
	<circle cx="145" cy="137.288" r="3" />
	<circle cx="145" cy="151.514" r="3" />
	<circle cx="145" cy="160.152" r="3" />
	<circle cx="145" cy="160.117" r="3" />
	<circle cx="155" cy="150.991" r="3" />
	<circle cx="155" cy="159.716" r="3" />
	<circle cx="155" cy="157.141" r="3" />
	<circle cx="155" cy="128.343" r="3" />
	<circle cx="155" cy="159.733" r="3" />
	<circle cx="155" cy="157.012" r="3" />
	<circle cx="155" cy="139.704" r="3" />
	<circle cx="155" cy="138.44" r="3" />
	<circle cx="155" cy="159.745" r="3" />
	<circle cx="155" cy="159.77" r="3" />
	<circle cx="155" cy="149.592" r="3" />
	<circle cx="155" cy="138.283" r="3" />
	<circle cx="155" cy="135.53" r="3" />
	<circle cx="155" cy="145.574" r="3" />
	<circle cx="155" cy="155.522" r="3" />
	<circle cx="155" cy="155.26" r="3" />
	<circle cx="165" cy="147.789" r="3" />
	<circle cx="165" cy="154.687" r="3" />
	<circle cx="165" cy="159.35" r="3" />
	<circle cx="165" cy="142.084" r="3" />
	<circle cx="165" cy="141.633" r="3" />
	<circle cx="165" cy="159.352" r="3" />
	<circle cx="165" cy="127.811" r="3" />
	<circle cx="165" cy="136.868" r="3" />
	<circle cx="165" cy="143.067" r="3" />
	<circle cx="165" cy="150.805" r="3" />
	<circle cx="175" cy="150.081" r="3" />
	<circle cx="175" cy="158.648" r="3" />
	<circle cx="175" cy="158.968" r="3" />
	<circle cx="175" cy="149.552" r="3" />
	<circle cx="175" cy="132.187" r="3" />
	<circle cx="175" cy="158.963" r="3" />
	<circle cx="175" cy="139.257" r="3" />
	<circle cx="175" cy="116.845" r="3" />
	<circle cx="175" cy="158.928" r="3" />
	<circle cx="175" cy="149.347" r="3" />
	<circle cx="175" cy="137.643" r="3" />
	<circle cx="175" cy="158.967" r="3" />
	<circle cx="175" cy="131.806" r="3" />
	<circle cx="175" cy="148.973" r="3" />
	<circle cx="185" cy="151.348" r="3" />
	<circle cx="185" cy="150.324" r="3" />
	<circle cx="185" cy="158.533" r="3" />
	<circle cx="185" cy="149.469" r="3" />
	<circle cx="185" cy="148.376" r="3" />
	<circle cx="185" cy="140.92" r="3" />
	<circle cx="185" cy="106.478" r="3" />
	<circle cx="185" cy="136.955" r="3" />
	<circle cx="185" cy="131.645" r="3" />
	<circle cx="185" cy="158.559" r="3" />
	<circle cx="185" cy="135.376" r="3" />
	<circle cx="185" cy="140.856" r="3" />
	<circle cx="185" cy="158.566" r="3" />
	<circle cx="195" cy="151.182" r="3" />
	<circle cx="195" cy="136.473" r="3" />
	<circle cx="195" cy="110.935" r="3" />
	<circle cx="195" cy="158.17" r="3" />
	<circle cx="195" cy="158.155" r="3" />
	<circle cx="195" cy="134.659" r="3" />
	<circle cx="195" cy="158.146" r="3" />
	<circle cx="195" cy="148.913" r="3" />
	<circle cx="195" cy="96.433" r="3" />
	<circle cx="195" cy="158.177" r="3" />
	<circle cx="195" cy="99.747" r="3" />
	<circle cx="195" cy="158.154" r="3" />
	<circle cx="205" cy="154.797" r="3" />
	<circle cx="205" cy="138.287" r="3" />
	<circle cx="205" cy="128.74" r="3" />
	<circle cx="205" cy="129.278" r="3" />
	<circle cx="205" cy="137.159" r="3" />
	<circle cx="205" cy="157.759" r="3" />
	<circle cx="205" cy="140.717" r="3" />
	<circle cx="205" cy="110.303" r="3" />
	<circle cx="205" cy="157.774" r="3" />
	<circle cx="205" cy="157.776" r="3" />
	<circle cx="205" cy="104.285" r="3" />
	<circle cx="205" cy="136.144" r="3" />
	<circle cx="215" cy="149.458" r="3" />
	<circle cx="215" cy="131.901" r="3" />
	<circle cx="215" cy="157.37" r="3" />
	<circle cx="215" cy="140.737" r="3" />
	<circle cx="215" cy="68.643" r="3" />
	<circle cx="215" cy="157.373" r="3" />
	<circle cx="215" cy="157.37" r="3" />
	<circle cx="215" cy="127.749" r="3" />
	<circle cx="215" cy="85.979" r="3" />
	<circle cx="215" cy="157.345" r="3" />
	<circle cx="215" cy="157.376" r="3" />
	<circle cx="215" cy="128.97" r="3" />
	<circle cx="215" cy="110.509" r="3" />
	<circle cx="215" cy="120.861" r="3" />
	<circle cx="215" cy="157.374" r="3" />
	<circle cx="225" cy="144.913" r="3" />
	<circle cx="225" cy="150.911" r="3" />
	<circle cx="225" cy="132.018" r="3" />
	<circle cx="225" cy="115.131" r="3" />
	<circle cx="225" cy="110.224" r="3" />
	<circle cx="225" cy="156.912" r="3" />
	<circle cx="225" cy="101.51" r="3" />
	<circle cx="225" cy="111.934" r="3" />
	<circle cx="225" cy="156.948" r="3" />
	<circle cx="225" cy="141.324" r="3" />
	<circle cx="225" cy="113.431" r="3" />
	<circle cx="225" cy="156.951" r="3" />
	<circle cx="225" cy="156.87" r="3" />
	<circle cx="225" cy="136.072" r="3" />
	<circle cx="225" cy="138.473" r="3" />
	<circle cx="225" cy="132.504" r="3" />
	<circle cx="235" cy="148.045" r="3" />
	<circle cx="235" cy="156.555" r="3" />
	<circle cx="235" cy="156.575" r="3" />
	<circle cx="235" cy="123.595" r="3" />
	<circle cx="235" cy="30.574" r="3" />
	<circle cx="235" cy="132.356" r="3" />
	<circle cx="235" cy="104.237" r="3" />
	<circle cx="235" cy="156.58" r="3" />
	<circle cx="235" cy="116.388" r="3" />
	<circle cx="235" cy="88.3" r="3" />
	<circle cx="235" cy="156.596" r="3" />
	<circle cx="235" cy="154.751" r="3" />
	<circle cx="235" cy="120.019" r="3" />
	<circle cx="235" cy="81.159" r="3" />
	<circle cx="235" cy="134.825" r="3" />
	<circle cx="245" cy="147.701" r="3" />
	<circle cx="245" cy="115.282" r="3" />
	<circle cx="245" cy="156.166" r="3" />
	<circle cx="245" cy="77.915" r="3" />
	<circle cx="245" cy="81.172" r="3" />
	<circle cx="245" cy="156.173" r="3" />
	<circle cx="245" cy="122.937" r="3" />
	<circle cx="245" cy="94.988" r="3" />
	<circle cx="255" cy="151.968" r="3" />
	<circle cx="255" cy="129.306" r="3" />
	<circle cx="255" cy="155.753" r="3" />
	<circle cx="255" cy="133.254" r="3" />
	<circle cx="255" cy="77.423" r="3" />
	<circle cx="255" cy="112.651" r="3" />
	<circle cx="255" cy="155.799" r="3" />
	<circle cx="255" cy="122.515" r="3" />
	<circle cx="255" cy="155.755" r="3" />
	<circle cx="255" cy="110.357" r="3" />
	<circle cx="255" cy="59.923" r="3" />
	<circle cx="255" cy="128.249" r="3" />
	<circle cx="255" cy="155.695" r="3" />
	<circle cx="255" cy="129.307" r="3" />
	<circle cx="255" cy="122.897" r="3" />
	<circle cx="265" cy="148.753" r="3" />
	<circle cx="265" cy="152.874" r="3" />
	<circle cx="265" cy="115.841" r="3" />
	<circle cx="265" cy="124.502" r="3" />
	<circle cx="265" cy="19.145" r="3" />
	<circle cx="265" cy="57.769" r="3" />
	<circle cx="265" cy="155.404" r="3" />
	<circle cx="265" cy="155.409" r="3" />
	<circle cx="265" cy="136.157" r="3" />
	<circle cx="265" cy="89.901" r="3" />
	<circle cx="265" cy="155.4" r="3" />
	<circle cx="265" cy="155.37" r="3" />
	<circle cx="265" cy="103.257" r="3" />
	<circle cx="265" cy="91.08" r="3" />
	<circle cx="265" cy="93.763" r="3" />
	<circle cx="265" cy="125.408" r="3" />
	<circle cx="275" cy="145.953" r="3" />
	<circle cx="275" cy="152.404" r="3" />
	<circle cx="275" cy="154.986" r="3" />
	<circle cx="275" cy="102.852" r="3" />
	<circle cx="275" cy="154.886" r="3" />
	<circle cx="275" cy="119.576" r="3" />
	<circle cx="275" cy="54.828" r="3" />
	<circle cx="275" cy="107.915" r="3" />
	<circle cx="275" cy="53.179" r="3" />
	<circle cx="275" cy="125.095" r="3" />
	<circle cx="275" cy="99.628" r="3" />
	<circle cx="275" cy="96.405" r="3" />
	<circle cx="275" cy="154.939" r="3" />
	<circle cx="275" cy="154.876" r="3" />
	<circle cx="275" cy="127.936" r="3" />
	<circle cx="275" cy="118.911" r="3" />
	<circle cx="275" cy="34.726" r="3" />
	<circle cx="275" cy="124.419" r="3" /><!-- 
	Generated using the Perl SVG Module V2.36
	by Ronan Oger
	Info: http://www.roitsystems.com/
 -->
</svg>