<?xml version="1.0" encoding="UTF-8" standalone="yes"?>
<!DOCTYPE svg PUBLIC "-//W3C//DTD SVG 1.0//EN" "http://www.w3.org/TR/2001/REC-SVG-20010904/DTD/svg10.dtd">
<svg height="470" width="295" xmlns="http://www.w3.org/2000/svg" xmlns:xlink="http://www.w3.org/1999/xlink">
	<line style="stroke: blue; stroke-width: 1" x1="70" x2="280" y1="450" y2="450" />	<text text-anchor="end" x="70" y="450">0.00
	</text>
	<line style="stroke: blue; stroke-width: 1" x1="70" x2="280" y1="400" y2="400" />	<text text-anchor="end" x="70" y="400">1.00
	</text>
	<line style="stroke: blue; stroke-width: 1" x1="70" x2="280" y1="350" y2="350" />	<text text-anchor="end" x="70" y="350">2.00
	</text>
	<line style="stroke: blue; stroke-width: 1" x1="70" x2="280" y1="300" y2="300" />	<text text-anchor="end" x="70" y="300">3.00
	</text>
	<line style="stroke: blue; stroke-width: 1" x1="70" x2="280" y1="250" y2="250" />	<text text-anchor="end" x="70" y="250">4.00
	</text>
	<line style="stroke: blue; stroke-width: 1" x1="70" x2="280" y1="200" y2="200" />	<text text-anchor="end" x="70" y="200">5.00
	</text>
	<line style="stroke: blue; stroke-width: 1" x1="70" x2="280" y1="150" y2="150" />	<text text-anchor="end" x="70" y="150">6.00
	</text>
	<line style="stroke: blue; stroke-width: 1" x1="70" x2="280" y1="100" y2="100" />	<text text-anchor="end" x="70" y="100">7.00
	</text>
	<line style="stroke: blue; stroke-width: 1" x1="70" x2="280" y1="50" y2="50" />	<text text-anchor="end" x="70" y="50">8.00
	</text>
	<circle cx="75" cy="449.9981" r="3" />
	<circle cx="75" cy="449.99855" r="3" />
	<circle cx="75" cy="449.99915" r="3" />
	<circle cx="75" cy="449.9991" r="3" />
	<circle cx="75" cy="449.99915" r="3" />
	<circle cx="75" cy="449.9991" r="3" />
	<circle cx="75" cy="449.99915" r="3" />
	<circle cx="75" cy="449.99915" r="3" />
	<circle cx="75" cy="449.9991" r="3" />
	<circle cx="75" cy="449.9991" r="3" />
	<circle cx="75" cy="449.9991" r="3" />
	<circle cx="75" cy="449.9991" r="3" />
	<circle cx="75" cy="449.99915" r="3" />
	<circle cx="75" cy="449.9991" r="3" />
	<circle cx="75" cy="449.99925" r="3" />
	<circle cx="75" cy="449.99935" r="3" />
	<circle cx="75" cy="449.9993" r="3" />
	<circle cx="75" cy="449.99935" r="3" />
	<circle cx="75" cy="449.99935" r="3" />
	<circle cx="75" cy="449.9991" r="3" />
	<circle cx="75" cy="449.9991" r="3" />
	<circle cx="85" cy="437.69685" r="3" />
	<circle cx="85" cy="448.68245" r="3" />
	<circle cx="85" cy="448.10235" r="3" />
	<circle cx="85" cy="449.60315" r="3" />
	<circle cx="85" cy="449.6025" r="3" />
	<circle cx="85" cy="448.0061" r="3" />
	<circle cx="85" cy="448.0329" r="3" />
	<circle cx="85" cy="443.66315" r="3" />
	<circle cx="85" cy="444.9386" r="3" />
	<circle cx="85" cy="449.60295" r="3" />
	<circle cx="85" cy="449.60225" r="3" />
	<circle cx="85" cy="449.58485" r="3" />
	<circle cx="85" cy="448.1802" r="3" />
	<circle cx="85" cy="445.9116" r="3" />
	<circle cx="85" cy="444.01905" r="3" />
	<circle cx="85" cy="445.36055" r="3" />
	<circle cx="85" cy="447.60765" r="3" />
	<circle cx="85" cy="449.60455" r="3" />
	<circle cx="85" cy="449.6035" r="3" />
	<circle cx="85" cy="449.6039" r="3" />
	<circle cx="85" cy="449.603" r="3" />
	<circle cx="85" cy="449.60295" r="3" />
	<circle cx="85" cy="447.6239" r="3" />
	<circle cx="85" cy="445.5474" r="3" />
	<circle cx="95" cy="436.05445" r="3" />
	<circle cx="95" cy="448.8914" r="3" />
	<circle cx="95" cy="449.21085" r="3" />
	<circle cx="95" cy="449.1878" r="3" />
	<circle cx="95" cy="443.7909" r="3" />
	<circle cx="95" cy="433.2573" r="3" />
	<circle cx="95" cy="440.72795" r="3" />
	<circle cx="95" cy="449.1858" r="3" />
	<circle cx="95" cy="449.1908" r="3" />
	<circle cx="95" cy="448.96005" r="3" />
	<circle cx="95" cy="442.06385" r="3" />
	<circle cx="95" cy="417.22105" r="3" />
	<circle cx="95" cy="442.04675" r="3" />
	<circle cx="105" cy="434.08375" r="3" />
	<circle cx="105" cy="448.38205" r="3" />
	<circle cx="105" cy="448.82495" r="3" />
	<circle cx="105" cy="448.8245" r="3" />
	<circle cx="105" cy="448.79685" r="3" />
	<circle cx="105" cy="448.4736" r="3" />
	<circle cx="105" cy="448.45705" r="3" />
	<circle cx="105" cy="448.7113" r="3" />
	<circle cx="105" cy="423.34895" r="3" />
	<circle cx="105" cy="385.8921" r="3" />
	<circle cx="105" cy="448.796" r="3" />
	<circle cx="105" cy="448.7881" r="3" />
	<circle cx="105" cy="448.8197" r="3" />
	<circle cx="105" cy="448.82055" r="3" />
	<circle cx="105" cy="435.31135" r="3" />
	<circle cx="105" cy="400.00105" r="3" />
	<circle cx="105" cy="448.82285" r="3" />
	<circle cx="105" cy="448.82375" r="3" />
	<circle cx="105" cy="448.6129" r="3" />
	<circle cx="105" cy="438.90415" r="3" />
	<circle cx="105" cy="404.6394" r="3" />
	<circle cx="105" cy="428.25795" r="3" />
	<circle cx="115" cy="419.94925" r="3" />
	<circle cx="115" cy="447.9292" r="3" />
	<circle cx="115" cy="447.9445" r="3" />
	<circle cx="115" cy="448.3929" r="3" />
	<circle cx="115" cy="424.0091" r="3" />
	<circle cx="115" cy="373.05525" r="3" />
	<circle cx="115" cy="447.9355" r="3" />
	<circle cx="115" cy="448.1852" r="3" />
	<circle cx="115" cy="433.5193" r="3" />
	<circle cx="115" cy="342.12385" r="3" />
	<circle cx="115" cy="448.3938" r="3" />
	<circle cx="115" cy="447.99475" r="3" />
	<circle cx="115" cy="424.67105" r="3" />
	<circle cx="115" cy="342.9545" r="3" />
	<circle cx="125" cy="433.0582" r="3" />
	<circle cx="125" cy="447.98995" r="3" />
	<circle cx="125" cy="447.98645" r="3" />
	<circle cx="125" cy="378.2466" r="3" />
	<circle cx="125" cy="321.7562" r="3" />
	<circle cx="125" cy="411.55275" r="3" />
	<circle cx="135" cy="431.78795" r="3" />
	<circle cx="135" cy="447.57045" r="3" />
	<circle cx="135" cy="413.1588" r="3" />
	<circle cx="135" cy="238.2078" r="3" />
	<circle cx="135" cy="285.52875" r="3" />
	<circle cx="135" cy="397.09305" r="3" />
	<circle cx="135" cy="401.23065" r="3" />
	<circle cx="135" cy="447.58505" r="3" />
	<circle cx="135" cy="410.82575" r="3" />
	<circle cx="135" cy="447.61495" r="3" />
	<circle cx="135" cy="411.9108" r="3" />
	<circle cx="135" cy="319.053" r="3" />
	<circle cx="135" cy="447.58445" r="3" />
	<circle cx="145" cy="430.6318" r="3" />
	<circle cx="145" cy="445.7957" r="3" />
	<circle cx="145" cy="447.1794" r="3" />
	<circle cx="145" cy="447.11105" r="3" />
	<circle cx="145" cy="398.34895" r="3" />
	<circle cx="145" cy="254.91205" r="3" />
	<circle cx="145" cy="358.3656" r="3" />
	<circle cx="155" cy="418.33425" r="3" />
	<circle cx="155" cy="312.74285" r="3" />
	<circle cx="155" cy="19.60375" r="3" />
	<circle cx="155" cy="238.71285" r="3" /><!-- 
	Generated using the Perl SVG Module V2.36
	by Ronan Oger
	Info: http://www.roitsystems.com/
 -->
</svg>