<?xml version="1.0" encoding="UTF-8" standalone="yes"?>
<!DOCTYPE svg PUBLIC "-//W3C//DTD SVG 1.0//EN" "http://www.w3.org/TR/2001/REC-SVG-20010904/DTD/svg10.dtd">
<svg height="129" width="295" xmlns="http://www.w3.org/2000/svg" xmlns:xlink="http://www.w3.org/1999/xlink">
	<line style="stroke: blue; stroke-width: 1" x1="70" x2="280" y1="109" y2="109" />	<text text-anchor="end" x="70" y="109">0.00
	</text>
	<line style="stroke: blue; stroke-width: 1" x1="70" x2="280" y1="59" y2="59" />	<text text-anchor="end" x="70" y="59">0.02
	</text>
	<circle cx="75" cy="108.905" r="3" />
	<circle cx="75" cy="108.955" r="3" />
	<circle cx="75" cy="108.9625" r="3" />
	<circle cx="75" cy="108.9675" r="3" />
	<circle cx="75" cy="108.9575" r="3" />
	<circle cx="75" cy="108.9575" r="3" />
	<circle cx="75" cy="108.9125" r="3" />
	<circle cx="75" cy="108.955" r="3" />
	<circle cx="75" cy="108.96" r="3" />
	<circle cx="75" cy="108.965" r="3" />
	<circle cx="75" cy="108.965" r="3" />
	<circle cx="75" cy="108.955" r="3" />
	<circle cx="75" cy="108.94" r="3" />
	<circle cx="75" cy="108.96" r="3" />
	<circle cx="75" cy="108.955" r="3" />
	<circle cx="75" cy="108.955" r="3" />
	<circle cx="75" cy="108.955" r="3" />
	<circle cx="75" cy="108.95" r="3" />
	<circle cx="75" cy="108.965" r="3" />
	<circle cx="75" cy="108.9525" r="3" />
	<circle cx="75" cy="108.9525" r="3" />
	<circle cx="85" cy="107.4425" r="3" />
	<circle cx="85" cy="108.1375" r="3" />
	<circle cx="85" cy="108.18" r="3" />
	<circle cx="85" cy="107.7475" r="3" />
	<circle cx="85" cy="108.275" r="3" />
	<circle cx="85" cy="108.265" r="3" />
	<circle cx="85" cy="108.1975" r="3" />
	<circle cx="85" cy="108.1175" r="3" />
	<circle cx="85" cy="108.525" r="3" />
	<circle cx="85" cy="107.8575" r="3" />
	<circle cx="85" cy="107.2925" r="3" />
	<circle cx="85" cy="107.3475" r="3" />
	<circle cx="85" cy="107.465" r="3" />
	<circle cx="85" cy="107.97" r="3" />
	<circle cx="85" cy="108.0675" r="3" />
	<circle cx="85" cy="108.3025" r="3" />
	<circle cx="85" cy="108.4975" r="3" />
	<circle cx="85" cy="108.5275" r="3" />
	<circle cx="85" cy="101.9125" r="3" />
	<circle cx="95" cy="106.895" r="3" />
	<circle cx="95" cy="106.6175" r="3" />
	<circle cx="95" cy="106.8275" r="3" />
	<circle cx="95" cy="108.1025" r="3" />
	<circle cx="95" cy="108.09" r="3" />
	<circle cx="95" cy="108.105" r="3" />
	<circle cx="95" cy="107.1175" r="3" />
	<circle cx="95" cy="107.3225" r="3" />
	<circle cx="95" cy="108.105" r="3" />
	<circle cx="95" cy="108.0975" r="3" />
	<circle cx="95" cy="105.7075" r="3" />
	<circle cx="95" cy="101.785" r="3" />
	<circle cx="95" cy="107.0625" r="3" />
	<circle cx="95" cy="107.1575" r="3" />
	<circle cx="95" cy="107.7325" r="3" />
	<circle cx="95" cy="106.0775" r="3" />
	<circle cx="95" cy="105.615" r="3" />
	<circle cx="95" cy="108.1075" r="3" />
	<circle cx="95" cy="108.0975" r="3" />
	<circle cx="95" cy="107.6975" r="3" />
	<circle cx="95" cy="107.585" r="3" />
	<circle cx="95" cy="106.3025" r="3" />
	<circle cx="95" cy="105.7825" r="3" />
	<circle cx="95" cy="106.9525" r="3" />
	<circle cx="95" cy="107.5" r="3" />
	<circle cx="95" cy="103.2975" r="3" />
	<circle cx="105" cy="106.37" r="3" />
	<circle cx="105" cy="105.67" r="3" />
	<circle cx="105" cy="107.615" r="3" />
	<circle cx="105" cy="106.3275" r="3" />
	<circle cx="105" cy="106.6225" r="3" />
	<circle cx="105" cy="106.625" r="3" />
	<circle cx="105" cy="101.5125" r="3" />
	<circle cx="105" cy="105.7775" r="3" />
	<circle cx="105" cy="105.8925" r="3" />
	<circle cx="105" cy="100.925" r="3" />
	<circle cx="105" cy="106.3175" r="3" />
	<circle cx="105" cy="107.1875" r="3" />
	<circle cx="105" cy="107.7" r="3" />
	<circle cx="105" cy="107.7025" r="3" />
	<circle cx="105" cy="101.79" r="3" />
	<circle cx="105" cy="103.235" r="3" />
	<circle cx="105" cy="106.7725" r="3" />
	<circle cx="105" cy="107.695" r="3" />
	<circle cx="105" cy="107.695" r="3" />
	<circle cx="115" cy="101.6925" r="3" />
	<circle cx="115" cy="99.945" r="3" />
	<circle cx="115" cy="102.8875" r="3" />
	<circle cx="115" cy="106.67" r="3" />
	<circle cx="115" cy="107.2125" r="3" />
	<circle cx="115" cy="107.295" r="3" />
	<circle cx="115" cy="107.3125" r="3" />
	<circle cx="115" cy="101.1125" r="3" />
	<circle cx="115" cy="100.4175" r="3" />
	<circle cx="115" cy="101.97" r="3" />
	<circle cx="115" cy="102.04" r="3" />
	<circle cx="115" cy="105.9325" r="3" />
	<circle cx="115" cy="106.5725" r="3" />
	<circle cx="115" cy="106.65" r="3" />
	<circle cx="125" cy="98.64" r="3" />
	<circle cx="125" cy="99.85" r="3" />
	<circle cx="125" cy="98.27" r="3" />
	<circle cx="125" cy="101.47" r="3" />
	<circle cx="125" cy="101.905" r="3" />
	<circle cx="125" cy="105.9775" r="3" />
	<circle cx="125" cy="106.8025" r="3" />
	<circle cx="125" cy="98.725" r="3" />
	<circle cx="125" cy="100.515" r="3" />
	<circle cx="125" cy="102" r="3" />
	<circle cx="125" cy="106.885" r="3" />
	<circle cx="125" cy="106.89" r="3" />
	<circle cx="125" cy="106.85" r="3" />
	<circle cx="135" cy="97.5825" r="3" />
	<circle cx="135" cy="97.65" r="3" />
	<circle cx="135" cy="96.31" r="3" />
	<circle cx="135" cy="101.2825" r="3" />
	<circle cx="135" cy="106.4875" r="3" />
	<circle cx="135" cy="106.495" r="3" />
	<circle cx="135" cy="100.035" r="3" />
	<circle cx="135" cy="92.4025" r="3" />
	<circle cx="135" cy="100.2425" r="3" />
	<circle cx="135" cy="105.185" r="3" />
	<circle cx="135" cy="106.455" r="3" />
	<circle cx="145" cy="104.09" r="3" />
	<circle cx="145" cy="104.675" r="3" />
	<circle cx="145" cy="106.085" r="3" />
	<circle cx="145" cy="74.705" r="3" />
	<circle cx="145" cy="99.015" r="3" />
	<circle cx="145" cy="106.0625" r="3" />
	<circle cx="145" cy="95.685" r="3" />
	<circle cx="145" cy="95.7075" r="3" />
	<circle cx="145" cy="104.67" r="3" />
	<circle cx="145" cy="106.005" r="3" />
	<circle cx="145" cy="106.0975" r="3" />
	<circle cx="145" cy="97.7575" r="3" />
	<circle cx="145" cy="106.045" r="3" />
	<circle cx="145" cy="100.4075" r="3" />
	<circle cx="145" cy="95.75" r="3" />
	<circle cx="145" cy="96.1525" r="3" />
	<circle cx="155" cy="103.295" r="3" />
	<circle cx="155" cy="104.7725" r="3" />
	<circle cx="155" cy="105.665" r="3" />
	<circle cx="155" cy="105.675" r="3" />
	<circle cx="155" cy="105.675" r="3" />
	<circle cx="155" cy="97.025" r="3" />
	<circle cx="155" cy="99.41" r="3" />
	<circle cx="155" cy="104.395" r="3" />
	<circle cx="155" cy="105.685" r="3" />
	<circle cx="155" cy="97.3225" r="3" />
	<circle cx="155" cy="90.005" r="3" />
	<circle cx="155" cy="98.61" r="3" />
	<circle cx="155" cy="100.0825" r="3" />
	<circle cx="155" cy="105.6725" r="3" />
	<circle cx="155" cy="105.665" r="3" />
	<circle cx="155" cy="94.8275" r="3" />
	<circle cx="155" cy="99.0175" r="3" />
	<circle cx="155" cy="100.4725" r="3" />
	<circle cx="155" cy="105.6925" r="3" />
	<circle cx="155" cy="105.7075" r="3" />
	<circle cx="165" cy="101.8575" r="3" />
	<circle cx="165" cy="101.97" r="3" />
	<circle cx="165" cy="100.535" r="3" />
	<circle cx="165" cy="105.235" r="3" />
	<circle cx="165" cy="87.085" r="3" />
	<circle cx="165" cy="94.37" r="3" />
	<circle cx="165" cy="99.1275" r="3" />
	<circle cx="165" cy="105.265" r="3" />
	<circle cx="165" cy="105.2825" r="3" />
	<circle cx="165" cy="90.14" r="3" />
	<circle cx="165" cy="88.25" r="3" />
	<circle cx="165" cy="98.7275" r="3" />
	<circle cx="165" cy="105.32" r="3" />
	<circle cx="165" cy="105.2375" r="3" />
	<circle cx="165" cy="100.545" r="3" />
	<circle cx="165" cy="100.745" r="3" />
	<circle cx="165" cy="93.45" r="3" />
	<circle cx="175" cy="92.965" r="3" />
	<circle cx="175" cy="103.5775" r="3" />
	<circle cx="175" cy="98.7" r="3" />
	<circle cx="175" cy="104.85" r="3" />
	<circle cx="175" cy="94.4525" r="3" />
	<circle cx="175" cy="77.105" r="3" />
	<circle cx="175" cy="92.8" r="3" />
	<circle cx="175" cy="104.895" r="3" />
	<circle cx="175" cy="90.23" r="3" />
	<circle cx="175" cy="104.895" r="3" />
	<circle cx="175" cy="98.66" r="3" />
	<circle cx="175" cy="98.0675" r="3" />
	<circle cx="175" cy="98.275" r="3" />
	<circle cx="175" cy="88.1575" r="3" />
	<circle cx="175" cy="91.0475" r="3" />
	<circle cx="185" cy="97.6025" r="3" />
	<circle cx="185" cy="94.9475" r="3" />
	<circle cx="185" cy="94.035" r="3" />
	<circle cx="185" cy="104.46" r="3" />
	<circle cx="185" cy="104.355" r="3" />
	<circle cx="185" cy="97.57" r="3" />
	<circle cx="185" cy="87.505" r="3" />
	<circle cx="185" cy="86.385" r="3" />
	<circle cx="185" cy="84.6" r="3" />
	<circle cx="185" cy="97.6025" r="3" />
	<circle cx="185" cy="104.4475" r="3" />
	<circle cx="185" cy="104.455" r="3" />
	<circle cx="185" cy="104.4975" r="3" />
	<circle cx="185" cy="99.2125" r="3" />
	<circle cx="185" cy="93.11" r="3" />
	<circle cx="195" cy="100.4975" r="3" />
	<circle cx="195" cy="81.115" r="3" />
	<circle cx="195" cy="94.59" r="3" />
	<circle cx="195" cy="104.01" r="3" />
	<circle cx="195" cy="93.93" r="3" />
	<circle cx="195" cy="91.705" r="3" />
	<circle cx="195" cy="98.5075" r="3" />
	<circle cx="195" cy="104.0475" r="3" />
	<circle cx="195" cy="86.4375" r="3" />
	<circle cx="195" cy="79.215" r="3" />
	<circle cx="195" cy="92.7325" r="3" />
	<circle cx="195" cy="104.085" r="3" />
	<circle cx="195" cy="104.1025" r="3" />
	<circle cx="205" cy="95.9" r="3" />
	<circle cx="205" cy="93.315" r="3" />
	<circle cx="205" cy="93.44" r="3" />
	<circle cx="205" cy="103.68" r="3" />
	<circle cx="205" cy="103.65" r="3" />
	<circle cx="205" cy="92.525" r="3" />
	<circle cx="205" cy="81.9525" r="3" />
	<circle cx="205" cy="97.1525" r="3" />
	<circle cx="205" cy="103.6975" r="3" />
	<circle cx="205" cy="94.0375" r="3" />
	<circle cx="205" cy="87.5625" r="3" />
	<circle cx="205" cy="82.725" r="3" />
	<circle cx="215" cy="99.73" r="3" />
	<circle cx="215" cy="89.37" r="3" />
	<circle cx="215" cy="103.3025" r="3" />
	<circle cx="215" cy="103.1325" r="3" />
	<circle cx="215" cy="103.295" r="3" />
	<circle cx="215" cy="103.2625" r="3" />
	<circle cx="215" cy="96.28" r="3" />
	<circle cx="215" cy="61.98" r="3" />
	<circle cx="215" cy="85.715" r="3" />
	<circle cx="215" cy="86.61" r="3" />
	<circle cx="215" cy="92.1025" r="3" />
	<circle cx="215" cy="103.2425" r="3" />
	<circle cx="215" cy="103.2325" r="3" />
	<circle cx="225" cy="99.7275" r="3" />
	<circle cx="225" cy="63.56" r="3" />
	<circle cx="225" cy="80.7525" r="3" />
	<circle cx="225" cy="102.885" r="3" />
	<circle cx="225" cy="102.74" r="3" />
	<circle cx="225" cy="86.07" r="3" />
	<circle cx="225" cy="49.235" r="3" />
	<circle cx="225" cy="81.12" r="3" />
	<circle cx="225" cy="102.89" r="3" />
	<circle cx="225" cy="102.8225" r="3" />
	<circle cx="225" cy="102.85" r="3" />
	<circle cx="225" cy="87.2625" r="3" />
	<circle cx="225" cy="88.4975" r="3" />
	<circle cx="235" cy="93.8925" r="3" />
	<circle cx="235" cy="100.4775" r="3" />
	<circle cx="235" cy="102.4525" r="3" />
	<circle cx="235" cy="76.3325" r="3" />
	<circle cx="235" cy="74.28" r="3" />
	<circle cx="235" cy="81.52" r="3" />
	<circle cx="235" cy="102.445" r="3" />
	<circle cx="235" cy="102.3325" r="3" />
	<circle cx="235" cy="78.3075" r="3" />
	<circle cx="235" cy="61.665" r="3" />
	<circle cx="235" cy="81.0125" r="3" />
	<circle cx="235" cy="96.405" r="3" />
	<circle cx="235" cy="100.6275" r="3" />
	<circle cx="235" cy="102.49" r="3" />
	<circle cx="235" cy="95.82" r="3" />
	<circle cx="235" cy="96.28" r="3" />
	<circle cx="235" cy="65.355" r="3" />
	<circle cx="235" cy="65.075" r="3" />
	<circle cx="235" cy="80.695" r="3" />
	<circle cx="235" cy="102.445" r="3" />
	<circle cx="235" cy="102.4775" r="3" />
	<circle cx="235" cy="102.4925" r="3" />
	<circle cx="245" cy="94.415" r="3" />
	<circle cx="245" cy="98.365" r="3" />
	<circle cx="245" cy="102.1025" r="3" />
	<circle cx="245" cy="102.1075" r="3" />
	<circle cx="245" cy="83.7625" r="3" />
	<circle cx="245" cy="62.4925" r="3" />
	<circle cx="245" cy="69.33" r="3" />
	<circle cx="245" cy="95.7275" r="3" />
	<circle cx="245" cy="102.1025" r="3" />
	<circle cx="245" cy="85.3225" r="3" />
	<circle cx="245" cy="102.105" r="3" />
	<circle cx="245" cy="102.08" r="3" />
	<circle cx="245" cy="90.54" r="3" />
	<circle cx="245" cy="67.755" r="3" />
	<circle cx="245" cy="39.6525" r="3" />
	<circle cx="245" cy="77.0775" r="3" />
	<circle cx="245" cy="102.0525" r="3" />
	<circle cx="255" cy="95.4325" r="3" />
	<circle cx="255" cy="101.635" r="3" />
	<circle cx="255" cy="101.6475" r="3" />
	<circle cx="255" cy="81.5325" r="3" />
	<circle cx="255" cy="67.7825" r="3" />
	<circle cx="255" cy="73.0025" r="3" />
	<circle cx="255" cy="101.71" r="3" />
	<circle cx="255" cy="91.19" r="3" />
	<circle cx="255" cy="78.09" r="3" />
	<circle cx="255" cy="75.1175" r="3" />
	<circle cx="255" cy="99.505" r="3" />
	<circle cx="255" cy="101.695" r="3" />
	<circle cx="255" cy="80.935" r="3" />
	<circle cx="255" cy="90.6075" r="3" />
	<circle cx="255" cy="95.9175" r="3" />
	<circle cx="265" cy="93.985" r="3" />
	<circle cx="265" cy="99.055" r="3" />
	<circle cx="265" cy="99.1" r="3" />
	<circle cx="265" cy="83.03" r="3" />
	<circle cx="265" cy="48.5675" r="3" />
	<circle cx="265" cy="45.8125" r="3" />
	<circle cx="265" cy="101.2625" r="3" />
	<circle cx="265" cy="101.2225" r="3" />
	<circle cx="265" cy="82.805" r="3" />
	<circle cx="265" cy="50.1875" r="3" />
	<circle cx="265" cy="39.925" r="3" />
	<circle cx="265" cy="101.2525" r="3" />
	<circle cx="265" cy="88.7825" r="3" />
	<circle cx="265" cy="78.9675" r="3" />
	<circle cx="265" cy="54.8175" r="3" />
	<circle cx="265" cy="26.2325" r="3" />
	<circle cx="265" cy="74.7575" r="3" />
	<circle cx="265" cy="101.2925" r="3" />
	<circle cx="265" cy="90.8575" r="3" />
	<circle cx="275" cy="98.7925" r="3" />
	<circle cx="275" cy="100.8725" r="3" />
	<circle cx="275" cy="100.8575" r="3" />
	<circle cx="275" cy="100.8625" r="3" />
	<circle cx="275" cy="65.725" r="3" />
	<circle cx="275" cy="19.4" r="3" />
	<circle cx="275" cy="48.5375" r="3" />
	<circle cx="275" cy="92.8325" r="3" />
	<circle cx="275" cy="100.91" r="3" />
	<circle cx="275" cy="80.9" r="3" />
	<circle cx="275" cy="79.3725" r="3" />
	<circle cx="275" cy="64.8175" r="3" />
	<circle cx="275" cy="52.0925" r="3" />
	<circle cx="275" cy="62.32" r="3" />
	<circle cx="275" cy="84.5725" r="3" />
	<circle cx="275" cy="95.8275" r="3" />
	<circle cx="275" cy="79.765" r="3" />
	<circle cx="275" cy="93.56" r="3" />
	<circle cx="275" cy="100.88" r="3" />
	<circle cx="275" cy="100.87" r="3" /><!-- 
	Generated using the Perl SVG Module V2.36
	by Ronan Oger
	Info: http://www.roitsystems.com/
 -->
</svg>