<?xml version="1.0" encoding="UTF-8" standalone="yes"?>
<!DOCTYPE svg PUBLIC "-//W3C//DTD SVG 1.0//EN" "http://www.w3.org/TR/2001/REC-SVG-20010904/DTD/svg10.dtd">
<svg height="135" width="295" xmlns="http://www.w3.org/2000/svg" xmlns:xlink="http://www.w3.org/1999/xlink">
	<line style="stroke: blue; stroke-width: 1" x1="70" x2="280" y1="115" y2="115" />	<text text-anchor="end" x="70" y="115">0.00
	</text>
	<line style="stroke: blue; stroke-width: 1" x1="70" x2="280" y1="65" y2="65" />	<text text-anchor="end" x="70" y="65">0.01
	</text>
	<circle cx="75" cy="114.8" r="3" />
	<circle cx="75" cy="114.835" r="3" />
	<circle cx="75" cy="114.885" r="3" />
	<circle cx="75" cy="114.895" r="3" />
	<circle cx="75" cy="114.91" r="3" />
	<circle cx="75" cy="114.88" r="3" />
	<circle cx="75" cy="114.86" r="3" />
	<circle cx="75" cy="114.92" r="3" />
	<circle cx="75" cy="114.93" r="3" />
	<circle cx="75" cy="114.93" r="3" />
	<circle cx="75" cy="114.91" r="3" />
	<circle cx="75" cy="114.91" r="3" />
	<circle cx="75" cy="114.91" r="3" />
	<circle cx="75" cy="114.91" r="3" />
	<circle cx="75" cy="114.915" r="3" />
	<circle cx="75" cy="114.92" r="3" />
	<circle cx="75" cy="114.93" r="3" />
	<circle cx="75" cy="114.91" r="3" />
	<circle cx="75" cy="114.905" r="3" />
	<circle cx="75" cy="114.91" r="3" />
	<circle cx="75" cy="114.92" r="3" />
	<circle cx="75" cy="114.93" r="3" />
	<circle cx="75" cy="114.915" r="3" />
	<circle cx="75" cy="114.89" r="3" />
	<circle cx="85" cy="110.905" r="3" />
	<circle cx="85" cy="113.99" r="3" />
	<circle cx="85" cy="113.895" r="3" />
	<circle cx="85" cy="113.84" r="3" />
	<circle cx="85" cy="114.01" r="3" />
	<circle cx="85" cy="114.31" r="3" />
	<circle cx="85" cy="114.49" r="3" />
	<circle cx="85" cy="114.48" r="3" />
	<circle cx="85" cy="114.465" r="3" />
	<circle cx="85" cy="114.45" r="3" />
	<circle cx="85" cy="113.86" r="3" />
	<circle cx="85" cy="114.15" r="3" />
	<circle cx="85" cy="114.12" r="3" />
	<circle cx="85" cy="114.47" r="3" />
	<circle cx="95" cy="111.455" r="3" />
	<circle cx="95" cy="112.605" r="3" />
	<circle cx="95" cy="113.24" r="3" />
	<circle cx="95" cy="113.505" r="3" />
	<circle cx="95" cy="114.065" r="3" />
	<circle cx="95" cy="114.065" r="3" />
	<circle cx="95" cy="113.035" r="3" />
	<circle cx="95" cy="113.365" r="3" />
	<circle cx="95" cy="107.755" r="3" />
	<circle cx="105" cy="110.135" r="3" />
	<circle cx="105" cy="113.295" r="3" />
	<circle cx="105" cy="113.655" r="3" />
	<circle cx="105" cy="113.6" r="3" />
	<circle cx="105" cy="113.64" r="3" />
	<circle cx="105" cy="111.195" r="3" />
	<circle cx="105" cy="112.04" r="3" />
	<circle cx="105" cy="112.275" r="3" />
	<circle cx="105" cy="113.115" r="3" />
	<circle cx="105" cy="113.55" r="3" />
	<circle cx="105" cy="113.325" r="3" />
	<circle cx="105" cy="103.96" r="3" />
	<circle cx="115" cy="109.83" r="3" />
	<circle cx="115" cy="112.475" r="3" />
	<circle cx="115" cy="113.225" r="3" />
	<circle cx="115" cy="110.005" r="3" />
	<circle cx="115" cy="107.11" r="3" />
	<circle cx="115" cy="113.215" r="3" />
	<circle cx="115" cy="111.855" r="3" />
	<circle cx="115" cy="110.925" r="3" />
	<circle cx="115" cy="113.24" r="3" />
	<circle cx="115" cy="113.11" r="3" />
	<circle cx="115" cy="108.6" r="3" />
	<circle cx="115" cy="108.465" r="3" />
	<circle cx="115" cy="110.185" r="3" />
	<circle cx="115" cy="113.21" r="3" />
	<circle cx="115" cy="113.21" r="3" />
	<circle cx="115" cy="112.815" r="3" />
	<circle cx="115" cy="112.825" r="3" />
	<circle cx="115" cy="111.79" r="3" />
	<circle cx="115" cy="109.545" r="3" />
	<circle cx="115" cy="112.97" r="3" />
	<circle cx="115" cy="108.455" r="3" />
	<circle cx="115" cy="110.86" r="3" />
	<circle cx="115" cy="112.9" r="3" />
	<circle cx="115" cy="112.74" r="3" />
	<circle cx="115" cy="113.08" r="3" />
	<circle cx="125" cy="111.01" r="3" />
	<circle cx="125" cy="112.265" r="3" />
	<circle cx="125" cy="112.805" r="3" />
	<circle cx="125" cy="112.815" r="3" />
	<circle cx="125" cy="112.745" r="3" />
	<circle cx="125" cy="110.23" r="3" />
	<circle cx="125" cy="109.71" r="3" />
	<circle cx="125" cy="108.515" r="3" />
	<circle cx="125" cy="110.36" r="3" />
	<circle cx="125" cy="111.31" r="3" />
	<circle cx="125" cy="110.515" r="3" />
	<circle cx="125" cy="112.825" r="3" />
	<circle cx="125" cy="112.825" r="3" />
	<circle cx="125" cy="109.51" r="3" />
	<circle cx="125" cy="108.375" r="3" />
	<circle cx="125" cy="101.46" r="3" />
	<circle cx="135" cy="109.37" r="3" />
	<circle cx="135" cy="108.915" r="3" />
	<circle cx="135" cy="112.365" r="3" />
	<circle cx="135" cy="110.935" r="3" />
	<circle cx="135" cy="110.96" r="3" />
	<circle cx="135" cy="111.435" r="3" />
	<circle cx="135" cy="107.685" r="3" />
	<circle cx="135" cy="106.635" r="3" />
	<circle cx="135" cy="100.31" r="3" />
	<circle cx="135" cy="106.905" r="3" />
	<circle cx="135" cy="109.775" r="3" />
	<circle cx="135" cy="111.3" r="3" />
	<circle cx="135" cy="111.41" r="3" />
	<circle cx="135" cy="112.36" r="3" />
	<circle cx="145" cy="108.645" r="3" />
	<circle cx="145" cy="105.355" r="3" />
	<circle cx="145" cy="107.005" r="3" />
	<circle cx="145" cy="111.99" r="3" />
	<circle cx="145" cy="108.835" r="3" />
	<circle cx="145" cy="109.585" r="3" />
	<circle cx="145" cy="112" r="3" />
	<circle cx="145" cy="106.785" r="3" />
	<circle cx="145" cy="98.96" r="3" />
	<circle cx="145" cy="97.81" r="3" />
	<circle cx="145" cy="108.91" r="3" />
	<circle cx="145" cy="111.915" r="3" />
	<circle cx="145" cy="111.99" r="3" />
	<circle cx="145" cy="111.99" r="3" />
	<circle cx="155" cy="108.595" r="3" />
	<circle cx="155" cy="110.665" r="3" />
	<circle cx="155" cy="111.52" r="3" />
	<circle cx="155" cy="107.28" r="3" />
	<circle cx="155" cy="98.62" r="3" />
	<circle cx="155" cy="98.065" r="3" />
	<circle cx="155" cy="96.93" r="3" />
	<circle cx="155" cy="108.885" r="3" />
	<circle cx="155" cy="111.57" r="3" />
	<circle cx="155" cy="111.59" r="3" />
	<circle cx="155" cy="108.825" r="3" />
	<circle cx="155" cy="94.72" r="3" />
	<circle cx="155" cy="100.01" r="3" />
	<circle cx="155" cy="105.6" r="3" />
	<circle cx="155" cy="100.9" r="3" />
	<circle cx="155" cy="109.71" r="3" />
	<circle cx="155" cy="111.53" r="3" />
	<circle cx="155" cy="111.575" r="3" />
	<circle cx="165" cy="103.075" r="3" />
	<circle cx="165" cy="110.065" r="3" />
	<circle cx="165" cy="110.97" r="3" />
	<circle cx="165" cy="111.185" r="3" />
	<circle cx="165" cy="97.53" r="3" />
	<circle cx="165" cy="97.815" r="3" />
	<circle cx="165" cy="100.615" r="3" />
	<circle cx="165" cy="107.61" r="3" />
	<circle cx="165" cy="111.195" r="3" />
	<circle cx="165" cy="111.205" r="3" />
	<circle cx="165" cy="102.255" r="3" />
	<circle cx="165" cy="96.59" r="3" />
	<circle cx="165" cy="111.085" r="3" />
	<circle cx="165" cy="111.115" r="3" />
	<circle cx="175" cy="106.885" r="3" />
	<circle cx="175" cy="109.525" r="3" />
	<circle cx="175" cy="109.68" r="3" />
	<circle cx="175" cy="108.155" r="3" />
	<circle cx="175" cy="97.885" r="3" />
	<circle cx="175" cy="110.76" r="3" />
	<circle cx="175" cy="110.78" r="3" />
	<circle cx="175" cy="110.555" r="3" />
	<circle cx="175" cy="110.375" r="3" />
	<circle cx="175" cy="94.855" r="3" />
	<circle cx="175" cy="93.995" r="3" />
	<circle cx="175" cy="99.81" r="3" />
	<circle cx="175" cy="108.92" r="3" />
	<circle cx="175" cy="110.735" r="3" />
	<circle cx="175" cy="110.78" r="3" />
	<circle cx="185" cy="105.5" r="3" />
	<circle cx="185" cy="108.885" r="3" />
	<circle cx="185" cy="110.385" r="3" />
	<circle cx="185" cy="94.805" r="3" />
	<circle cx="185" cy="93.73" r="3" />
	<circle cx="185" cy="99.66" r="3" />
	<circle cx="185" cy="107.735" r="3" />
	<circle cx="185" cy="110.035" r="3" />
	<circle cx="185" cy="110.37" r="3" />
	<circle cx="185" cy="95.255" r="3" />
	<circle cx="185" cy="95.385" r="3" />
	<circle cx="185" cy="98.1" r="3" />
	<circle cx="185" cy="99.415" r="3" />
	<circle cx="185" cy="107.255" r="3" />
	<circle cx="185" cy="108.585" r="3" />
	<circle cx="185" cy="110.36" r="3" />
	<circle cx="185" cy="110.41" r="3" />
	<circle cx="195" cy="106.805" r="3" />
	<circle cx="195" cy="97.87" r="3" />
	<circle cx="195" cy="83.54" r="3" />
	<circle cx="195" cy="96.615" r="3" />
	<circle cx="195" cy="109.885" r="3" />
	<circle cx="195" cy="106.85" r="3" />
	<circle cx="195" cy="108.21" r="3" />
	<circle cx="195" cy="104.255" r="3" />
	<circle cx="195" cy="94.1" r="3" />
	<circle cx="195" cy="80.195" r="3" />
	<circle cx="195" cy="80.08" r="3" />
	<circle cx="195" cy="98.585" r="3" />
	<circle cx="195" cy="108.28" r="3" />
	<circle cx="195" cy="108.585" r="3" />
	<circle cx="195" cy="99.13" r="3" />
	<circle cx="195" cy="98.35" r="3" />
	<circle cx="195" cy="97.115" r="3" />
	<circle cx="195" cy="82.29" r="3" />
	<circle cx="195" cy="81.995" r="3" />
	<circle cx="195" cy="109.975" r="3" />
	<circle cx="195" cy="99.175" r="3" />
	<circle cx="195" cy="107.86" r="3" />
	<circle cx="205" cy="19.375" r="3" />
	<circle cx="205" cy="88.165" r="3" />
	<circle cx="205" cy="94.23" r="3" />
	<circle cx="205" cy="106.27" r="3" />
	<circle cx="205" cy="98.165" r="3" />
	<circle cx="205" cy="80.66" r="3" />
	<circle cx="205" cy="95.275" r="3" />
	<circle cx="205" cy="109.565" r="3" />
	<circle cx="205" cy="109.57" r="3" />
	<circle cx="205" cy="106.685" r="3" />
	<circle cx="205" cy="107.44" r="3" />
	<circle cx="205" cy="85.195" r="3" />
	<circle cx="205" cy="109.565" r="3" />
	<circle cx="205" cy="106.535" r="3" />
	<circle cx="205" cy="97.74" r="3" />
	<circle cx="205" cy="107.61" r="3" />
	<circle cx="205" cy="95.47" r="3" />
	<circle cx="205" cy="95.47" r="3" />
	<circle cx="205" cy="98.535" r="3" />
	<circle cx="215" cy="105.635" r="3" />
	<circle cx="215" cy="89.04" r="3" />
	<circle cx="215" cy="90.455" r="3" />
	<circle cx="215" cy="86.73" r="3" />
	<circle cx="215" cy="109.17" r="3" />
	<circle cx="215" cy="109.145" r="3" />
	<circle cx="215" cy="106.045" r="3" />
	<circle cx="215" cy="98.32" r="3" />
	<circle cx="215" cy="97.09" r="3" />
	<circle cx="215" cy="92.73" r="3" />
	<circle cx="215" cy="109.16" r="3" />
	<circle cx="215" cy="107.555" r="3" />
	<circle cx="215" cy="106.655" r="3" />
	<circle cx="215" cy="101.125" r="3" />
	<circle cx="225" cy="105.7" r="3" />
	<circle cx="225" cy="106.83" r="3" />
	<circle cx="225" cy="106.405" r="3" />
	<circle cx="225" cy="80.985" r="3" />
	<circle cx="225" cy="80.44" r="3" />
	<circle cx="225" cy="108.52" r="3" />
	<circle cx="225" cy="108.695" r="3" />
	<circle cx="225" cy="105.705" r="3" />
	<circle cx="225" cy="99.185" r="3" />
	<circle cx="225" cy="96.935" r="3" />
	<circle cx="225" cy="79.425" r="3" />
	<circle cx="225" cy="94.925" r="3" />
	<circle cx="225" cy="108.67" r="3" />
	<circle cx="225" cy="108.78" r="3" />
	<circle cx="225" cy="94.16" r="3" />
	<circle cx="225" cy="95.335" r="3" />
	<circle cx="225" cy="91.785" r="3" />
	<circle cx="225" cy="91.04" r="3" />
	<circle cx="225" cy="93.705" r="3" />
	<circle cx="225" cy="93.7" r="3" />
	<circle cx="235" cy="102.575" r="3" />
	<circle cx="235" cy="88.09" r="3" />
	<circle cx="235" cy="84.635" r="3" />
	<circle cx="235" cy="98.17" r="3" />
	<circle cx="235" cy="108.37" r="3" />
	<circle cx="235" cy="108.38" r="3" />
	<circle cx="235" cy="96.835" r="3" />
	<circle cx="235" cy="94.405" r="3" />
	<circle cx="235" cy="99.4" r="3" />
	<circle cx="235" cy="108.29" r="3" />
	<circle cx="235" cy="102.755" r="3" />
	<circle cx="235" cy="91.795" r="3" />
	<circle cx="235" cy="89.12" r="3" />
	<circle cx="235" cy="108.29" r="3" />
	<circle cx="235" cy="108.36" r="3" />
	<circle cx="235" cy="96.275" r="3" />
	<circle cx="235" cy="96.365" r="3" />
	<circle cx="235" cy="99.31" r="3" />
	<circle cx="245" cy="103.595" r="3" />
	<circle cx="245" cy="91.125" r="3" />
	<circle cx="245" cy="77.175" r="3" />
	<circle cx="245" cy="80.225" r="3" />
	<circle cx="245" cy="78.485" r="3" />
	<circle cx="245" cy="107.855" r="3" />
	<circle cx="245" cy="107.855" r="3" />
	<circle cx="245" cy="107.825" r="3" />
	<circle cx="245" cy="87.045" r="3" />
	<circle cx="245" cy="94.28" r="3" />
	<circle cx="245" cy="90.32" r="3" />
	<circle cx="245" cy="98.585" r="3" />
	<circle cx="245" cy="81.675" r="3" />
	<circle cx="245" cy="87.03" r="3" />
	<circle cx="245" cy="105.3" r="3" />
	<circle cx="245" cy="96.355" r="3" />
	<circle cx="245" cy="88.145" r="3" />
	<circle cx="245" cy="76.405" r="3" />
	<circle cx="245" cy="107.715" r="3" />
	<circle cx="245" cy="93.785" r="3" />
	<circle cx="245" cy="97.15" r="3" />
	<circle cx="245" cy="107.87" r="3" />
	<circle cx="255" cy="102.6" r="3" />
	<circle cx="255" cy="96.77" r="3" />
	<circle cx="255" cy="93.335" r="3" />
	<circle cx="255" cy="107.465" r="3" />
	<circle cx="255" cy="107.43" r="3" />
	<circle cx="255" cy="107.385" r="3" />
	<circle cx="255" cy="97.975" r="3" />
	<circle cx="255" cy="94.57" r="3" />
	<circle cx="255" cy="95.715" r="3" />
	<circle cx="255" cy="73.24" r="3" />
	<circle cx="255" cy="107.475" r="3" />
	<circle cx="255" cy="107.56" r="3" />
	<circle cx="255" cy="90.735" r="3" />
	<circle cx="255" cy="107.53" r="3" />
	<circle cx="255" cy="107.46" r="3" />
	<circle cx="255" cy="96.3" r="3" />
	<circle cx="255" cy="88.04" r="3" />
	<circle cx="255" cy="57.275" r="3" />
	<circle cx="255" cy="89" r="3" />
	<circle cx="255" cy="105.445" r="3" />
	<circle cx="265" cy="101.785" r="3" />
	<circle cx="265" cy="76.64" r="3" />
	<circle cx="265" cy="76.45" r="3" />
	<circle cx="265" cy="71.855" r="3" />
	<circle cx="265" cy="94.275" r="3" />
	<circle cx="265" cy="107.21" r="3" />
	<circle cx="265" cy="107.105" r="3" />
	<circle cx="265" cy="95.215" r="3" />
	<circle cx="265" cy="93.805" r="3" />
	<circle cx="265" cy="87.38" r="3" />
	<circle cx="265" cy="107.14" r="3" />
	<circle cx="265" cy="95.315" r="3" />
	<circle cx="265" cy="93.54" r="3" />
	<circle cx="265" cy="95.595" r="3" />
	<circle cx="265" cy="92.985" r="3" />
	<circle cx="265" cy="95.83" r="3" />
	<circle cx="275" cy="101.41" r="3" />
	<circle cx="275" cy="104.38" r="3" />
	<circle cx="275" cy="106.755" r="3" />
	<circle cx="275" cy="96.455" r="3" />
	<circle cx="275" cy="88.885" r="3" />
	<circle cx="275" cy="106.675" r="3" />
	<circle cx="275" cy="106.64" r="3" />
	<circle cx="275" cy="93.63" r="3" />
	<circle cx="275" cy="94.405" r="3" />
	<circle cx="275" cy="53.275" r="3" />
	<circle cx="275" cy="76.52" r="3" />
	<circle cx="275" cy="93.105" r="3" />
	<circle cx="275" cy="106.68" r="3" />
	<circle cx="275" cy="73.955" r="3" />
	<circle cx="275" cy="85.835" r="3" />
	<circle cx="275" cy="92.965" r="3" />
	<circle cx="275" cy="93.87" r="3" />
	<circle cx="275" cy="96.465" r="3" />
	<circle cx="275" cy="106.6" r="3" /><!-- 
	Generated using the Perl SVG Module V2.36
	by Ronan Oger
	Info: http://www.roitsystems.com/
 -->
</svg>