<?xml version="1.0" encoding="UTF-8" standalone="yes"?>
<!DOCTYPE svg PUBLIC "-//W3C//DTD SVG 1.0//EN" "http://www.w3.org/TR/2001/REC-SVG-20010904/DTD/svg10.dtd">
<svg height="294" width="295" xmlns="http://www.w3.org/2000/svg" xmlns:xlink="http://www.w3.org/1999/xlink">
	<line style="stroke: blue; stroke-width: 1" x1="70" x2="280" y1="274" y2="274" />	<text text-anchor="end" x="70" y="274">0.00
	</text>
	<line style="stroke: blue; stroke-width: 1" x1="70" x2="280" y1="224" y2="224" />	<text text-anchor="end" x="70" y="224">0.10
	</text>
	<line style="stroke: blue; stroke-width: 1" x1="70" x2="280" y1="174" y2="174" />	<text text-anchor="end" x="70" y="174">0.20
	</text>
	<line style="stroke: blue; stroke-width: 1" x1="70" x2="280" y1="124" y2="124" />	<text text-anchor="end" x="70" y="124">0.30
	</text>
	<line style="stroke: blue; stroke-width: 1" x1="70" x2="280" y1="74" y2="74" />	<text text-anchor="end" x="70" y="74">0.40
	</text>
	<line style="stroke: blue; stroke-width: 1" x1="70" x2="280" y1="24" y2="24" />	<text text-anchor="end" x="70" y="24">0.50
	</text>
	<circle cx="75" cy="273.9795" r="3" />
	<circle cx="75" cy="273.985" r="3" />
	<circle cx="75" cy="273.9895" r="3" />
	<circle cx="75" cy="273.993" r="3" />
	<circle cx="75" cy="273.993" r="3" />
	<circle cx="75" cy="273.9935" r="3" />
	<circle cx="75" cy="273.9915" r="3" />
	<circle cx="75" cy="273.991" r="3" />
	<circle cx="75" cy="273.991" r="3" />
	<circle cx="75" cy="273.991" r="3" />
	<circle cx="75" cy="273.9915" r="3" />
	<circle cx="75" cy="273.991" r="3" />
	<circle cx="75" cy="273.991" r="3" />
	<circle cx="75" cy="273.991" r="3" />
	<circle cx="75" cy="273.991" r="3" />
	<circle cx="75" cy="273.991" r="3" />
	<circle cx="75" cy="273.9925" r="3" />
	<circle cx="75" cy="273.9935" r="3" />
	<circle cx="75" cy="273.9915" r="3" />
	<circle cx="75" cy="273.9915" r="3" />
	<circle cx="75" cy="273.991" r="3" />
	<circle cx="75" cy="273.9915" r="3" />
	<circle cx="75" cy="273.991" r="3" />
	<circle cx="75" cy="273.991" r="3" />
	<circle cx="75" cy="273.9925" r="3" />
	<circle cx="75" cy="273.993" r="3" />
	<circle cx="75" cy="273.991" r="3" />
	<circle cx="75" cy="273.9915" r="3" />
	<circle cx="75" cy="273.991" r="3" />
	<circle cx="75" cy="273.9915" r="3" />
	<circle cx="75" cy="273.991" r="3" />
	<circle cx="75" cy="273.991" r="3" />
	<circle cx="75" cy="273.9915" r="3" />
	<circle cx="75" cy="273.991" r="3" />
	<circle cx="75" cy="273.991" r="3" />
	<circle cx="75" cy="273.992" r="3" />
	<circle cx="75" cy="273.993" r="3" />
	<circle cx="75" cy="273.9935" r="3" />
	<circle cx="85" cy="267.5815" r="3" />
	<circle cx="85" cy="272.75" r="3" />
	<circle cx="85" cy="273.043" r="3" />
	<circle cx="85" cy="273.417" r="3" />
	<circle cx="85" cy="273.3255" r="3" />
	<circle cx="85" cy="273.294" r="3" />
	<circle cx="85" cy="273.232" r="3" />
	<circle cx="85" cy="273.003" r="3" />
	<circle cx="85" cy="272.0795" r="3" />
	<circle cx="85" cy="272.1075" r="3" />
	<circle cx="85" cy="272.129" r="3" />
	<circle cx="85" cy="271.976" r="3" />
	<circle cx="85" cy="271.927" r="3" />
	<circle cx="85" cy="271.7655" r="3" />
	<circle cx="85" cy="273.5715" r="3" />
	<circle cx="85" cy="273.4415" r="3" />
	<circle cx="85" cy="273.577" r="3" />
	<circle cx="85" cy="272.462" r="3" />
	<circle cx="85" cy="273.389" r="3" />
	<circle cx="85" cy="273.583" r="3" />
	<circle cx="85" cy="273.5745" r="3" />
	<circle cx="85" cy="271.9355" r="3" />
	<circle cx="85" cy="272.1465" r="3" />
	<circle cx="85" cy="273.015" r="3" />
	<circle cx="95" cy="266.59" r="3" />
	<circle cx="95" cy="271.297" r="3" />
	<circle cx="95" cy="269.7925" r="3" />
	<circle cx="95" cy="272.134" r="3" />
	<circle cx="95" cy="271.867" r="3" />
	<circle cx="95" cy="273.1915" r="3" />
	<circle cx="95" cy="273.189" r="3" />
	<circle cx="95" cy="271.4755" r="3" />
	<circle cx="95" cy="271.1825" r="3" />
	<circle cx="95" cy="270.278" r="3" />
	<circle cx="95" cy="268.394" r="3" />
	<circle cx="95" cy="269.8225" r="3" />
	<circle cx="95" cy="269.924" r="3" />
	<circle cx="95" cy="271.734" r="3" />
	<circle cx="95" cy="273.1785" r="3" />
	<circle cx="95" cy="272.242" r="3" />
	<circle cx="95" cy="273.178" r="3" />
	<circle cx="95" cy="273.1875" r="3" />
	<circle cx="95" cy="273.1875" r="3" />
	<circle cx="95" cy="270.387" r="3" />
	<circle cx="95" cy="271.2165" r="3" />
	<circle cx="95" cy="273.184" r="3" />
	<circle cx="95" cy="271.8035" r="3" />
	<circle cx="95" cy="271.959" r="3" />
	<circle cx="95" cy="273.191" r="3" />
	<circle cx="95" cy="273.184" r="3" />
	<circle cx="95" cy="273.18" r="3" />
	<circle cx="95" cy="271.122" r="3" />
	<circle cx="95" cy="268.0315" r="3" />
	<circle cx="95" cy="268.1715" r="3" />
	<circle cx="95" cy="270.333" r="3" />
	<circle cx="95" cy="273.1835" r="3" />
	<circle cx="95" cy="273.1895" r="3" />
	<circle cx="95" cy="273.183" r="3" />
	<circle cx="95" cy="273.1795" r="3" />
	<circle cx="105" cy="265.2175" r="3" />
	<circle cx="105" cy="272.4195" r="3" />
	<circle cx="105" cy="272.796" r="3" />
	<circle cx="105" cy="270.648" r="3" />
	<circle cx="105" cy="260.833" r="3" />
	<circle cx="105" cy="269.7445" r="3" />
	<circle cx="105" cy="269.6025" r="3" />
	<circle cx="105" cy="270.5865" r="3" />
	<circle cx="105" cy="271.538" r="3" />
	<circle cx="105" cy="268.3925" r="3" />
	<circle cx="105" cy="272.768" r="3" />
	<circle cx="105" cy="272.7915" r="3" />
	<circle cx="105" cy="272.785" r="3" />
	<circle cx="105" cy="272.4415" r="3" />
	<circle cx="105" cy="272.7995" r="3" />
	<circle cx="105" cy="272.781" r="3" />
	<circle cx="105" cy="272.7855" r="3" />
	<circle cx="105" cy="272.7595" r="3" />
	<circle cx="105" cy="271.702" r="3" />
	<circle cx="105" cy="268.5835" r="3" />
	<circle cx="105" cy="262.833" r="3" />
	<circle cx="105" cy="267.806" r="3" />
	<circle cx="105" cy="270.0165" r="3" />
	<circle cx="105" cy="270.814" r="3" />
	<circle cx="105" cy="256.825" r="3" />
	<circle cx="105" cy="268.1795" r="3" />
	<circle cx="105" cy="265.203" r="3" />
	<circle cx="105" cy="266.6925" r="3" />
	<circle cx="105" cy="267.7555" r="3" />
	<circle cx="115" cy="266.722" r="3" />
	<circle cx="115" cy="267.1745" r="3" />
	<circle cx="115" cy="267.3355" r="3" />
	<circle cx="115" cy="268.7625" r="3" />
	<circle cx="115" cy="272.3825" r="3" />
	<circle cx="115" cy="271.1165" r="3" />
	<circle cx="115" cy="270.166" r="3" />
	<circle cx="115" cy="272.3945" r="3" />
	<circle cx="115" cy="268.9" r="3" />
	<circle cx="115" cy="267.4075" r="3" />
	<circle cx="115" cy="264.009" r="3" />
	<circle cx="115" cy="261.5465" r="3" />
	<circle cx="115" cy="261.5" r="3" />
	<circle cx="115" cy="264.495" r="3" />
	<circle cx="115" cy="269.93" r="3" />
	<circle cx="115" cy="272.3755" r="3" />
	<circle cx="115" cy="272.389" r="3" />
	<circle cx="115" cy="272.3765" r="3" />
	<circle cx="115" cy="272.3925" r="3" />
	<circle cx="115" cy="272.378" r="3" />
	<circle cx="115" cy="270.996" r="3" />
	<circle cx="115" cy="270.5075" r="3" />
	<circle cx="125" cy="266.369" r="3" />
	<circle cx="125" cy="271.367" r="3" />
	<circle cx="125" cy="271.4005" r="3" />
	<circle cx="125" cy="264.4305" r="3" />
	<circle cx="125" cy="256.2445" r="3" />
	<circle cx="125" cy="252.059" r="3" />
	<circle cx="125" cy="247.96" r="3" />
	<circle cx="125" cy="258.605" r="3" />
	<circle cx="125" cy="272.0015" r="3" />
	<circle cx="125" cy="271.996" r="3" />
	<circle cx="125" cy="260.997" r="3" />
	<circle cx="125" cy="271.9745" r="3" />
	<circle cx="125" cy="267.9565" r="3" />
	<circle cx="125" cy="264.3715" r="3" />
	<circle cx="125" cy="257.767" r="3" />
	<circle cx="125" cy="258.566" r="3" />
	<circle cx="125" cy="265.346" r="3" />
	<circle cx="135" cy="265.1205" r="3" />
	<circle cx="135" cy="269.403" r="3" />
	<circle cx="135" cy="271.605" r="3" />
	<circle cx="135" cy="271.577" r="3" />
	<circle cx="135" cy="260.25" r="3" />
	<circle cx="135" cy="249.858" r="3" />
	<circle cx="135" cy="271.6085" r="3" />
	<circle cx="135" cy="262.2895" r="3" />
	<circle cx="135" cy="257.507" r="3" />
	<circle cx="135" cy="257.172" r="3" />
	<circle cx="135" cy="246.554" r="3" />
	<circle cx="135" cy="260.5245" r="3" />
	<circle cx="135" cy="257.619" r="3" />
	<circle cx="135" cy="271.604" r="3" />
	<circle cx="135" cy="271.6035" r="3" />
	<circle cx="135" cy="271.605" r="3" />
	<circle cx="135" cy="271.603" r="3" />
	<circle cx="135" cy="264.113" r="3" />
	<circle cx="135" cy="263.6075" r="3" />
	<circle cx="135" cy="263.053" r="3" />
	<circle cx="135" cy="263.3395" r="3" />
	<circle cx="135" cy="265.588" r="3" />
	<circle cx="145" cy="264.748" r="3" />
	<circle cx="145" cy="268.681" r="3" />
	<circle cx="145" cy="270.388" r="3" />
	<circle cx="145" cy="271.195" r="3" />
	<circle cx="145" cy="262.3635" r="3" />
	<circle cx="145" cy="255.889" r="3" />
	<circle cx="145" cy="271.173" r="3" />
	<circle cx="145" cy="259.9175" r="3" />
	<circle cx="145" cy="248.01" r="3" />
	<circle cx="145" cy="242.869" r="3" />
	<circle cx="145" cy="256.5935" r="3" />
	<circle cx="145" cy="271.205" r="3" />
	<circle cx="145" cy="271.1775" r="3" />
	<circle cx="145" cy="268.7775" r="3" />
	<circle cx="145" cy="260.9125" r="3" />
	<circle cx="145" cy="262.2135" r="3" />
	<circle cx="145" cy="262.5295" r="3" />
	<circle cx="145" cy="263.9885" r="3" />
	<circle cx="145" cy="268.2585" r="3" />
	<circle cx="155" cy="265.308" r="3" />
	<circle cx="155" cy="269.134" r="3" />
	<circle cx="155" cy="265.9605" r="3" />
	<circle cx="155" cy="270.794" r="3" />
	<circle cx="155" cy="270.798" r="3" />
	<circle cx="155" cy="258.927" r="3" />
	<circle cx="155" cy="249.697" r="3" />
	<circle cx="155" cy="253.7575" r="3" />
	<circle cx="155" cy="239.6585" r="3" />
	<circle cx="155" cy="243.512" r="3" />
	<circle cx="155" cy="260.613" r="3" />
	<circle cx="155" cy="268.167" r="3" />
	<circle cx="155" cy="265.1015" r="3" />
	<circle cx="155" cy="265.3065" r="3" />
	<circle cx="155" cy="268.1445" r="3" />
	<circle cx="155" cy="256.7535" r="3" />
	<circle cx="155" cy="260.0965" r="3" />
	<circle cx="165" cy="263.5605" r="3" />
	<circle cx="165" cy="265.0975" r="3" />
	<circle cx="165" cy="252.474" r="3" />
	<circle cx="165" cy="270.3905" r="3" />
	<circle cx="165" cy="270.341" r="3" />
	<circle cx="165" cy="245.6135" r="3" />
	<circle cx="165" cy="217.652" r="3" />
	<circle cx="165" cy="236.102" r="3" />
	<circle cx="165" cy="270.4095" r="3" />
	<circle cx="165" cy="270.3885" r="3" />
	<circle cx="165" cy="264.5905" r="3" />
	<circle cx="165" cy="244.49" r="3" />
	<circle cx="165" cy="270.2895" r="3" />
	<circle cx="165" cy="270.345" r="3" />
	<circle cx="165" cy="254.453" r="3" />
	<circle cx="165" cy="257.096" r="3" />
	<circle cx="165" cy="247.584" r="3" />
	<circle cx="165" cy="253.2465" r="3" />
	<circle cx="175" cy="265.9185" r="3" />
	<circle cx="175" cy="268.833" r="3" />
	<circle cx="175" cy="253.7775" r="3" />
	<circle cx="175" cy="233.184" r="3" />
	<circle cx="175" cy="269.816" r="3" />
	<circle cx="175" cy="269.9705" r="3" />
	<circle cx="175" cy="269.9825" r="3" />
	<circle cx="175" cy="269.977" r="3" />
	<circle cx="175" cy="269.979" r="3" />
	<circle cx="175" cy="242.0965" r="3" />
	<circle cx="175" cy="217.296" r="3" />
	<circle cx="175" cy="242.5" r="3" />
	<circle cx="175" cy="263.6195" r="3" />
	<circle cx="175" cy="264.9145" r="3" />
	<circle cx="175" cy="269.985" r="3" />
	<circle cx="175" cy="246.814" r="3" />
	<circle cx="175" cy="224.6475" r="3" />
	<circle cx="175" cy="250.7535" r="3" />
	<circle cx="175" cy="269.9985" r="3" />
	<circle cx="185" cy="255.6545" r="3" />
	<circle cx="185" cy="250.2385" r="3" />
	<circle cx="185" cy="239.9965" r="3" />
	<circle cx="185" cy="269.587" r="3" />
	<circle cx="185" cy="238.142" r="3" />
	<circle cx="185" cy="253.241" r="3" />
	<circle cx="185" cy="269.576" r="3" />
	<circle cx="185" cy="240.004" r="3" />
	<circle cx="185" cy="201.038" r="3" />
	<circle cx="185" cy="232.777" r="3" />
	<circle cx="185" cy="269.584" r="3" />
	<circle cx="185" cy="269.5555" r="3" />
	<circle cx="185" cy="269.5605" r="3" />
	<circle cx="185" cy="262.318" r="3" />
	<circle cx="185" cy="245.8715" r="3" />
	<circle cx="185" cy="254.6525" r="3" />
	<circle cx="185" cy="232.6915" r="3" />
	<circle cx="185" cy="269.5885" r="3" />
	<circle cx="185" cy="269.5825" r="3" />
	<circle cx="185" cy="242.513" r="3" />
	<circle cx="185" cy="213.0465" r="3" />
	<circle cx="185" cy="244.637" r="3" />
	<circle cx="185" cy="269.5855" r="3" />
	<circle cx="185" cy="263.9865" r="3" />
	<circle cx="185" cy="252.239" r="3" />
	<circle cx="195" cy="265.63" r="3" />
	<circle cx="195" cy="252.0185" r="3" />
	<circle cx="195" cy="219.721" r="3" />
	<circle cx="195" cy="269.171" r="3" />
	<circle cx="195" cy="245.04" r="3" />
	<circle cx="195" cy="256.985" r="3" />
	<circle cx="195" cy="269.169" r="3" />
	<circle cx="195" cy="234.963" r="3" />
	<circle cx="195" cy="188.2825" r="3" />
	<circle cx="195" cy="231.626" r="3" />
	<circle cx="195" cy="269.209" r="3" />
	<circle cx="195" cy="269.1955" r="3" />
	<circle cx="195" cy="241.6065" r="3" />
	<circle cx="195" cy="249.686" r="3" />
	<circle cx="205" cy="260.789" r="3" />
	<circle cx="205" cy="236.079" r="3" />
	<circle cx="205" cy="208.045" r="3" />
	<circle cx="205" cy="268.802" r="3" />
	<circle cx="205" cy="249.4115" r="3" />
	<circle cx="205" cy="243.818" r="3" />
	<circle cx="205" cy="197.4095" r="3" />
	<circle cx="205" cy="268.7845" r="3" />
	<circle cx="205" cy="246.844" r="3" />
	<circle cx="205" cy="197.071" r="3" />
	<circle cx="205" cy="239.587" r="3" />
	<circle cx="205" cy="268.8015" r="3" />
	<circle cx="205" cy="253.319" r="3" />
	<circle cx="205" cy="209.3665" r="3" />
	<circle cx="205" cy="177.8355" r="3" />
	<circle cx="205" cy="268.8075" r="3" />
	<circle cx="205" cy="248.6345" r="3" />
	<circle cx="205" cy="209.3235" r="3" />
	<circle cx="205" cy="247.995" r="3" />
	<circle cx="205" cy="245.251" r="3" />
	<circle cx="215" cy="266.135" r="3" />
	<circle cx="215" cy="239.9305" r="3" />
	<circle cx="215" cy="183.078" r="3" />
	<circle cx="215" cy="238.3115" r="3" />
	<circle cx="215" cy="209.9185" r="3" />
	<circle cx="215" cy="268.3875" r="3" />
	<circle cx="215" cy="236.2725" r="3" />
	<circle cx="215" cy="207.6175" r="3" />
	<circle cx="215" cy="244.5305" r="3" />
	<circle cx="215" cy="266.4775" r="3" />
	<circle cx="225" cy="264.108" r="3" />
	<circle cx="225" cy="241.132" r="3" />
	<circle cx="225" cy="208.941" r="3" />
	<circle cx="225" cy="267.998" r="3" />
	<circle cx="225" cy="267.8855" r="3" />
	<circle cx="225" cy="239.304" r="3" />
	<circle cx="225" cy="195.315" r="3" />
	<circle cx="225" cy="165.5315" r="3" />
	<circle cx="225" cy="268.003" r="3" />
	<circle cx="225" cy="246.139" r="3" />
	<circle cx="225" cy="211.494" r="3" />
	<circle cx="225" cy="168.898" r="3" />
	<circle cx="225" cy="209.599" r="3" />
	<circle cx="225" cy="268.011" r="3" />
	<circle cx="225" cy="268.0035" r="3" />
	<circle cx="225" cy="238.306" r="3" />
	<circle cx="225" cy="185.622" r="3" />
	<circle cx="225" cy="193.825" r="3" />
	<circle cx="225" cy="248.267" r="3" />
	<circle cx="225" cy="230.923" r="3" />
	<circle cx="235" cy="262.3175" r="3" />
	<circle cx="235" cy="242.577" r="3" />
	<circle cx="235" cy="226.9015" r="3" />
	<circle cx="235" cy="267.586" r="3" />
	<circle cx="235" cy="254.1565" r="3" />
	<circle cx="235" cy="198.529" r="3" />
	<circle cx="235" cy="88.351" r="3" />
	<circle cx="235" cy="267.5635" r="3" />
	<circle cx="235" cy="198.7215" r="3" />
	<circle cx="235" cy="193.0045" r="3" />
	<circle cx="235" cy="228.3625" r="3" />
	<circle cx="235" cy="238.29" r="3" />
	<circle cx="235" cy="267.3675" r="3" />
	<circle cx="235" cy="227.3295" r="3" />
	<circle cx="235" cy="192.6495" r="3" />
	<circle cx="235" cy="200.4935" r="3" />
	<circle cx="235" cy="267.542" r="3" />
	<circle cx="235" cy="267.6045" r="3" />
	<circle cx="245" cy="260.7055" r="3" />
	<circle cx="245" cy="231.81" r="3" />
	<circle cx="245" cy="120.793" r="3" />
	<circle cx="245" cy="237.652" r="3" />
	<circle cx="245" cy="222.2165" r="3" />
	<circle cx="245" cy="175.4" r="3" />
	<circle cx="245" cy="181.179" r="3" />
	<circle cx="245" cy="222.5435" r="3" />
	<circle cx="245" cy="224.657" r="3" />
	<circle cx="245" cy="265.2445" r="3" />
	<circle cx="245" cy="217.39" r="3" />
	<circle cx="245" cy="197.4985" r="3" />
	<circle cx="245" cy="229.3385" r="3" />
	<circle cx="245" cy="230.9485" r="3" />
	<circle cx="245" cy="228.5675" r="3" />
	<circle cx="245" cy="221.28" r="3" />
	<circle cx="255" cy="260.4405" r="3" />
	<circle cx="255" cy="200.504" r="3" />
	<circle cx="255" cy="222.7805" r="3" />
	<circle cx="255" cy="266.784" r="3" />
	<circle cx="255" cy="230.004" r="3" />
	<circle cx="255" cy="114.144" r="3" />
	<circle cx="255" cy="242.794" r="3" />
	<circle cx="255" cy="235.8665" r="3" />
	<circle cx="255" cy="217.058" r="3" />
	<circle cx="255" cy="170.419" r="3" />
	<circle cx="255" cy="202.65" r="3" />
	<circle cx="255" cy="198.442" r="3" />
	<circle cx="255" cy="239.422" r="3" />
	<circle cx="265" cy="262.1435" r="3" />
	<circle cx="265" cy="210.4745" r="3" />
	<circle cx="265" cy="147.4265" r="3" />
	<circle cx="265" cy="264.0445" r="3" />
	<circle cx="265" cy="264.241" r="3" />
	<circle cx="265" cy="213.8905" r="3" />
	<circle cx="265" cy="121.6005" r="3" />
	<circle cx="265" cy="266.154" r="3" />
	<circle cx="265" cy="210.418" r="3" />
	<circle cx="265" cy="158.575" r="3" />
	<circle cx="265" cy="191.2055" r="3" />
	<circle cx="275" cy="259.532" r="3" />
	<circle cx="275" cy="209.7705" r="3" />
	<circle cx="275" cy="100.666" r="3" />
	<circle cx="275" cy="197.6495" r="3" />
	<circle cx="275" cy="200.7345" r="3" />
	<circle cx="275" cy="259.6055" r="3" />
	<circle cx="275" cy="265.9295" r="3" />
	<circle cx="275" cy="264.7315" r="3" />
	<circle cx="275" cy="212.446" r="3" />
	<circle cx="275" cy="106.342" r="3" />
	<circle cx="275" cy="118.1405" r="3" />
	<circle cx="275" cy="263.5105" r="3" />
	<circle cx="275" cy="263.557" r="3" />
	<circle cx="275" cy="265.772" r="3" />
	<circle cx="275" cy="263.678" r="3" />
	<circle cx="275" cy="265.7665" r="3" />
	<circle cx="275" cy="216.906" r="3" />
	<circle cx="275" cy="19.3745" r="3" />
	<circle cx="275" cy="126.9785" r="3" /><!-- 
	Generated using the Perl SVG Module V2.36
	by Ronan Oger
	Info: http://www.roitsystems.com/
 -->
</svg>