<?xml version="1.0" encoding="UTF-8" standalone="yes"?>
<!DOCTYPE svg PUBLIC "-//W3C//DTD SVG 1.0//EN" "http://www.w3.org/TR/2001/REC-SVG-20010904/DTD/svg10.dtd">
<svg height="592" width="295" xmlns="http://www.w3.org/2000/svg" xmlns:xlink="http://www.w3.org/1999/xlink">
	<line style="stroke: blue; stroke-width: 1" x1="70" x2="280" y1="572" y2="572" />	<text text-anchor="end" x="70" y="572">0.00
	</text>
	<line style="stroke: blue; stroke-width: 1" x1="70" x2="280" y1="522" y2="522" />	<text text-anchor="end" x="70" y="522">0.20
	</text>
	<line style="stroke: blue; stroke-width: 1" x1="70" x2="280" y1="472" y2="472" />	<text text-anchor="end" x="70" y="472">0.40
	</text>
	<line style="stroke: blue; stroke-width: 1" x1="70" x2="280" y1="422" y2="422" />	<text text-anchor="end" x="70" y="422">0.60
	</text>
	<line style="stroke: blue; stroke-width: 1" x1="70" x2="280" y1="372" y2="372" />	<text text-anchor="end" x="70" y="372">0.80
	</text>
	<line style="stroke: blue; stroke-width: 1" x1="70" x2="280" y1="322" y2="322" />	<text text-anchor="end" x="70" y="322">1.00
	</text>
	<line style="stroke: blue; stroke-width: 1" x1="70" x2="280" y1="272" y2="272" />	<text text-anchor="end" x="70" y="272">1.20
	</text>
	<line style="stroke: blue; stroke-width: 1" x1="70" x2="280" y1="222" y2="222" />	<text text-anchor="end" x="70" y="222">1.40
	</text>
	<line style="stroke: blue; stroke-width: 1" x1="70" x2="280" y1="172" y2="172" />	<text text-anchor="end" x="70" y="172">1.60
	</text>
	<line style="stroke: blue; stroke-width: 1" x1="70" x2="280" y1="122" y2="122" />	<text text-anchor="end" x="70" y="122">1.80
	</text>
	<line style="stroke: blue; stroke-width: 1" x1="70" x2="280" y1="72.0000000000001" y2="72.0000000000001" />	<text text-anchor="end" x="70" y="72.0000000000001">2.00
	</text>
	<line style="stroke: blue; stroke-width: 1" x1="70" x2="280" y1="22.0000000000001" y2="22.0000000000001" />	<text text-anchor="end" x="70" y="22.0000000000001">2.20
	</text>
	<circle cx="75" cy="571.9905" r="3" />
	<circle cx="75" cy="571.992" r="3" />
	<circle cx="75" cy="571.9955" r="3" />
	<circle cx="75" cy="571.99625" r="3" />
	<circle cx="75" cy="571.9965" r="3" />
	<circle cx="75" cy="571.99675" r="3" />
	<circle cx="75" cy="571.99675" r="3" />
	<circle cx="75" cy="571.9965" r="3" />
	<circle cx="75" cy="571.99525" r="3" />
	<circle cx="75" cy="571.99575" r="3" />
	<circle cx="75" cy="571.9955" r="3" />
	<circle cx="75" cy="571.9955" r="3" />
	<circle cx="75" cy="571.9955" r="3" />
	<circle cx="75" cy="571.99525" r="3" />
	<circle cx="75" cy="571.9955" r="3" />
	<circle cx="75" cy="571.99575" r="3" />
	<circle cx="75" cy="571.996" r="3" />
	<circle cx="75" cy="571.9965" r="3" />
	<circle cx="75" cy="571.9965" r="3" />
	<circle cx="75" cy="571.9955" r="3" />
	<circle cx="75" cy="571.9955" r="3" />
	<circle cx="75" cy="571.9955" r="3" />
	<circle cx="75" cy="571.994" r="3" />
	<circle cx="75" cy="571.99625" r="3" />
	<circle cx="85" cy="566.60225" r="3" />
	<circle cx="85" cy="570.79075" r="3" />
	<circle cx="85" cy="571.58225" r="3" />
	<circle cx="85" cy="571.5825" r="3" />
	<circle cx="85" cy="570.497" r="3" />
	<circle cx="85" cy="569.94825" r="3" />
	<circle cx="85" cy="569.7015" r="3" />
	<circle cx="85" cy="571.03575" r="3" />
	<circle cx="85" cy="571.583" r="3" />
	<circle cx="85" cy="569.996" r="3" />
	<circle cx="85" cy="570.1095" r="3" />
	<circle cx="85" cy="571.5905" r="3" />
	<circle cx="85" cy="570.55075" r="3" />
	<circle cx="85" cy="570.57275" r="3" />
	<circle cx="85" cy="569.97375" r="3" />
	<circle cx="85" cy="570.48825" r="3" />
	<circle cx="85" cy="571.019" r="3" />
	<circle cx="85" cy="571.06" r="3" />
	<circle cx="95" cy="565.07725" r="3" />
	<circle cx="95" cy="570.8045" r="3" />
	<circle cx="95" cy="570.9605" r="3" />
	<circle cx="95" cy="567.76" r="3" />
	<circle cx="95" cy="571.1935" r="3" />
	<circle cx="95" cy="569.98025" r="3" />
	<circle cx="95" cy="568.918" r="3" />
	<circle cx="95" cy="568.6765" r="3" />
	<circle cx="95" cy="571.18225" r="3" />
	<circle cx="95" cy="571.1795" r="3" />
	<circle cx="95" cy="569.958" r="3" />
	<circle cx="95" cy="562.436" r="3" />
	<circle cx="95" cy="567.05575" r="3" />
	<circle cx="95" cy="571.1805" r="3" />
	<circle cx="95" cy="570.96025" r="3" />
	<circle cx="95" cy="565.8685" r="3" />
	<circle cx="95" cy="561.185" r="3" />
	<circle cx="95" cy="562.32075" r="3" />
	<circle cx="95" cy="570.02225" r="3" />
	<circle cx="95" cy="571.19" r="3" />
	<circle cx="105" cy="562.10575" r="3" />
	<circle cx="105" cy="570.44475" r="3" />
	<circle cx="105" cy="570.79425" r="3" />
	<circle cx="105" cy="566.80025" r="3" />
	<circle cx="105" cy="566.80175" r="3" />
	<circle cx="105" cy="570.79625" r="3" />
	<circle cx="105" cy="565.42075" r="3" />
	<circle cx="105" cy="558.77575" r="3" />
	<circle cx="105" cy="570.79625" r="3" />
	<circle cx="105" cy="570.7905" r="3" />
	<circle cx="105" cy="565.8205" r="3" />
	<circle cx="105" cy="561.06175" r="3" />
	<circle cx="105" cy="566.80375" r="3" />
	<circle cx="105" cy="563.6135" r="3" />
	<circle cx="115" cy="561.8685" r="3" />
	<circle cx="115" cy="570.3705" r="3" />
	<circle cx="115" cy="563.07025" r="3" />
	<circle cx="115" cy="548.794" r="3" />
	<circle cx="115" cy="570.367" r="3" />
	<circle cx="115" cy="559.04475" r="3" />
	<circle cx="115" cy="570.37375" r="3" />
	<circle cx="115" cy="561.01125" r="3" />
	<circle cx="115" cy="556.60175" r="3" />
	<circle cx="115" cy="570.405" r="3" />
	<circle cx="115" cy="570.3815" r="3" />
	<circle cx="115" cy="551.7515" r="3" />
	<circle cx="115" cy="570.39425" r="3" />
	<circle cx="115" cy="558.1275" r="3" />
	<circle cx="115" cy="546.4595" r="3" />
	<circle cx="115" cy="568.42425" r="3" />
	<circle cx="125" cy="561.08975" r="3" />
	<circle cx="125" cy="569.3135" r="3" />
	<circle cx="125" cy="546.218" r="3" />
	<circle cx="125" cy="570.007" r="3" />
	<circle cx="125" cy="552.0145" r="3" />
	<circle cx="125" cy="540.7105" r="3" />
	<circle cx="125" cy="556.4815" r="3" />
	<circle cx="125" cy="570.01025" r="3" />
	<circle cx="125" cy="570.00575" r="3" />
	<circle cx="125" cy="561.00475" r="3" />
	<circle cx="125" cy="551.9725" r="3" />
	<circle cx="125" cy="553.75175" r="3" />
	<circle cx="135" cy="560.476" r="3" />
	<circle cx="135" cy="569.58625" r="3" />
	<circle cx="135" cy="557.50775" r="3" />
	<circle cx="135" cy="539.79175" r="3" />
	<circle cx="135" cy="556.965" r="3" />
	<circle cx="135" cy="528.34225" r="3" />
	<circle cx="135" cy="559.25075" r="3" />
	<circle cx="135" cy="549.61325" r="3" />
	<circle cx="135" cy="546.291" r="3" />
	<circle cx="135" cy="569.60375" r="3" />
	<circle cx="135" cy="550.03125" r="3" />
	<circle cx="135" cy="539.6245" r="3" />
	<circle cx="135" cy="557.7695" r="3" />
	<circle cx="145" cy="561.229" r="3" />
	<circle cx="145" cy="553.85925" r="3" />
	<circle cx="145" cy="537.4245" r="3" />
	<circle cx="145" cy="568.94625" r="3" />
	<circle cx="145" cy="569.18925" r="3" />
	<circle cx="145" cy="558.60625" r="3" />
	<circle cx="145" cy="505.767" r="3" />
	<circle cx="145" cy="569.22775" r="3" />
	<circle cx="145" cy="534.93025" r="3" />
	<circle cx="145" cy="569.22525" r="3" />
	<circle cx="145" cy="569.21975" r="3" />
	<circle cx="145" cy="569.22075" r="3" />
	<circle cx="145" cy="540.59075" r="3" />
	<circle cx="145" cy="506.7705" r="3" />
	<circle cx="155" cy="561.207" r="3" />
	<circle cx="155" cy="567.915" r="3" />
	<circle cx="155" cy="568.80325" r="3" />
	<circle cx="155" cy="542.788" r="3" />
	<circle cx="155" cy="568.829" r="3" />
	<circle cx="155" cy="548.7935" r="3" />
	<circle cx="155" cy="499.5005" r="3" />
	<circle cx="155" cy="568.833" r="3" />
	<circle cx="155" cy="546.75075" r="3" />
	<circle cx="155" cy="531.065" r="3" />
	<circle cx="155" cy="513.059" r="3" />
	<circle cx="155" cy="568.72075" r="3" />
	<circle cx="165" cy="559.42375" r="3" />
	<circle cx="165" cy="531.95825" r="3" />
	<circle cx="165" cy="568.4235" r="3" />
	<circle cx="165" cy="544.63925" r="3" />
	<circle cx="165" cy="545.906" r="3" />
	<circle cx="165" cy="489.2075" r="3" />
	<circle cx="165" cy="541.9115" r="3" />
	<circle cx="165" cy="549.216" r="3" />
	<circle cx="165" cy="568.427" r="3" />
	<circle cx="165" cy="550.38975" r="3" />
	<circle cx="165" cy="507.77075" r="3" />
	<circle cx="165" cy="516.923" r="3" />
	<circle cx="165" cy="535.8735" r="3" />
	<circle cx="165" cy="553.10375" r="3" />
	<circle cx="175" cy="558.38075" r="3" />
	<circle cx="175" cy="539.98025" r="3" />
	<circle cx="175" cy="567.959" r="3" />
	<circle cx="175" cy="514.56075" r="3" />
	<circle cx="175" cy="506.50725" r="3" />
	<circle cx="175" cy="547.45975" r="3" />
	<circle cx="175" cy="480.60475" r="3" />
	<circle cx="175" cy="567.97" r="3" />
	<circle cx="175" cy="538.10675" r="3" />
	<circle cx="175" cy="507.935" r="3" />
	<circle cx="175" cy="539.18475" r="3" />
	<circle cx="175" cy="518.59525" r="3" />
	<circle cx="175" cy="528.9555" r="3" />
	<circle cx="175" cy="568.058" r="3" />
	<circle cx="185" cy="558.293" r="3" />
	<circle cx="185" cy="566.20625" r="3" />
	<circle cx="185" cy="545.82825" r="3" />
	<circle cx="185" cy="521.5415" r="3" />
	<circle cx="185" cy="567.62475" r="3" />
	<circle cx="185" cy="567.58575" r="3" />
	<circle cx="185" cy="567.4545" r="3" />
	<circle cx="185" cy="534.9985" r="3" />
	<circle cx="185" cy="453.914" r="3" />
	<circle cx="185" cy="493.7105" r="3" />
	<circle cx="185" cy="567.489" r="3" />
	<circle cx="185" cy="511.64725" r="3" />
	<circle cx="185" cy="503.44175" r="3" />
	<circle cx="185" cy="517.37075" r="3" />
	<circle cx="185" cy="534.30175" r="3" />
	<circle cx="195" cy="557.16825" r="3" />
	<circle cx="195" cy="566.8305" r="3" />
	<circle cx="195" cy="567.0675" r="3" />
	<circle cx="195" cy="488.51775" r="3" />
	<circle cx="195" cy="490.85325" r="3" />
	<circle cx="195" cy="486.29175" r="3" />
	<circle cx="195" cy="502.898" r="3" />
	<circle cx="195" cy="566.5425" r="3" />
	<circle cx="195" cy="566.5555" r="3" />
	<circle cx="195" cy="534.6085" r="3" />
	<circle cx="195" cy="464.1305" r="3" />
	<circle cx="195" cy="566.3565" r="3" />
	<circle cx="195" cy="566.7445" r="3" />
	<circle cx="195" cy="523.69625" r="3" />
	<circle cx="195" cy="512.24475" r="3" />
	<circle cx="195" cy="565.98" r="3" />
	<circle cx="195" cy="520.09" r="3" />
	<circle cx="195" cy="531.8825" r="3" />
	<circle cx="205" cy="557.72525" r="3" />
	<circle cx="205" cy="566.58425" r="3" />
	<circle cx="205" cy="566.84675" r="3" />
	<circle cx="205" cy="486.90775" r="3" />
	<circle cx="205" cy="511.89575" r="3" />
	<circle cx="205" cy="495.11425" r="3" />
	<circle cx="205" cy="566.693" r="3" />
	<circle cx="205" cy="539.59875" r="3" />
	<circle cx="205" cy="518.548" r="3" />
	<circle cx="205" cy="466.26075" r="3" />
	<circle cx="205" cy="500.965" r="3" />
	<circle cx="205" cy="524.2265" r="3" />
	<circle cx="215" cy="557.937" r="3" />
	<circle cx="215" cy="564.81975" r="3" />
	<circle cx="215" cy="562.70375" r="3" />
	<circle cx="215" cy="519.833" r="3" />
	<circle cx="215" cy="566.28875" r="3" />
	<circle cx="215" cy="487.27025" r="3" />
	<circle cx="215" cy="497.3385" r="3" />
	<circle cx="215" cy="408.25775" r="3" />
	<circle cx="215" cy="566.4045" r="3" />
	<circle cx="215" cy="566.276" r="3" />
	<circle cx="215" cy="508.7135" r="3" />
	<circle cx="215" cy="444.29625" r="3" />
	<circle cx="215" cy="503.07225" r="3" />
	<circle cx="225" cy="558.05125" r="3" />
	<circle cx="225" cy="565.88625" r="3" />
	<circle cx="225" cy="564.32975" r="3" />
	<circle cx="225" cy="465.4" r="3" />
	<circle cx="225" cy="436.8825" r="3" />
	<circle cx="225" cy="492.829" r="3" />
	<circle cx="225" cy="237.37825" r="3" />
	<circle cx="225" cy="566.04875" r="3" />
	<circle cx="225" cy="448.78225" r="3" />
	<circle cx="225" cy="445.17675" r="3" />
	<circle cx="235" cy="555.98225" r="3" />
	<circle cx="235" cy="563.52575" r="3" />
	<circle cx="235" cy="511.6355" r="3" />
	<circle cx="235" cy="565.466" r="3" />
	<circle cx="235" cy="565.66525" r="3" />
	<circle cx="235" cy="467.3505" r="3" />
	<circle cx="235" cy="347.44625" r="3" />
	<circle cx="235" cy="565.4615" r="3" />
	<circle cx="235" cy="507.01475" r="3" />
	<circle cx="235" cy="424.19725" r="3" />
	<circle cx="235" cy="493.74325" r="3" />
	<circle cx="235" cy="493.6305" r="3" />
	<circle cx="235" cy="396.53675" r="3" />
	<circle cx="235" cy="565.55425" r="3" />
	<circle cx="235" cy="563.72475" r="3" />
	<circle cx="245" cy="558.725" r="3" />
	<circle cx="245" cy="500.265" r="3" />
	<circle cx="245" cy="485.49425" r="3" />
	<circle cx="245" cy="492.00975" r="3" />
	<circle cx="245" cy="267.6665" r="3" />
	<circle cx="245" cy="565.0615" r="3" />
	<circle cx="245" cy="565.26725" r="3" />
	<circle cx="245" cy="565.2595" r="3" />
	<circle cx="245" cy="503.86425" r="3" />
	<circle cx="245" cy="338.742" r="3" />
	<circle cx="245" cy="410.1075" r="3" />
	<circle cx="245" cy="565.219" r="3" />
	<circle cx="245" cy="516.15975" r="3" />
	<circle cx="245" cy="565.094" r="3" />
	<circle cx="245" cy="489.9155" r="3" />
	<circle cx="245" cy="248.75975" r="3" />
	<circle cx="245" cy="565.0635" r="3" />
	<circle cx="255" cy="557.3675" r="3" />
	<circle cx="255" cy="462.73225" r="3" />
	<circle cx="255" cy="462.47875" r="3" />
	<circle cx="255" cy="564.67325" r="3" />
	<circle cx="255" cy="564.881" r="3" />
	<circle cx="255" cy="462.274" r="3" />
	<circle cx="255" cy="106.18925" r="3" />
	<circle cx="255" cy="19.5875" r="3" />
	<circle cx="255" cy="374.48575" r="3" />
	<circle cx="255" cy="395.01025" r="3" />
	<circle cx="255" cy="424.65075" r="3" />
	<circle cx="265" cy="557.60275" r="3" />
	<circle cx="265" cy="478.611" r="3" />
	<circle cx="265" cy="478.79175" r="3" />
	<circle cx="265" cy="453.44575" r="3" />
	<circle cx="265" cy="342.91825" r="3" />
	<circle cx="265" cy="564.26475" r="3" />
	<circle cx="265" cy="564.31575" r="3" />
	<circle cx="265" cy="426.76575" r="3" />
	<circle cx="265" cy="451.35875" r="3" />
	<circle cx="265" cy="419.10775" r="3" />
	<circle cx="265" cy="219.68" r="3" />
	<circle cx="265" cy="564.2635" r="3" />
	<circle cx="265" cy="478.368" r="3" />
	<circle cx="265" cy="265.886" r="3" />
	<circle cx="265" cy="564.297" r="3" />
	<circle cx="265" cy="563.6405" r="3" />
	<circle cx="275" cy="557.58775" r="3" />
	<circle cx="275" cy="561.52625" r="3" />
	<circle cx="275" cy="563.16025" r="3" />
	<circle cx="275" cy="564.09625" r="3" />
	<circle cx="275" cy="464.19425" r="3" />
	<circle cx="275" cy="142.36025" r="3" />
	<circle cx="275" cy="245.28125" r="3" />
	<circle cx="275" cy="563.88" r="3" />
	<circle cx="275" cy="563.529" r="3" />
	<circle cx="275" cy="435.89575" r="3" />
	<circle cx="275" cy="72.75775" r="3" />
	<circle cx="275" cy="398.2425" r="3" />
	<circle cx="275" cy="556.81475" r="3" />
	<circle cx="275" cy="491.971" r="3" />
	<circle cx="275" cy="401.238" r="3" />
	<circle cx="275" cy="343.555" r="3" /><!-- 
	Generated using the Perl SVG Module V2.36
	by Ronan Oger
	Info: http://www.roitsystems.com/
 -->
</svg>