<?xml version="1.0" encoding="UTF-8" standalone="yes"?>
<!DOCTYPE svg PUBLIC "-//W3C//DTD SVG 1.0//EN" "http://www.w3.org/TR/2001/REC-SVG-20010904/DTD/svg10.dtd">
<svg height="546" width="295" xmlns="http://www.w3.org/2000/svg" xmlns:xlink="http://www.w3.org/1999/xlink">
	<line style="stroke: blue; stroke-width: 1" x1="70" x2="280" y1="526" y2="526" />	<text text-anchor="end" x="70" y="526">0.00
	</text>
	<line style="stroke: blue; stroke-width: 1" x1="70" x2="280" y1="476" y2="476" />	<text text-anchor="end" x="70" y="476">0.05
	</text>
	<line style="stroke: blue; stroke-width: 1" x1="70" x2="280" y1="426" y2="426" />	<text text-anchor="end" x="70" y="426">0.10
	</text>
	<line style="stroke: blue; stroke-width: 1" x1="70" x2="280" y1="376" y2="376" />	<text text-anchor="end" x="70" y="376">0.15
	</text>
	<line style="stroke: blue; stroke-width: 1" x1="70" x2="280" y1="326" y2="326" />	<text text-anchor="end" x="70" y="326">0.20
	</text>
	<line style="stroke: blue; stroke-width: 1" x1="70" x2="280" y1="276" y2="276" />	<text text-anchor="end" x="70" y="276">0.25
	</text>
	<line style="stroke: blue; stroke-width: 1" x1="70" x2="280" y1="226" y2="226" />	<text text-anchor="end" x="70" y="226">0.30
	</text>
	<line style="stroke: blue; stroke-width: 1" x1="70" x2="280" y1="176" y2="176" />	<text text-anchor="end" x="70" y="176">0.35
	</text>
	<line style="stroke: blue; stroke-width: 1" x1="70" x2="280" y1="126" y2="126" />	<text text-anchor="end" x="70" y="126">0.40
	</text>
	<line style="stroke: blue; stroke-width: 1" x1="70" x2="280" y1="76.0000000000001" y2="76.0000000000001" />	<text text-anchor="end" x="70" y="76.0000000000001">0.45
	</text>
	<line style="stroke: blue; stroke-width: 1" x1="70" x2="280" y1="26.0000000000001" y2="26.0000000000001" />	<text text-anchor="end" x="70" y="26.0000000000001">0.50
	</text>
	<circle cx="75" cy="525.997" r="3" />
	<circle cx="75" cy="525.999" r="3" />
	<circle cx="75" cy="525.999" r="3" />
	<circle cx="75" cy="525.999" r="3" />
	<circle cx="75" cy="525.998" r="3" />
	<circle cx="75" cy="525.999" r="3" />
	<circle cx="75" cy="525.999" r="3" />
	<circle cx="75" cy="525.999" r="3" />
	<circle cx="75" cy="525.999" r="3" />
	<circle cx="75" cy="525.999" r="3" />
	<circle cx="75" cy="525.998" r="3" />
	<circle cx="75" cy="525.999" r="3" />
	<circle cx="75" cy="525.999" r="3" />
	<circle cx="75" cy="525.999" r="3" />
	<circle cx="75" cy="525.999" r="3" />
	<circle cx="75" cy="525.998" r="3" />
	<circle cx="75" cy="525.999" r="3" />
	<circle cx="75" cy="525.998" r="3" />
	<circle cx="75" cy="525.998" r="3" />
	<circle cx="75" cy="525.998" r="3" />
	<circle cx="75" cy="525.998" r="3" />
	<circle cx="75" cy="525.998" r="3" />
	<circle cx="75" cy="525.999" r="3" />
	<circle cx="75" cy="525.984" r="3" />
	<circle cx="75" cy="525.998" r="3" />
	<circle cx="75" cy="525.999" r="3" />
	<circle cx="75" cy="525.998" r="3" />
	<circle cx="75" cy="525.998" r="3" />
	<circle cx="75" cy="525.999" r="3" />
	<circle cx="75" cy="525.998" r="3" />
	<circle cx="75" cy="525.998" r="3" />
	<circle cx="75" cy="525.999" r="3" />
	<circle cx="75" cy="525.999" r="3" />
	<circle cx="75" cy="525.999" r="3" />
	<circle cx="75" cy="525.998" r="3" />
	<circle cx="75" cy="525.998" r="3" />
	<circle cx="75" cy="525.999" r="3" />
	<circle cx="75" cy="525.998" r="3" />
	<circle cx="75" cy="525.999" r="3" />
	<circle cx="75" cy="525.998" r="3" />
	<circle cx="75" cy="525.998" r="3" />
	<circle cx="75" cy="525.999" r="3" />
	<circle cx="75" cy="525.999" r="3" />
	<circle cx="75" cy="525.999" r="3" />
	<circle cx="75" cy="525.999" r="3" />
	<circle cx="75" cy="525.998" r="3" />
	<circle cx="75" cy="525.998" r="3" />
	<circle cx="75" cy="525.999" r="3" />
	<circle cx="75" cy="525.999" r="3" />
	<circle cx="75" cy="525.998" r="3" />
	<circle cx="75" cy="525.998" r="3" />
	<circle cx="75" cy="525.998" r="3" />
	<circle cx="75" cy="525.998" r="3" />
	<circle cx="75" cy="525.999" r="3" />
	<circle cx="75" cy="525.999" r="3" />
	<circle cx="75" cy="525.999" r="3" />
	<circle cx="75" cy="525.999" r="3" />
	<circle cx="75" cy="525.999" r="3" />
	<circle cx="85" cy="492.154" r="3" />
	<circle cx="85" cy="505.816" r="3" />
	<circle cx="85" cy="493.283" r="3" />
	<circle cx="85" cy="504.286" r="3" />
	<circle cx="85" cy="503.742" r="3" />
	<circle cx="85" cy="504.013" r="3" />
	<circle cx="85" cy="503.755" r="3" />
	<circle cx="85" cy="504.059" r="3" />
	<circle cx="85" cy="504.551" r="3" />
	<circle cx="85" cy="497.666" r="3" />
	<circle cx="85" cy="502.91" r="3" />
	<circle cx="85" cy="502.262" r="3" />
	<circle cx="85" cy="501.962" r="3" />
	<circle cx="85" cy="502.618" r="3" />
	<circle cx="85" cy="503.595" r="3" />
	<circle cx="85" cy="504.072" r="3" />
	<circle cx="85" cy="504.005" r="3" />
	<circle cx="85" cy="503.138" r="3" />
	<circle cx="85" cy="502.547" r="3" />
	<circle cx="85" cy="502.622" r="3" />
	<circle cx="85" cy="502.08" r="3" />
	<circle cx="85" cy="502.742" r="3" />
	<circle cx="85" cy="503.067" r="3" />
	<circle cx="85" cy="502.813" r="3" />
	<circle cx="85" cy="501.656" r="3" />
	<circle cx="85" cy="500.766" r="3" />
	<circle cx="85" cy="500.659" r="3" />
	<circle cx="85" cy="501.225" r="3" />
	<circle cx="85" cy="500.426" r="3" />
	<circle cx="95" cy="469.241" r="3" />
	<circle cx="95" cy="467.085" r="3" />
	<circle cx="95" cy="479.381" r="3" />
	<circle cx="95" cy="477.796" r="3" />
	<circle cx="95" cy="477.344" r="3" />
	<circle cx="95" cy="478.462" r="3" />
	<circle cx="95" cy="478.477" r="3" />
	<circle cx="95" cy="479.426" r="3" />
	<circle cx="95" cy="480.951" r="3" />
	<circle cx="95" cy="452.251" r="3" />
	<circle cx="95" cy="478.773" r="3" />
	<circle cx="95" cy="478.709" r="3" />
	<circle cx="95" cy="480.194" r="3" />
	<circle cx="95" cy="482.141" r="3" />
	<circle cx="95" cy="465.602" r="3" />
	<circle cx="95" cy="480.289" r="3" />
	<circle cx="95" cy="479.721" r="3" />
	<circle cx="95" cy="479.689" r="3" />
	<circle cx="95" cy="478.895" r="3" />
	<circle cx="95" cy="478.585" r="3" />
	<circle cx="95" cy="477.113" r="3" />
	<circle cx="105" cy="443.151" r="3" />
	<circle cx="105" cy="431.234" r="3" />
	<circle cx="105" cy="456.3" r="3" />
	<circle cx="105" cy="455.342" r="3" />
	<circle cx="105" cy="454.033" r="3" />
	<circle cx="105" cy="454.807" r="3" />
	<circle cx="105" cy="453.765" r="3" />
	<circle cx="105" cy="454.221" r="3" />
	<circle cx="105" cy="457.227" r="3" />
	<circle cx="105" cy="456.648" r="3" />
	<circle cx="105" cy="455.456" r="3" />
	<circle cx="105" cy="456.826" r="3" />
	<circle cx="105" cy="454.977" r="3" />
	<circle cx="105" cy="454.474" r="3" />
	<circle cx="105" cy="453.299" r="3" />
	<circle cx="105" cy="456.731" r="3" />
	<circle cx="105" cy="455.275" r="3" />
	<circle cx="105" cy="453.453" r="3" />
	<circle cx="105" cy="454.54" r="3" />
	<circle cx="105" cy="457.585" r="3" />
	<circle cx="105" cy="456.975" r="3" />
	<circle cx="105" cy="455.089" r="3" />
	<circle cx="115" cy="392.788" r="3" />
	<circle cx="115" cy="421.438" r="3" />
	<circle cx="115" cy="431.975" r="3" />
	<circle cx="115" cy="434.748" r="3" />
	<circle cx="115" cy="431.643" r="3" />
	<circle cx="115" cy="431.84" r="3" />
	<circle cx="115" cy="430.216" r="3" />
	<circle cx="115" cy="433.305" r="3" />
	<circle cx="115" cy="436.551" r="3" />
	<circle cx="115" cy="433.533" r="3" />
	<circle cx="115" cy="431.6" r="3" />
	<circle cx="115" cy="433.905" r="3" />
	<circle cx="115" cy="435.047" r="3" />
	<circle cx="115" cy="432.326" r="3" />
	<circle cx="115" cy="414.147" r="3" />
	<circle cx="115" cy="431.964" r="3" />
	<circle cx="125" cy="405.749" r="3" />
	<circle cx="125" cy="378.627" r="3" />
	<circle cx="125" cy="409.384" r="3" />
	<circle cx="125" cy="411.882" r="3" />
	<circle cx="125" cy="409.945" r="3" />
	<circle cx="125" cy="416.594" r="3" />
	<circle cx="125" cy="418.281" r="3" />
	<circle cx="125" cy="415.351" r="3" />
	<circle cx="125" cy="413.044" r="3" />
	<circle cx="125" cy="414.741" r="3" />
	<circle cx="125" cy="417.425" r="3" />
	<circle cx="125" cy="415.118" r="3" />
	<circle cx="125" cy="417.803" r="3" />
	<circle cx="125" cy="415.502" r="3" />
	<circle cx="125" cy="412.478" r="3" />
	<circle cx="125" cy="412.492" r="3" />
	<circle cx="125" cy="417.1" r="3" />
	<circle cx="125" cy="412.484" r="3" />
	<circle cx="125" cy="413.874" r="3" />
	<circle cx="125" cy="410.577" r="3" />
	<circle cx="125" cy="392.849" r="3" />
	<circle cx="125" cy="409.016" r="3" />
	<circle cx="135" cy="350.859" r="3" />
	<circle cx="135" cy="364.085" r="3" />
	<circle cx="135" cy="390.737" r="3" />
	<circle cx="135" cy="389.665" r="3" />
	<circle cx="135" cy="388.289" r="3" />
	<circle cx="135" cy="393.403" r="3" />
	<circle cx="135" cy="388.768" r="3" />
	<circle cx="135" cy="389.323" r="3" />
	<circle cx="135" cy="390.561" r="3" />
	<circle cx="135" cy="390.088" r="3" />
	<circle cx="135" cy="395.197" r="3" />
	<circle cx="135" cy="390.128" r="3" />
	<circle cx="135" cy="388.541" r="3" />
	<circle cx="135" cy="393.024" r="3" />
	<circle cx="135" cy="388.464" r="3" />
	<circle cx="135" cy="391.437" r="3" />
	<circle cx="135" cy="394.509" r="3" />
	<circle cx="135" cy="390.038" r="3" />
	<circle cx="135" cy="393.609" r="3" />
	<circle cx="135" cy="394.176" r="3" />
	<circle cx="135" cy="392.547" r="3" />
	<circle cx="135" cy="389.421" r="3" />
	<circle cx="135" cy="368.416" r="3" />
	<circle cx="135" cy="388.461" r="3" />
	<circle cx="145" cy="356.058" r="3" />
	<circle cx="145" cy="340.029" r="3" />
	<circle cx="145" cy="367.81" r="3" />
	<circle cx="145" cy="367.268" r="3" />
	<circle cx="145" cy="360.126" r="3" />
	<circle cx="145" cy="365.134" r="3" />
	<circle cx="145" cy="354.655" r="3" />
	<circle cx="145" cy="368.205" r="3" />
	<circle cx="145" cy="369.044" r="3" />
	<circle cx="145" cy="366.722" r="3" />
	<circle cx="145" cy="366.71" r="3" />
	<circle cx="145" cy="368.556" r="3" />
	<circle cx="145" cy="365.488" r="3" />
	<circle cx="145" cy="371.775" r="3" />
	<circle cx="145" cy="373.161" r="3" />
	<circle cx="145" cy="377.136" r="3" />
	<circle cx="145" cy="370.799" r="3" />
	<circle cx="145" cy="367.809" r="3" />
	<circle cx="145" cy="372.048" r="3" />
	<circle cx="145" cy="356.899" r="3" />
	<circle cx="145" cy="369.534" r="3" />
	<circle cx="155" cy="327.496" r="3" />
	<circle cx="155" cy="309.677" r="3" />
	<circle cx="155" cy="338.948" r="3" />
	<circle cx="155" cy="340.661" r="3" />
	<circle cx="155" cy="348.516" r="3" />
	<circle cx="155" cy="347.655" r="3" />
	<circle cx="155" cy="342.178" r="3" />
	<circle cx="155" cy="349.486" r="3" />
	<circle cx="155" cy="343.633" r="3" />
	<circle cx="155" cy="343.186" r="3" />
	<circle cx="155" cy="350.517" r="3" />
	<circle cx="155" cy="340.962" r="3" />
	<circle cx="155" cy="345.674" r="3" />
	<circle cx="155" cy="342.467" r="3" />
	<circle cx="165" cy="301.546" r="3" />
	<circle cx="165" cy="297.634" r="3" />
	<circle cx="165" cy="319.697" r="3" />
	<circle cx="165" cy="317.984" r="3" />
	<circle cx="165" cy="327.709" r="3" />
	<circle cx="165" cy="320.399" r="3" />
	<circle cx="165" cy="317.27" r="3" />
	<circle cx="165" cy="323.957" r="3" />
	<circle cx="165" cy="302.948" r="3" />
	<circle cx="165" cy="321.131" r="3" />
	<circle cx="165" cy="325.164" r="3" />
	<circle cx="165" cy="321.146" r="3" />
	<circle cx="165" cy="323.541" r="3" />
	<circle cx="165" cy="310.791" r="3" />
	<circle cx="165" cy="322.614" r="3" />
	<circle cx="175" cy="275.743" r="3" />
	<circle cx="175" cy="278.913" r="3" />
	<circle cx="175" cy="277.098" r="3" />
	<circle cx="175" cy="294.05" r="3" />
	<circle cx="175" cy="299.935" r="3" />
	<circle cx="175" cy="301.034" r="3" />
	<circle cx="175" cy="296.917" r="3" />
	<circle cx="175" cy="310.44" r="3" />
	<circle cx="175" cy="304.548" r="3" />
	<circle cx="175" cy="305.231" r="3" />
	<circle cx="175" cy="306.899" r="3" />
	<circle cx="175" cy="296.329" r="3" />
	<circle cx="175" cy="295.978" r="3" />
	<circle cx="175" cy="300.527" r="3" />
	<circle cx="175" cy="306.477" r="3" />
	<circle cx="175" cy="308.21" r="3" />
	<circle cx="175" cy="307.17" r="3" />
	<circle cx="175" cy="300.518" r="3" />
	<circle cx="175" cy="296.672" r="3" />
	<circle cx="175" cy="295.068" r="3" />
	<circle cx="175" cy="297.038" r="3" />
	<circle cx="185" cy="246.634" r="3" />
	<circle cx="185" cy="245.504" r="3" />
	<circle cx="185" cy="265.924" r="3" />
	<circle cx="185" cy="264.933" r="3" />
	<circle cx="185" cy="277.578" r="3" />
	<circle cx="185" cy="278.741" r="3" />
	<circle cx="185" cy="269.827" r="3" />
	<circle cx="185" cy="263.784" r="3" />
	<circle cx="185" cy="271.325" r="3" />
	<circle cx="185" cy="279.018" r="3" />
	<circle cx="185" cy="271.812" r="3" />
	<circle cx="185" cy="248.372" r="3" />
	<circle cx="185" cy="265.963" r="3" />
	<circle cx="195" cy="209.067" r="3" />
	<circle cx="195" cy="185.706" r="3" />
	<circle cx="195" cy="246.753" r="3" />
	<circle cx="195" cy="243.927" r="3" />
	<circle cx="195" cy="254.2" r="3" />
	<circle cx="195" cy="245.671" r="3" />
	<circle cx="195" cy="257.985" r="3" />
	<circle cx="195" cy="248.119" r="3" />
	<circle cx="195" cy="243.503" r="3" />
	<circle cx="195" cy="247.449" r="3" />
	<circle cx="195" cy="259.401" r="3" />
	<circle cx="195" cy="254.833" r="3" />
	<circle cx="195" cy="246.824" r="3" />
	<circle cx="195" cy="245.371" r="3" />
	<circle cx="205" cy="196.329" r="3" />
	<circle cx="205" cy="177.745" r="3" />
	<circle cx="205" cy="225.877" r="3" />
	<circle cx="205" cy="218.424" r="3" />
	<circle cx="205" cy="220.388" r="3" />
	<circle cx="205" cy="219.501" r="3" />
	<circle cx="205" cy="235.064" r="3" />
	<circle cx="205" cy="194.909" r="3" />
	<circle cx="205" cy="214.053" r="3" />
	<circle cx="205" cy="222.691" r="3" />
	<circle cx="205" cy="226.816" r="3" />
	<circle cx="205" cy="219.399" r="3" />
	<circle cx="205" cy="215.912" r="3" />
	<circle cx="205" cy="209.931" r="3" />
	<circle cx="205" cy="226.104" r="3" />
	<circle cx="205" cy="227.23" r="3" />
	<circle cx="215" cy="186.51" r="3" />
	<circle cx="215" cy="156.832" r="3" />
	<circle cx="215" cy="198.457" r="3" />
	<circle cx="215" cy="193.478" r="3" />
	<circle cx="215" cy="211.997" r="3" />
	<circle cx="215" cy="211.047" r="3" />
	<circle cx="215" cy="178.434" r="3" />
	<circle cx="215" cy="206.154" r="3" />
	<circle cx="215" cy="211.636" r="3" />
	<circle cx="215" cy="199.862" r="3" />
	<circle cx="215" cy="198.819" r="3" />
	<circle cx="215" cy="203.589" r="3" />
	<circle cx="215" cy="199.977" r="3" />
	<circle cx="215" cy="177.606" r="3" />
	<circle cx="215" cy="201.815" r="3" />
	<circle cx="225" cy="132.605" r="3" />
	<circle cx="225" cy="125.497" r="3" />
	<circle cx="225" cy="196.006" r="3" />
	<circle cx="225" cy="192.458" r="3" />
	<circle cx="225" cy="179.805" r="3" />
	<circle cx="225" cy="182.589" r="3" />
	<circle cx="225" cy="179.819" r="3" />
	<circle cx="225" cy="182.171" r="3" />
	<circle cx="225" cy="173.323" r="3" />
	<circle cx="225" cy="190.712" r="3" />
	<circle cx="225" cy="192.991" r="3" />
	<circle cx="225" cy="190.265" r="3" />
	<circle cx="225" cy="175.642" r="3" />
	<circle cx="225" cy="139.404" r="3" />
	<circle cx="225" cy="176.22" r="3" />
	<circle cx="235" cy="125.74" r="3" />
	<circle cx="235" cy="106.133" r="3" />
	<circle cx="235" cy="147.406" r="3" />
	<circle cx="235" cy="104.79" r="3" />
	<circle cx="235" cy="155.69" r="3" />
	<circle cx="235" cy="154.488" r="3" />
	<circle cx="235" cy="158.252" r="3" />
	<circle cx="235" cy="171.891" r="3" />
	<circle cx="235" cy="163.357" r="3" />
	<circle cx="235" cy="156.489" r="3" />
	<circle cx="235" cy="151.458" r="3" />
	<circle cx="235" cy="148.486" r="3" />
	<circle cx="235" cy="149.549" r="3" />
	<circle cx="235" cy="169.751" r="3" />
	<circle cx="235" cy="143.055" r="3" />
	<circle cx="235" cy="151.982" r="3" />
	<circle cx="245" cy="90.339" r="3" />
	<circle cx="245" cy="102.462" r="3" />
	<circle cx="245" cy="135.323" r="3" />
	<circle cx="245" cy="127.702" r="3" />
	<circle cx="245" cy="127.271" r="3" />
	<circle cx="245" cy="147.774" r="3" />
	<circle cx="245" cy="154.081" r="3" />
	<circle cx="245" cy="152.93" r="3" />
	<circle cx="245" cy="142.404" r="3" />
	<circle cx="245" cy="112.007" r="3" />
	<circle cx="245" cy="132.933" r="3" />
	<circle cx="255" cy="66.242" r="3" />
	<circle cx="255" cy="69.542" r="3" />
	<circle cx="255" cy="110.665" r="3" />
	<circle cx="255" cy="106.091" r="3" />
	<circle cx="255" cy="21.132" r="3" />
	<circle cx="255" cy="121.233" r="3" />
	<circle cx="255" cy="124.407" r="3" />
	<circle cx="255" cy="106.928" r="3" />
	<circle cx="255" cy="104.331" r="3" />
	<circle cx="255" cy="114.922" r="3" />
	<circle cx="255" cy="112.637" r="3" />
	<circle cx="255" cy="108.763" r="3" />
	<circle cx="255" cy="77.296" r="3" />
	<circle cx="255" cy="107.131" r="3" />
	<circle cx="265" cy="35.073" r="3" />
	<circle cx="265" cy="67.514" r="3" />
	<circle cx="265" cy="94.072" r="3" />
	<circle cx="265" cy="85.019" r="3" />
	<circle cx="265" cy="108.833" r="3" />
	<circle cx="265" cy="103.886" r="3" />
	<circle cx="265" cy="89.138" r="3" />
	<circle cx="265" cy="84.724" r="3" />
	<circle cx="265" cy="105.669" r="3" />
	<circle cx="265" cy="117.114" r="3" />
	<circle cx="265" cy="107.776" r="3" />
	<circle cx="265" cy="85.793" r="3" />
	<circle cx="265" cy="96.216" r="3" />
	<circle cx="265" cy="114.262" r="3" />
	<circle cx="265" cy="110.049" r="3" />
	<circle cx="265" cy="93.788" r="3" />
	<circle cx="265" cy="72.913" r="3" />
	<circle cx="265" cy="90.142" r="3" />
	<circle cx="275" cy="35.964" r="3" />
	<circle cx="275" cy="29.501" r="3" />
	<circle cx="275" cy="59.622" r="3" />
	<circle cx="275" cy="72.57" r="3" />
	<circle cx="275" cy="60.974" r="3" />
	<circle cx="275" cy="71.972" r="3" />
	<circle cx="275" cy="58.735" r="3" />
	<circle cx="275" cy="59.292" r="3" />
	<circle cx="275" cy="59.741" r="3" />
	<circle cx="275" cy="54.919" r="3" />
	<circle cx="275" cy="79.185" r="3" />
	<circle cx="275" cy="77.7310000000001" r="3" />
	<circle cx="275" cy="19.171" r="3" />
	<circle cx="275" cy="61.699" r="3" /><!-- 
	Generated using the Perl SVG Module V2.36
	by Ronan Oger
	Info: http://www.roitsystems.com/
 -->
</svg>