<?xml version="1.0" encoding="UTF-8" standalone="yes"?>
<!DOCTYPE svg PUBLIC "-//W3C//DTD SVG 1.0//EN" "http://www.w3.org/TR/2001/REC-SVG-20010904/DTD/svg10.dtd">
<svg height="277" width="295" xmlns="http://www.w3.org/2000/svg" xmlns:xlink="http://www.w3.org/1999/xlink">
	<line style="stroke: blue; stroke-width: 1" x1="70" x2="280" y1="257" y2="257" />	<text text-anchor="end" x="70" y="257">0.00
	</text>
	<line style="stroke: blue; stroke-width: 1" x1="70" x2="280" y1="207" y2="207" />	<text text-anchor="end" x="70" y="207">1.00
	</text>
	<line style="stroke: blue; stroke-width: 1" x1="70" x2="280" y1="157" y2="157" />	<text text-anchor="end" x="70" y="157">2.00
	</text>
	<line style="stroke: blue; stroke-width: 1" x1="70" x2="280" y1="107" y2="107" />	<text text-anchor="end" x="70" y="107">3.00
	</text>
	<line style="stroke: blue; stroke-width: 1" x1="70" x2="280" y1="57" y2="57" />	<text text-anchor="end" x="70" y="57">4.00
	</text>
	<circle cx="75" cy="256.99985" r="3" />
	<circle cx="75" cy="256.99995" r="3" />
	<circle cx="75" cy="256.9999" r="3" />
	<circle cx="75" cy="256.9999" r="3" />
	<circle cx="75" cy="256.9999" r="3" />
	<circle cx="75" cy="256.99995" r="3" />
	<circle cx="75" cy="256.99995" r="3" />
	<circle cx="75" cy="256.99995" r="3" />
	<circle cx="75" cy="256.99995" r="3" />
	<circle cx="75" cy="256.99995" r="3" />
	<circle cx="75" cy="256.99995" r="3" />
	<circle cx="75" cy="256.9999" r="3" />
	<circle cx="75" cy="256.9999" r="3" />
	<circle cx="75" cy="256.9999" r="3" />
	<circle cx="75" cy="256.99995" r="3" />
	<circle cx="75" cy="256.9999" r="3" />
	<circle cx="75" cy="256.99995" r="3" />
	<circle cx="75" cy="256.99995" r="3" />
	<circle cx="75" cy="256.99995" r="3" />
	<circle cx="75" cy="256.99995" r="3" />
	<circle cx="75" cy="256.99995" r="3" />
	<circle cx="75" cy="256.9999" r="3" />
	<circle cx="75" cy="256.9999" r="3" />
	<circle cx="75" cy="256.99995" r="3" />
	<circle cx="75" cy="256.99995" r="3" />
	<circle cx="75" cy="256.9999" r="3" />
	<circle cx="75" cy="256.9999" r="3" />
	<circle cx="75" cy="256.9999" r="3" />
	<circle cx="85" cy="235.64285" r="3" />
	<circle cx="85" cy="234.63105" r="3" />
	<circle cx="85" cy="235.5285" r="3" />
	<circle cx="85" cy="235.2889" r="3" />
	<circle cx="85" cy="234.79545" r="3" />
	<circle cx="85" cy="234.7156" r="3" />
	<circle cx="85" cy="235.3434" r="3" />
	<circle cx="85" cy="235.77175" r="3" />
	<circle cx="85" cy="235.5496" r="3" />
	<circle cx="85" cy="234.1746" r="3" />
	<circle cx="85" cy="234.6937" r="3" />
	<circle cx="95" cy="212.9789" r="3" />
	<circle cx="95" cy="210.271" r="3" />
	<circle cx="95" cy="213.41665" r="3" />
	<circle cx="95" cy="215.34755" r="3" />
	<circle cx="95" cy="213.38875" r="3" />
	<circle cx="95" cy="211.77075" r="3" />
	<circle cx="95" cy="214.20595" r="3" />
	<circle cx="95" cy="214.4763" r="3" />
	<circle cx="95" cy="213.0512" r="3" />
	<circle cx="95" cy="212.89145" r="3" />
	<circle cx="95" cy="214.3422" r="3" />
	<circle cx="95" cy="213.73645" r="3" />
	<circle cx="95" cy="212.67915" r="3" />
	<circle cx="105" cy="192.018" r="3" />
	<circle cx="105" cy="189.92085" r="3" />
	<circle cx="105" cy="192.61585" r="3" />
	<circle cx="105" cy="190.7223" r="3" />
	<circle cx="105" cy="190.0166" r="3" />
	<circle cx="105" cy="187.47755" r="3" />
	<circle cx="105" cy="190.5664" r="3" />
	<circle cx="115" cy="172.5563" r="3" />
	<circle cx="115" cy="169.8891" r="3" />
	<circle cx="115" cy="169.98885" r="3" />
	<circle cx="115" cy="167.9661" r="3" />
	<circle cx="115" cy="168.80415" r="3" />
	<circle cx="115" cy="163.58095" r="3" />
	<circle cx="115" cy="175.6147" r="3" />
	<circle cx="115" cy="170.6587" r="3" />
	<circle cx="115" cy="170.1959" r="3" />
	<circle cx="125" cy="147.8682" r="3" />
	<circle cx="125" cy="135.322" r="3" />
	<circle cx="125" cy="148.3434" r="3" />
	<circle cx="125" cy="150.6171" r="3" />
	<circle cx="125" cy="138.81245" r="3" />
	<circle cx="125" cy="140.00315" r="3" />
	<circle cx="125" cy="148.38695" r="3" />
	<circle cx="125" cy="139.1941" r="3" />
	<circle cx="125" cy="147.00815" r="3" />
	<circle cx="125" cy="129.8163" r="3" />
	<circle cx="125" cy="148.0383" r="3" />
	<circle cx="135" cy="129.04785" r="3" />
	<circle cx="135" cy="110.233" r="3" />
	<circle cx="135" cy="103.1737" r="3" />
	<circle cx="135" cy="84.6273" r="3" />
	<circle cx="135" cy="114.2881" r="3" />
	<circle cx="135" cy="124.8404" r="3" />
	<circle cx="135" cy="119.208" r="3" />
	<circle cx="135" cy="130.94595" r="3" />
	<circle cx="135" cy="123.44135" r="3" />
	<circle cx="135" cy="126.52645" r="3" />
	<circle cx="135" cy="117.54995" r="3" />
	<circle cx="135" cy="126.05205" r="3" />
	<circle cx="135" cy="111.65085" r="3" />
	<circle cx="135" cy="128.733" r="3" />
	<circle cx="145" cy="108.9307" r="3" />
	<circle cx="155" cy="89.58935" r="3" />
	<circle cx="155" cy="80.9452" r="3" />
	<circle cx="155" cy="80.3081" r="3" />
	<circle cx="155" cy="63.97175" r="3" />
	<circle cx="155" cy="76.36525" r="3" />
	<circle cx="155" cy="77.79565" r="3" />
	<circle cx="155" cy="56.1465" r="3" />
	<circle cx="155" cy="63.8854" r="3" />
	<circle cx="155" cy="59.4139" r="3" />
	<circle cx="155" cy="77.39575" r="3" />
	<circle cx="165" cy="57.15795" r="3" />
	<circle cx="165" cy="41.7202" r="3" />
	<circle cx="165" cy="64.60155" r="3" />
	<circle cx="165" cy="52.44225" r="3" />
	<circle cx="165" cy="52.46015" r="3" />
	<circle cx="165" cy="32.1494" r="3" />
	<circle cx="165" cy="59.5611" r="3" />
	<circle cx="165" cy="57.35925" r="3" />
	<circle cx="165" cy="59.6541" r="3" />
	<circle cx="175" cy="32.14765" r="3" />
	<circle cx="175" cy="28.76075" r="3" />
	<circle cx="175" cy="46.10805" r="3" />
	<circle cx="175" cy="39.3252" r="3" />
	<circle cx="175" cy="37.2246" r="3" />
	<circle cx="175" cy="29.16235" r="3" />
	<circle cx="175" cy="43.68775" r="3" />
	<circle cx="175" cy="40.85665" r="3" />
	<circle cx="175" cy="40.3782" r="3" />
	<circle cx="175" cy="31.69485" r="3" />
	<circle cx="175" cy="48.65345" r="3" />
	<circle cx="175" cy="19.0303" r="3" />
	<circle cx="175" cy="32.4718" r="3" />
	<circle cx="175" cy="23.93835" r="3" />
	<circle cx="175" cy="41.0672" r="3" /><!-- 
	Generated using the Perl SVG Module V2.36
	by Ronan Oger
	Info: http://www.roitsystems.com/
 -->
</svg>