<?xml version="1.0" encoding="UTF-8" standalone="yes"?>
<!DOCTYPE svg PUBLIC "-//W3C//DTD SVG 1.0//EN" "http://www.w3.org/TR/2001/REC-SVG-20010904/DTD/svg10.dtd">
<svg height="507" width="295" xmlns="http://www.w3.org/2000/svg" xmlns:xlink="http://www.w3.org/1999/xlink">
	<line style="stroke: blue; stroke-width: 1" x1="70" x2="280" y1="487" y2="487" />	<text text-anchor="end" x="70" y="487">0.00
	</text>
	<line style="stroke: blue; stroke-width: 1" x1="70" x2="280" y1="437" y2="437" />	<text text-anchor="end" x="70" y="437">0.10
	</text>
	<line style="stroke: blue; stroke-width: 1" x1="70" x2="280" y1="387" y2="387" />	<text text-anchor="end" x="70" y="387">0.20
	</text>
	<line style="stroke: blue; stroke-width: 1" x1="70" x2="280" y1="337" y2="337" />	<text text-anchor="end" x="70" y="337">0.30
	</text>
	<line style="stroke: blue; stroke-width: 1" x1="70" x2="280" y1="287" y2="287" />	<text text-anchor="end" x="70" y="287">0.40
	</text>
	<line style="stroke: blue; stroke-width: 1" x1="70" x2="280" y1="237" y2="237" />	<text text-anchor="end" x="70" y="237">0.50
	</text>
	<line style="stroke: blue; stroke-width: 1" x1="70" x2="280" y1="187" y2="187" />	<text text-anchor="end" x="70" y="187">0.60
	</text>
	<line style="stroke: blue; stroke-width: 1" x1="70" x2="280" y1="137" y2="137" />	<text text-anchor="end" x="70" y="137">0.70
	</text>
	<line style="stroke: blue; stroke-width: 1" x1="70" x2="280" y1="87.0000000000001" y2="87.0000000000001" />	<text text-anchor="end" x="70" y="87.0000000000001">0.80
	</text>
	<line style="stroke: blue; stroke-width: 1" x1="70" x2="280" y1="37.0000000000001" y2="37.0000000000001" />	<text text-anchor="end" x="70" y="37.0000000000001">0.90
	</text>
	<circle cx="75" cy="486.998" r="3" />
	<circle cx="75" cy="486.999" r="3" />
	<circle cx="75" cy="486.9995" r="3" />
	<circle cx="75" cy="486.9995" r="3" />
	<circle cx="75" cy="486.9995" r="3" />
	<circle cx="75" cy="486.9995" r="3" />
	<circle cx="75" cy="486.9995" r="3" />
	<circle cx="75" cy="486.999" r="3" />
	<circle cx="75" cy="486.9995" r="3" />
	<circle cx="75" cy="486.999" r="3" />
	<circle cx="75" cy="486.9995" r="3" />
	<circle cx="75" cy="486.9995" r="3" />
	<circle cx="75" cy="486.999" r="3" />
	<circle cx="75" cy="486.9995" r="3" />
	<circle cx="75" cy="486.9995" r="3" />
	<circle cx="75" cy="486.999" r="3" />
	<circle cx="75" cy="486.999" r="3" />
	<circle cx="75" cy="486.9995" r="3" />
	<circle cx="75" cy="486.999" r="3" />
	<circle cx="85" cy="462.493" r="3" />
	<circle cx="85" cy="457.016" r="3" />
	<circle cx="85" cy="463.7525" r="3" />
	<circle cx="85" cy="465.1555" r="3" />
	<circle cx="85" cy="465.719" r="3" />
	<circle cx="85" cy="466.3155" r="3" />
	<circle cx="85" cy="466.3525" r="3" />
	<circle cx="85" cy="465.8415" r="3" />
	<circle cx="85" cy="465.972" r="3" />
	<circle cx="85" cy="462.223" r="3" />
	<circle cx="85" cy="465.9805" r="3" />
	<circle cx="85" cy="466.2285" r="3" />
	<circle cx="85" cy="465.4595" r="3" />
	<circle cx="85" cy="464.8255" r="3" />
	<circle cx="85" cy="464.9295" r="3" />
	<circle cx="85" cy="464.711" r="3" />
	<circle cx="85" cy="464.7205" r="3" />
	<circle cx="85" cy="454.498" r="3" />
	<circle cx="85" cy="465.02" r="3" />
	<circle cx="85" cy="463.1015" r="3" />
	<circle cx="85" cy="463.779" r="3" />
	<circle cx="95" cy="423.6565" r="3" />
	<circle cx="95" cy="447.9375" r="3" />
	<circle cx="95" cy="444.0955" r="3" />
	<circle cx="95" cy="445.05" r="3" />
	<circle cx="95" cy="444.0125" r="3" />
	<circle cx="95" cy="443.1125" r="3" />
	<circle cx="95" cy="443.1645" r="3" />
	<circle cx="95" cy="444.1055" r="3" />
	<circle cx="95" cy="443.3415" r="3" />
	<circle cx="95" cy="444.0455" r="3" />
	<circle cx="95" cy="445.429" r="3" />
	<circle cx="95" cy="446.5655" r="3" />
	<circle cx="95" cy="446.681" r="3" />
	<circle cx="95" cy="445.7825" r="3" />
	<circle cx="95" cy="443.627" r="3" />
	<circle cx="95" cy="442.403" r="3" />
	<circle cx="95" cy="441.6725" r="3" />
	<circle cx="95" cy="443.202" r="3" />
	<circle cx="95" cy="440.9565" r="3" />
	<circle cx="105" cy="425.3525" r="3" />
	<circle cx="105" cy="410.8435" r="3" />
	<circle cx="105" cy="423.876" r="3" />
	<circle cx="105" cy="423.3435" r="3" />
	<circle cx="105" cy="422.3165" r="3" />
	<circle cx="105" cy="421.481" r="3" />
	<circle cx="105" cy="419.0025" r="3" />
	<circle cx="105" cy="418.913" r="3" />
	<circle cx="105" cy="419.036" r="3" />
	<circle cx="105" cy="418.3985" r="3" />
	<circle cx="105" cy="421.5455" r="3" />
	<circle cx="105" cy="413.5525" r="3" />
	<circle cx="105" cy="414.7" r="3" />
	<circle cx="115" cy="380.6405" r="3" />
	<circle cx="115" cy="377.3965" r="3" />
	<circle cx="115" cy="400.237" r="3" />
	<circle cx="115" cy="404.2005" r="3" />
	<circle cx="115" cy="402.494" r="3" />
	<circle cx="115" cy="399.065" r="3" />
	<circle cx="115" cy="398.034" r="3" />
	<circle cx="115" cy="391.481" r="3" />
	<circle cx="115" cy="400.6495" r="3" />
	<circle cx="115" cy="401.8635" r="3" />
	<circle cx="115" cy="401.1185" r="3" />
	<circle cx="115" cy="398.6065" r="3" />
	<circle cx="115" cy="396.8875" r="3" />
	<circle cx="115" cy="391.84" r="3" />
	<circle cx="115" cy="384.9895" r="3" />
	<circle cx="125" cy="368.048" r="3" />
	<circle cx="125" cy="368.561" r="3" />
	<circle cx="125" cy="374.4775" r="3" />
	<circle cx="125" cy="374.855" r="3" />
	<circle cx="125" cy="374.5355" r="3" />
	<circle cx="125" cy="375.541" r="3" />
	<circle cx="125" cy="380.905" r="3" />
	<circle cx="125" cy="383.422" r="3" />
	<circle cx="125" cy="381.84" r="3" />
	<circle cx="125" cy="377.967" r="3" />
	<circle cx="125" cy="374.766" r="3" />
	<circle cx="125" cy="375.0505" r="3" />
	<circle cx="125" cy="377.4525" r="3" />
	<circle cx="125" cy="379.1505" r="3" />
	<circle cx="125" cy="378.0065" r="3" />
	<circle cx="125" cy="366.7385" r="3" />
	<circle cx="125" cy="373.3005" r="3" />
	<circle cx="135" cy="347.798" r="3" />
	<circle cx="135" cy="346.348" r="3" />
	<circle cx="135" cy="354.286" r="3" />
	<circle cx="135" cy="353.506" r="3" />
	<circle cx="135" cy="360.6425" r="3" />
	<circle cx="135" cy="364.271" r="3" />
	<circle cx="135" cy="361.015" r="3" />
	<circle cx="135" cy="355.3625" r="3" />
	<circle cx="135" cy="352.926" r="3" />
	<circle cx="135" cy="360.0205" r="3" />
	<circle cx="135" cy="365.367" r="3" />
	<circle cx="135" cy="358.8375" r="3" />
	<circle cx="135" cy="355.241" r="3" />
	<circle cx="135" cy="351.9675" r="3" />
	<circle cx="145" cy="309.0645" r="3" />
	<circle cx="145" cy="322.5935" r="3" />
	<circle cx="145" cy="334.4675" r="3" />
	<circle cx="145" cy="337.1945" r="3" />
	<circle cx="145" cy="332.637" r="3" />
	<circle cx="145" cy="329.1395" r="3" />
	<circle cx="145" cy="335.1095" r="3" />
	<circle cx="145" cy="332.6625" r="3" />
	<circle cx="145" cy="337.4615" r="3" />
	<circle cx="145" cy="320.9895" r="3" />
	<circle cx="145" cy="331.358" r="3" />
	<circle cx="155" cy="291.43" r="3" />
	<circle cx="155" cy="293.6685" r="3" />
	<circle cx="155" cy="305.0715" r="3" />
	<circle cx="155" cy="305.8885" r="3" />
	<circle cx="155" cy="305.7245" r="3" />
	<circle cx="155" cy="314.1355" r="3" />
	<circle cx="155" cy="311.168" r="3" />
	<circle cx="155" cy="302.0995" r="3" />
	<circle cx="155" cy="298.041" r="3" />
	<circle cx="165" cy="280.8315" r="3" />
	<circle cx="165" cy="267.7075" r="3" />
	<circle cx="165" cy="300.584" r="3" />
	<circle cx="165" cy="290.8645" r="3" />
	<circle cx="165" cy="285.956" r="3" />
	<circle cx="165" cy="293.765" r="3" />
	<circle cx="165" cy="283.329" r="3" />
	<circle cx="165" cy="269.828" r="3" />
	<circle cx="165" cy="283.2435" r="3" />
	<circle cx="175" cy="232.72" r="3" />
	<circle cx="175" cy="253.39" r="3" />
	<circle cx="175" cy="258.766" r="3" />
	<circle cx="175" cy="261.447" r="3" />
	<circle cx="175" cy="275.5605" r="3" />
	<circle cx="175" cy="255.582" r="3" />
	<circle cx="175" cy="257.5485" r="3" />
	<circle cx="185" cy="225.3085" r="3" />
	<circle cx="185" cy="223.298" r="3" />
	<circle cx="185" cy="248.3465" r="3" />
	<circle cx="185" cy="240.078" r="3" />
	<circle cx="185" cy="244.6965" r="3" />
	<circle cx="185" cy="238.2895" r="3" />
	<circle cx="195" cy="199.4065" r="3" />
	<circle cx="195" cy="204.496" r="3" />
	<circle cx="195" cy="215.7715" r="3" />
	<circle cx="195" cy="218.2315" r="3" />
	<circle cx="195" cy="231.3915" r="3" />
	<circle cx="195" cy="216.767" r="3" />
	<circle cx="195" cy="201.8255" r="3" />
	<circle cx="205" cy="185.675" r="3" />
	<circle cx="205" cy="189.5355" r="3" />
	<circle cx="205" cy="183.6305" r="3" />
	<circle cx="205" cy="196.066" r="3" />
	<circle cx="205" cy="197.424" r="3" />
	<circle cx="205" cy="194.593" r="3" />
	<circle cx="205" cy="193.7765" r="3" />
	<circle cx="205" cy="192.08" r="3" />
	<circle cx="215" cy="165.79" r="3" />
	<circle cx="215" cy="158.1055" r="3" />
	<circle cx="215" cy="174.77" r="3" />
	<circle cx="215" cy="162.6275" r="3" />
	<circle cx="215" cy="188.255" r="3" />
	<circle cx="215" cy="178.4155" r="3" />
	<circle cx="215" cy="167.2985" r="3" />
	<circle cx="215" cy="185.617" r="3" />
	<circle cx="215" cy="178.0155" r="3" />
	<circle cx="215" cy="171.119" r="3" />
	<circle cx="215" cy="169.163" r="3" />
	<circle cx="215" cy="171.6075" r="3" />
	<circle cx="225" cy="143.206" r="3" />
	<circle cx="225" cy="133.185" r="3" />
	<circle cx="225" cy="156.643" r="3" />
	<circle cx="225" cy="157.495" r="3" />
	<circle cx="225" cy="147.2045" r="3" />
	<circle cx="225" cy="163.024" r="3" />
	<circle cx="225" cy="157.1995" r="3" />
	<circle cx="225" cy="157.4545" r="3" />
	<circle cx="235" cy="141.9155" r="3" />
	<circle cx="235" cy="115.0515" r="3" />
	<circle cx="235" cy="119.1075" r="3" />
	<circle cx="235" cy="137.346" r="3" />
	<circle cx="235" cy="134.6675" r="3" />
	<circle cx="235" cy="118.701" r="3" />
	<circle cx="235" cy="122.32" r="3" />
	<circle cx="235" cy="134.782" r="3" />
	<circle cx="245" cy="103.7955" r="3" />
	<circle cx="245" cy="107.457" r="3" />
	<circle cx="245" cy="96.063" r="3" />
	<circle cx="245" cy="119.746" r="3" />
	<circle cx="245" cy="101.446" r="3" />
	<circle cx="245" cy="114.2955" r="3" />
	<circle cx="245" cy="120.036" r="3" />
	<circle cx="245" cy="97.3675" r="3" />
	<circle cx="245" cy="105.8405" r="3" />
	<circle cx="255" cy="58.6215" r="3" />
	<circle cx="255" cy="61.4125" r="3" />
	<circle cx="255" cy="73.104" r="3" />
	<circle cx="255" cy="98.2765" r="3" />
	<circle cx="255" cy="75.4585" r="3" />
	<circle cx="255" cy="81.078" r="3" />
	<circle cx="255" cy="100.592" r="3" />
	<circle cx="255" cy="68.633" r="3" />
	<circle cx="255" cy="82.428" r="3" />
	<circle cx="265" cy="50.666" r="3" />
	<circle cx="265" cy="54.3865" r="3" />
	<circle cx="265" cy="51.4935" r="3" />
	<circle cx="265" cy="66.095" r="3" />
	<circle cx="265" cy="67.549" r="3" />
	<circle cx="265" cy="63.732" r="3" />
	<circle cx="265" cy="57.233" r="3" />
	<circle cx="265" cy="56.3525" r="3" />
	<circle cx="275" cy="39.2425" r="3" />
	<circle cx="275" cy="19.6275" r="3" />
	<circle cx="275" cy="52.2965" r="3" />
	<circle cx="275" cy="43.3615" r="3" />
	<circle cx="275" cy="25.0835" r="3" />
	<circle cx="275" cy="57.0495" r="3" />
	<circle cx="275" cy="48.1085" r="3" />
	<circle cx="275" cy="31.712" r="3" />
	<circle cx="275" cy="42.4035" r="3" /><!-- 
	Generated using the Perl SVG Module V2.36
	by Ronan Oger
	Info: http://www.roitsystems.com/
 -->
</svg>