<?xml version="1.0" encoding="UTF-8" standalone="yes"?>
<!DOCTYPE svg PUBLIC "-//W3C//DTD SVG 1.0//EN" "http://www.w3.org/TR/2001/REC-SVG-20010904/DTD/svg10.dtd">
<svg height="579" width="295" xmlns="http://www.w3.org/2000/svg" xmlns:xlink="http://www.w3.org/1999/xlink">
	<line style="stroke: blue; stroke-width: 1" x1="70" x2="280" y1="559" y2="559" />	<text text-anchor="end" x="70" y="559">0.00
	</text>
	<line style="stroke: blue; stroke-width: 1" x1="70" x2="280" y1="509" y2="509" />	<text text-anchor="end" x="70" y="509">0.02
	</text>
	<line style="stroke: blue; stroke-width: 1" x1="70" x2="280" y1="459" y2="459" />	<text text-anchor="end" x="70" y="459">0.04
	</text>
	<line style="stroke: blue; stroke-width: 1" x1="70" x2="280" y1="409" y2="409" />	<text text-anchor="end" x="70" y="409">0.06
	</text>
	<line style="stroke: blue; stroke-width: 1" x1="70" x2="280" y1="359" y2="359" />	<text text-anchor="end" x="70" y="359">0.08
	</text>
	<line style="stroke: blue; stroke-width: 1" x1="70" x2="280" y1="309" y2="309" />	<text text-anchor="end" x="70" y="309">0.10
	</text>
	<line style="stroke: blue; stroke-width: 1" x1="70" x2="280" y1="259" y2="259" />	<text text-anchor="end" x="70" y="259">0.12
	</text>
	<line style="stroke: blue; stroke-width: 1" x1="70" x2="280" y1="209" y2="209" />	<text text-anchor="end" x="70" y="209">0.14
	</text>
	<line style="stroke: blue; stroke-width: 1" x1="70" x2="280" y1="159" y2="159" />	<text text-anchor="end" x="70" y="159">0.16
	</text>
	<line style="stroke: blue; stroke-width: 1" x1="70" x2="280" y1="109" y2="109" />	<text text-anchor="end" x="70" y="109">0.18
	</text>
	<line style="stroke: blue; stroke-width: 1" x1="70" x2="280" y1="59.0000000000001" y2="59.0000000000001" />	<text text-anchor="end" x="70" y="59.0000000000001">0.20
	</text>
	<circle cx="75" cy="558.9925" r="3" />
	<circle cx="75" cy="558.9975" r="3" />
	<circle cx="75" cy="558.995" r="3" />
	<circle cx="75" cy="558.995" r="3" />
	<circle cx="75" cy="558.9975" r="3" />
	<circle cx="75" cy="558.9975" r="3" />
	<circle cx="75" cy="558.9975" r="3" />
	<circle cx="75" cy="558.9975" r="3" />
	<circle cx="75" cy="558.995" r="3" />
	<circle cx="75" cy="558.9975" r="3" />
	<circle cx="75" cy="558.9975" r="3" />
	<circle cx="75" cy="558.9975" r="3" />
	<circle cx="75" cy="558.9975" r="3" />
	<circle cx="75" cy="558.995" r="3" />
	<circle cx="75" cy="558.995" r="3" />
	<circle cx="75" cy="558.995" r="3" />
	<circle cx="75" cy="558.9975" r="3" />
	<circle cx="75" cy="558.9975" r="3" />
	<circle cx="75" cy="558.995" r="3" />
	<circle cx="75" cy="558.995" r="3" />
	<circle cx="75" cy="558.995" r="3" />
	<circle cx="75" cy="558.9975" r="3" />
	<circle cx="85" cy="508.045" r="3" />
	<circle cx="85" cy="524.3325" r="3" />
	<circle cx="85" cy="534.1275" r="3" />
	<circle cx="85" cy="533.505" r="3" />
	<circle cx="85" cy="534.8125" r="3" />
	<circle cx="85" cy="535.905" r="3" />
	<circle cx="85" cy="521.64" r="3" />
	<circle cx="85" cy="535.3775" r="3" />
	<circle cx="85" cy="535.475" r="3" />
	<circle cx="85" cy="534.4875" r="3" />
	<circle cx="85" cy="535.2275" r="3" />
	<circle cx="85" cy="535.0325" r="3" />
	<circle cx="85" cy="535.36" r="3" />
	<circle cx="85" cy="535.64" r="3" />
	<circle cx="85" cy="537.8025" r="3" />
	<circle cx="95" cy="501.2875" r="3" />
	<circle cx="95" cy="480.115" r="3" />
	<circle cx="95" cy="512.725" r="3" />
	<circle cx="95" cy="512.3" r="3" />
	<circle cx="95" cy="513.0775" r="3" />
	<circle cx="95" cy="514.3525" r="3" />
	<circle cx="95" cy="514.4525" r="3" />
	<circle cx="95" cy="513.9425" r="3" />
	<circle cx="95" cy="514.3875" r="3" />
	<circle cx="95" cy="516.0575" r="3" />
	<circle cx="95" cy="517.4275" r="3" />
	<circle cx="95" cy="517.7725" r="3" />
	<circle cx="95" cy="513.225" r="3" />
	<circle cx="95" cy="516.9125" r="3" />
	<circle cx="95" cy="516.3325" r="3" />
	<circle cx="95" cy="514.8275" r="3" />
	<circle cx="95" cy="514.0875" r="3" />
	<circle cx="95" cy="512.635" r="3" />
	<circle cx="95" cy="513.0325" r="3" />
	<circle cx="95" cy="512.93" r="3" />
	<circle cx="95" cy="513.965" r="3" />
	<circle cx="95" cy="513.595" r="3" />
	<circle cx="95" cy="514.64" r="3" />
	<circle cx="95" cy="513.5475" r="3" />
	<circle cx="95" cy="513.56" r="3" />
	<circle cx="95" cy="511.9875" r="3" />
	<circle cx="95" cy="513.9325" r="3" />
	<circle cx="105" cy="470.785" r="3" />
	<circle cx="105" cy="454.5925" r="3" />
	<circle cx="105" cy="489.0575" r="3" />
	<circle cx="105" cy="489.055" r="3" />
	<circle cx="105" cy="486.825" r="3" />
	<circle cx="105" cy="487.3475" r="3" />
	<circle cx="105" cy="489.965" r="3" />
	<circle cx="105" cy="492.06" r="3" />
	<circle cx="105" cy="487.4" r="3" />
	<circle cx="105" cy="487.01" r="3" />
	<circle cx="105" cy="487.5625" r="3" />
	<circle cx="105" cy="491.2175" r="3" />
	<circle cx="105" cy="492.81" r="3" />
	<circle cx="105" cy="493.44" r="3" />
	<circle cx="105" cy="475.2325" r="3" />
	<circle cx="105" cy="490.6825" r="3" />
	<circle cx="105" cy="489.5425" r="3" />
	<circle cx="105" cy="489.12" r="3" />
	<circle cx="105" cy="489.6125" r="3" />
	<circle cx="115" cy="411.8225" r="3" />
	<circle cx="115" cy="408.635" r="3" />
	<circle cx="115" cy="465.2475" r="3" />
	<circle cx="115" cy="463.6725" r="3" />
	<circle cx="115" cy="465.805" r="3" />
	<circle cx="115" cy="467.2875" r="3" />
	<circle cx="115" cy="470.0575" r="3" />
	<circle cx="115" cy="471.3475" r="3" />
	<circle cx="115" cy="469.37" r="3" />
	<circle cx="115" cy="467.87" r="3" />
	<circle cx="115" cy="466.84" r="3" />
	<circle cx="115" cy="467.5075" r="3" />
	<circle cx="115" cy="468.9925" r="3" />
	<circle cx="115" cy="470.6675" r="3" />
	<circle cx="115" cy="469.095" r="3" />
	<circle cx="115" cy="468.7425" r="3" />
	<circle cx="115" cy="471.955" r="3" />
	<circle cx="115" cy="470.37" r="3" />
	<circle cx="115" cy="471.0225" r="3" />
	<circle cx="115" cy="470.0175" r="3" />
	<circle cx="115" cy="467.695" r="3" />
	<circle cx="115" cy="467.3025" r="3" />
	<circle cx="115" cy="465.7875" r="3" />
	<circle cx="115" cy="467.035" r="3" />
	<circle cx="115" cy="435.0775" r="3" />
	<circle cx="125" cy="380.075" r="3" />
	<circle cx="125" cy="390.41" r="3" />
	<circle cx="125" cy="446.2075" r="3" />
	<circle cx="125" cy="443.355" r="3" />
	<circle cx="125" cy="444.275" r="3" />
	<circle cx="125" cy="447.545" r="3" />
	<circle cx="125" cy="449.695" r="3" />
	<circle cx="125" cy="446.4775" r="3" />
	<circle cx="125" cy="443.005" r="3" />
	<circle cx="125" cy="443.755" r="3" />
	<circle cx="125" cy="446.645" r="3" />
	<circle cx="125" cy="452.9825" r="3" />
	<circle cx="125" cy="444.325" r="3" />
	<circle cx="125" cy="445.9275" r="3" />
	<circle cx="125" cy="446.765" r="3" />
	<circle cx="125" cy="446.0075" r="3" />
	<circle cx="125" cy="448.3475" r="3" />
	<circle cx="125" cy="444.005" r="3" />
	<circle cx="135" cy="341.9025" r="3" />
	<circle cx="135" cy="336.125" r="3" />
	<circle cx="135" cy="421.585" r="3" />
	<circle cx="135" cy="423.435" r="3" />
	<circle cx="135" cy="426.8975" r="3" />
	<circle cx="135" cy="423.59" r="3" />
	<circle cx="135" cy="421.985" r="3" />
	<circle cx="135" cy="426.575" r="3" />
	<circle cx="135" cy="428.83" r="3" />
	<circle cx="135" cy="424.7275" r="3" />
	<circle cx="135" cy="421.41" r="3" />
	<circle cx="135" cy="424.7125" r="3" />
	<circle cx="135" cy="429.815" r="3" />
	<circle cx="135" cy="426.3525" r="3" />
	<circle cx="135" cy="426.1625" r="3" />
	<circle cx="135" cy="387.2925" r="3" />
	<circle cx="145" cy="368.48" r="3" />
	<circle cx="145" cy="319.9375" r="3" />
	<circle cx="145" cy="400.025" r="3" />
	<circle cx="145" cy="400.0275" r="3" />
	<circle cx="145" cy="404.42" r="3" />
	<circle cx="145" cy="406.2125" r="3" />
	<circle cx="145" cy="401.81" r="3" />
	<circle cx="145" cy="401.7225" r="3" />
	<circle cx="145" cy="408.64" r="3" />
	<circle cx="145" cy="409.95" r="3" />
	<circle cx="145" cy="404.4675" r="3" />
	<circle cx="145" cy="402.7525" r="3" />
	<circle cx="145" cy="406.6" r="3" />
	<circle cx="145" cy="407.9175" r="3" />
	<circle cx="145" cy="404.2975" r="3" />
	<circle cx="145" cy="404.3425" r="3" />
	<circle cx="145" cy="375.3375" r="3" />
	<circle cx="145" cy="398.2825" r="3" />
	<circle cx="155" cy="285.23" r="3" />
	<circle cx="155" cy="296.7775" r="3" />
	<circle cx="155" cy="376.6025" r="3" />
	<circle cx="155" cy="370.765" r="3" />
	<circle cx="155" cy="376.8625" r="3" />
	<circle cx="155" cy="381.77" r="3" />
	<circle cx="155" cy="373.0625" r="3" />
	<circle cx="155" cy="375.6575" r="3" />
	<circle cx="155" cy="381.5975" r="3" />
	<circle cx="155" cy="380.875" r="3" />
	<circle cx="155" cy="381.8925" r="3" />
	<circle cx="155" cy="384.03" r="3" />
	<circle cx="155" cy="378.0175" r="3" />
	<circle cx="155" cy="375.695" r="3" />
	<circle cx="155" cy="378.465" r="3" />
	<circle cx="155" cy="382.4175" r="3" />
	<circle cx="155" cy="378.675" r="3" />
	<circle cx="155" cy="381.1675" r="3" />
	<circle cx="155" cy="381.1075" r="3" />
	<circle cx="155" cy="373.74" r="3" />
	<circle cx="165" cy="236.58" r="3" />
	<circle cx="165" cy="355.0275" r="3" />
	<circle cx="165" cy="354.28" r="3" />
	<circle cx="165" cy="348.7025" r="3" />
	<circle cx="165" cy="356.7275" r="3" />
	<circle cx="165" cy="361.96" r="3" />
	<circle cx="165" cy="354.1575" r="3" />
	<circle cx="165" cy="353.98" r="3" />
	<circle cx="165" cy="357.9975" r="3" />
	<circle cx="165" cy="361.3875" r="3" />
	<circle cx="165" cy="361.62" r="3" />
	<circle cx="165" cy="354.1875" r="3" />
	<circle cx="165" cy="351.4425" r="3" />
	<circle cx="165" cy="358.9175" r="3" />
	<circle cx="165" cy="355.43" r="3" />
	<circle cx="175" cy="229.1175" r="3" />
	<circle cx="175" cy="287.435" r="3" />
	<circle cx="175" cy="335.075" r="3" />
	<circle cx="175" cy="350.8225" r="3" />
	<circle cx="175" cy="341.8025" r="3" />
	<circle cx="175" cy="330.1" r="3" />
	<circle cx="175" cy="340.6775" r="3" />
	<circle cx="175" cy="341.7475" r="3" />
	<circle cx="175" cy="332.865" r="3" />
	<circle cx="175" cy="339.27" r="3" />
	<circle cx="175" cy="340.705" r="3" />
	<circle cx="175" cy="294.335" r="3" />
	<circle cx="175" cy="281.8625" r="3" />
	<circle cx="185" cy="225.31" r="3" />
	<circle cx="185" cy="260.26" r="3" />
	<circle cx="185" cy="306.48" r="3" />
	<circle cx="185" cy="311.055" r="3" />
	<circle cx="185" cy="309.3025" r="3" />
	<circle cx="185" cy="303.2325" r="3" />
	<circle cx="185" cy="308.7" r="3" />
	<circle cx="185" cy="314.63" r="3" />
	<circle cx="185" cy="311.4875" r="3" />
	<circle cx="185" cy="304.2775" r="3" />
	<circle cx="185" cy="306.995" r="3" />
	<circle cx="185" cy="307.0575" r="3" />
	<circle cx="185" cy="269.1825" r="3" />
	<circle cx="185" cy="261.03" r="3" />
	<circle cx="185" cy="305.91" r="3" />
	<circle cx="195" cy="221.99" r="3" />
	<circle cx="195" cy="213.025" r="3" />
	<circle cx="195" cy="283.8875" r="3" />
	<circle cx="195" cy="292.015" r="3" />
	<circle cx="195" cy="285.5925" r="3" />
	<circle cx="195" cy="286.2825" r="3" />
	<circle cx="195" cy="298.355" r="3" />
	<circle cx="195" cy="300.0525" r="3" />
	<circle cx="195" cy="285.5925" r="3" />
	<circle cx="195" cy="293.875" r="3" />
	<circle cx="195" cy="295.855" r="3" />
	<circle cx="195" cy="289.0925" r="3" />
	<circle cx="195" cy="284.975" r="3" />
	<circle cx="195" cy="287.9825" r="3" />
	<circle cx="205" cy="158.23" r="3" />
	<circle cx="205" cy="229.7" r="3" />
	<circle cx="205" cy="272.1625" r="3" />
	<circle cx="205" cy="274.475" r="3" />
	<circle cx="205" cy="260.4775" r="3" />
	<circle cx="205" cy="278.0325" r="3" />
	<circle cx="205" cy="264.805" r="3" />
	<circle cx="205" cy="268.0725" r="3" />
	<circle cx="205" cy="271.035" r="3" />
	<circle cx="205" cy="281.9375" r="3" />
	<circle cx="205" cy="283.385" r="3" />
	<circle cx="205" cy="275.0725" r="3" />
	<circle cx="205" cy="265.9925" r="3" />
	<circle cx="205" cy="259.385" r="3" />
	<circle cx="215" cy="174.5925" r="3" />
	<circle cx="215" cy="191.575" r="3" />
	<circle cx="215" cy="238.685" r="3" />
	<circle cx="215" cy="252.415" r="3" />
	<circle cx="215" cy="248.5925" r="3" />
	<circle cx="215" cy="241.735" r="3" />
	<circle cx="215" cy="260.935" r="3" />
	<circle cx="215" cy="259.105" r="3" />
	<circle cx="215" cy="244.04" r="3" />
	<circle cx="215" cy="238.3325" r="3" />
	<circle cx="215" cy="209.3925" r="3" />
	<circle cx="215" cy="241.6925" r="3" />
	<circle cx="215" cy="250.26" r="3" />
	<circle cx="215" cy="262.6425" r="3" />
	<circle cx="215" cy="265.8275" r="3" />
	<circle cx="215" cy="251.53" r="3" />
	<circle cx="215" cy="240.2225" r="3" />
	<circle cx="215" cy="177.1325" r="3" />
	<circle cx="215" cy="237.0775" r="3" />
	<circle cx="225" cy="200.08" r="3" />
	<circle cx="225" cy="187.8375" r="3" />
	<circle cx="225" cy="217.5625" r="3" />
	<circle cx="225" cy="231.3425" r="3" />
	<circle cx="225" cy="224.4925" r="3" />
	<circle cx="225" cy="234.88" r="3" />
	<circle cx="225" cy="232.7275" r="3" />
	<circle cx="225" cy="224.18" r="3" />
	<circle cx="225" cy="215.015" r="3" />
	<circle cx="225" cy="231.7475" r="3" />
	<circle cx="225" cy="220.0225" r="3" />
	<circle cx="225" cy="213.3975" r="3" />
	<circle cx="225" cy="213.7225" r="3" />
	<circle cx="225" cy="233.38" r="3" />
	<circle cx="225" cy="229.23" r="3" />
	<circle cx="225" cy="225.6225" r="3" />
	<circle cx="225" cy="215.34" r="3" />
	<circle cx="235" cy="163.6825" r="3" />
	<circle cx="235" cy="170.5725" r="3" />
	<circle cx="235" cy="200.555" r="3" />
	<circle cx="235" cy="211.6675" r="3" />
	<circle cx="235" cy="194.94" r="3" />
	<circle cx="235" cy="189.48" r="3" />
	<circle cx="235" cy="201.625" r="3" />
	<circle cx="235" cy="208.935" r="3" />
	<circle cx="235" cy="198.5725" r="3" />
	<circle cx="235" cy="185.61" r="3" />
	<circle cx="235" cy="192.945" r="3" />
	<circle cx="235" cy="191.28" r="3" />
	<circle cx="235" cy="201.92" r="3" />
	<circle cx="235" cy="195.96" r="3" />
	<circle cx="235" cy="80.14" r="3" />
	<circle cx="235" cy="198.715" r="3" />
	<circle cx="245" cy="108.855" r="3" />
	<circle cx="245" cy="186.81" r="3" />
	<circle cx="245" cy="172.78" r="3" />
	<circle cx="245" cy="196.245" r="3" />
	<circle cx="245" cy="188.7975" r="3" />
	<circle cx="245" cy="182.9025" r="3" />
	<circle cx="245" cy="198.6425" r="3" />
	<circle cx="245" cy="201.51" r="3" />
	<circle cx="245" cy="180.435" r="3" />
	<circle cx="245" cy="166.285" r="3" />
	<circle cx="245" cy="171.02" r="3" />
	<circle cx="245" cy="177.58" r="3" />
	<circle cx="245" cy="180.665" r="3" />
	<circle cx="245" cy="176.46" r="3" />
	<circle cx="245" cy="19.2825" r="3" />
	<circle cx="245" cy="169.0775" r="3" />
	<circle cx="255" cy="41.275" r="3" />
	<circle cx="255" cy="92.89" r="3" />
	<circle cx="255" cy="157.6225" r="3" />
	<circle cx="255" cy="165.1375" r="3" />
	<circle cx="255" cy="157.8875" r="3" />
	<circle cx="255" cy="148.63" r="3" />
	<circle cx="255" cy="167.2275" r="3" />
	<circle cx="255" cy="150.48" r="3" />
	<circle cx="255" cy="149.03" r="3" />
	<circle cx="255" cy="148.045" r="3" />
	<circle cx="255" cy="78.8675" r="3" />
	<circle cx="265" cy="55.69" r="3" />
	<circle cx="265" cy="68.3925" r="3" />
	<circle cx="265" cy="125.81" r="3" />
	<circle cx="265" cy="119.5025" r="3" />
	<circle cx="265" cy="151.545" r="3" />
	<circle cx="265" cy="159.3025" r="3" />
	<circle cx="265" cy="152.85" r="3" />
	<circle cx="265" cy="136.24" r="3" />
	<circle cx="265" cy="133.5925" r="3" />
	<circle cx="265" cy="124.3" r="3" />
	<circle cx="265" cy="136.3425" r="3" />
	<circle cx="265" cy="147.9225" r="3" />
	<circle cx="265" cy="138.4125" r="3" />
	<circle cx="265" cy="92.515" r="3" />
	<circle cx="265" cy="132.0625" r="3" />
	<circle cx="275" cy="61.21" r="3" />
	<circle cx="275" cy="48.51" r="3" />
	<circle cx="275" cy="123.085" r="3" />
	<circle cx="275" cy="114.665" r="3" />
	<circle cx="275" cy="97.655" r="3" />
	<circle cx="275" cy="121.9325" r="3" />
	<circle cx="275" cy="126.0625" r="3" />
	<circle cx="275" cy="131.48" r="3" />
	<circle cx="275" cy="120.4575" r="3" />
	<circle cx="275" cy="114.9125" r="3" />
	<circle cx="275" cy="106.3275" r="3" />
	<circle cx="275" cy="120.9075" r="3" />
	<circle cx="275" cy="126.4675" r="3" />
	<circle cx="275" cy="121.1275" r="3" />
	<circle cx="275" cy="121.2075" r="3" />
	<circle cx="275" cy="116.76" r="3" />
	<circle cx="275" cy="124.2375" r="3" />
	<circle cx="275" cy="67.225" r="3" />
	<circle cx="275" cy="71.1275000000001" r="3" /><!-- 
	Generated using the Perl SVG Module V2.36
	by Ronan Oger
	Info: http://www.roitsystems.com/
 -->
</svg>