<?xml version="1.0" encoding="UTF-8" standalone="yes"?>
<!DOCTYPE svg PUBLIC "-//W3C//DTD SVG 1.0//EN" "http://www.w3.org/TR/2001/REC-SVG-20010904/DTD/svg10.dtd">
<svg height="704" width="295" xmlns="http://www.w3.org/2000/svg" xmlns:xlink="http://www.w3.org/1999/xlink">
	<line style="stroke: blue; stroke-width: 1" x1="70" x2="280" y1="684" y2="684" />	<text text-anchor="end" x="70" y="684">0.00
	</text>
	<line style="stroke: blue; stroke-width: 1" x1="70" x2="280" y1="634" y2="634" />	<text text-anchor="end" x="70" y="634">0.01
	</text>
	<line style="stroke: blue; stroke-width: 1" x1="70" x2="280" y1="584" y2="584" />	<text text-anchor="end" x="70" y="584">0.02
	</text>
	<line style="stroke: blue; stroke-width: 1" x1="70" x2="280" y1="534" y2="534" />	<text text-anchor="end" x="70" y="534">0.03
	</text>
	<line style="stroke: blue; stroke-width: 1" x1="70" x2="280" y1="484" y2="484" />	<text text-anchor="end" x="70" y="484">0.04
	</text>
	<line style="stroke: blue; stroke-width: 1" x1="70" x2="280" y1="434" y2="434" />	<text text-anchor="end" x="70" y="434">0.05
	</text>
	<line style="stroke: blue; stroke-width: 1" x1="70" x2="280" y1="384" y2="384" />	<text text-anchor="end" x="70" y="384">0.06
	</text>
	<line style="stroke: blue; stroke-width: 1" x1="70" x2="280" y1="334" y2="334" />	<text text-anchor="end" x="70" y="334">0.07
	</text>
	<line style="stroke: blue; stroke-width: 1" x1="70" x2="280" y1="284" y2="284" />	<text text-anchor="end" x="70" y="284">0.08
	</text>
	<line style="stroke: blue; stroke-width: 1" x1="70" x2="280" y1="234" y2="234" />	<text text-anchor="end" x="70" y="234">0.09
	</text>
	<line style="stroke: blue; stroke-width: 1" x1="70" x2="280" y1="184" y2="184" />	<text text-anchor="end" x="70" y="184">0.10
	</text>
	<line style="stroke: blue; stroke-width: 1" x1="70" x2="280" y1="134" y2="134" />	<text text-anchor="end" x="70" y="134">0.11
	</text>
	<line style="stroke: blue; stroke-width: 1" x1="70" x2="280" y1="84.0000000000001" y2="84.0000000000001" />	<text text-anchor="end" x="70" y="84.0000000000001">0.12
	</text>
	<line style="stroke: blue; stroke-width: 1" x1="70" x2="280" y1="34.0000000000001" y2="34.0000000000001" />	<text text-anchor="end" x="70" y="34.0000000000001">0.13
	</text>
	<circle cx="75" cy="683.985" r="3" />
	<circle cx="75" cy="683.99" r="3" />
	<circle cx="75" cy="683.99" r="3" />
	<circle cx="75" cy="683.99" r="3" />
	<circle cx="75" cy="683.995" r="3" />
	<circle cx="75" cy="683.99" r="3" />
	<circle cx="75" cy="683.99" r="3" />
	<circle cx="75" cy="683.995" r="3" />
	<circle cx="75" cy="683.995" r="3" />
	<circle cx="75" cy="683.995" r="3" />
	<circle cx="75" cy="683.995" r="3" />
	<circle cx="75" cy="683.995" r="3" />
	<circle cx="75" cy="683.995" r="3" />
	<circle cx="75" cy="683.99" r="3" />
	<circle cx="75" cy="683.995" r="3" />
	<circle cx="75" cy="683.995" r="3" />
	<circle cx="75" cy="683.99" r="3" />
	<circle cx="75" cy="683.995" r="3" />
	<circle cx="75" cy="683.99" r="3" />
	<circle cx="75" cy="683.995" r="3" />
	<circle cx="75" cy="683.995" r="3" />
	<circle cx="85" cy="592.555" r="3" />
	<circle cx="85" cy="670.92" r="3" />
	<circle cx="85" cy="640.76" r="3" />
	<circle cx="85" cy="665.635" r="3" />
	<circle cx="85" cy="664.405" r="3" />
	<circle cx="85" cy="656.27" r="3" />
	<circle cx="85" cy="658.155" r="3" />
	<circle cx="85" cy="655.885" r="3" />
	<circle cx="85" cy="663.875" r="3" />
	<circle cx="85" cy="664.235" r="3" />
	<circle cx="85" cy="664.025" r="3" />
	<circle cx="85" cy="665.05" r="3" />
	<circle cx="85" cy="664.915" r="3" />
	<circle cx="85" cy="664.37" r="3" />
	<circle cx="85" cy="664.185" r="3" />
	<circle cx="85" cy="653.155" r="3" />
	<circle cx="85" cy="665.55" r="3" />
	<circle cx="85" cy="665.4" r="3" />
	<circle cx="85" cy="656.085" r="3" />
	<circle cx="85" cy="664.075" r="3" />
	<circle cx="85" cy="665.11" r="3" />
	<circle cx="95" cy="569.24" r="3" />
	<circle cx="95" cy="609.37" r="3" />
	<circle cx="95" cy="631.11" r="3" />
	<circle cx="95" cy="634.215" r="3" />
	<circle cx="95" cy="632.805" r="3" />
	<circle cx="95" cy="637.3" r="3" />
	<circle cx="95" cy="638.955" r="3" />
	<circle cx="95" cy="636.555" r="3" />
	<circle cx="95" cy="640.265" r="3" />
	<circle cx="95" cy="637.91" r="3" />
	<circle cx="95" cy="634.93" r="3" />
	<circle cx="95" cy="634.165" r="3" />
	<circle cx="95" cy="632.145" r="3" />
	<circle cx="95" cy="635.205" r="3" />
	<circle cx="95" cy="637.74" r="3" />
	<circle cx="95" cy="634.805" r="3" />
	<circle cx="95" cy="634.97" r="3" />
	<circle cx="95" cy="633.57" r="3" />
	<circle cx="95" cy="632.645" r="3" />
	<circle cx="95" cy="633.775" r="3" />
	<circle cx="95" cy="492.29" r="3" />
	<circle cx="105" cy="546.225" r="3" />
	<circle cx="105" cy="575.02" r="3" />
	<circle cx="105" cy="608.575" r="3" />
	<circle cx="105" cy="613.695" r="3" />
	<circle cx="105" cy="617.005" r="3" />
	<circle cx="105" cy="616.49" r="3" />
	<circle cx="105" cy="616.64" r="3" />
	<circle cx="105" cy="587.44" r="3" />
	<circle cx="105" cy="614.23" r="3" />
	<circle cx="105" cy="606.935" r="3" />
	<circle cx="105" cy="604.99" r="3" />
	<circle cx="105" cy="606.945" r="3" />
	<circle cx="105" cy="607.98" r="3" />
	<circle cx="105" cy="609.79" r="3" />
	<circle cx="105" cy="611.935" r="3" />
	<circle cx="105" cy="585.565" r="3" />
	<circle cx="115" cy="517.265" r="3" />
	<circle cx="115" cy="457.205" r="3" />
	<circle cx="115" cy="583.97" r="3" />
	<circle cx="115" cy="581.65" r="3" />
	<circle cx="115" cy="573.91" r="3" />
	<circle cx="115" cy="588.87" r="3" />
	<circle cx="115" cy="592.09" r="3" />
	<circle cx="115" cy="591.205" r="3" />
	<circle cx="115" cy="588.55" r="3" />
	<circle cx="115" cy="587.13" r="3" />
	<circle cx="115" cy="588.46" r="3" />
	<circle cx="115" cy="585" r="3" />
	<circle cx="115" cy="497.435" r="3" />
	<circle cx="115" cy="589.16" r="3" />
	<circle cx="115" cy="472.555" r="3" />
	<circle cx="115" cy="553.4" r="3" />
	<circle cx="115" cy="582.275" r="3" />
	<circle cx="115" cy="513.7" r="3" />
	<circle cx="115" cy="584.91" r="3" />
	<circle cx="115" cy="586.035" r="3" />
	<circle cx="115" cy="567.27" r="3" />
	<circle cx="115" cy="587.755" r="3" />
	<circle cx="115" cy="584.14" r="3" />
	<circle cx="115" cy="509.635" r="3" />
	<circle cx="115" cy="590.9" r="3" />
	<circle cx="125" cy="421.64" r="3" />
	<circle cx="125" cy="508.875" r="3" />
	<circle cx="125" cy="561.975" r="3" />
	<circle cx="125" cy="565.43" r="3" />
	<circle cx="125" cy="529.935" r="3" />
	<circle cx="125" cy="569.03" r="3" />
	<circle cx="125" cy="567.685" r="3" />
	<circle cx="125" cy="565" r="3" />
	<circle cx="125" cy="561.145" r="3" />
	<circle cx="125" cy="561.505" r="3" />
	<circle cx="125" cy="566.81" r="3" />
	<circle cx="125" cy="569.585" r="3" />
	<circle cx="125" cy="569.595" r="3" />
	<circle cx="125" cy="567.405" r="3" />
	<circle cx="125" cy="559.49" r="3" />
	<circle cx="125" cy="566.47" r="3" />
	<circle cx="125" cy="559.255" r="3" />
	<circle cx="135" cy="453.315" r="3" />
	<circle cx="135" cy="395.22" r="3" />
	<circle cx="135" cy="543.51" r="3" />
	<circle cx="135" cy="546.05" r="3" />
	<circle cx="135" cy="555.67" r="3" />
	<circle cx="135" cy="552.76" r="3" />
	<circle cx="135" cy="553.145" r="3" />
	<circle cx="135" cy="549.315" r="3" />
	<circle cx="135" cy="547.005" r="3" />
	<circle cx="135" cy="542.78" r="3" />
	<circle cx="135" cy="534.785" r="3" />
	<circle cx="135" cy="537.93" r="3" />
	<circle cx="135" cy="544.515" r="3" />
	<circle cx="135" cy="540.705" r="3" />
	<circle cx="135" cy="540.4" r="3" />
	<circle cx="135" cy="543.145" r="3" />
	<circle cx="135" cy="544.625" r="3" />
	<circle cx="135" cy="540.455" r="3" />
	<circle cx="145" cy="407.885" r="3" />
	<circle cx="145" cy="375.675" r="3" />
	<circle cx="145" cy="516.205" r="3" />
	<circle cx="145" cy="514.645" r="3" />
	<circle cx="145" cy="514.11" r="3" />
	<circle cx="145" cy="513.995" r="3" />
	<circle cx="145" cy="518.525" r="3" />
	<circle cx="145" cy="523.25" r="3" />
	<circle cx="145" cy="522.155" r="3" />
	<circle cx="145" cy="518.05" r="3" />
	<circle cx="145" cy="517.1" r="3" />
	<circle cx="145" cy="522.82" r="3" />
	<circle cx="145" cy="519.99" r="3" />
	<circle cx="145" cy="517.415" r="3" />
	<circle cx="145" cy="518.875" r="3" />
	<circle cx="145" cy="392.43" r="3" />
	<circle cx="145" cy="517.23" r="3" />
	<circle cx="145" cy="523.905" r="3" />
	<circle cx="145" cy="528.095" r="3" />
	<circle cx="145" cy="528.14" r="3" />
	<circle cx="145" cy="523.585" r="3" />
	<circle cx="145" cy="511.575" r="3" />
	<circle cx="145" cy="515.345" r="3" />
	<circle cx="145" cy="510.7" r="3" />
	<circle cx="145" cy="518.16" r="3" />
	<circle cx="145" cy="513.45" r="3" />
	<circle cx="155" cy="305.55" r="3" />
	<circle cx="155" cy="301.23" r="3" />
	<circle cx="155" cy="492.25" r="3" />
	<circle cx="155" cy="510.2" r="3" />
	<circle cx="155" cy="507.685" r="3" />
	<circle cx="155" cy="502.82" r="3" />
	<circle cx="155" cy="494.9" r="3" />
	<circle cx="155" cy="490.825" r="3" />
	<circle cx="155" cy="489.89" r="3" />
	<circle cx="155" cy="497.555" r="3" />
	<circle cx="155" cy="480.86" r="3" />
	<circle cx="155" cy="483.965" r="3" />
	<circle cx="165" cy="332.04" r="3" />
	<circle cx="165" cy="305.845" r="3" />
	<circle cx="165" cy="469.365" r="3" />
	<circle cx="165" cy="442.085" r="3" />
	<circle cx="165" cy="477.355" r="3" />
	<circle cx="165" cy="470.42" r="3" />
	<circle cx="165" cy="466.815" r="3" />
	<circle cx="165" cy="466.54" r="3" />
	<circle cx="165" cy="469.005" r="3" />
	<circle cx="165" cy="475.36" r="3" />
	<circle cx="165" cy="475.885" r="3" />
	<circle cx="165" cy="467.935" r="3" />
	<circle cx="165" cy="466.34" r="3" />
	<circle cx="165" cy="461.225" r="3" />
	<circle cx="175" cy="261.625" r="3" />
	<circle cx="175" cy="291.635" r="3" />
	<circle cx="175" cy="451.84" r="3" />
	<circle cx="175" cy="455.935" r="3" />
	<circle cx="175" cy="467.41" r="3" />
	<circle cx="175" cy="462.205" r="3" />
	<circle cx="175" cy="458.885" r="3" />
	<circle cx="175" cy="451.815" r="3" />
	<circle cx="175" cy="449.1" r="3" />
	<circle cx="175" cy="455.55" r="3" />
	<circle cx="175" cy="453.465" r="3" />
	<circle cx="185" cy="302.185" r="3" />
	<circle cx="185" cy="248.72" r="3" />
	<circle cx="185" cy="428.46" r="3" />
	<circle cx="185" cy="423.54" r="3" />
	<circle cx="185" cy="420.355" r="3" />
	<circle cx="185" cy="419.93" r="3" />
	<circle cx="185" cy="428.6" r="3" />
	<circle cx="185" cy="434.015" r="3" />
	<circle cx="185" cy="423.32" r="3" />
	<circle cx="185" cy="423" r="3" />
	<circle cx="185" cy="413.285" r="3" />
	<circle cx="185" cy="415.17" r="3" />
	<circle cx="195" cy="221.845" r="3" />
	<circle cx="195" cy="238.125" r="3" />
	<circle cx="195" cy="398.55" r="3" />
	<circle cx="195" cy="412.415" r="3" />
	<circle cx="195" cy="406.06" r="3" />
	<circle cx="195" cy="400.16" r="3" />
	<circle cx="195" cy="395.32" r="3" />
	<circle cx="195" cy="399.53" r="3" />
	<circle cx="195" cy="411.35" r="3" />
	<circle cx="195" cy="414.05" r="3" />
	<circle cx="195" cy="314.84" r="3" />
	<circle cx="195" cy="399.855" r="3" />
	<circle cx="205" cy="249.445" r="3" />
	<circle cx="205" cy="283.71" r="3" />
	<circle cx="205" cy="378.95" r="3" />
	<circle cx="205" cy="386.86" r="3" />
	<circle cx="205" cy="386.845" r="3" />
	<circle cx="205" cy="370.32" r="3" />
	<circle cx="205" cy="371.39" r="3" />
	<circle cx="205" cy="381.07" r="3" />
	<circle cx="205" cy="379.535" r="3" />
	<circle cx="205" cy="372.1" r="3" />
	<circle cx="205" cy="370.28" r="3" />
	<circle cx="205" cy="372.685" r="3" />
	<circle cx="205" cy="373.43" r="3" />
	<circle cx="205" cy="289.015" r="3" />
	<circle cx="205" cy="380.605" r="3" />
	<circle cx="215" cy="125.44" r="3" />
	<circle cx="215" cy="248.865" r="3" />
	<circle cx="215" cy="348.04" r="3" />
	<circle cx="215" cy="345.025" r="3" />
	<circle cx="215" cy="352.69" r="3" />
	<circle cx="215" cy="344.005" r="3" />
	<circle cx="215" cy="351.93" r="3" />
	<circle cx="215" cy="355.71" r="3" />
	<circle cx="215" cy="367.815" r="3" />
	<circle cx="215" cy="372.395" r="3" />
	<circle cx="215" cy="373.92" r="3" />
	<circle cx="215" cy="377.17" r="3" />
	<circle cx="225" cy="160.675" r="3" />
	<circle cx="225" cy="313.175" r="3" />
	<circle cx="225" cy="336.005" r="3" />
	<circle cx="225" cy="323.655" r="3" />
	<circle cx="225" cy="315.315" r="3" />
	<circle cx="225" cy="328.89" r="3" />
	<circle cx="225" cy="344.92" r="3" />
	<circle cx="225" cy="332.225" r="3" />
	<circle cx="225" cy="333.55" r="3" />
	<circle cx="225" cy="335.305" r="3" />
	<circle cx="225" cy="256.615" r="3" />
	<circle cx="225" cy="319.59" r="3" />
	<circle cx="235" cy="369.235" r="3" />
	<circle cx="235" cy="137.565" r="3" />
	<circle cx="235" cy="306.135" r="3" />
	<circle cx="235" cy="317.835" r="3" />
	<circle cx="235" cy="306.735" r="3" />
	<circle cx="235" cy="297.905" r="3" />
	<circle cx="235" cy="301.595" r="3" />
	<circle cx="235" cy="313.46" r="3" />
	<circle cx="235" cy="317.8" r="3" />
	<circle cx="235" cy="311.195" r="3" />
	<circle cx="235" cy="314.045" r="3" />
	<circle cx="235" cy="317.87" r="3" />
	<circle cx="235" cy="304.885" r="3" />
	<circle cx="235" cy="303.14" r="3" />
	<circle cx="235" cy="308.37" r="3" />
	<circle cx="235" cy="225.235" r="3" />
	<circle cx="235" cy="299.48" r="3" />
	<circle cx="245" cy="19.9499999999999" r="3" />
	<circle cx="245" cy="177.07" r="3" />
	<circle cx="245" cy="293.825" r="3" />
	<circle cx="245" cy="286.455" r="3" />
	<circle cx="245" cy="294.36" r="3" />
	<circle cx="245" cy="289.165" r="3" />
	<circle cx="245" cy="280.535" r="3" />
	<circle cx="245" cy="286.465" r="3" />
	<circle cx="245" cy="297.94" r="3" />
	<circle cx="245" cy="217.68" r="3" />
	<circle cx="245" cy="292.33" r="3" />
	<circle cx="245" cy="288.635" r="3" />
	<circle cx="245" cy="279.11" r="3" />
	<circle cx="245" cy="283.55" r="3" />
	<circle cx="245" cy="280.435" r="3" />
	<circle cx="255" cy="263.79" r="3" />
	<circle cx="255" cy="171.875" r="3" />
	<circle cx="255" cy="255.045" r="3" />
	<circle cx="255" cy="274.03" r="3" />
	<circle cx="255" cy="279.41" r="3" />
	<circle cx="255" cy="273.975" r="3" />
	<circle cx="255" cy="258.35" r="3" />
	<circle cx="255" cy="245.11" r="3" />
	<circle cx="255" cy="268.125" r="3" />
	<circle cx="255" cy="274.215" r="3" />
	<circle cx="255" cy="270.935" r="3" />
	<circle cx="255" cy="254.56" r="3" />
	<circle cx="255" cy="256.145" r="3" />
	<circle cx="255" cy="265.315" r="3" />
	<circle cx="255" cy="262.18" r="3" />
	<circle cx="255" cy="225.67" r="3" />
	<circle cx="255" cy="182.425" r="3" />
	<circle cx="265" cy="88.99" r="3" />
	<circle cx="265" cy="151.285" r="3" />
	<circle cx="265" cy="248.015" r="3" />
	<circle cx="265" cy="250.405" r="3" />
	<circle cx="265" cy="267.38" r="3" />
	<circle cx="265" cy="264.07" r="3" />
	<circle cx="265" cy="244.975" r="3" />
	<circle cx="265" cy="140.775" r="3" />
	<circle cx="265" cy="248.49" r="3" />
	<circle cx="265" cy="110.215" r="3" />
	<circle cx="265" cy="248.695" r="3" />
	<circle cx="265" cy="262.545" r="3" />
	<circle cx="265" cy="274.505" r="3" />
	<circle cx="265" cy="263.815" r="3" />
	<circle cx="265" cy="247.95" r="3" />
	<circle cx="265" cy="247.775" r="3" />
	<circle cx="265" cy="240.855" r="3" />
	<circle cx="275" cy="43.985" r="3" />
	<circle cx="275" cy="20.6300000000001" r="3" />
	<circle cx="275" cy="183.445" r="3" />
	<circle cx="275" cy="190.395" r="3" />
	<circle cx="275" cy="215.355" r="3" />
	<circle cx="275" cy="225.09" r="3" />
	<circle cx="275" cy="204.485" r="3" />
	<circle cx="275" cy="210.24" r="3" />
	<circle cx="275" cy="206.72" r="3" />
	<circle cx="275" cy="211.535" r="3" />
	<circle cx="275" cy="229.725" r="3" />
	<circle cx="275" cy="230.645" r="3" />
	<circle cx="275" cy="215.43" r="3" />
	<circle cx="275" cy="200.15" r="3" />
	<circle cx="275" cy="220.14" r="3" /><!-- 
	Generated using the Perl SVG Module V2.36
	by Ronan Oger
	Info: http://www.roitsystems.com/
 -->
</svg>