<?xml version="1.0" encoding="UTF-8" standalone="yes"?>
<!DOCTYPE svg PUBLIC "-//W3C//DTD SVG 1.0//EN" "http://www.w3.org/TR/2001/REC-SVG-20010904/DTD/svg10.dtd">
<svg height="781" width="295" xmlns="http://www.w3.org/2000/svg" xmlns:xlink="http://www.w3.org/1999/xlink">
	<line style="stroke: blue; stroke-width: 1" x1="70" x2="280" y1="761" y2="761" />	<text text-anchor="end" x="70" y="761">0.00
	</text>
	<line style="stroke: blue; stroke-width: 1" x1="70" x2="280" y1="711" y2="711" />	<text text-anchor="end" x="70" y="711">0.20
	</text>
	<line style="stroke: blue; stroke-width: 1" x1="70" x2="280" y1="661" y2="661" />	<text text-anchor="end" x="70" y="661">0.40
	</text>
	<line style="stroke: blue; stroke-width: 1" x1="70" x2="280" y1="611" y2="611" />	<text text-anchor="end" x="70" y="611">0.60
	</text>
	<line style="stroke: blue; stroke-width: 1" x1="70" x2="280" y1="561" y2="561" />	<text text-anchor="end" x="70" y="561">0.80
	</text>
	<line style="stroke: blue; stroke-width: 1" x1="70" x2="280" y1="511" y2="511" />	<text text-anchor="end" x="70" y="511">1.00
	</text>
	<line style="stroke: blue; stroke-width: 1" x1="70" x2="280" y1="461" y2="461" />	<text text-anchor="end" x="70" y="461">1.20
	</text>
	<line style="stroke: blue; stroke-width: 1" x1="70" x2="280" y1="411" y2="411" />	<text text-anchor="end" x="70" y="411">1.40
	</text>
	<line style="stroke: blue; stroke-width: 1" x1="70" x2="280" y1="361" y2="361" />	<text text-anchor="end" x="70" y="361">1.60
	</text>
	<line style="stroke: blue; stroke-width: 1" x1="70" x2="280" y1="311" y2="311" />	<text text-anchor="end" x="70" y="311">1.80
	</text>
	<line style="stroke: blue; stroke-width: 1" x1="70" x2="280" y1="261" y2="261" />	<text text-anchor="end" x="70" y="261">2.00
	</text>
	<line style="stroke: blue; stroke-width: 1" x1="70" x2="280" y1="211" y2="211" />	<text text-anchor="end" x="70" y="211">2.20
	</text>
	<line style="stroke: blue; stroke-width: 1" x1="70" x2="280" y1="161" y2="161" />	<text text-anchor="end" x="70" y="161">2.40
	</text>
	<line style="stroke: blue; stroke-width: 1" x1="70" x2="280" y1="111" y2="111" />	<text text-anchor="end" x="70" y="111">2.60
	</text>
	<line style="stroke: blue; stroke-width: 1" x1="70" x2="280" y1="60.9999999999999" y2="60.9999999999999" />	<text text-anchor="end" x="70" y="60.9999999999999">2.80
	</text>
	<circle cx="75" cy="760.99925" r="3" />
	<circle cx="75" cy="760.99975" r="3" />
	<circle cx="75" cy="760.9995" r="3" />
	<circle cx="75" cy="760.9995" r="3" />
	<circle cx="75" cy="760.9995" r="3" />
	<circle cx="75" cy="760.99975" r="3" />
	<circle cx="75" cy="760.99975" r="3" />
	<circle cx="75" cy="760.9995" r="3" />
	<circle cx="75" cy="760.99975" r="3" />
	<circle cx="75" cy="760.9995" r="3" />
	<circle cx="75" cy="760.9995" r="3" />
	<circle cx="75" cy="760.9995" r="3" />
	<circle cx="75" cy="760.99975" r="3" />
	<circle cx="75" cy="760.9995" r="3" />
	<circle cx="75" cy="760.9995" r="3" />
	<circle cx="75" cy="760.99975" r="3" />
	<circle cx="75" cy="760.99975" r="3" />
	<circle cx="75" cy="760.9995" r="3" />
	<circle cx="75" cy="760.9995" r="3" />
	<circle cx="75" cy="760.99975" r="3" />
	<circle cx="75" cy="760.9995" r="3" />
	<circle cx="75" cy="760.99975" r="3" />
	<circle cx="75" cy="760.9995" r="3" />
	<circle cx="75" cy="760.99975" r="3" />
	<circle cx="75" cy="760.9995" r="3" />
	<circle cx="75" cy="760.99975" r="3" />
	<circle cx="75" cy="760.99975" r="3" />
	<circle cx="75" cy="760.99975" r="3" />
	<circle cx="75" cy="760.99975" r="3" />
	<circle cx="75" cy="760.99975" r="3" />
	<circle cx="85" cy="731.54525" r="3" />
	<circle cx="85" cy="732.716" r="3" />
	<circle cx="85" cy="737.912" r="3" />
	<circle cx="85" cy="738.097" r="3" />
	<circle cx="85" cy="738.273" r="3" />
	<circle cx="85" cy="738.51125" r="3" />
	<circle cx="85" cy="738.0345" r="3" />
	<circle cx="85" cy="738.29575" r="3" />
	<circle cx="85" cy="739.4215" r="3" />
	<circle cx="85" cy="739.6075" r="3" />
	<circle cx="85" cy="739.70625" r="3" />
	<circle cx="85" cy="739.1965" r="3" />
	<circle cx="85" cy="738.15725" r="3" />
	<circle cx="85" cy="737.5775" r="3" />
	<circle cx="85" cy="737.43975" r="3" />
	<circle cx="85" cy="737.54" r="3" />
	<circle cx="85" cy="737.1645" r="3" />
	<circle cx="85" cy="737.06375" r="3" />
	<circle cx="85" cy="738.409" r="3" />
	<circle cx="85" cy="737.52575" r="3" />
	<circle cx="85" cy="737.11775" r="3" />
	<circle cx="85" cy="737.2095" r="3" />
	<circle cx="85" cy="737.32425" r="3" />
	<circle cx="95" cy="702.087" r="3" />
	<circle cx="95" cy="710.101" r="3" />
	<circle cx="95" cy="714.5165" r="3" />
	<circle cx="95" cy="714.91125" r="3" />
	<circle cx="95" cy="715.4715" r="3" />
	<circle cx="95" cy="717.82225" r="3" />
	<circle cx="95" cy="716.79975" r="3" />
	<circle cx="95" cy="715.4215" r="3" />
	<circle cx="95" cy="714.81" r="3" />
	<circle cx="95" cy="714.5955" r="3" />
	<circle cx="95" cy="714.49825" r="3" />
	<circle cx="95" cy="716.90275" r="3" />
	<circle cx="95" cy="716.9175" r="3" />
	<circle cx="95" cy="711.1545" r="3" />
	<circle cx="95" cy="715.04425" r="3" />
	<circle cx="105" cy="686.2635" r="3" />
	<circle cx="105" cy="690.73775" r="3" />
	<circle cx="105" cy="695.1315" r="3" />
	<circle cx="105" cy="694.514" r="3" />
	<circle cx="105" cy="695.612" r="3" />
	<circle cx="105" cy="693.0035" r="3" />
	<circle cx="105" cy="691.125" r="3" />
	<circle cx="105" cy="691.1085" r="3" />
	<circle cx="105" cy="693.623" r="3" />
	<circle cx="105" cy="695.99375" r="3" />
	<circle cx="105" cy="696.53125" r="3" />
	<circle cx="105" cy="694.08475" r="3" />
	<circle cx="105" cy="692.45625" r="3" />
	<circle cx="105" cy="691.158" r="3" />
	<circle cx="105" cy="686.98575" r="3" />
	<circle cx="105" cy="690.08275" r="3" />
	<circle cx="115" cy="649.77125" r="3" />
	<circle cx="115" cy="664.5575" r="3" />
	<circle cx="115" cy="668.05425" r="3" />
	<circle cx="115" cy="669.036" r="3" />
	<circle cx="115" cy="671.173" r="3" />
	<circle cx="115" cy="672.6615" r="3" />
	<circle cx="115" cy="671.35125" r="3" />
	<circle cx="115" cy="667.30275" r="3" />
	<circle cx="115" cy="666.5825" r="3" />
	<circle cx="115" cy="670.0375" r="3" />
	<circle cx="115" cy="668.3495" r="3" />
	<circle cx="115" cy="661.37325" r="3" />
	<circle cx="115" cy="663.75825" r="3" />
	<circle cx="125" cy="632.569" r="3" />
	<circle cx="125" cy="641.99875" r="3" />
	<circle cx="125" cy="644.5165" r="3" />
	<circle cx="125" cy="644.88825" r="3" />
	<circle cx="125" cy="643.274" r="3" />
	<circle cx="125" cy="646.69525" r="3" />
	<circle cx="125" cy="649.85" r="3" />
	<circle cx="125" cy="653.067" r="3" />
	<circle cx="125" cy="654.777" r="3" />
	<circle cx="125" cy="652.01275" r="3" />
	<circle cx="125" cy="643.598" r="3" />
	<circle cx="125" cy="641.6305" r="3" />
	<circle cx="125" cy="645.69725" r="3" />
	<circle cx="125" cy="652.45925" r="3" />
	<circle cx="125" cy="651.926" r="3" />
	<circle cx="125" cy="652.96225" r="3" />
	<circle cx="125" cy="651.96175" r="3" />
	<circle cx="125" cy="644.442" r="3" />
	<circle cx="125" cy="642.84575" r="3" />
	<circle cx="125" cy="646.42375" r="3" />
	<circle cx="125" cy="647.264" r="3" />
	<circle cx="125" cy="653.00775" r="3" />
	<circle cx="125" cy="652.81775" r="3" />
	<circle cx="125" cy="644.4645" r="3" />
	<circle cx="125" cy="642.32775" r="3" />
	<circle cx="125" cy="635.37675" r="3" />
	<circle cx="125" cy="646.44025" r="3" />
	<circle cx="135" cy="617.504" r="3" />
	<circle cx="135" cy="611.73425" r="3" />
	<circle cx="135" cy="618.42275" r="3" />
	<circle cx="135" cy="633.96525" r="3" />
	<circle cx="135" cy="635.439" r="3" />
	<circle cx="135" cy="628.57775" r="3" />
	<circle cx="135" cy="625.463" r="3" />
	<circle cx="135" cy="633.44275" r="3" />
	<circle cx="135" cy="636.428" r="3" />
	<circle cx="135" cy="637.34125" r="3" />
	<circle cx="135" cy="634.542" r="3" />
	<circle cx="135" cy="628.82" r="3" />
	<circle cx="135" cy="623.243" r="3" />
	<circle cx="135" cy="625.02075" r="3" />
	<circle cx="135" cy="632.9735" r="3" />
	<circle cx="135" cy="622.70225" r="3" />
	<circle cx="135" cy="631.74525" r="3" />
	<circle cx="145" cy="600.50175" r="3" />
	<circle cx="145" cy="605.548" r="3" />
	<circle cx="145" cy="613.4155" r="3" />
	<circle cx="145" cy="611.8455" r="3" />
	<circle cx="145" cy="608.322" r="3" />
	<circle cx="145" cy="602.28775" r="3" />
	<circle cx="145" cy="614.2515" r="3" />
	<circle cx="145" cy="617.992" r="3" />
	<circle cx="145" cy="617.07275" r="3" />
	<circle cx="145" cy="610.089" r="3" />
	<circle cx="145" cy="605.135" r="3" />
	<circle cx="145" cy="603.266" r="3" />
	<circle cx="145" cy="601.52575" r="3" />
	<circle cx="145" cy="600.516" r="3" />
	<circle cx="145" cy="610.0635" r="3" />
	<circle cx="145" cy="616.42725" r="3" />
	<circle cx="145" cy="620.13175" r="3" />
	<circle cx="145" cy="615.53825" r="3" />
	<circle cx="145" cy="613.12875" r="3" />
	<circle cx="145" cy="612.61475" r="3" />
	<circle cx="145" cy="611.77825" r="3" />
	<circle cx="145" cy="606.36025" r="3" />
	<circle cx="145" cy="602.454" r="3" />
	<circle cx="145" cy="599.49825" r="3" />
	<circle cx="145" cy="602.14325" r="3" />
	<circle cx="155" cy="570.1105" r="3" />
	<circle cx="155" cy="575.475" r="3" />
	<circle cx="155" cy="576.7745" r="3" />
	<circle cx="155" cy="568.518" r="3" />
	<circle cx="155" cy="575.867" r="3" />
	<circle cx="155" cy="583.4735" r="3" />
	<circle cx="155" cy="591.15575" r="3" />
	<circle cx="155" cy="595.58825" r="3" />
	<circle cx="155" cy="583.01625" r="3" />
	<circle cx="155" cy="569.41" r="3" />
	<circle cx="155" cy="574.22625" r="3" />
	<circle cx="155" cy="579.168" r="3" />
	<circle cx="155" cy="585.05075" r="3" />
	<circle cx="165" cy="557.93175" r="3" />
	<circle cx="165" cy="558.43175" r="3" />
	<circle cx="165" cy="568.22725" r="3" />
	<circle cx="165" cy="566.28125" r="3" />
	<circle cx="165" cy="570.16575" r="3" />
	<circle cx="165" cy="568.545" r="3" />
	<circle cx="165" cy="564.16225" r="3" />
	<circle cx="165" cy="561.9705" r="3" />
	<circle cx="165" cy="571.191" r="3" />
	<circle cx="165" cy="577.841" r="3" />
	<circle cx="165" cy="569.016" r="3" />
	<circle cx="165" cy="564.346" r="3" />
	<circle cx="165" cy="564.5695" r="3" />
	<circle cx="165" cy="556.5065" r="3" />
	<circle cx="165" cy="563.44675" r="3" />
	<circle cx="175" cy="538.01925" r="3" />
	<circle cx="175" cy="529.16475" r="3" />
	<circle cx="175" cy="527.10525" r="3" />
	<circle cx="175" cy="530.6025" r="3" />
	<circle cx="175" cy="530.672" r="3" />
	<circle cx="175" cy="540.75125" r="3" />
	<circle cx="175" cy="524.86225" r="3" />
	<circle cx="175" cy="533.4825" r="3" />
	<circle cx="175" cy="542.93125" r="3" />
	<circle cx="175" cy="536.593" r="3" />
	<circle cx="175" cy="535.41975" r="3" />
	<circle cx="175" cy="537.27775" r="3" />
	<circle cx="175" cy="545.68525" r="3" />
	<circle cx="175" cy="543.234" r="3" />
	<circle cx="175" cy="535.249" r="3" />
	<circle cx="175" cy="539.42125" r="3" />
	<circle cx="175" cy="551.32575" r="3" />
	<circle cx="175" cy="536.21375" r="3" />
	<circle cx="175" cy="532.48125" r="3" />
	<circle cx="175" cy="529.84025" r="3" />
	<circle cx="175" cy="526.28025" r="3" />
	<circle cx="185" cy="482.8105" r="3" />
	<circle cx="185" cy="493.62525" r="3" />
	<circle cx="185" cy="510.147" r="3" />
	<circle cx="185" cy="525.36275" r="3" />
	<circle cx="185" cy="501.9995" r="3" />
	<circle cx="185" cy="517.385" r="3" />
	<circle cx="185" cy="512.7935" r="3" />
	<circle cx="185" cy="494.8805" r="3" />
	<circle cx="185" cy="507.8245" r="3" />
	<circle cx="185" cy="437.66775" r="3" />
	<circle cx="185" cy="503.1145" r="3" />
	<circle cx="185" cy="490.89675" r="3" />
	<circle cx="185" cy="524.4955" r="3" />
	<circle cx="185" cy="531.91725" r="3" />
	<circle cx="185" cy="510.545" r="3" />
	<circle cx="185" cy="506.0795" r="3" />
	<circle cx="185" cy="499.31025" r="3" />
	<circle cx="185" cy="531.69125" r="3" />
	<circle cx="185" cy="506.0175" r="3" />
	<circle cx="185" cy="503.262" r="3" />
	<circle cx="195" cy="472.16575" r="3" />
	<circle cx="195" cy="463.09175" r="3" />
	<circle cx="195" cy="477.5945" r="3" />
	<circle cx="195" cy="491.62825" r="3" />
	<circle cx="195" cy="475.10925" r="3" />
	<circle cx="195" cy="462.348" r="3" />
	<circle cx="195" cy="500.515" r="3" />
	<circle cx="195" cy="492.3635" r="3" />
	<circle cx="195" cy="510.41775" r="3" />
	<circle cx="195" cy="483.1015" r="3" />
	<circle cx="195" cy="486.6225" r="3" />
	<circle cx="195" cy="472.911" r="3" />
	<circle cx="195" cy="365.16025" r="3" />
	<circle cx="195" cy="473.47225" r="3" />
	<circle cx="195" cy="472.53575" r="3" />
	<circle cx="195" cy="456.671" r="3" />
	<circle cx="195" cy="491.03375" r="3" />
	<circle cx="205" cy="457.65625" r="3" />
	<circle cx="205" cy="266.692" r="3" />
	<circle cx="205" cy="443.1155" r="3" />
	<circle cx="205" cy="445.22775" r="3" />
	<circle cx="205" cy="470.6865" r="3" />
	<circle cx="205" cy="453.538" r="3" />
	<circle cx="205" cy="448.75375" r="3" />
	<circle cx="205" cy="464.96925" r="3" />
	<circle cx="205" cy="489.30975" r="3" />
	<circle cx="205" cy="464.11875" r="3" />
	<circle cx="205" cy="459.109" r="3" />
	<circle cx="205" cy="453.6915" r="3" />
	<circle cx="205" cy="473.021" r="3" />
	<circle cx="215" cy="443.613" r="3" />
	<circle cx="215" cy="343.73875" r="3" />
	<circle cx="215" cy="421.12575" r="3" />
	<circle cx="215" cy="407.786" r="3" />
	<circle cx="215" cy="466.3725" r="3" />
	<circle cx="215" cy="455.71425" r="3" />
	<circle cx="215" cy="365.9875" r="3" />
	<circle cx="215" cy="410.83925" r="3" />
	<circle cx="215" cy="383.1875" r="3" />
	<circle cx="215" cy="458.2845" r="3" />
	<circle cx="215" cy="452.84225" r="3" />
	<circle cx="215" cy="442.31325" r="3" />
	<circle cx="215" cy="416.79275" r="3" />
	<circle cx="215" cy="421.809" r="3" />
	<circle cx="215" cy="424.5295" r="3" />
	<circle cx="215" cy="442.49925" r="3" />
	<circle cx="215" cy="448.99325" r="3" />
	<circle cx="215" cy="395.33675" r="3" />
	<circle cx="215" cy="440.13125" r="3" />
	<circle cx="215" cy="436.4575" r="3" />
	<circle cx="215" cy="390.3015" r="3" />
	<circle cx="215" cy="450.1625" r="3" />
	<circle cx="215" cy="398.5115" r="3" />
	<circle cx="215" cy="442.6095" r="3" />
	<circle cx="225" cy="408.4555" r="3" />
	<circle cx="225" cy="250.49225" r="3" />
	<circle cx="225" cy="388.15875" r="3" />
	<circle cx="225" cy="300.5175" r="3" />
	<circle cx="225" cy="339.4795" r="3" />
	<circle cx="225" cy="382.272" r="3" />
	<circle cx="225" cy="430.018" r="3" />
	<circle cx="225" cy="401.36925" r="3" />
	<circle cx="225" cy="386.913" r="3" />
	<circle cx="225" cy="391.90375" r="3" />
	<circle cx="225" cy="424.6485" r="3" />
	<circle cx="235" cy="405.9315" r="3" />
	<circle cx="235" cy="327.4925" r="3" />
	<circle cx="235" cy="392.696" r="3" />
	<circle cx="235" cy="356.35625" r="3" />
	<circle cx="235" cy="391.46375" r="3" />
	<circle cx="235" cy="348.8195" r="3" />
	<circle cx="235" cy="354.42775" r="3" />
	<circle cx="235" cy="401.444" r="3" />
	<circle cx="235" cy="398.058" r="3" />
	<circle cx="235" cy="357.8845" r="3" />
	<circle cx="235" cy="400.53125" r="3" />
	<circle cx="245" cy="384.36225" r="3" />
	<circle cx="245" cy="214.918" r="3" />
	<circle cx="245" cy="338.0205" r="3" />
	<circle cx="245" cy="361.44975" r="3" />
	<circle cx="245" cy="359.226" r="3" />
	<circle cx="245" cy="386.5925" r="3" />
	<circle cx="245" cy="338.0685" r="3" />
	<circle cx="245" cy="370.61225" r="3" />
	<circle cx="245" cy="378.601" r="3" />
	<circle cx="245" cy="344.37525" r="3" />
	<circle cx="245" cy="368.879" r="3" />
	<circle cx="255" cy="323.68025" r="3" />
	<circle cx="255" cy="197.388" r="3" />
	<circle cx="255" cy="290.73275" r="3" />
	<circle cx="255" cy="299.43725" r="3" />
	<circle cx="255" cy="315.747" r="3" />
	<circle cx="255" cy="327.62825" r="3" />
	<circle cx="255" cy="310.079" r="3" />
	<circle cx="255" cy="218.916" r="3" />
	<circle cx="255" cy="273.26975" r="3" />
	<circle cx="255" cy="362.93175" r="3" />
	<circle cx="255" cy="326.5195" r="3" />
	<circle cx="255" cy="319.83475" r="3" />
	<circle cx="255" cy="336.7295" r="3" />
	<circle cx="255" cy="327.428" r="3" />
	<circle cx="255" cy="298.6825" r="3" />
	<circle cx="255" cy="347.648" r="3" />
	<circle cx="265" cy="288.9755" r="3" />
	<circle cx="265" cy="94.23225" r="3" />
	<circle cx="265" cy="219.57575" r="3" />
	<circle cx="265" cy="175.28875" r="3" />
	<circle cx="265" cy="227.8445" r="3" />
	<circle cx="265" cy="150.859" r="3" />
	<circle cx="265" cy="157.566" r="3" />
	<circle cx="265" cy="244.55825" r="3" />
	<circle cx="265" cy="209.5265" r="3" />
	<circle cx="265" cy="318.01825" r="3" />
	<circle cx="265" cy="99.11425" r="3" />
	<circle cx="265" cy="293.6715" r="3" />
	<circle cx="265" cy="230.508" r="3" />
	<circle cx="265" cy="306.78125" r="3" />
	<circle cx="265" cy="83.74825" r="3" />
	<circle cx="265" cy="323.2535" r="3" />
	<circle cx="265" cy="204.56675" r="3" />
	<circle cx="265" cy="320.93425" r="3" />
	<circle cx="275" cy="286.373" r="3" />
	<circle cx="275" cy="19.21675" r="3" />
	<circle cx="275" cy="240.15075" r="3" />
	<circle cx="275" cy="208.21675" r="3" />
	<circle cx="275" cy="304.37825" r="3" />
	<circle cx="275" cy="187.998" r="3" />
	<circle cx="275" cy="261.295" r="3" />
	<circle cx="275" cy="279.21775" r="3" />
	<circle cx="275" cy="258.82775" r="3" />
	<circle cx="275" cy="154.01725" r="3" />
	<circle cx="275" cy="269.431" r="3" />
	<circle cx="275" cy="300.76175" r="3" /><!-- 
	Generated using the Perl SVG Module V2.36
	by Ronan Oger
	Info: http://www.roitsystems.com/
 -->
</svg>