<?xml version="1.0" encoding="UTF-8" standalone="yes"?>
<!DOCTYPE svg PUBLIC "-//W3C//DTD SVG 1.0//EN" "http://www.w3.org/TR/2001/REC-SVG-20010904/DTD/svg10.dtd">
<svg height="428" width="295" xmlns="http://www.w3.org/2000/svg" xmlns:xlink="http://www.w3.org/1999/xlink">
	<line style="stroke: blue; stroke-width: 1" x1="70" x2="280" y1="408" y2="408" />	<text text-anchor="end" x="70" y="408">0.00
	</text>
	<line style="stroke: blue; stroke-width: 1" x1="70" x2="280" y1="358" y2="358" />	<text text-anchor="end" x="70" y="358">0.01
	</text>
	<line style="stroke: blue; stroke-width: 1" x1="70" x2="280" y1="308" y2="308" />	<text text-anchor="end" x="70" y="308">0.02
	</text>
	<line style="stroke: blue; stroke-width: 1" x1="70" x2="280" y1="258" y2="258" />	<text text-anchor="end" x="70" y="258">0.03
	</text>
	<line style="stroke: blue; stroke-width: 1" x1="70" x2="280" y1="208" y2="208" />	<text text-anchor="end" x="70" y="208">0.04
	</text>
	<line style="stroke: blue; stroke-width: 1" x1="70" x2="280" y1="158" y2="158" />	<text text-anchor="end" x="70" y="158">0.05
	</text>
	<line style="stroke: blue; stroke-width: 1" x1="70" x2="280" y1="108" y2="108" />	<text text-anchor="end" x="70" y="108">0.06
	</text>
	<line style="stroke: blue; stroke-width: 1" x1="70" x2="280" y1="57.9999999999999" y2="57.9999999999999" />	<text text-anchor="end" x="70" y="57.9999999999999">0.07
	</text>
	<circle cx="75" cy="407.72" r="3" />
	<circle cx="75" cy="407.865" r="3" />
	<circle cx="75" cy="407.88" r="3" />
	<circle cx="75" cy="407.865" r="3" />
	<circle cx="75" cy="407.775" r="3" />
	<circle cx="75" cy="407.825" r="3" />
	<circle cx="75" cy="407.815" r="3" />
	<circle cx="75" cy="407.865" r="3" />
	<circle cx="75" cy="407.88" r="3" />
	<circle cx="75" cy="407.905" r="3" />
	<circle cx="75" cy="407.905" r="3" />
	<circle cx="75" cy="407.91" r="3" />
	<circle cx="75" cy="407.905" r="3" />
	<circle cx="75" cy="407.91" r="3" />
	<circle cx="75" cy="407.905" r="3" />
	<circle cx="75" cy="407.91" r="3" />
	<circle cx="75" cy="407.905" r="3" />
	<circle cx="75" cy="407.905" r="3" />
	<circle cx="75" cy="407.91" r="3" />
	<circle cx="75" cy="407.905" r="3" />
	<circle cx="75" cy="407.905" r="3" />
	<circle cx="75" cy="407.91" r="3" />
	<circle cx="75" cy="407.91" r="3" />
	<circle cx="75" cy="407.91" r="3" />
	<circle cx="75" cy="407.91" r="3" />
	<circle cx="75" cy="407.845" r="3" />
	<circle cx="85" cy="398.175" r="3" />
	<circle cx="85" cy="398.65" r="3" />
	<circle cx="85" cy="401.62" r="3" />
	<circle cx="85" cy="402.55" r="3" />
	<circle cx="85" cy="404" r="3" />
	<circle cx="85" cy="404.66" r="3" />
	<circle cx="85" cy="404.615" r="3" />
	<circle cx="85" cy="404.16" r="3" />
	<circle cx="85" cy="403.08" r="3" />
	<circle cx="85" cy="402.9" r="3" />
	<circle cx="85" cy="402.8" r="3" />
	<circle cx="85" cy="402.505" r="3" />
	<circle cx="85" cy="398.49" r="3" />
	<circle cx="85" cy="401.13" r="3" />
	<circle cx="85" cy="401.89" r="3" />
	<circle cx="85" cy="394.315" r="3" />
	<circle cx="95" cy="392.895" r="3" />
	<circle cx="95" cy="390.395" r="3" />
	<circle cx="95" cy="391.01" r="3" />
	<circle cx="95" cy="392.355" r="3" />
	<circle cx="95" cy="392.665" r="3" />
	<circle cx="95" cy="391.7" r="3" />
	<circle cx="95" cy="389.27" r="3" />
	<circle cx="95" cy="388.94" r="3" />
	<circle cx="95" cy="386.74" r="3" />
	<circle cx="95" cy="386.955" r="3" />
	<circle cx="95" cy="386.115" r="3" />
	<circle cx="95" cy="390.725" r="3" />
	<circle cx="95" cy="390.345" r="3" />
	<circle cx="95" cy="391.555" r="3" />
	<circle cx="95" cy="390.9" r="3" />
	<circle cx="95" cy="390.04" r="3" />
	<circle cx="95" cy="385.105" r="3" />
	<circle cx="105" cy="391.765" r="3" />
	<circle cx="105" cy="360.09" r="3" />
	<circle cx="105" cy="385.655" r="3" />
	<circle cx="105" cy="387.78" r="3" />
	<circle cx="105" cy="385.745" r="3" />
	<circle cx="105" cy="384.735" r="3" />
	<circle cx="105" cy="376.1" r="3" />
	<circle cx="105" cy="385.775" r="3" />
	<circle cx="105" cy="388.49" r="3" />
	<circle cx="105" cy="389.44" r="3" />
	<circle cx="105" cy="390.045" r="3" />
	<circle cx="105" cy="388.705" r="3" />
	<circle cx="105" cy="387.15" r="3" />
	<circle cx="105" cy="383.19" r="3" />
	<circle cx="105" cy="384.94" r="3" />
	<circle cx="105" cy="382.54" r="3" />
	<circle cx="105" cy="383.535" r="3" />
	<circle cx="105" cy="380.2" r="3" />
	<circle cx="115" cy="392.9" r="3" />
	<circle cx="115" cy="373.545" r="3" />
	<circle cx="115" cy="370.715" r="3" />
	<circle cx="115" cy="370.795" r="3" />
	<circle cx="115" cy="376.445" r="3" />
	<circle cx="115" cy="385.43" r="3" />
	<circle cx="115" cy="387.46" r="3" />
	<circle cx="115" cy="383.225" r="3" />
	<circle cx="115" cy="375.555" r="3" />
	<circle cx="115" cy="376.195" r="3" />
	<circle cx="115" cy="376.45" r="3" />
	<circle cx="115" cy="384.52" r="3" />
	<circle cx="115" cy="385.01" r="3" />
	<circle cx="115" cy="383.74" r="3" />
	<circle cx="115" cy="375.29" r="3" />
	<circle cx="115" cy="371.8" r="3" />
	<circle cx="115" cy="369.29" r="3" />
	<circle cx="115" cy="361.855" r="3" />
	<circle cx="115" cy="370.4" r="3" />
	<circle cx="125" cy="387.24" r="3" />
	<circle cx="125" cy="333.375" r="3" />
	<circle cx="125" cy="356.82" r="3" />
	<circle cx="125" cy="371.38" r="3" />
	<circle cx="125" cy="375.765" r="3" />
	<circle cx="125" cy="376.545" r="3" />
	<circle cx="125" cy="374.845" r="3" />
	<circle cx="125" cy="375.69" r="3" />
	<circle cx="125" cy="375.53" r="3" />
	<circle cx="125" cy="376.135" r="3" />
	<circle cx="125" cy="374.145" r="3" />
	<circle cx="125" cy="371.49" r="3" />
	<circle cx="125" cy="367.705" r="3" />
	<circle cx="125" cy="359.67" r="3" />
	<circle cx="125" cy="359.555" r="3" />
	<circle cx="125" cy="364.35" r="3" />
	<circle cx="125" cy="361.135" r="3" />
	<circle cx="135" cy="389.675" r="3" />
	<circle cx="135" cy="352.28" r="3" />
	<circle cx="135" cy="352.125" r="3" />
	<circle cx="135" cy="327.245" r="3" />
	<circle cx="135" cy="369.73" r="3" />
	<circle cx="135" cy="376.19" r="3" />
	<circle cx="135" cy="373.3" r="3" />
	<circle cx="135" cy="347.03" r="3" />
	<circle cx="135" cy="351.865" r="3" />
	<circle cx="135" cy="359.235" r="3" />
	<circle cx="135" cy="333.055" r="3" />
	<circle cx="135" cy="354.72" r="3" />
	<circle cx="135" cy="355.76" r="3" />
	<circle cx="135" cy="367.02" r="3" />
	<circle cx="135" cy="370.71" r="3" />
	<circle cx="135" cy="375.285" r="3" />
	<circle cx="135" cy="373.49" r="3" />
	<circle cx="135" cy="372.29" r="3" />
	<circle cx="135" cy="369.925" r="3" />
	<circle cx="135" cy="369.885" r="3" />
	<circle cx="135" cy="345.485" r="3" />
	<circle cx="135" cy="355.39" r="3" />
	<circle cx="135" cy="307.26" r="3" />
	<circle cx="135" cy="339.51" r="3" />
	<circle cx="145" cy="388.115" r="3" />
	<circle cx="145" cy="317.895" r="3" />
	<circle cx="145" cy="339.7" r="3" />
	<circle cx="145" cy="346.735" r="3" />
	<circle cx="145" cy="354.125" r="3" />
	<circle cx="145" cy="372.545" r="3" />
	<circle cx="145" cy="380.34" r="3" />
	<circle cx="145" cy="372.06" r="3" />
	<circle cx="145" cy="366.815" r="3" />
	<circle cx="145" cy="353.33" r="3" />
	<circle cx="145" cy="354.275" r="3" />
	<circle cx="145" cy="355.905" r="3" />
	<circle cx="145" cy="353.865" r="3" />
	<circle cx="145" cy="348.9" r="3" />
	<circle cx="145" cy="336.095" r="3" />
	<circle cx="145" cy="332.705" r="3" />
	<circle cx="145" cy="336.35" r="3" />
	<circle cx="145" cy="340.61" r="3" />
	<circle cx="145" cy="339.19" r="3" />
	<circle cx="145" cy="337.3" r="3" />
	<circle cx="145" cy="335.43" r="3" />
	<circle cx="145" cy="336.005" r="3" />
	<circle cx="145" cy="350.705" r="3" />
	<circle cx="145" cy="311.865" r="3" />
	<circle cx="145" cy="339.79" r="3" />
	<circle cx="155" cy="391.515" r="3" />
	<circle cx="155" cy="306.555" r="3" />
	<circle cx="155" cy="346.52" r="3" />
	<circle cx="155" cy="339.77" r="3" />
	<circle cx="155" cy="334.01" r="3" />
	<circle cx="155" cy="331.405" r="3" />
	<circle cx="155" cy="351.445" r="3" />
	<circle cx="155" cy="366.935" r="3" />
	<circle cx="155" cy="369" r="3" />
	<circle cx="155" cy="355.345" r="3" />
	<circle cx="155" cy="348.19" r="3" />
	<circle cx="155" cy="347.88" r="3" />
	<circle cx="155" cy="344.36" r="3" />
	<circle cx="155" cy="335.18" r="3" />
	<circle cx="155" cy="332.75" r="3" />
	<circle cx="165" cy="391.37" r="3" />
	<circle cx="165" cy="297.295" r="3" />
	<circle cx="165" cy="321.07" r="3" />
	<circle cx="165" cy="317.53" r="3" />
	<circle cx="165" cy="319.29" r="3" />
	<circle cx="165" cy="336.865" r="3" />
	<circle cx="165" cy="349.34" r="3" />
	<circle cx="165" cy="320.805" r="3" />
	<circle cx="165" cy="335.04" r="3" />
	<circle cx="165" cy="331.68" r="3" />
	<circle cx="165" cy="335.065" r="3" />
	<circle cx="165" cy="351.28" r="3" />
	<circle cx="165" cy="347.895" r="3" />
	<circle cx="165" cy="335.6" r="3" />
	<circle cx="165" cy="325.01" r="3" />
	<circle cx="165" cy="315.91" r="3" />
	<circle cx="165" cy="317.865" r="3" />
	<circle cx="165" cy="316.15" r="3" />
	<circle cx="175" cy="388.82" r="3" />
	<circle cx="175" cy="180.265" r="3" />
	<circle cx="175" cy="311.285" r="3" />
	<circle cx="175" cy="319.39" r="3" />
	<circle cx="175" cy="335.93" r="3" />
	<circle cx="175" cy="332.88" r="3" />
	<circle cx="175" cy="333.84" r="3" />
	<circle cx="175" cy="313.715" r="3" />
	<circle cx="175" cy="313.8" r="3" />
	<circle cx="175" cy="331.03" r="3" />
	<circle cx="175" cy="345" r="3" />
	<circle cx="175" cy="327.15" r="3" />
	<circle cx="175" cy="316.555" r="3" />
	<circle cx="175" cy="301.61" r="3" />
	<circle cx="185" cy="386.445" r="3" />
	<circle cx="185" cy="338.715" r="3" />
	<circle cx="185" cy="339.415" r="3" />
	<circle cx="185" cy="300.615" r="3" />
	<circle cx="185" cy="317.48" r="3" />
	<circle cx="185" cy="329.71" r="3" />
	<circle cx="185" cy="293.62" r="3" />
	<circle cx="185" cy="282.92" r="3" />
	<circle cx="185" cy="283.765" r="3" />
	<circle cx="185" cy="287.12" r="3" />
	<circle cx="185" cy="285.905" r="3" />
	<circle cx="185" cy="250.49" r="3" />
	<circle cx="185" cy="313.34" r="3" />
	<circle cx="185" cy="327.71" r="3" />
	<circle cx="185" cy="325.24" r="3" />
	<circle cx="185" cy="328.66" r="3" />
	<circle cx="185" cy="310.74" r="3" />
	<circle cx="185" cy="300.575" r="3" />
	<circle cx="185" cy="302.885" r="3" />
	<circle cx="185" cy="230.695" r="3" />
	<circle cx="185" cy="305.105" r="3" />
	<circle cx="185" cy="272.65" r="3" />
	<circle cx="185" cy="279.18" r="3" />
	<circle cx="185" cy="289.61" r="3" />
	<circle cx="185" cy="283.04" r="3" />
	<circle cx="185" cy="294.055" r="3" />
	<circle cx="185" cy="306.735" r="3" />
	<circle cx="185" cy="303.155" r="3" />
	<circle cx="185" cy="302.525" r="3" />
	<circle cx="195" cy="388.62" r="3" />
	<circle cx="195" cy="156.04" r="3" />
	<circle cx="195" cy="296.275" r="3" />
	<circle cx="195" cy="330.73" r="3" />
	<circle cx="195" cy="327.495" r="3" />
	<circle cx="195" cy="311.54" r="3" />
	<circle cx="195" cy="301.16" r="3" />
	<circle cx="195" cy="291.67" r="3" />
	<circle cx="195" cy="311.13" r="3" />
	<circle cx="195" cy="330.815" r="3" />
	<circle cx="195" cy="332.405" r="3" />
	<circle cx="195" cy="314.505" r="3" />
	<circle cx="195" cy="311.355" r="3" />
	<circle cx="195" cy="310.39" r="3" />
	<circle cx="205" cy="387.97" r="3" />
	<circle cx="205" cy="143.6" r="3" />
	<circle cx="205" cy="293.97" r="3" />
	<circle cx="205" cy="298.4" r="3" />
	<circle cx="205" cy="308.73" r="3" />
	<circle cx="205" cy="333.745" r="3" />
	<circle cx="205" cy="328.825" r="3" />
	<circle cx="205" cy="305.64" r="3" />
	<circle cx="205" cy="294.595" r="3" />
	<circle cx="205" cy="286.83" r="3" />
	<circle cx="205" cy="277.635" r="3" />
	<circle cx="205" cy="292.51" r="3" />
	<circle cx="215" cy="388.45" r="3" />
	<circle cx="215" cy="271.3" r="3" />
	<circle cx="215" cy="306.545" r="3" />
	<circle cx="215" cy="312.49" r="3" />
	<circle cx="215" cy="267.47" r="3" />
	<circle cx="215" cy="275.78" r="3" />
	<circle cx="215" cy="215.785" r="3" />
	<circle cx="215" cy="232.915" r="3" />
	<circle cx="215" cy="291.99" r="3" />
	<circle cx="215" cy="292.345" r="3" />
	<circle cx="215" cy="299.735" r="3" />
	<circle cx="215" cy="281.965" r="3" />
	<circle cx="215" cy="157.125" r="3" />
	<circle cx="215" cy="267.055" r="3" />
	<circle cx="215" cy="271.57" r="3" />
	<circle cx="215" cy="290.035" r="3" />
	<circle cx="215" cy="291.145" r="3" />
	<circle cx="215" cy="310.47" r="3" />
	<circle cx="215" cy="302.325" r="3" />
	<circle cx="215" cy="300.995" r="3" />
	<circle cx="215" cy="271.035" r="3" />
	<circle cx="215" cy="297.885" r="3" />
	<circle cx="225" cy="379.49" r="3" />
	<circle cx="225" cy="118.79" r="3" />
	<circle cx="225" cy="246.885" r="3" />
	<circle cx="225" cy="297.425" r="3" />
	<circle cx="225" cy="315.845" r="3" />
	<circle cx="225" cy="314.94" r="3" />
	<circle cx="225" cy="250.25" r="3" />
	<circle cx="225" cy="294.875" r="3" />
	<circle cx="225" cy="259.575" r="3" />
	<circle cx="225" cy="270.045" r="3" />
	<circle cx="225" cy="298.02" r="3" />
	<circle cx="225" cy="296.01" r="3" />
	<circle cx="225" cy="281.85" r="3" />
	<circle cx="225" cy="263.76" r="3" />
	<circle cx="225" cy="257.02" r="3" />
	<circle cx="235" cy="379.78" r="3" />
	<circle cx="235" cy="298.505" r="3" />
	<circle cx="235" cy="263.025" r="3" />
	<circle cx="235" cy="203.975" r="3" />
	<circle cx="235" cy="199.455" r="3" />
	<circle cx="235" cy="225.85" r="3" />
	<circle cx="235" cy="261.97" r="3" />
	<circle cx="235" cy="309.325" r="3" />
	<circle cx="235" cy="295.23" r="3" />
	<circle cx="235" cy="269.705" r="3" />
	<circle cx="235" cy="265.375" r="3" />
	<circle cx="245" cy="379.165" r="3" />
	<circle cx="245" cy="255.9" r="3" />
	<circle cx="245" cy="241.005" r="3" />
	<circle cx="245" cy="248.09" r="3" />
	<circle cx="245" cy="241.755" r="3" />
	<circle cx="245" cy="241.075" r="3" />
	<circle cx="245" cy="222.65" r="3" />
	<circle cx="245" cy="246.71" r="3" />
	<circle cx="245" cy="246.45" r="3" />
	<circle cx="245" cy="247.925" r="3" />
	<circle cx="245" cy="265.04" r="3" />
	<circle cx="245" cy="250.54" r="3" />
	<circle cx="245" cy="241.685" r="3" />
	<circle cx="245" cy="19.81" r="3" />
	<circle cx="245" cy="218.51" r="3" />
	<circle cx="255" cy="382.675" r="3" />
	<circle cx="255" cy="116.365" r="3" />
	<circle cx="255" cy="225.98" r="3" />
	<circle cx="255" cy="305.235" r="3" />
	<circle cx="255" cy="325.035" r="3" />
	<circle cx="255" cy="324.445" r="3" />
	<circle cx="255" cy="279.02" r="3" />
	<circle cx="255" cy="280.275" r="3" />
	<circle cx="255" cy="222.325" r="3" />
	<circle cx="255" cy="225.135" r="3" />
	<circle cx="255" cy="247.76" r="3" />
	<circle cx="255" cy="248.02" r="3" />
	<circle cx="255" cy="246.695" r="3" />
	<circle cx="255" cy="250.44" r="3" />
	<circle cx="255" cy="241.225" r="3" />
	<circle cx="255" cy="148.395" r="3" />
	<circle cx="255" cy="235.4" r="3" />
	<circle cx="265" cy="383.92" r="3" />
	<circle cx="265" cy="183.175" r="3" />
	<circle cx="265" cy="247.605" r="3" />
	<circle cx="265" cy="264.74" r="3" />
	<circle cx="265" cy="270.145" r="3" />
	<circle cx="265" cy="253.92" r="3" />
	<circle cx="265" cy="237.245" r="3" />
	<circle cx="265" cy="189.455" r="3" />
	<circle cx="265" cy="209.32" r="3" />
	<circle cx="265" cy="187.605" r="3" />
	<circle cx="265" cy="265.705" r="3" />
	<circle cx="265" cy="259.535" r="3" />
	<circle cx="265" cy="224.04" r="3" />
	<circle cx="265" cy="216.175" r="3" />
	<circle cx="265" cy="210.265" r="3" />
	<circle cx="265" cy="201.065" r="3" />
	<circle cx="265" cy="196.325" r="3" />
	<circle cx="275" cy="382.28" r="3" />
	<circle cx="275" cy="219.475" r="3" />
	<circle cx="275" cy="200.705" r="3" />
	<circle cx="275" cy="231.335" r="3" />
	<circle cx="275" cy="249.97" r="3" />
	<circle cx="275" cy="277.3" r="3" />
	<circle cx="275" cy="251.465" r="3" />
	<circle cx="275" cy="242.45" r="3" />
	<circle cx="275" cy="242.35" r="3" />
	<circle cx="275" cy="237.31" r="3" />
	<circle cx="275" cy="279.875" r="3" />
	<circle cx="275" cy="239.27" r="3" />
	<circle cx="275" cy="217.45" r="3" />
	<circle cx="275" cy="224.105" r="3" />
	<circle cx="275" cy="206.2" r="3" />
	<circle cx="275" cy="229.04" r="3" /><!-- 
	Generated using the Perl SVG Module V2.36
	by Ronan Oger
	Info: http://www.roitsystems.com/
 -->
</svg>