<?xml version="1.0" encoding="UTF-8" standalone="yes"?>
<!DOCTYPE svg PUBLIC "-//W3C//DTD SVG 1.0//EN" "http://www.w3.org/TR/2001/REC-SVG-20010904/DTD/svg10.dtd">
<svg height="1466" width="295" xmlns="http://www.w3.org/2000/svg" xmlns:xlink="http://www.w3.org/1999/xlink">
	<line style="stroke: blue; stroke-width: 1" x1="70" x2="280" y1="1446" y2="1446" />	<text text-anchor="end" x="70" y="1446">0.00
	</text>
	<line style="stroke: blue; stroke-width: 1" x1="70" x2="280" y1="1396" y2="1396" />	<text text-anchor="end" x="70" y="1396">1.00
	</text>
	<line style="stroke: blue; stroke-width: 1" x1="70" x2="280" y1="1346" y2="1346" />	<text text-anchor="end" x="70" y="1346">2.00
	</text>
	<line style="stroke: blue; stroke-width: 1" x1="70" x2="280" y1="1296" y2="1296" />	<text text-anchor="end" x="70" y="1296">3.00
	</text>
	<line style="stroke: blue; stroke-width: 1" x1="70" x2="280" y1="1246" y2="1246" />	<text text-anchor="end" x="70" y="1246">4.00
	</text>
	<line style="stroke: blue; stroke-width: 1" x1="70" x2="280" y1="1196" y2="1196" />	<text text-anchor="end" x="70" y="1196">5.00
	</text>
	<line style="stroke: blue; stroke-width: 1" x1="70" x2="280" y1="1146" y2="1146" />	<text text-anchor="end" x="70" y="1146">6.00
	</text>
	<line style="stroke: blue; stroke-width: 1" x1="70" x2="280" y1="1096" y2="1096" />	<text text-anchor="end" x="70" y="1096">7.00
	</text>
	<line style="stroke: blue; stroke-width: 1" x1="70" x2="280" y1="1046" y2="1046" />	<text text-anchor="end" x="70" y="1046">8.00
	</text>
	<line style="stroke: blue; stroke-width: 1" x1="70" x2="280" y1="996" y2="996" />	<text text-anchor="end" x="70" y="996">9.00
	</text>
	<line style="stroke: blue; stroke-width: 1" x1="70" x2="280" y1="946" y2="946" />	<text text-anchor="end" x="70" y="946">10.00
	</text>
	<line style="stroke: blue; stroke-width: 1" x1="70" x2="280" y1="896" y2="896" />	<text text-anchor="end" x="70" y="896">11.00
	</text>
	<line style="stroke: blue; stroke-width: 1" x1="70" x2="280" y1="846" y2="846" />	<text text-anchor="end" x="70" y="846">12.00
	</text>
	<line style="stroke: blue; stroke-width: 1" x1="70" x2="280" y1="796" y2="796" />	<text text-anchor="end" x="70" y="796">13.00
	</text>
	<line style="stroke: blue; stroke-width: 1" x1="70" x2="280" y1="746" y2="746" />	<text text-anchor="end" x="70" y="746">14.00
	</text>
	<line style="stroke: blue; stroke-width: 1" x1="70" x2="280" y1="696" y2="696" />	<text text-anchor="end" x="70" y="696">15.00
	</text>
	<line style="stroke: blue; stroke-width: 1" x1="70" x2="280" y1="646" y2="646" />	<text text-anchor="end" x="70" y="646">16.00
	</text>
	<line style="stroke: blue; stroke-width: 1" x1="70" x2="280" y1="596" y2="596" />	<text text-anchor="end" x="70" y="596">17.00
	</text>
	<line style="stroke: blue; stroke-width: 1" x1="70" x2="280" y1="546" y2="546" />	<text text-anchor="end" x="70" y="546">18.00
	</text>
	<line style="stroke: blue; stroke-width: 1" x1="70" x2="280" y1="496" y2="496" />	<text text-anchor="end" x="70" y="496">19.00
	</text>
	<line style="stroke: blue; stroke-width: 1" x1="70" x2="280" y1="446" y2="446" />	<text text-anchor="end" x="70" y="446">20.00
	</text>
	<line style="stroke: blue; stroke-width: 1" x1="70" x2="280" y1="396" y2="396" />	<text text-anchor="end" x="70" y="396">21.00
	</text>
	<line style="stroke: blue; stroke-width: 1" x1="70" x2="280" y1="346" y2="346" />	<text text-anchor="end" x="70" y="346">22.00
	</text>
	<line style="stroke: blue; stroke-width: 1" x1="70" x2="280" y1="296" y2="296" />	<text text-anchor="end" x="70" y="296">23.00
	</text>
	<line style="stroke: blue; stroke-width: 1" x1="70" x2="280" y1="246" y2="246" />	<text text-anchor="end" x="70" y="246">24.00
	</text>
	<line style="stroke: blue; stroke-width: 1" x1="70" x2="280" y1="196" y2="196" />	<text text-anchor="end" x="70" y="196">25.00
	</text>
	<line style="stroke: blue; stroke-width: 1" x1="70" x2="280" y1="146" y2="146" />	<text text-anchor="end" x="70" y="146">26.00
	</text>
	<line style="stroke: blue; stroke-width: 1" x1="70" x2="280" y1="96" y2="96" />	<text text-anchor="end" x="70" y="96">27.00
	</text>
	<line style="stroke: blue; stroke-width: 1" x1="70" x2="280" y1="46" y2="46" />	<text text-anchor="end" x="70" y="46">28.00
	</text>
	<circle cx="75" cy="1445.9978" r="3" />
	<circle cx="75" cy="1445.99885" r="3" />
	<circle cx="75" cy="1445.99885" r="3" />
	<circle cx="75" cy="1445.9991" r="3" />
	<circle cx="75" cy="1445.99905" r="3" />
	<circle cx="75" cy="1445.9991" r="3" />
	<circle cx="75" cy="1445.99915" r="3" />
	<circle cx="75" cy="1445.9991" r="3" />
	<circle cx="75" cy="1445.99905" r="3" />
	<circle cx="75" cy="1445.9991" r="3" />
	<circle cx="75" cy="1445.9991" r="3" />
	<circle cx="75" cy="1445.99905" r="3" />
	<circle cx="75" cy="1445.99905" r="3" />
	<circle cx="75" cy="1445.99915" r="3" />
	<circle cx="75" cy="1445.9991" r="3" />
	<circle cx="75" cy="1445.9991" r="3" />
	<circle cx="75" cy="1445.9991" r="3" />
	<circle cx="75" cy="1445.9991" r="3" />
	<circle cx="75" cy="1445.99915" r="3" />
	<circle cx="75" cy="1445.99915" r="3" />
	<circle cx="75" cy="1445.99915" r="3" />
	<circle cx="75" cy="1445.9991" r="3" />
	<circle cx="75" cy="1445.99915" r="3" />
	<circle cx="75" cy="1445.9991" r="3" />
	<circle cx="75" cy="1445.9991" r="3" />
	<circle cx="75" cy="1445.99915" r="3" />
	<circle cx="75" cy="1445.9991" r="3" />
	<circle cx="75" cy="1445.9991" r="3" />
	<circle cx="75" cy="1445.9991" r="3" />
	<circle cx="75" cy="1445.9979" r="3" />
	<circle cx="75" cy="1445.99855" r="3" />
	<circle cx="75" cy="1445.9988" r="3" />
	<circle cx="75" cy="1445.99885" r="3" />
	<circle cx="75" cy="1445.9988" r="3" />
	<circle cx="75" cy="1445.99845" r="3" />
	<circle cx="75" cy="1445.99875" r="3" />
	<circle cx="75" cy="1445.99845" r="3" />
	<circle cx="85" cy="1438.06395" r="3" />
	<circle cx="85" cy="1436.61575" r="3" />
	<circle cx="85" cy="1438.30775" r="3" />
	<circle cx="85" cy="1436.73065" r="3" />
	<circle cx="85" cy="1436.6171" r="3" />
	<circle cx="85" cy="1440.0738" r="3" />
	<circle cx="85" cy="1441.88565" r="3" />
	<circle cx="85" cy="1441.43295" r="3" />
	<circle cx="85" cy="1437.3908" r="3" />
	<circle cx="85" cy="1436.98165" r="3" />
	<circle cx="85" cy="1434.7285" r="3" />
	<circle cx="85" cy="1437.2288" r="3" />
	<circle cx="85" cy="1435.67765" r="3" />
	<circle cx="85" cy="1436.98795" r="3" />
	<circle cx="95" cy="1431.0107" r="3" />
	<circle cx="95" cy="1428.8522" r="3" />
	<circle cx="95" cy="1422.9677" r="3" />
	<circle cx="95" cy="1424.67505" r="3" />
	<circle cx="95" cy="1434.5273" r="3" />
	<circle cx="95" cy="1437.312" r="3" />
	<circle cx="95" cy="1435.887" r="3" />
	<circle cx="95" cy="1434.08955" r="3" />
	<circle cx="95" cy="1428.1959" r="3" />
	<circle cx="95" cy="1425.1108" r="3" />
	<circle cx="95" cy="1424.57895" r="3" />
	<circle cx="95" cy="1430.63205" r="3" />
	<circle cx="95" cy="1434.2489" r="3" />
	<circle cx="95" cy="1432.8448" r="3" />
	<circle cx="95" cy="1428.59215" r="3" />
	<circle cx="95" cy="1425.6662" r="3" />
	<circle cx="95" cy="1427.8766" r="3" />
	<circle cx="105" cy="1430.87355" r="3" />
	<circle cx="105" cy="1414.8148" r="3" />
	<circle cx="105" cy="1426.3771" r="3" />
	<circle cx="105" cy="1426.42545" r="3" />
	<circle cx="105" cy="1409.5055" r="3" />
	<circle cx="105" cy="1418.92485" r="3" />
	<circle cx="105" cy="1423.11645" r="3" />
	<circle cx="105" cy="1419.97075" r="3" />
	<circle cx="105" cy="1434.1399" r="3" />
	<circle cx="105" cy="1433.89235" r="3" />
	<circle cx="105" cy="1433.8668" r="3" />
	<circle cx="105" cy="1426.18375" r="3" />
	<circle cx="105" cy="1425.74425" r="3" />
	<circle cx="115" cy="1434.026" r="3" />
	<circle cx="115" cy="1418.79015" r="3" />
	<circle cx="115" cy="1411.22385" r="3" />
	<circle cx="115" cy="1410.64895" r="3" />
	<circle cx="115" cy="1421.13115" r="3" />
	<circle cx="115" cy="1409.55815" r="3" />
	<circle cx="115" cy="1406.95865" r="3" />
	<circle cx="125" cy="1429.06045" r="3" />
	<circle cx="125" cy="1398.31985" r="3" />
	<circle cx="125" cy="1398.23815" r="3" />
	<circle cx="125" cy="1413.0096" r="3" />
	<circle cx="125" cy="1412.7231" r="3" />
	<circle cx="125" cy="1393.8858" r="3" />
	<circle cx="125" cy="1410.72755" r="3" />
	<circle cx="125" cy="1410.2736" r="3" />
	<circle cx="125" cy="1403.3742" r="3" />
	<circle cx="135" cy="1430.47945" r="3" />
	<circle cx="135" cy="1394.01255" r="3" />
	<circle cx="135" cy="1395.5367" r="3" />
	<circle cx="135" cy="1397.8581" r="3" />
	<circle cx="135" cy="1416.04905" r="3" />
	<circle cx="135" cy="1395.1299" r="3" />
	<circle cx="135" cy="1383.40895" r="3" />
	<circle cx="145" cy="1427.24285" r="3" />
	<circle cx="145" cy="1374.3993" r="3" />
	<circle cx="145" cy="1398.9133" r="3" />
	<circle cx="145" cy="1389.70365" r="3" />
	<circle cx="145" cy="1388.2034" r="3" />
	<circle cx="145" cy="1385.20525" r="3" />
	<circle cx="145" cy="1379.8726" r="3" />
	<circle cx="145" cy="1377.38865" r="3" />
	<circle cx="145" cy="1382.31755" r="3" />
	<circle cx="145" cy="1375.6997" r="3" />
	<circle cx="145" cy="1398.41605" r="3" />
	<circle cx="145" cy="1397.8271" r="3" />
	<circle cx="145" cy="1380.05465" r="3" />
	<circle cx="145" cy="1369.1734" r="3" />
	<circle cx="155" cy="1426.19695" r="3" />
	<circle cx="155" cy="1353.58725" r="3" />
	<circle cx="155" cy="1347.45625" r="3" />
	<circle cx="155" cy="1391.8951" r="3" />
	<circle cx="155" cy="1351.72265" r="3" />
	<circle cx="155" cy="1372.5563" r="3" />
	<circle cx="155" cy="1371.08555" r="3" />
	<circle cx="165" cy="1427.7059" r="3" />
	<circle cx="165" cy="1358.55155" r="3" />
	<circle cx="165" cy="1431.1581" r="3" />
	<circle cx="165" cy="1416.24005" r="3" />
	<circle cx="165" cy="1375.0372" r="3" />
	<circle cx="165" cy="1361.00005" r="3" />
	<circle cx="165" cy="1405.0658" r="3" />
	<circle cx="165" cy="1363.14735" r="3" />
	<circle cx="165" cy="1355.9148" r="3" />
	<circle cx="165" cy="1357.62875" r="3" />
	<circle cx="165" cy="1369.02145" r="3" />
	<circle cx="165" cy="1381.1773" r="3" />
	<circle cx="165" cy="1409.6187" r="3" />
	<circle cx="165" cy="1377.1242" r="3" />
	<circle cx="165" cy="1357.93995" r="3" />
	<circle cx="165" cy="1368.7161" r="3" />
	<circle cx="165" cy="1366.67405" r="3" />
	<circle cx="175" cy="1428.5911" r="3" />
	<circle cx="175" cy="1356.89175" r="3" />
	<circle cx="175" cy="1403.9669" r="3" />
	<circle cx="175" cy="1326.9022" r="3" />
	<circle cx="175" cy="1352.60535" r="3" />
	<circle cx="185" cy="1427.25465" r="3" />
	<circle cx="185" cy="1330.5487" r="3" />
	<circle cx="185" cy="1319.5614" r="3" />
	<circle cx="185" cy="1347.73845" r="3" />
	<circle cx="185" cy="1328.73825" r="3" />
	<circle cx="195" cy="1424.84345" r="3" />
	<circle cx="195" cy="1290.3218" r="3" />
	<circle cx="195" cy="1312.2301" r="3" />
	<circle cx="195" cy="1289.6141" r="3" />
	<circle cx="195" cy="1307.19665" r="3" />
	<circle cx="205" cy="1422.95325" r="3" />
	<circle cx="205" cy="1280.32215" r="3" />
	<circle cx="205" cy="1292.88445" r="3" />
	<circle cx="205" cy="1410.1356" r="3" />
	<circle cx="205" cy="1270.67085" r="3" />
	<circle cx="205" cy="1337.44625" r="3" />
	<circle cx="215" cy="1426.42805" r="3" />
	<circle cx="215" cy="1315.9448" r="3" />
	<circle cx="215" cy="1290.3666" r="3" />
	<circle cx="215" cy="1303.6861" r="3" />
	<circle cx="225" cy="1424.12585" r="3" />
	<circle cx="225" cy="1277.7809" r="3" />
	<circle cx="225" cy="1295.39225" r="3" />
	<circle cx="235" cy="1424.2934" r="3" />
	<circle cx="235" cy="1278.745" r="3" />
	<circle cx="235" cy="1261.4141" r="3" />
	<circle cx="245" cy="1419.9224" r="3" />
	<circle cx="245" cy="1223.4738" r="3" />
	<circle cx="245" cy="1265.06215" r="3" />
	<circle cx="255" cy="1419.9602" r="3" />
	<circle cx="255" cy="1394.41805" r="3" />
	<circle cx="255" cy="1213.7993" r="3" />
	<circle cx="255" cy="1225.86985" r="3" />
	<circle cx="265" cy="1416.0619" r="3" />
	<circle cx="265" cy="919.42325" r="3" />
	<circle cx="265" cy="1155.78875" r="3" />
	<circle cx="275" cy="1413.594" r="3" />
	<circle cx="275" cy="602.1789" r="3" />
	<circle cx="275" cy="19.3222000000001" r="3" /><!-- 
	Generated using the Perl SVG Module V2.36
	by Ronan Oger
	Info: http://www.roitsystems.com/
 -->
</svg>