<?xml version="1.0" encoding="UTF-8" standalone="yes"?>
<!DOCTYPE svg PUBLIC "-//W3C//DTD SVG 1.0//EN" "http://www.w3.org/TR/2001/REC-SVG-20010904/DTD/svg10.dtd">
<svg height="279" width="295" xmlns="http://www.w3.org/2000/svg" xmlns:xlink="http://www.w3.org/1999/xlink">
	<line style="stroke: blue; stroke-width: 1" x1="70" x2="280" y1="259" y2="259" />	<text text-anchor="end" x="70" y="259">0.00
	</text>
	<line style="stroke: blue; stroke-width: 1" x1="70" x2="280" y1="209" y2="209" />	<text text-anchor="end" x="70" y="209">0.10
	</text>
	<line style="stroke: blue; stroke-width: 1" x1="70" x2="280" y1="159" y2="159" />	<text text-anchor="end" x="70" y="159">0.20
	</text>
	<line style="stroke: blue; stroke-width: 1" x1="70" x2="280" y1="109" y2="109" />	<text text-anchor="end" x="70" y="109">0.30
	</text>
	<line style="stroke: blue; stroke-width: 1" x1="70" x2="280" y1="59" y2="59" />	<text text-anchor="end" x="70" y="59">0.40
	</text>
	<circle cx="75" cy="258.973" r="3" />
	<circle cx="75" cy="258.979" r="3" />
	<circle cx="75" cy="258.986" r="3" />
	<circle cx="75" cy="258.9905" r="3" />
	<circle cx="75" cy="258.9905" r="3" />
	<circle cx="75" cy="258.9905" r="3" />
	<circle cx="75" cy="258.9905" r="3" />
	<circle cx="75" cy="258.9905" r="3" />
	<circle cx="75" cy="258.9905" r="3" />
	<circle cx="75" cy="258.991" r="3" />
	<circle cx="75" cy="258.99" r="3" />
	<circle cx="75" cy="258.9905" r="3" />
	<circle cx="75" cy="258.988" r="3" />
	<circle cx="75" cy="258.9905" r="3" />
	<circle cx="75" cy="258.9905" r="3" />
	<circle cx="75" cy="258.9905" r="3" />
	<circle cx="85" cy="250.9115" r="3" />
	<circle cx="85" cy="246.6575" r="3" />
	<circle cx="85" cy="250.748" r="3" />
	<circle cx="85" cy="252.126" r="3" />
	<circle cx="85" cy="251.715" r="3" />
	<circle cx="85" cy="250.008" r="3" />
	<circle cx="85" cy="248.843" r="3" />
	<circle cx="85" cy="249.9845" r="3" />
	<circle cx="85" cy="251.7165" r="3" />
	<circle cx="85" cy="252.864" r="3" />
	<circle cx="85" cy="251.521" r="3" />
	<circle cx="85" cy="250.2025" r="3" />
	<circle cx="85" cy="250.0695" r="3" />
	<circle cx="85" cy="250.4615" r="3" />
	<circle cx="85" cy="251.3025" r="3" />
	<circle cx="85" cy="250.406" r="3" />
	<circle cx="85" cy="250.185" r="3" />
	<circle cx="85" cy="248.7675" r="3" />
	<circle cx="85" cy="249.0175" r="3" />
	<circle cx="85" cy="247.4635" r="3" />
	<circle cx="95" cy="244.505" r="3" />
	<circle cx="95" cy="233.391" r="3" />
	<circle cx="95" cy="241.9635" r="3" />
	<circle cx="95" cy="242.346" r="3" />
	<circle cx="95" cy="244.4065" r="3" />
	<circle cx="95" cy="247.3395" r="3" />
	<circle cx="95" cy="246.481" r="3" />
	<circle cx="95" cy="241.2855" r="3" />
	<circle cx="95" cy="239.458" r="3" />
	<circle cx="95" cy="239.7785" r="3" />
	<circle cx="95" cy="242.9985" r="3" />
	<circle cx="95" cy="243.342" r="3" />
	<circle cx="95" cy="240.1815" r="3" />
	<circle cx="95" cy="238.7665" r="3" />
	<circle cx="105" cy="243.907" r="3" />
	<circle cx="105" cy="217.738" r="3" />
	<circle cx="105" cy="230.6445" r="3" />
	<circle cx="105" cy="236.013" r="3" />
	<circle cx="105" cy="239.4245" r="3" />
	<circle cx="105" cy="240.5495" r="3" />
	<circle cx="105" cy="233.1235" r="3" />
	<circle cx="105" cy="232.8485" r="3" />
	<circle cx="105" cy="236.2395" r="3" />
	<circle cx="105" cy="242.1895" r="3" />
	<circle cx="105" cy="237.9895" r="3" />
	<circle cx="105" cy="233.8935" r="3" />
	<circle cx="105" cy="236.643" r="3" />
	<circle cx="105" cy="242.742" r="3" />
	<circle cx="105" cy="243.6775" r="3" />
	<circle cx="105" cy="229.8715" r="3" />
	<circle cx="105" cy="234.58" r="3" />
	<circle cx="105" cy="230.7385" r="3" />
	<circle cx="115" cy="243.5295" r="3" />
	<circle cx="115" cy="206.426" r="3" />
	<circle cx="115" cy="211.182" r="3" />
	<circle cx="115" cy="224.6515" r="3" />
	<circle cx="115" cy="225.4695" r="3" />
	<circle cx="115" cy="206.8855" r="3" />
	<circle cx="115" cy="202.7785" r="3" />
	<circle cx="115" cy="220.863" r="3" />
	<circle cx="115" cy="231.3215" r="3" />
	<circle cx="115" cy="227.597" r="3" />
	<circle cx="115" cy="234.839" r="3" />
	<circle cx="115" cy="228.1825" r="3" />
	<circle cx="115" cy="221.8245" r="3" />
	<circle cx="115" cy="219.1525" r="3" />
	<circle cx="115" cy="218.536" r="3" />
	<circle cx="115" cy="213.9885" r="3" />
	<circle cx="115" cy="215.512" r="3" />
	<circle cx="115" cy="211.1055" r="3" />
	<circle cx="115" cy="225.2695" r="3" />
	<circle cx="125" cy="244.437" r="3" />
	<circle cx="125" cy="213.3795" r="3" />
	<circle cx="125" cy="208.741" r="3" />
	<circle cx="125" cy="203.323" r="3" />
	<circle cx="125" cy="216.6225" r="3" />
	<circle cx="125" cy="227.824" r="3" />
	<circle cx="125" cy="233.3575" r="3" />
	<circle cx="125" cy="222.3075" r="3" />
	<circle cx="125" cy="213.429" r="3" />
	<circle cx="125" cy="211.3255" r="3" />
	<circle cx="125" cy="201.65" r="3" />
	<circle cx="125" cy="214.341" r="3" />
	<circle cx="125" cy="212.48" r="3" />
	<circle cx="125" cy="201.766" r="3" />
	<circle cx="135" cy="243.786" r="3" />
	<circle cx="135" cy="195.284" r="3" />
	<circle cx="135" cy="218.705" r="3" />
	<circle cx="135" cy="226.425" r="3" />
	<circle cx="135" cy="217.029" r="3" />
	<circle cx="135" cy="208.325" r="3" />
	<circle cx="135" cy="205.3365" r="3" />
	<circle cx="135" cy="218.7345" r="3" />
	<circle cx="135" cy="231.871" r="3" />
	<circle cx="135" cy="232.497" r="3" />
	<circle cx="135" cy="226.546" r="3" />
	<circle cx="135" cy="218.307" r="3" />
	<circle cx="135" cy="212.4055" r="3" />
	<circle cx="135" cy="214.9715" r="3" />
	<circle cx="135" cy="209.723" r="3" />
	<circle cx="145" cy="246.0645" r="3" />
	<circle cx="145" cy="202.863" r="3" />
	<circle cx="145" cy="182.6255" r="3" />
	<circle cx="145" cy="195.4745" r="3" />
	<circle cx="145" cy="173.7675" r="3" />
	<circle cx="145" cy="215.2845" r="3" />
	<circle cx="145" cy="203.798" r="3" />
	<circle cx="145" cy="192.587" r="3" />
	<circle cx="145" cy="205.157" r="3" />
	<circle cx="145" cy="217.7895" r="3" />
	<circle cx="145" cy="212.8085" r="3" />
	<circle cx="145" cy="210.158" r="3" />
	<circle cx="145" cy="199.952" r="3" />
	<circle cx="145" cy="199.3895" r="3" />
	<circle cx="145" cy="191.843" r="3" />
	<circle cx="145" cy="195.8585" r="3" />
	<circle cx="155" cy="242.804" r="3" />
	<circle cx="155" cy="186.9285" r="3" />
	<circle cx="155" cy="173.5185" r="3" />
	<circle cx="155" cy="174.468" r="3" />
	<circle cx="155" cy="193.6255" r="3" />
	<circle cx="155" cy="176.195" r="3" />
	<circle cx="155" cy="211.1785" r="3" />
	<circle cx="155" cy="207.1075" r="3" />
	<circle cx="155" cy="192.936" r="3" />
	<circle cx="155" cy="185.6385" r="3" />
	<circle cx="155" cy="219.344" r="3" />
	<circle cx="155" cy="223.579" r="3" />
	<circle cx="155" cy="216.007" r="3" />
	<circle cx="155" cy="192.602" r="3" />
	<circle cx="155" cy="192.3305" r="3" />
	<circle cx="155" cy="209.3235" r="3" />
	<circle cx="155" cy="194.4245" r="3" />
	<circle cx="155" cy="184.675" r="3" />
	<circle cx="155" cy="188.4965" r="3" />
	<circle cx="165" cy="240.486" r="3" />
	<circle cx="165" cy="160.4575" r="3" />
	<circle cx="165" cy="158.5515" r="3" />
	<circle cx="165" cy="172.7905" r="3" />
	<circle cx="165" cy="203.2345" r="3" />
	<circle cx="165" cy="188.699" r="3" />
	<circle cx="165" cy="188.0395" r="3" />
	<circle cx="165" cy="201.4805" r="3" />
	<circle cx="165" cy="175.475" r="3" />
	<circle cx="165" cy="173.0485" r="3" />
	<circle cx="165" cy="184.4385" r="3" />
	<circle cx="165" cy="160.7515" r="3" />
	<circle cx="165" cy="191.0105" r="3" />
	<circle cx="165" cy="180.5915" r="3" />
	<circle cx="165" cy="168.8165" r="3" />
	<circle cx="165" cy="163.6495" r="3" />
	<circle cx="175" cy="244.029" r="3" />
	<circle cx="175" cy="166.6785" r="3" />
	<circle cx="175" cy="155.3105" r="3" />
	<circle cx="175" cy="144.6025" r="3" />
	<circle cx="175" cy="167.198" r="3" />
	<circle cx="175" cy="146.361" r="3" />
	<circle cx="175" cy="196.59" r="3" />
	<circle cx="175" cy="189.7205" r="3" />
	<circle cx="175" cy="151.2605" r="3" />
	<circle cx="175" cy="144.814" r="3" />
	<circle cx="175" cy="187.536" r="3" />
	<circle cx="175" cy="198.8795" r="3" />
	<circle cx="175" cy="199.0245" r="3" />
	<circle cx="175" cy="200.018" r="3" />
	<circle cx="175" cy="173.2525" r="3" />
	<circle cx="175" cy="167.4385" r="3" />
	<circle cx="175" cy="165.5945" r="3" />
	<circle cx="175" cy="158.4835" r="3" />
	<circle cx="185" cy="241.774" r="3" />
	<circle cx="185" cy="144.2565" r="3" />
	<circle cx="185" cy="187.3745" r="3" />
	<circle cx="185" cy="173.703" r="3" />
	<circle cx="185" cy="135.446" r="3" />
	<circle cx="185" cy="149.701" r="3" />
	<circle cx="185" cy="206.2385" r="3" />
	<circle cx="185" cy="189.5355" r="3" />
	<circle cx="185" cy="168.1795" r="3" />
	<circle cx="185" cy="143.9105" r="3" />
	<circle cx="185" cy="160.804" r="3" />
	<circle cx="185" cy="156.659" r="3" />
	<circle cx="195" cy="240.6135" r="3" />
	<circle cx="195" cy="121.598" r="3" />
	<circle cx="195" cy="160.6165" r="3" />
	<circle cx="195" cy="180.393" r="3" />
	<circle cx="195" cy="125.8075" r="3" />
	<circle cx="195" cy="139.209" r="3" />
	<circle cx="195" cy="160.8615" r="3" />
	<circle cx="195" cy="151.668" r="3" />
	<circle cx="195" cy="141.992" r="3" />
	<circle cx="195" cy="127.8675" r="3" />
	<circle cx="195" cy="126.8825" r="3" />
	<circle cx="205" cy="237.927" r="3" />
	<circle cx="205" cy="103.7645" r="3" />
	<circle cx="205" cy="102.1805" r="3" />
	<circle cx="205" cy="137.775" r="3" />
	<circle cx="205" cy="153.3815" r="3" />
	<circle cx="205" cy="152.0085" r="3" />
	<circle cx="205" cy="162.254" r="3" />
	<circle cx="205" cy="132.0465" r="3" />
	<circle cx="205" cy="113.389" r="3" />
	<circle cx="205" cy="104.9285" r="3" />
	<circle cx="205" cy="124.877" r="3" />
	<circle cx="205" cy="128.433" r="3" />
	<circle cx="215" cy="237.5655" r="3" />
	<circle cx="215" cy="92.428" r="3" />
	<circle cx="215" cy="80.539" r="3" />
	<circle cx="215" cy="134.8315" r="3" />
	<circle cx="215" cy="141.9515" r="3" />
	<circle cx="215" cy="111.8745" r="3" />
	<circle cx="215" cy="128.327" r="3" />
	<circle cx="215" cy="161.522" r="3" />
	<circle cx="215" cy="169.2625" r="3" />
	<circle cx="215" cy="146.5935" r="3" />
	<circle cx="215" cy="120.234" r="3" />
	<circle cx="215" cy="147.777" r="3" />
	<circle cx="215" cy="185.832" r="3" />
	<circle cx="215" cy="186.4915" r="3" />
	<circle cx="215" cy="168.1155" r="3" />
	<circle cx="215" cy="151.5405" r="3" />
	<circle cx="215" cy="139.09" r="3" />
	<circle cx="215" cy="150.3785" r="3" />
	<circle cx="225" cy="239.4475" r="3" />
	<circle cx="225" cy="118.4975" r="3" />
	<circle cx="225" cy="133.471" r="3" />
	<circle cx="225" cy="111.208" r="3" />
	<circle cx="225" cy="137.425" r="3" />
	<circle cx="225" cy="84.295" r="3" />
	<circle cx="225" cy="104.8675" r="3" />
	<circle cx="225" cy="122.9285" r="3" />
	<circle cx="235" cy="240.3885" r="3" />
	<circle cx="235" cy="109.3175" r="3" />
	<circle cx="235" cy="188.43" r="3" />
	<circle cx="235" cy="145.2505" r="3" />
	<circle cx="235" cy="160.456" r="3" />
	<circle cx="235" cy="170.396" r="3" />
	<circle cx="235" cy="125.572" r="3" />
	<circle cx="235" cy="171.32" r="3" />
	<circle cx="235" cy="157.285" r="3" />
	<circle cx="235" cy="132.368" r="3" />
	<circle cx="235" cy="112.6165" r="3" />
	<circle cx="235" cy="109.046" r="3" />
	<circle cx="245" cy="239.604" r="3" />
	<circle cx="245" cy="75.3475" r="3" />
	<circle cx="245" cy="19.299" r="3" />
	<circle cx="245" cy="129.6705" r="3" />
	<circle cx="245" cy="92.1475" r="3" />
	<circle cx="245" cy="146.5255" r="3" />
	<circle cx="245" cy="78.6225" r="3" />
	<circle cx="245" cy="105.312" r="3" />
	<circle cx="245" cy="100.785" r="3" />
	<circle cx="245" cy="104.987" r="3" />
	<circle cx="245" cy="93.4565" r="3" />
	<circle cx="245" cy="73.339" r="3" />
	<circle cx="245" cy="79.002" r="3" />
	<circle cx="255" cy="238.181" r="3" />
	<circle cx="255" cy="69.76" r="3" />
	<circle cx="255" cy="106.8495" r="3" />
	<circle cx="255" cy="157.753" r="3" />
	<circle cx="255" cy="149.983" r="3" />
	<circle cx="255" cy="85.4" r="3" />
	<circle cx="255" cy="138.3315" r="3" />
	<circle cx="255" cy="124.3155" r="3" />
	<circle cx="255" cy="83.2615" r="3" />
	<circle cx="255" cy="95.2335" r="3" />
	<circle cx="255" cy="103.6245" r="3" />
	<circle cx="255" cy="86.2245" r="3" />
	<circle cx="255" cy="124.04" r="3" />
	<circle cx="255" cy="120.0995" r="3" />
	<circle cx="255" cy="109.6315" r="3" />
	<circle cx="255" cy="123.2655" r="3" />
	<circle cx="255" cy="100.581" r="3" />
	<circle cx="265" cy="239.8005" r="3" />
	<circle cx="265" cy="97.995" r="3" />
	<circle cx="265" cy="58.601" r="3" />
	<circle cx="265" cy="149.425" r="3" />
	<circle cx="265" cy="102.271" r="3" />
	<circle cx="265" cy="95.281" r="3" />
	<circle cx="265" cy="166.829" r="3" />
	<circle cx="265" cy="122.3515" r="3" />
	<circle cx="265" cy="106.0645" r="3" />
	<circle cx="265" cy="182.634" r="3" />
	<circle cx="265" cy="168.3525" r="3" />
	<circle cx="265" cy="112.4485" r="3" />
	<circle cx="265" cy="103.032" r="3" />
	<circle cx="265" cy="94.821" r="3" />
	<circle cx="275" cy="238.6795" r="3" />
	<circle cx="275" cy="63.3095" r="3" />
	<circle cx="275" cy="119.004" r="3" />
	<circle cx="275" cy="142.707" r="3" />
	<circle cx="275" cy="102.2075" r="3" />
	<circle cx="275" cy="90.454" r="3" />
	<circle cx="275" cy="129.402" r="3" />
	<circle cx="275" cy="170.9295" r="3" />
	<circle cx="275" cy="127.0715" r="3" />
	<circle cx="275" cy="87.23" r="3" />
	<circle cx="275" cy="85.4705" r="3" />
	<circle cx="275" cy="110.816" r="3" />
	<circle cx="275" cy="117.49" r="3" /><!-- 
	Generated using the Perl SVG Module V2.36
	by Ronan Oger
	Info: http://www.roitsystems.com/
 -->
</svg>