<?xml version="1.0" encoding="UTF-8" standalone="yes"?>
<!DOCTYPE svg PUBLIC "-//W3C//DTD SVG 1.0//EN" "http://www.w3.org/TR/2001/REC-SVG-20010904/DTD/svg10.dtd">
<svg height="285" width="295" xmlns="http://www.w3.org/2000/svg" xmlns:xlink="http://www.w3.org/1999/xlink">
	<line style="stroke: blue; stroke-width: 1" x1="70" x2="280" y1="265" y2="265" />	<text text-anchor="end" x="70" y="265">0.00
	</text>
	<line style="stroke: blue; stroke-width: 1" x1="70" x2="280" y1="215" y2="215" />	<text text-anchor="end" x="70" y="215">0.02
	</text>
	<line style="stroke: blue; stroke-width: 1" x1="70" x2="280" y1="165" y2="165" />	<text text-anchor="end" x="70" y="165">0.04
	</text>
	<line style="stroke: blue; stroke-width: 1" x1="70" x2="280" y1="115" y2="115" />	<text text-anchor="end" x="70" y="115">0.06
	</text>
	<line style="stroke: blue; stroke-width: 1" x1="70" x2="280" y1="65" y2="65" />	<text text-anchor="end" x="70" y="65">0.08
	</text>
	<circle cx="75" cy="264.9" r="3" />
	<circle cx="75" cy="264.94" r="3" />
	<circle cx="75" cy="264.94" r="3" />
	<circle cx="75" cy="264.9525" r="3" />
	<circle cx="75" cy="264.95" r="3" />
	<circle cx="75" cy="264.9525" r="3" />
	<circle cx="75" cy="264.9525" r="3" />
	<circle cx="75" cy="264.9525" r="3" />
	<circle cx="75" cy="264.9525" r="3" />
	<circle cx="75" cy="264.95" r="3" />
	<circle cx="75" cy="264.9525" r="3" />
	<circle cx="75" cy="264.95" r="3" />
	<circle cx="75" cy="264.95" r="3" />
	<circle cx="75" cy="264.9525" r="3" />
	<circle cx="75" cy="264.9525" r="3" />
	<circle cx="75" cy="264.955" r="3" />
	<circle cx="75" cy="264.9525" r="3" />
	<circle cx="75" cy="264.95" r="3" />
	<circle cx="75" cy="264.95" r="3" />
	<circle cx="85" cy="259.4625" r="3" />
	<circle cx="85" cy="261.26" r="3" />
	<circle cx="85" cy="261.2925" r="3" />
	<circle cx="85" cy="261.4425" r="3" />
	<circle cx="85" cy="261.665" r="3" />
	<circle cx="85" cy="262.6975" r="3" />
	<circle cx="85" cy="262.27" r="3" />
	<circle cx="85" cy="261.7775" r="3" />
	<circle cx="85" cy="261.155" r="3" />
	<circle cx="85" cy="257.8825" r="3" />
	<circle cx="85" cy="257.0525" r="3" />
	<circle cx="85" cy="261.3675" r="3" />
	<circle cx="85" cy="261.5" r="3" />
	<circle cx="85" cy="261.5125" r="3" />
	<circle cx="85" cy="261.46" r="3" />
	<circle cx="85" cy="258.3075" r="3" />
	<circle cx="85" cy="257.4625" r="3" />
	<circle cx="85" cy="257.375" r="3" />
	<circle cx="85" cy="256.885" r="3" />
	<circle cx="85" cy="258.1425" r="3" />
	<circle cx="95" cy="257.845" r="3" />
	<circle cx="95" cy="249.0275" r="3" />
	<circle cx="95" cy="248.5225" r="3" />
	<circle cx="95" cy="253.6975" r="3" />
	<circle cx="95" cy="253.3925" r="3" />
	<circle cx="95" cy="255.1325" r="3" />
	<circle cx="95" cy="261.0175" r="3" />
	<circle cx="95" cy="261.5975" r="3" />
	<circle cx="95" cy="261.365" r="3" />
	<circle cx="95" cy="257.43" r="3" />
	<circle cx="95" cy="255.8425" r="3" />
	<circle cx="95" cy="255.0275" r="3" />
	<circle cx="95" cy="255.05" r="3" />
	<circle cx="95" cy="255.8125" r="3" />
	<circle cx="95" cy="261.185" r="3" />
	<circle cx="95" cy="261.5725" r="3" />
	<circle cx="95" cy="261.06" r="3" />
	<circle cx="95" cy="256.825" r="3" />
	<circle cx="95" cy="255.7725" r="3" />
	<circle cx="95" cy="254.42" r="3" />
	<circle cx="95" cy="254.99" r="3" />
	<circle cx="105" cy="256.9975" r="3" />
	<circle cx="105" cy="239.965" r="3" />
	<circle cx="105" cy="238.2325" r="3" />
	<circle cx="105" cy="237.52" r="3" />
	<circle cx="105" cy="249.1725" r="3" />
	<circle cx="105" cy="256.2475" r="3" />
	<circle cx="105" cy="256.61" r="3" />
	<circle cx="105" cy="254.3875" r="3" />
	<circle cx="105" cy="252.655" r="3" />
	<circle cx="105" cy="247.035" r="3" />
	<circle cx="105" cy="246.325" r="3" />
	<circle cx="105" cy="249.0675" r="3" />
	<circle cx="105" cy="256.0075" r="3" />
	<circle cx="105" cy="257.0775" r="3" />
	<circle cx="105" cy="256.3775" r="3" />
	<circle cx="105" cy="254.685" r="3" />
	<circle cx="105" cy="252.7025" r="3" />
	<circle cx="105" cy="247.575" r="3" />
	<circle cx="105" cy="247.1075" r="3" />
	<circle cx="105" cy="247.685" r="3" />
	<circle cx="105" cy="248.1625" r="3" />
	<circle cx="105" cy="247.56" r="3" />
	<circle cx="105" cy="247.325" r="3" />
	<circle cx="105" cy="245.2875" r="3" />
	<circle cx="115" cy="257.405" r="3" />
	<circle cx="115" cy="225.5475" r="3" />
	<circle cx="115" cy="233.36" r="3" />
	<circle cx="115" cy="244.33" r="3" />
	<circle cx="115" cy="246.6" r="3" />
	<circle cx="115" cy="253.435" r="3" />
	<circle cx="115" cy="253.6875" r="3" />
	<circle cx="115" cy="247.035" r="3" />
	<circle cx="115" cy="238.3075" r="3" />
	<circle cx="115" cy="235.93" r="3" />
	<circle cx="115" cy="237.9875" r="3" />
	<circle cx="115" cy="245.9225" r="3" />
	<circle cx="115" cy="247.56" r="3" />
	<circle cx="115" cy="247.035" r="3" />
	<circle cx="115" cy="247.085" r="3" />
	<circle cx="115" cy="246.45" r="3" />
	<circle cx="115" cy="247.165" r="3" />
	<circle cx="115" cy="247.185" r="3" />
	<circle cx="115" cy="245.2725" r="3" />
	<circle cx="115" cy="240.86" r="3" />
	<circle cx="115" cy="239.5575" r="3" />
	<circle cx="115" cy="240.3925" r="3" />
	<circle cx="125" cy="253.34" r="3" />
	<circle cx="125" cy="222.705" r="3" />
	<circle cx="125" cy="232.51" r="3" />
	<circle cx="125" cy="211.485" r="3" />
	<circle cx="125" cy="220.4275" r="3" />
	<circle cx="125" cy="221.815" r="3" />
	<circle cx="125" cy="229.0075" r="3" />
	<circle cx="125" cy="235.25" r="3" />
	<circle cx="125" cy="229.6775" r="3" />
	<circle cx="125" cy="223.365" r="3" />
	<circle cx="125" cy="220.1525" r="3" />
	<circle cx="125" cy="228.005" r="3" />
	<circle cx="125" cy="235.58" r="3" />
	<circle cx="125" cy="235.35" r="3" />
	<circle cx="125" cy="228.9925" r="3" />
	<circle cx="135" cy="245.8475" r="3" />
	<circle cx="135" cy="233.2375" r="3" />
	<circle cx="135" cy="207.1125" r="3" />
	<circle cx="135" cy="231.225" r="3" />
	<circle cx="135" cy="221.0025" r="3" />
	<circle cx="135" cy="218.345" r="3" />
	<circle cx="135" cy="221.1975" r="3" />
	<circle cx="135" cy="226.17" r="3" />
	<circle cx="135" cy="229.39" r="3" />
	<circle cx="135" cy="221.2675" r="3" />
	<circle cx="135" cy="211.7875" r="3" />
	<circle cx="135" cy="218.025" r="3" />
	<circle cx="135" cy="228.205" r="3" />
	<circle cx="135" cy="234.3" r="3" />
	<circle cx="135" cy="228.8675" r="3" />
	<circle cx="135" cy="220.77" r="3" />
	<circle cx="135" cy="220.6925" r="3" />
	<circle cx="135" cy="224.19" r="3" />
	<circle cx="135" cy="218.97" r="3" />
	<circle cx="135" cy="214.14" r="3" />
	<circle cx="145" cy="243.94" r="3" />
	<circle cx="145" cy="180.855" r="3" />
	<circle cx="145" cy="213.005" r="3" />
	<circle cx="145" cy="227.5775" r="3" />
	<circle cx="145" cy="226.16" r="3" />
	<circle cx="145" cy="222.7775" r="3" />
	<circle cx="145" cy="198.6825" r="3" />
	<circle cx="145" cy="186.28" r="3" />
	<circle cx="145" cy="225.935" r="3" />
	<circle cx="145" cy="220.9825" r="3" />
	<circle cx="145" cy="203.345" r="3" />
	<circle cx="145" cy="155.31" r="3" />
	<circle cx="145" cy="203.81" r="3" />
	<circle cx="155" cy="249.4925" r="3" />
	<circle cx="155" cy="181.715" r="3" />
	<circle cx="155" cy="208.5875" r="3" />
	<circle cx="155" cy="162.0925" r="3" />
	<circle cx="155" cy="218.4275" r="3" />
	<circle cx="155" cy="230.15" r="3" />
	<circle cx="155" cy="208.19" r="3" />
	<circle cx="155" cy="222.4225" r="3" />
	<circle cx="155" cy="208.4025" r="3" />
	<circle cx="155" cy="216.6" r="3" />
	<circle cx="155" cy="227.61" r="3" />
	<circle cx="155" cy="228.7625" r="3" />
	<circle cx="155" cy="220.3075" r="3" />
	<circle cx="155" cy="210.94" r="3" />
	<circle cx="155" cy="203.595" r="3" />
	<circle cx="155" cy="220.605" r="3" />
	<circle cx="155" cy="226.435" r="3" />
	<circle cx="155" cy="226.435" r="3" />
	<circle cx="155" cy="211.74" r="3" />
	<circle cx="155" cy="209.2425" r="3" />
	<circle cx="155" cy="198.7725" r="3" />
	<circle cx="155" cy="163.9025" r="3" />
	<circle cx="155" cy="203.2125" r="3" />
	<circle cx="165" cy="242.705" r="3" />
	<circle cx="165" cy="202.82" r="3" />
	<circle cx="165" cy="191.39" r="3" />
	<circle cx="165" cy="205.3975" r="3" />
	<circle cx="165" cy="187.84" r="3" />
	<circle cx="165" cy="195.805" r="3" />
	<circle cx="165" cy="182.26" r="3" />
	<circle cx="165" cy="192.8125" r="3" />
	<circle cx="165" cy="208.8375" r="3" />
	<circle cx="165" cy="209.4175" r="3" />
	<circle cx="165" cy="194.4525" r="3" />
	<circle cx="165" cy="185.1575" r="3" />
	<circle cx="165" cy="203.9125" r="3" />
	<circle cx="165" cy="209.9175" r="3" />
	<circle cx="165" cy="209.4975" r="3" />
	<circle cx="165" cy="198.07" r="3" />
	<circle cx="165" cy="176.24" r="3" />
	<circle cx="165" cy="206.6075" r="3" />
	<circle cx="175" cy="243.0575" r="3" />
	<circle cx="175" cy="155.575" r="3" />
	<circle cx="175" cy="192.405" r="3" />
	<circle cx="175" cy="199.35" r="3" />
	<circle cx="175" cy="208.4925" r="3" />
	<circle cx="175" cy="143.91" r="3" />
	<circle cx="175" cy="175.4825" r="3" />
	<circle cx="175" cy="195.835" r="3" />
	<circle cx="175" cy="210.2175" r="3" />
	<circle cx="175" cy="207.715" r="3" />
	<circle cx="175" cy="182.6925" r="3" />
	<circle cx="175" cy="183.7125" r="3" />
	<circle cx="175" cy="201.915" r="3" />
	<circle cx="175" cy="213.905" r="3" />
	<circle cx="175" cy="193.085" r="3" />
	<circle cx="175" cy="176.995" r="3" />
	<circle cx="175" cy="185.0075" r="3" />
	<circle cx="175" cy="186.025" r="3" />
	<circle cx="175" cy="151.1275" r="3" />
	<circle cx="175" cy="179.88" r="3" />
	<circle cx="185" cy="241.4675" r="3" />
	<circle cx="185" cy="146.4325" r="3" />
	<circle cx="185" cy="175.2" r="3" />
	<circle cx="185" cy="164.92" r="3" />
	<circle cx="185" cy="169.515" r="3" />
	<circle cx="185" cy="202.34" r="3" />
	<circle cx="185" cy="197.8675" r="3" />
	<circle cx="185" cy="191.345" r="3" />
	<circle cx="185" cy="173.0825" r="3" />
	<circle cx="185" cy="168.615" r="3" />
	<circle cx="185" cy="185.84" r="3" />
	<circle cx="185" cy="199.8175" r="3" />
	<circle cx="185" cy="195.7075" r="3" />
	<circle cx="185" cy="171.1075" r="3" />
	<circle cx="185" cy="173.1925" r="3" />
	<circle cx="185" cy="190.625" r="3" />
	<circle cx="185" cy="191.335" r="3" />
	<circle cx="185" cy="184.075" r="3" />
	<circle cx="185" cy="169.1925" r="3" />
	<circle cx="185" cy="179.285" r="3" />
	<circle cx="195" cy="251.3275" r="3" />
	<circle cx="195" cy="129.4275" r="3" />
	<circle cx="195" cy="170.7975" r="3" />
	<circle cx="195" cy="196.23" r="3" />
	<circle cx="195" cy="198.09" r="3" />
	<circle cx="195" cy="187.5275" r="3" />
	<circle cx="195" cy="126.565" r="3" />
	<circle cx="195" cy="181.0775" r="3" />
	<circle cx="195" cy="208.035" r="3" />
	<circle cx="195" cy="184.87" r="3" />
	<circle cx="195" cy="168.935" r="3" />
	<circle cx="195" cy="181.9575" r="3" />
	<circle cx="195" cy="175.1675" r="3" />
	<circle cx="195" cy="169.025" r="3" />
	<circle cx="195" cy="148.05" r="3" />
	<circle cx="195" cy="167.405" r="3" />
	<circle cx="205" cy="243.8975" r="3" />
	<circle cx="205" cy="84.975" r="3" />
	<circle cx="205" cy="96.7775" r="3" />
	<circle cx="205" cy="149.225" r="3" />
	<circle cx="205" cy="166.07" r="3" />
	<circle cx="205" cy="180.02" r="3" />
	<circle cx="205" cy="153.39" r="3" />
	<circle cx="205" cy="104.695" r="3" />
	<circle cx="205" cy="175.0775" r="3" />
	<circle cx="205" cy="176.43" r="3" />
	<circle cx="205" cy="172.4925" r="3" />
	<circle cx="205" cy="175.845" r="3" />
	<circle cx="205" cy="190.8975" r="3" />
	<circle cx="205" cy="196.8675" r="3" />
	<circle cx="205" cy="164.4875" r="3" />
	<circle cx="205" cy="191.245" r="3" />
	<circle cx="205" cy="123.4475" r="3" />
	<circle cx="205" cy="151.2625" r="3" />
	<circle cx="215" cy="242.67" r="3" />
	<circle cx="215" cy="155.6825" r="3" />
	<circle cx="215" cy="170.6925" r="3" />
	<circle cx="215" cy="177.8925" r="3" />
	<circle cx="215" cy="183.3625" r="3" />
	<circle cx="215" cy="168.7975" r="3" />
	<circle cx="215" cy="91.08" r="3" />
	<circle cx="215" cy="164.9425" r="3" />
	<circle cx="215" cy="173.6925" r="3" />
	<circle cx="215" cy="178.3525" r="3" />
	<circle cx="215" cy="155.8575" r="3" />
	<circle cx="215" cy="164.3875" r="3" />
	<circle cx="215" cy="165" r="3" />
	<circle cx="215" cy="142.0525" r="3" />
	<circle cx="215" cy="111.3125" r="3" />
	<circle cx="215" cy="146.235" r="3" />
	<circle cx="225" cy="249.195" r="3" />
	<circle cx="225" cy="78.445" r="3" />
	<circle cx="225" cy="148.9275" r="3" />
	<circle cx="225" cy="108.005" r="3" />
	<circle cx="225" cy="102.625" r="3" />
	<circle cx="225" cy="156.775" r="3" />
	<circle cx="225" cy="177.25" r="3" />
	<circle cx="225" cy="152.49" r="3" />
	<circle cx="225" cy="179.0375" r="3" />
	<circle cx="225" cy="186.84" r="3" />
	<circle cx="225" cy="141.2375" r="3" />
	<circle cx="225" cy="124.73" r="3" />
	<circle cx="225" cy="133.1675" r="3" />
	<circle cx="225" cy="125.3875" r="3" />
	<circle cx="235" cy="237.66" r="3" />
	<circle cx="235" cy="87.2625" r="3" />
	<circle cx="235" cy="127.4475" r="3" />
	<circle cx="235" cy="172.2275" r="3" />
	<circle cx="235" cy="132.7025" r="3" />
	<circle cx="235" cy="122.3975" r="3" />
	<circle cx="235" cy="154.5925" r="3" />
	<circle cx="235" cy="172.465" r="3" />
	<circle cx="235" cy="146.9075" r="3" />
	<circle cx="235" cy="125.0825" r="3" />
	<circle cx="235" cy="171.435" r="3" />
	<circle cx="235" cy="190.1825" r="3" />
	<circle cx="235" cy="174.01" r="3" />
	<circle cx="235" cy="136.715" r="3" />
	<circle cx="235" cy="135.61" r="3" />
	<circle cx="235" cy="138.895" r="3" />
	<circle cx="235" cy="125.895" r="3" />
	<circle cx="235" cy="123.765" r="3" />
	<circle cx="245" cy="241.55" r="3" />
	<circle cx="245" cy="69.8" r="3" />
	<circle cx="245" cy="116.5425" r="3" />
	<circle cx="245" cy="92.065" r="3" />
	<circle cx="245" cy="117.8425" r="3" />
	<circle cx="245" cy="156.9675" r="3" />
	<circle cx="245" cy="128.8475" r="3" />
	<circle cx="245" cy="132.8625" r="3" />
	<circle cx="245" cy="173.9175" r="3" />
	<circle cx="245" cy="142.915" r="3" />
	<circle cx="245" cy="133.0275" r="3" />
	<circle cx="245" cy="128.9125" r="3" />
	<circle cx="245" cy="167.75" r="3" />
	<circle cx="245" cy="154.7125" r="3" />
	<circle cx="245" cy="144.485" r="3" />
	<circle cx="245" cy="87.6975" r="3" />
	<circle cx="245" cy="131.4275" r="3" />
	<circle cx="255" cy="245.8" r="3" />
	<circle cx="255" cy="97.06" r="3" />
	<circle cx="255" cy="123.0125" r="3" />
	<circle cx="255" cy="19.0475" r="3" />
	<circle cx="255" cy="131.4525" r="3" />
	<circle cx="255" cy="155.4425" r="3" />
	<circle cx="255" cy="146.185" r="3" />
	<circle cx="255" cy="138.22" r="3" />
	<circle cx="255" cy="163.86" r="3" />
	<circle cx="255" cy="186.765" r="3" />
	<circle cx="255" cy="169.1525" r="3" />
	<circle cx="255" cy="124.93" r="3" />
	<circle cx="255" cy="116.195" r="3" />
	<circle cx="255" cy="105.0975" r="3" />
	<circle cx="255" cy="116.68" r="3" />
	<circle cx="255" cy="153.3625" r="3" />
	<circle cx="255" cy="165.6925" r="3" />
	<circle cx="255" cy="165.4325" r="3" />
	<circle cx="255" cy="99.3425" r="3" />
	<circle cx="255" cy="72.7575" r="3" />
	<circle cx="255" cy="48.0375" r="3" />
	<circle cx="265" cy="241.19" r="3" />
	<circle cx="265" cy="33.1975" r="3" />
	<circle cx="265" cy="116.725" r="3" />
	<circle cx="265" cy="83.4125" r="3" />
	<circle cx="265" cy="94.7775" r="3" />
	<circle cx="265" cy="131.21" r="3" />
	<circle cx="265" cy="149.7675" r="3" />
	<circle cx="265" cy="99.1575" r="3" />
	<circle cx="265" cy="125.7275" r="3" />
	<circle cx="265" cy="122.9775" r="3" />
	<circle cx="265" cy="31.1075" r="3" />
	<circle cx="265" cy="122.525" r="3" />
	<circle cx="265" cy="83.13" r="3" />
	<circle cx="265" cy="128.5675" r="3" />
	<circle cx="265" cy="144.48" r="3" />
	<circle cx="265" cy="132.775" r="3" />
	<circle cx="265" cy="120.435" r="3" />
	<circle cx="265" cy="121.3175" r="3" />
	<circle cx="265" cy="110.1" r="3" />
	<circle cx="265" cy="61.97" r="3" />
	<circle cx="265" cy="90.7" r="3" />
	<circle cx="275" cy="239.0725" r="3" />
	<circle cx="275" cy="31.0625" r="3" />
	<circle cx="275" cy="104.1575" r="3" />
	<circle cx="275" cy="79.7625" r="3" />
	<circle cx="275" cy="121.315" r="3" />
	<circle cx="275" cy="143.725" r="3" />
	<circle cx="275" cy="152.1925" r="3" />
	<circle cx="275" cy="160.6725" r="3" />
	<circle cx="275" cy="155.5075" r="3" />
	<circle cx="275" cy="127.7875" r="3" />
	<circle cx="275" cy="98.8075" r="3" />
	<circle cx="275" cy="75.5075" r="3" />
	<circle cx="275" cy="86.7825" r="3" />
	<circle cx="275" cy="157.7925" r="3" />
	<circle cx="275" cy="144.9125" r="3" />
	<circle cx="275" cy="113.12" r="3" />
	<circle cx="275" cy="115.675" r="3" />
	<circle cx="275" cy="140.44" r="3" />
	<circle cx="275" cy="134.765" r="3" />
	<circle cx="275" cy="115.5425" r="3" />
	<circle cx="275" cy="103.3325" r="3" />
	<circle cx="275" cy="100.3275" r="3" /><!-- 
	Generated using the Perl SVG Module V2.36
	by Ronan Oger
	Info: http://www.roitsystems.com/
 -->
</svg>