<?xml version="1.0" encoding="UTF-8" standalone="yes"?>
<!DOCTYPE svg PUBLIC "-//W3C//DTD SVG 1.0//EN" "http://www.w3.org/TR/2001/REC-SVG-20010904/DTD/svg10.dtd">
<svg height="5155" width="295" xmlns="http://www.w3.org/2000/svg" xmlns:xlink="http://www.w3.org/1999/xlink">
	<line style="stroke: blue; stroke-width: 1" x1="70" x2="280" y1="5135" y2="5135" />	<text text-anchor="end" x="70" y="5135">0.00
	</text>
	<line style="stroke: blue; stroke-width: 1" x1="70" x2="280" y1="5085" y2="5085" />	<text text-anchor="end" x="70" y="5085">1.00
	</text>
	<line style="stroke: blue; stroke-width: 1" x1="70" x2="280" y1="5035" y2="5035" />	<text text-anchor="end" x="70" y="5035">2.00
	</text>
	<line style="stroke: blue; stroke-width: 1" x1="70" x2="280" y1="4985" y2="4985" />	<text text-anchor="end" x="70" y="4985">3.00
	</text>
	<line style="stroke: blue; stroke-width: 1" x1="70" x2="280" y1="4935" y2="4935" />	<text text-anchor="end" x="70" y="4935">4.00
	</text>
	<line style="stroke: blue; stroke-width: 1" x1="70" x2="280" y1="4885" y2="4885" />	<text text-anchor="end" x="70" y="4885">5.00
	</text>
	<line style="stroke: blue; stroke-width: 1" x1="70" x2="280" y1="4835" y2="4835" />	<text text-anchor="end" x="70" y="4835">6.00
	</text>
	<line style="stroke: blue; stroke-width: 1" x1="70" x2="280" y1="4785" y2="4785" />	<text text-anchor="end" x="70" y="4785">7.00
	</text>
	<line style="stroke: blue; stroke-width: 1" x1="70" x2="280" y1="4735" y2="4735" />	<text text-anchor="end" x="70" y="4735">8.00
	</text>
	<line style="stroke: blue; stroke-width: 1" x1="70" x2="280" y1="4685" y2="4685" />	<text text-anchor="end" x="70" y="4685">9.00
	</text>
	<line style="stroke: blue; stroke-width: 1" x1="70" x2="280" y1="4635" y2="4635" />	<text text-anchor="end" x="70" y="4635">10.00
	</text>
	<line style="stroke: blue; stroke-width: 1" x1="70" x2="280" y1="4585" y2="4585" />	<text text-anchor="end" x="70" y="4585">11.00
	</text>
	<line style="stroke: blue; stroke-width: 1" x1="70" x2="280" y1="4535" y2="4535" />	<text text-anchor="end" x="70" y="4535">12.00
	</text>
	<line style="stroke: blue; stroke-width: 1" x1="70" x2="280" y1="4485" y2="4485" />	<text text-anchor="end" x="70" y="4485">13.00
	</text>
	<line style="stroke: blue; stroke-width: 1" x1="70" x2="280" y1="4435" y2="4435" />	<text text-anchor="end" x="70" y="4435">14.00
	</text>
	<line style="stroke: blue; stroke-width: 1" x1="70" x2="280" y1="4385" y2="4385" />	<text text-anchor="end" x="70" y="4385">15.00
	</text>
	<line style="stroke: blue; stroke-width: 1" x1="70" x2="280" y1="4335" y2="4335" />	<text text-anchor="end" x="70" y="4335">16.00
	</text>
	<line style="stroke: blue; stroke-width: 1" x1="70" x2="280" y1="4285" y2="4285" />	<text text-anchor="end" x="70" y="4285">17.00
	</text>
	<line style="stroke: blue; stroke-width: 1" x1="70" x2="280" y1="4235" y2="4235" />	<text text-anchor="end" x="70" y="4235">18.00
	</text>
	<line style="stroke: blue; stroke-width: 1" x1="70" x2="280" y1="4185" y2="4185" />	<text text-anchor="end" x="70" y="4185">19.00
	</text>
	<line style="stroke: blue; stroke-width: 1" x1="70" x2="280" y1="4135" y2="4135" />	<text text-anchor="end" x="70" y="4135">20.00
	</text>
	<line style="stroke: blue; stroke-width: 1" x1="70" x2="280" y1="4085" y2="4085" />	<text text-anchor="end" x="70" y="4085">21.00
	</text>
	<line style="stroke: blue; stroke-width: 1" x1="70" x2="280" y1="4035" y2="4035" />	<text text-anchor="end" x="70" y="4035">22.00
	</text>
	<line style="stroke: blue; stroke-width: 1" x1="70" x2="280" y1="3985" y2="3985" />	<text text-anchor="end" x="70" y="3985">23.00
	</text>
	<line style="stroke: blue; stroke-width: 1" x1="70" x2="280" y1="3935" y2="3935" />	<text text-anchor="end" x="70" y="3935">24.00
	</text>
	<line style="stroke: blue; stroke-width: 1" x1="70" x2="280" y1="3885" y2="3885" />	<text text-anchor="end" x="70" y="3885">25.00
	</text>
	<line style="stroke: blue; stroke-width: 1" x1="70" x2="280" y1="3835" y2="3835" />	<text text-anchor="end" x="70" y="3835">26.00
	</text>
	<line style="stroke: blue; stroke-width: 1" x1="70" x2="280" y1="3785" y2="3785" />	<text text-anchor="end" x="70" y="3785">27.00
	</text>
	<line style="stroke: blue; stroke-width: 1" x1="70" x2="280" y1="3735" y2="3735" />	<text text-anchor="end" x="70" y="3735">28.00
	</text>
	<line style="stroke: blue; stroke-width: 1" x1="70" x2="280" y1="3685" y2="3685" />	<text text-anchor="end" x="70" y="3685">29.00
	</text>
	<line style="stroke: blue; stroke-width: 1" x1="70" x2="280" y1="3635" y2="3635" />	<text text-anchor="end" x="70" y="3635">30.00
	</text>
	<line style="stroke: blue; stroke-width: 1" x1="70" x2="280" y1="3585" y2="3585" />	<text text-anchor="end" x="70" y="3585">31.00
	</text>
	<line style="stroke: blue; stroke-width: 1" x1="70" x2="280" y1="3535" y2="3535" />	<text text-anchor="end" x="70" y="3535">32.00
	</text>
	<line style="stroke: blue; stroke-width: 1" x1="70" x2="280" y1="3485" y2="3485" />	<text text-anchor="end" x="70" y="3485">33.00
	</text>
	<line style="stroke: blue; stroke-width: 1" x1="70" x2="280" y1="3435" y2="3435" />	<text text-anchor="end" x="70" y="3435">34.00
	</text>
	<line style="stroke: blue; stroke-width: 1" x1="70" x2="280" y1="3385" y2="3385" />	<text text-anchor="end" x="70" y="3385">35.00
	</text>
	<line style="stroke: blue; stroke-width: 1" x1="70" x2="280" y1="3335" y2="3335" />	<text text-anchor="end" x="70" y="3335">36.00
	</text>
	<line style="stroke: blue; stroke-width: 1" x1="70" x2="280" y1="3285" y2="3285" />	<text text-anchor="end" x="70" y="3285">37.00
	</text>
	<line style="stroke: blue; stroke-width: 1" x1="70" x2="280" y1="3235" y2="3235" />	<text text-anchor="end" x="70" y="3235">38.00
	</text>
	<line style="stroke: blue; stroke-width: 1" x1="70" x2="280" y1="3185" y2="3185" />	<text text-anchor="end" x="70" y="3185">39.00
	</text>
	<line style="stroke: blue; stroke-width: 1" x1="70" x2="280" y1="3135" y2="3135" />	<text text-anchor="end" x="70" y="3135">40.00
	</text>
	<line style="stroke: blue; stroke-width: 1" x1="70" x2="280" y1="3085" y2="3085" />	<text text-anchor="end" x="70" y="3085">41.00
	</text>
	<line style="stroke: blue; stroke-width: 1" x1="70" x2="280" y1="3035" y2="3035" />	<text text-anchor="end" x="70" y="3035">42.00
	</text>
	<line style="stroke: blue; stroke-width: 1" x1="70" x2="280" y1="2985" y2="2985" />	<text text-anchor="end" x="70" y="2985">43.00
	</text>
	<line style="stroke: blue; stroke-width: 1" x1="70" x2="280" y1="2935" y2="2935" />	<text text-anchor="end" x="70" y="2935">44.00
	</text>
	<line style="stroke: blue; stroke-width: 1" x1="70" x2="280" y1="2885" y2="2885" />	<text text-anchor="end" x="70" y="2885">45.00
	</text>
	<line style="stroke: blue; stroke-width: 1" x1="70" x2="280" y1="2835" y2="2835" />	<text text-anchor="end" x="70" y="2835">46.00
	</text>
	<line style="stroke: blue; stroke-width: 1" x1="70" x2="280" y1="2785" y2="2785" />	<text text-anchor="end" x="70" y="2785">47.00
	</text>
	<line style="stroke: blue; stroke-width: 1" x1="70" x2="280" y1="2735" y2="2735" />	<text text-anchor="end" x="70" y="2735">48.00
	</text>
	<line style="stroke: blue; stroke-width: 1" x1="70" x2="280" y1="2685" y2="2685" />	<text text-anchor="end" x="70" y="2685">49.00
	</text>
	<line style="stroke: blue; stroke-width: 1" x1="70" x2="280" y1="2635" y2="2635" />	<text text-anchor="end" x="70" y="2635">50.00
	</text>
	<line style="stroke: blue; stroke-width: 1" x1="70" x2="280" y1="2585" y2="2585" />	<text text-anchor="end" x="70" y="2585">51.00
	</text>
	<line style="stroke: blue; stroke-width: 1" x1="70" x2="280" y1="2535" y2="2535" />	<text text-anchor="end" x="70" y="2535">52.00
	</text>
	<line style="stroke: blue; stroke-width: 1" x1="70" x2="280" y1="2485" y2="2485" />	<text text-anchor="end" x="70" y="2485">53.00
	</text>
	<line style="stroke: blue; stroke-width: 1" x1="70" x2="280" y1="2435" y2="2435" />	<text text-anchor="end" x="70" y="2435">54.00
	</text>
	<line style="stroke: blue; stroke-width: 1" x1="70" x2="280" y1="2385" y2="2385" />	<text text-anchor="end" x="70" y="2385">55.00
	</text>
	<line style="stroke: blue; stroke-width: 1" x1="70" x2="280" y1="2335" y2="2335" />	<text text-anchor="end" x="70" y="2335">56.00
	</text>
	<line style="stroke: blue; stroke-width: 1" x1="70" x2="280" y1="2285" y2="2285" />	<text text-anchor="end" x="70" y="2285">57.00
	</text>
	<line style="stroke: blue; stroke-width: 1" x1="70" x2="280" y1="2235" y2="2235" />	<text text-anchor="end" x="70" y="2235">58.00
	</text>
	<line style="stroke: blue; stroke-width: 1" x1="70" x2="280" y1="2185" y2="2185" />	<text text-anchor="end" x="70" y="2185">59.00
	</text>
	<line style="stroke: blue; stroke-width: 1" x1="70" x2="280" y1="2135" y2="2135" />	<text text-anchor="end" x="70" y="2135">60.00
	</text>
	<line style="stroke: blue; stroke-width: 1" x1="70" x2="280" y1="2085" y2="2085" />	<text text-anchor="end" x="70" y="2085">61.00
	</text>
	<line style="stroke: blue; stroke-width: 1" x1="70" x2="280" y1="2035" y2="2035" />	<text text-anchor="end" x="70" y="2035">62.00
	</text>
	<line style="stroke: blue; stroke-width: 1" x1="70" x2="280" y1="1985" y2="1985" />	<text text-anchor="end" x="70" y="1985">63.00
	</text>
	<line style="stroke: blue; stroke-width: 1" x1="70" x2="280" y1="1935" y2="1935" />	<text text-anchor="end" x="70" y="1935">64.00
	</text>
	<line style="stroke: blue; stroke-width: 1" x1="70" x2="280" y1="1885" y2="1885" />	<text text-anchor="end" x="70" y="1885">65.00
	</text>
	<line style="stroke: blue; stroke-width: 1" x1="70" x2="280" y1="1835" y2="1835" />	<text text-anchor="end" x="70" y="1835">66.00
	</text>
	<line style="stroke: blue; stroke-width: 1" x1="70" x2="280" y1="1785" y2="1785" />	<text text-anchor="end" x="70" y="1785">67.00
	</text>
	<line style="stroke: blue; stroke-width: 1" x1="70" x2="280" y1="1735" y2="1735" />	<text text-anchor="end" x="70" y="1735">68.00
	</text>
	<line style="stroke: blue; stroke-width: 1" x1="70" x2="280" y1="1685" y2="1685" />	<text text-anchor="end" x="70" y="1685">69.00
	</text>
	<line style="stroke: blue; stroke-width: 1" x1="70" x2="280" y1="1635" y2="1635" />	<text text-anchor="end" x="70" y="1635">70.00
	</text>
	<line style="stroke: blue; stroke-width: 1" x1="70" x2="280" y1="1585" y2="1585" />	<text text-anchor="end" x="70" y="1585">71.00
	</text>
	<line style="stroke: blue; stroke-width: 1" x1="70" x2="280" y1="1535" y2="1535" />	<text text-anchor="end" x="70" y="1535">72.00
	</text>
	<line style="stroke: blue; stroke-width: 1" x1="70" x2="280" y1="1485" y2="1485" />	<text text-anchor="end" x="70" y="1485">73.00
	</text>
	<line style="stroke: blue; stroke-width: 1" x1="70" x2="280" y1="1435" y2="1435" />	<text text-anchor="end" x="70" y="1435">74.00
	</text>
	<line style="stroke: blue; stroke-width: 1" x1="70" x2="280" y1="1385" y2="1385" />	<text text-anchor="end" x="70" y="1385">75.00
	</text>
	<line style="stroke: blue; stroke-width: 1" x1="70" x2="280" y1="1335" y2="1335" />	<text text-anchor="end" x="70" y="1335">76.00
	</text>
	<line style="stroke: blue; stroke-width: 1" x1="70" x2="280" y1="1285" y2="1285" />	<text text-anchor="end" x="70" y="1285">77.00
	</text>
	<line style="stroke: blue; stroke-width: 1" x1="70" x2="280" y1="1235" y2="1235" />	<text text-anchor="end" x="70" y="1235">78.00
	</text>
	<line style="stroke: blue; stroke-width: 1" x1="70" x2="280" y1="1185" y2="1185" />	<text text-anchor="end" x="70" y="1185">79.00
	</text>
	<line style="stroke: blue; stroke-width: 1" x1="70" x2="280" y1="1135" y2="1135" />	<text text-anchor="end" x="70" y="1135">80.00
	</text>
	<line style="stroke: blue; stroke-width: 1" x1="70" x2="280" y1="1085" y2="1085" />	<text text-anchor="end" x="70" y="1085">81.00
	</text>
	<line style="stroke: blue; stroke-width: 1" x1="70" x2="280" y1="1035" y2="1035" />	<text text-anchor="end" x="70" y="1035">82.00
	</text>
	<line style="stroke: blue; stroke-width: 1" x1="70" x2="280" y1="985" y2="985" />	<text text-anchor="end" x="70" y="985">83.00
	</text>
	<line style="stroke: blue; stroke-width: 1" x1="70" x2="280" y1="935" y2="935" />	<text text-anchor="end" x="70" y="935">84.00
	</text>
	<line style="stroke: blue; stroke-width: 1" x1="70" x2="280" y1="885" y2="885" />	<text text-anchor="end" x="70" y="885">85.00
	</text>
	<line style="stroke: blue; stroke-width: 1" x1="70" x2="280" y1="835" y2="835" />	<text text-anchor="end" x="70" y="835">86.00
	</text>
	<line style="stroke: blue; stroke-width: 1" x1="70" x2="280" y1="785" y2="785" />	<text text-anchor="end" x="70" y="785">87.00
	</text>
	<line style="stroke: blue; stroke-width: 1" x1="70" x2="280" y1="735" y2="735" />	<text text-anchor="end" x="70" y="735">88.00
	</text>
	<line style="stroke: blue; stroke-width: 1" x1="70" x2="280" y1="685" y2="685" />	<text text-anchor="end" x="70" y="685">89.00
	</text>
	<line style="stroke: blue; stroke-width: 1" x1="70" x2="280" y1="635" y2="635" />	<text text-anchor="end" x="70" y="635">90.00
	</text>
	<line style="stroke: blue; stroke-width: 1" x1="70" x2="280" y1="585" y2="585" />	<text text-anchor="end" x="70" y="585">91.00
	</text>
	<line style="stroke: blue; stroke-width: 1" x1="70" x2="280" y1="535" y2="535" />	<text text-anchor="end" x="70" y="535">92.00
	</text>
	<line style="stroke: blue; stroke-width: 1" x1="70" x2="280" y1="485" y2="485" />	<text text-anchor="end" x="70" y="485">93.00
	</text>
	<line style="stroke: blue; stroke-width: 1" x1="70" x2="280" y1="435" y2="435" />	<text text-anchor="end" x="70" y="435">94.00
	</text>
	<line style="stroke: blue; stroke-width: 1" x1="70" x2="280" y1="385" y2="385" />	<text text-anchor="end" x="70" y="385">95.00
	</text>
	<line style="stroke: blue; stroke-width: 1" x1="70" x2="280" y1="335" y2="335" />	<text text-anchor="end" x="70" y="335">96.00
	</text>
	<line style="stroke: blue; stroke-width: 1" x1="70" x2="280" y1="285" y2="285" />	<text text-anchor="end" x="70" y="285">97.00
	</text>
	<line style="stroke: blue; stroke-width: 1" x1="70" x2="280" y1="235" y2="235" />	<text text-anchor="end" x="70" y="235">98.00
	</text>
	<line style="stroke: blue; stroke-width: 1" x1="70" x2="280" y1="185" y2="185" />	<text text-anchor="end" x="70" y="185">99.00
	</text>
	<line style="stroke: blue; stroke-width: 1" x1="70" x2="280" y1="135" y2="135" />	<text text-anchor="end" x="70" y="135">100.00
	</text>
	<line style="stroke: blue; stroke-width: 1" x1="70" x2="280" y1="85" y2="85" />	<text text-anchor="end" x="70" y="85">101.00
	</text>
	<line style="stroke: blue; stroke-width: 1" x1="70" x2="280" y1="35" y2="35" />	<text text-anchor="end" x="70" y="35">102.00
	</text>
	<circle cx="75" cy="5134.99745" r="3" />
	<circle cx="75" cy="5134.99805" r="3" />
	<circle cx="75" cy="5134.99825" r="3" />
	<circle cx="75" cy="5134.9986" r="3" />
	<circle cx="75" cy="5134.99905" r="3" />
	<circle cx="75" cy="5134.99905" r="3" />
	<circle cx="75" cy="5134.999" r="3" />
	<circle cx="75" cy="5134.99875" r="3" />
	<circle cx="75" cy="5134.99905" r="3" />
	<circle cx="75" cy="5134.99905" r="3" />
	<circle cx="75" cy="5134.99905" r="3" />
	<circle cx="75" cy="5134.99905" r="3" />
	<circle cx="75" cy="5134.99905" r="3" />
	<circle cx="75" cy="5134.99905" r="3" />
	<circle cx="75" cy="5134.9991" r="3" />
	<circle cx="75" cy="5134.99895" r="3" />
	<circle cx="75" cy="5134.99905" r="3" />
	<circle cx="75" cy="5134.99905" r="3" />
	<circle cx="75" cy="5134.999" r="3" />
	<circle cx="85" cy="5128.8024" r="3" />
	<circle cx="85" cy="5125.05925" r="3" />
	<circle cx="85" cy="5127.2022" r="3" />
	<circle cx="85" cy="5126.2577" r="3" />
	<circle cx="85" cy="5126.1986" r="3" />
	<circle cx="85" cy="5129.19405" r="3" />
	<circle cx="85" cy="5130.2573" r="3" />
	<circle cx="85" cy="5129.1835" r="3" />
	<circle cx="85" cy="5126.9685" r="3" />
	<circle cx="85" cy="5127.6132" r="3" />
	<circle cx="85" cy="5127.1052" r="3" />
	<circle cx="85" cy="5124.8856" r="3" />
	<circle cx="85" cy="5127.1713" r="3" />
	<circle cx="95" cy="5121.76485" r="3" />
	<circle cx="95" cy="5116.87335" r="3" />
	<circle cx="95" cy="5119.78055" r="3" />
	<circle cx="95" cy="5117.35525" r="3" />
	<circle cx="95" cy="5123.1788" r="3" />
	<circle cx="95" cy="5122.8128" r="3" />
	<circle cx="95" cy="5129.70855" r="3" />
	<circle cx="95" cy="5129.34155" r="3" />
	<circle cx="95" cy="5124.55245" r="3" />
	<circle cx="95" cy="5116.34515" r="3" />
	<circle cx="95" cy="5115.13585" r="3" />
	<circle cx="95" cy="5115.9653" r="3" />
	<circle cx="95" cy="5119.4598" r="3" />
	<circle cx="105" cy="5121.59295" r="3" />
	<circle cx="105" cy="5110.28025" r="3" />
	<circle cx="105" cy="5111.72385" r="3" />
	<circle cx="105" cy="5115.3892" r="3" />
	<circle cx="105" cy="5107.71215" r="3" />
	<circle cx="105" cy="5107.10245" r="3" />
	<circle cx="105" cy="5107.54205" r="3" />
	<circle cx="105" cy="5108.4107" r="3" />
	<circle cx="105" cy="5108.65355" r="3" />
	<circle cx="115" cy="5120.2523" r="3" />
	<circle cx="115" cy="5097.3135" r="3" />
	<circle cx="115" cy="5113.06545" r="3" />
	<circle cx="115" cy="5119.4308" r="3" />
	<circle cx="115" cy="5112.99335" r="3" />
	<circle cx="115" cy="5099.80565" r="3" />
	<circle cx="115" cy="5102.4682" r="3" />
	<circle cx="115" cy="5122.2437" r="3" />
	<circle cx="115" cy="5125.28965" r="3" />
	<circle cx="115" cy="5127.29285" r="3" />
	<circle cx="115" cy="5121.94845" r="3" />
	<circle cx="115" cy="5108.39075" r="3" />
	<circle cx="115" cy="5097.09485" r="3" />
	<circle cx="115" cy="5101.31495" r="3" />
	<circle cx="115" cy="5103.66395" r="3" />
	<circle cx="115" cy="5102.27445" r="3" />
	<circle cx="115" cy="5112.0256" r="3" />
	<circle cx="115" cy="5108.65325" r="3" />
	<circle cx="115" cy="5097.30625" r="3" />
	<circle cx="115" cy="5098.98" r="3" />
	<circle cx="115" cy="5097.9354" r="3" />
	<circle cx="125" cy="5117.84965" r="3" />
	<circle cx="125" cy="5088.73655" r="3" />
	<circle cx="125" cy="5089.20305" r="3" />
	<circle cx="125" cy="5101.8683" r="3" />
	<circle cx="125" cy="5103.7991" r="3" />
	<circle cx="125" cy="5092.62195" r="3" />
	<circle cx="125" cy="5103.4557" r="3" />
	<circle cx="125" cy="5114.41485" r="3" />
	<circle cx="125" cy="5116.96975" r="3" />
	<circle cx="125" cy="5104.834" r="3" />
	<circle cx="125" cy="5094.91115" r="3" />
	<circle cx="125" cy="5091.49165" r="3" />
	<circle cx="125" cy="5113.0873" r="3" />
	<circle cx="125" cy="5120.32575" r="3" />
	<circle cx="125" cy="5119.58645" r="3" />
	<circle cx="125" cy="5102.5301" r="3" />
	<circle cx="125" cy="5092.92625" r="3" />
	<circle cx="135" cy="5119.6789" r="3" />
	<circle cx="135" cy="5084.9346" r="3" />
	<circle cx="135" cy="5089.50435" r="3" />
	<circle cx="135" cy="5101.35085" r="3" />
	<circle cx="135" cy="5091.15755" r="3" />
	<circle cx="135" cy="5074.78105" r="3" />
	<circle cx="135" cy="5080.73735" r="3" />
	<circle cx="145" cy="5119.42985" r="3" />
	<circle cx="145" cy="5073.93685" r="3" />
	<circle cx="145" cy="5074.9588" r="3" />
	<circle cx="145" cy="5064.9846" r="3" />
	<circle cx="145" cy="5094.21335" r="3" />
	<circle cx="145" cy="5068.51505" r="3" />
	<circle cx="145" cy="5066.3021" r="3" />
	<circle cx="145" cy="5076.3856" r="3" />
	<circle cx="145" cy="5115.3982" r="3" />
	<circle cx="145" cy="5115.02605" r="3" />
	<circle cx="145" cy="5098.13455" r="3" />
	<circle cx="145" cy="5112.5975" r="3" />
	<circle cx="145" cy="5109.1685" r="3" />
	<circle cx="145" cy="5065.9501" r="3" />
	<circle cx="145" cy="5068.18565" r="3" />
	<circle cx="155" cy="5116.819" r="3" />
	<circle cx="155" cy="5056.038" r="3" />
	<circle cx="155" cy="5098.77845" r="3" />
	<circle cx="155" cy="5087.8445" r="3" />
	<circle cx="155" cy="5059.21615" r="3" />
	<circle cx="155" cy="5063.19855" r="3" />
	<circle cx="155" cy="5082.84925" r="3" />
	<circle cx="155" cy="5123.7945" r="3" />
	<circle cx="155" cy="5121.45095" r="3" />
	<circle cx="155" cy="5080.9554" r="3" />
	<circle cx="155" cy="5067.09955" r="3" />
	<circle cx="165" cy="5118.1069" r="3" />
	<circle cx="165" cy="5051.4466" r="3" />
	<circle cx="165" cy="5090.30705" r="3" />
	<circle cx="165" cy="5060.1106" r="3" />
	<circle cx="165" cy="5072.7156" r="3" />
	<circle cx="165" cy="5070.92355" r="3" />
	<circle cx="165" cy="5057.53235" r="3" />
	<circle cx="175" cy="5118.3261" r="3" />
	<circle cx="175" cy="5042.76645" r="3" />
	<circle cx="175" cy="5012.11" r="3" />
	<circle cx="175" cy="5068.33245" r="3" />
	<circle cx="175" cy="5030.6907" r="3" />
	<circle cx="175" cy="5034.43285" r="3" />
	<circle cx="185" cy="5114.9698" r="3" />
	<circle cx="185" cy="5022.69425" r="3" />
	<circle cx="185" cy="5016.8071" r="3" />
	<circle cx="185" cy="5052.43635" r="3" />
	<circle cx="185" cy="5020.90165" r="3" />
	<circle cx="195" cy="5113.92205" r="3" />
	<circle cx="195" cy="4977.2683" r="3" />
	<circle cx="195" cy="5032.83365" r="3" />
	<circle cx="195" cy="5011.14245" r="3" />
	<circle cx="205" cy="5113.70725" r="3" />
	<circle cx="205" cy="5000.12975" r="3" />
	<circle cx="205" cy="5013.6742" r="3" />
	<circle cx="205" cy="5000.08165" r="3" />
	<circle cx="205" cy="4938.43425" r="3" />
	<circle cx="205" cy="5006.2784" r="3" />
	<circle cx="215" cy="5105.12285" r="3" />
	<circle cx="215" cy="4853.6015" r="3" />
	<circle cx="215" cy="4966.5875" r="3" />
	<circle cx="215" cy="4905.83645" r="3" />
	<circle cx="215" cy="5003.115" r="3" />
	<circle cx="225" cy="5092.43155" r="3" />
	<circle cx="225" cy="3623.3973" r="3" />
	<circle cx="225" cy="19.1093000000001" r="3" /><!-- 
	Generated using the Perl SVG Module V2.36
	by Ronan Oger
	Info: http://www.roitsystems.com/
 -->
</svg>