<?xml version="1.0" encoding="UTF-8" standalone="yes"?>
<!DOCTYPE svg PUBLIC "-//W3C//DTD SVG 1.0//EN" "http://www.w3.org/TR/2001/REC-SVG-20010904/DTD/svg10.dtd">
<svg height="261" width="295" xmlns="http://www.w3.org/2000/svg" xmlns:xlink="http://www.w3.org/1999/xlink">
	<line style="stroke: blue; stroke-width: 1" x1="70" x2="280" y1="241" y2="241" />	<text text-anchor="end" x="70" y="241">0.00
	</text>
	<line style="stroke: blue; stroke-width: 1" x1="70" x2="280" y1="191" y2="191" />	<text text-anchor="end" x="70" y="191">0.05
	</text>
	<line style="stroke: blue; stroke-width: 1" x1="70" x2="280" y1="141" y2="141" />	<text text-anchor="end" x="70" y="141">0.10
	</text>
	<line style="stroke: blue; stroke-width: 1" x1="70" x2="280" y1="91" y2="91" />	<text text-anchor="end" x="70" y="91">0.15
	</text>
	<line style="stroke: blue; stroke-width: 1" x1="70" x2="280" y1="41" y2="41" />	<text text-anchor="end" x="70" y="41">0.20
	</text>
	<circle cx="75" cy="240.95" r="3" />
	<circle cx="75" cy="240.976" r="3" />
	<circle cx="75" cy="240.977" r="3" />
	<circle cx="75" cy="240.976" r="3" />
	<circle cx="75" cy="240.982" r="3" />
	<circle cx="75" cy="240.981" r="3" />
	<circle cx="75" cy="240.981" r="3" />
	<circle cx="75" cy="240.981" r="3" />
	<circle cx="75" cy="240.982" r="3" />
	<circle cx="75" cy="240.981" r="3" />
	<circle cx="75" cy="240.981" r="3" />
	<circle cx="75" cy="240.975" r="3" />
	<circle cx="75" cy="240.981" r="3" />
	<circle cx="75" cy="240.981" r="3" />
	<circle cx="75" cy="240.981" r="3" />
	<circle cx="75" cy="240.982" r="3" />
	<circle cx="75" cy="240.981" r="3" />
	<circle cx="75" cy="240.981" r="3" />
	<circle cx="75" cy="240.98" r="3" />
	<circle cx="75" cy="240.981" r="3" />
	<circle cx="75" cy="240.982" r="3" />
	<circle cx="75" cy="240.982" r="3" />
	<circle cx="75" cy="240.982" r="3" />
	<circle cx="75" cy="240.982" r="3" />
	<circle cx="75" cy="240.982" r="3" />
	<circle cx="75" cy="240.981" r="3" />
	<circle cx="75" cy="240.982" r="3" />
	<circle cx="75" cy="240.981" r="3" />
	<circle cx="75" cy="240.981" r="3" />
	<circle cx="75" cy="240.981" r="3" />
	<circle cx="75" cy="240.981" r="3" />
	<circle cx="75" cy="240.982" r="3" />
	<circle cx="75" cy="240.982" r="3" />
	<circle cx="75" cy="240.981" r="3" />
	<circle cx="75" cy="240.981" r="3" />
	<circle cx="75" cy="240.975" r="3" />
	<circle cx="75" cy="240.981" r="3" />
	<circle cx="75" cy="240.982" r="3" />
	<circle cx="85" cy="234.117" r="3" />
	<circle cx="85" cy="230.46" r="3" />
	<circle cx="85" cy="233.898" r="3" />
	<circle cx="85" cy="233.971" r="3" />
	<circle cx="85" cy="233.712" r="3" />
	<circle cx="85" cy="233.222" r="3" />
	<circle cx="85" cy="236.048" r="3" />
	<circle cx="85" cy="236.791" r="3" />
	<circle cx="85" cy="234.571" r="3" />
	<circle cx="85" cy="234.028" r="3" />
	<circle cx="85" cy="236.554" r="3" />
	<circle cx="85" cy="237.581" r="3" />
	<circle cx="85" cy="237.541" r="3" />
	<circle cx="85" cy="237.638" r="3" />
	<circle cx="85" cy="237.481" r="3" />
	<circle cx="85" cy="236.656" r="3" />
	<circle cx="85" cy="234.519" r="3" />
	<circle cx="85" cy="234.017" r="3" />
	<circle cx="85" cy="234.034" r="3" />
	<circle cx="85" cy="234.09" r="3" />
	<circle cx="85" cy="232.98" r="3" />
	<circle cx="95" cy="221.517" r="3" />
	<circle cx="95" cy="214.872" r="3" />
	<circle cx="95" cy="226.913" r="3" />
	<circle cx="95" cy="225.173" r="3" />
	<circle cx="95" cy="222.105" r="3" />
	<circle cx="95" cy="225.329" r="3" />
	<circle cx="95" cy="229.896" r="3" />
	<circle cx="95" cy="229.602" r="3" />
	<circle cx="95" cy="223.453" r="3" />
	<circle cx="95" cy="222.588" r="3" />
	<circle cx="95" cy="229.783" r="3" />
	<circle cx="95" cy="233.86" r="3" />
	<circle cx="95" cy="232.147" r="3" />
	<circle cx="95" cy="228.501" r="3" />
	<circle cx="95" cy="226.456" r="3" />
	<circle cx="95" cy="226.843" r="3" />
	<circle cx="95" cy="222.254" r="3" />
	<circle cx="95" cy="224.64" r="3" />
	<circle cx="95" cy="224.731" r="3" />
	<circle cx="105" cy="229.109" r="3" />
	<circle cx="105" cy="194.513" r="3" />
	<circle cx="105" cy="206.684" r="3" />
	<circle cx="105" cy="203.691" r="3" />
	<circle cx="105" cy="209.614" r="3" />
	<circle cx="105" cy="212.782" r="3" />
	<circle cx="105" cy="216.053" r="3" />
	<circle cx="105" cy="216.215" r="3" />
	<circle cx="105" cy="219.267" r="3" />
	<circle cx="105" cy="222.708" r="3" />
	<circle cx="105" cy="216.705" r="3" />
	<circle cx="105" cy="213.104" r="3" />
	<circle cx="105" cy="212.194" r="3" />
	<circle cx="105" cy="212.166" r="3" />
	<circle cx="105" cy="211.991" r="3" />
	<circle cx="105" cy="219.597" r="3" />
	<circle cx="105" cy="217.701" r="3" />
	<circle cx="115" cy="225.767" r="3" />
	<circle cx="115" cy="208.044" r="3" />
	<circle cx="115" cy="208.83" r="3" />
	<circle cx="115" cy="202.452" r="3" />
	<circle cx="115" cy="201.627" r="3" />
	<circle cx="115" cy="197.559" r="3" />
	<circle cx="115" cy="207.54" r="3" />
	<circle cx="115" cy="213.355" r="3" />
	<circle cx="115" cy="210.309" r="3" />
	<circle cx="115" cy="209.699" r="3" />
	<circle cx="115" cy="215.886" r="3" />
	<circle cx="115" cy="205.127" r="3" />
	<circle cx="115" cy="209.126" r="3" />
	<circle cx="115" cy="205.071" r="3" />
	<circle cx="115" cy="186.013" r="3" />
	<circle cx="115" cy="203.413" r="3" />
	<circle cx="125" cy="225.564" r="3" />
	<circle cx="125" cy="176.298" r="3" />
	<circle cx="125" cy="186.735" r="3" />
	<circle cx="125" cy="202.42" r="3" />
	<circle cx="125" cy="211.291" r="3" />
	<circle cx="125" cy="206.183" r="3" />
	<circle cx="125" cy="201.487" r="3" />
	<circle cx="125" cy="207.655" r="3" />
	<circle cx="125" cy="210.645" r="3" />
	<circle cx="125" cy="200.726" r="3" />
	<circle cx="125" cy="198.594" r="3" />
	<circle cx="125" cy="201.251" r="3" />
	<circle cx="125" cy="192.04" r="3" />
	<circle cx="125" cy="187.325" r="3" />
	<circle cx="125" cy="187.627" r="3" />
	<circle cx="135" cy="217.045" r="3" />
	<circle cx="135" cy="172.322" r="3" />
	<circle cx="135" cy="184.291" r="3" />
	<circle cx="135" cy="191.491" r="3" />
	<circle cx="135" cy="194.356" r="3" />
	<circle cx="135" cy="190.552" r="3" />
	<circle cx="135" cy="179.173" r="3" />
	<circle cx="135" cy="201.909" r="3" />
	<circle cx="135" cy="175.05" r="3" />
	<circle cx="135" cy="183.515" r="3" />
	<circle cx="135" cy="177.408" r="3" />
	<circle cx="135" cy="181.755" r="3" />
	<circle cx="135" cy="178.353" r="3" />
	<circle cx="135" cy="188.755" r="3" />
	<circle cx="145" cy="222.699" r="3" />
	<circle cx="145" cy="138.695" r="3" />
	<circle cx="145" cy="189.302" r="3" />
	<circle cx="145" cy="191.51" r="3" />
	<circle cx="145" cy="174.142" r="3" />
	<circle cx="145" cy="180.927" r="3" />
	<circle cx="145" cy="187.894" r="3" />
	<circle cx="145" cy="192.457" r="3" />
	<circle cx="145" cy="204.081" r="3" />
	<circle cx="145" cy="201.001" r="3" />
	<circle cx="145" cy="179.482" r="3" />
	<circle cx="145" cy="170.222" r="3" />
	<circle cx="145" cy="173.858" r="3" />
	<circle cx="145" cy="190.884" r="3" />
	<circle cx="145" cy="190.007" r="3" />
	<circle cx="145" cy="204.443" r="3" />
	<circle cx="145" cy="195.588" r="3" />
	<circle cx="145" cy="187.017" r="3" />
	<circle cx="155" cy="219.298" r="3" />
	<circle cx="155" cy="172.033" r="3" />
	<circle cx="155" cy="188.177" r="3" />
	<circle cx="155" cy="170.606" r="3" />
	<circle cx="155" cy="194.062" r="3" />
	<circle cx="155" cy="185.115" r="3" />
	<circle cx="155" cy="165.158" r="3" />
	<circle cx="155" cy="188.616" r="3" />
	<circle cx="155" cy="191.45" r="3" />
	<circle cx="155" cy="162.348" r="3" />
	<circle cx="155" cy="167.824" r="3" />
	<circle cx="155" cy="183.914" r="3" />
	<circle cx="155" cy="192.601" r="3" />
	<circle cx="155" cy="192.412" r="3" />
	<circle cx="155" cy="174.149" r="3" />
	<circle cx="155" cy="194.791" r="3" />
	<circle cx="155" cy="181.943" r="3" />
	<circle cx="155" cy="171.349" r="3" />
	<circle cx="155" cy="172.257" r="3" />
	<circle cx="155" cy="167.404" r="3" />
	<circle cx="155" cy="145.026" r="3" />
	<circle cx="165" cy="219.663" r="3" />
	<circle cx="165" cy="132.371" r="3" />
	<circle cx="165" cy="169.088" r="3" />
	<circle cx="165" cy="164.453" r="3" />
	<circle cx="165" cy="151.972" r="3" />
	<circle cx="165" cy="175.614" r="3" />
	<circle cx="165" cy="185.882" r="3" />
	<circle cx="165" cy="179.519" r="3" />
	<circle cx="165" cy="145.685" r="3" />
	<circle cx="165" cy="156.887" r="3" />
	<circle cx="165" cy="135.301" r="3" />
	<circle cx="165" cy="159.896" r="3" />
	<circle cx="165" cy="154.79" r="3" />
	<circle cx="165" cy="112.852" r="3" />
	<circle cx="165" cy="113.444" r="3" />
	<circle cx="175" cy="211.078" r="3" />
	<circle cx="175" cy="92.997" r="3" />
	<circle cx="175" cy="132.906" r="3" />
	<circle cx="175" cy="114.76" r="3" />
	<circle cx="175" cy="135.772" r="3" />
	<circle cx="175" cy="155.019" r="3" />
	<circle cx="175" cy="141.437" r="3" />
	<circle cx="175" cy="116.004" r="3" />
	<circle cx="175" cy="149.738" r="3" />
	<circle cx="175" cy="138.409" r="3" />
	<circle cx="175" cy="154.195" r="3" />
	<circle cx="175" cy="144.609" r="3" />
	<circle cx="175" cy="127.037" r="3" />
	<circle cx="175" cy="128.669" r="3" />
	<circle cx="185" cy="219.065" r="3" />
	<circle cx="185" cy="97.545" r="3" />
	<circle cx="185" cy="123.027" r="3" />
	<circle cx="185" cy="126.56" r="3" />
	<circle cx="185" cy="105.467" r="3" />
	<circle cx="185" cy="144.497" r="3" />
	<circle cx="185" cy="97.217" r="3" />
	<circle cx="185" cy="118.366" r="3" />
	<circle cx="185" cy="143.106" r="3" />
	<circle cx="185" cy="108.579" r="3" />
	<circle cx="185" cy="123.119" r="3" />
	<circle cx="195" cy="210.398" r="3" />
	<circle cx="195" cy="74.636" r="3" />
	<circle cx="195" cy="95.856" r="3" />
	<circle cx="195" cy="143.067" r="3" />
	<circle cx="195" cy="109.367" r="3" />
	<circle cx="195" cy="124.831" r="3" />
	<circle cx="195" cy="145.941" r="3" />
	<circle cx="195" cy="119.869" r="3" />
	<circle cx="195" cy="141.565" r="3" />
	<circle cx="195" cy="147.67" r="3" />
	<circle cx="195" cy="132.004" r="3" />
	<circle cx="195" cy="101.6" r="3" />
	<circle cx="195" cy="125.838" r="3" />
	<circle cx="205" cy="214.6" r="3" />
	<circle cx="205" cy="40.275" r="3" />
	<circle cx="205" cy="138.321" r="3" />
	<circle cx="205" cy="110.177" r="3" />
	<circle cx="205" cy="141.464" r="3" />
	<circle cx="205" cy="176.557" r="3" />
	<circle cx="205" cy="149.668" r="3" />
	<circle cx="205" cy="122.885" r="3" />
	<circle cx="205" cy="84.553" r="3" />
	<circle cx="205" cy="115.392" r="3" />
	<circle cx="205" cy="163.482" r="3" />
	<circle cx="205" cy="144.249" r="3" />
	<circle cx="205" cy="109.741" r="3" />
	<circle cx="205" cy="107.482" r="3" />
	<circle cx="215" cy="211.615" r="3" />
	<circle cx="215" cy="53.492" r="3" />
	<circle cx="215" cy="93.134" r="3" />
	<circle cx="215" cy="132.374" r="3" />
	<circle cx="215" cy="112.606" r="3" />
	<circle cx="215" cy="126.167" r="3" />
	<circle cx="215" cy="81.037" r="3" />
	<circle cx="215" cy="118.771" r="3" />
	<circle cx="215" cy="152.787" r="3" />
	<circle cx="215" cy="111.315" r="3" />
	<circle cx="215" cy="104.14" r="3" />
	<circle cx="215" cy="161.692" r="3" />
	<circle cx="215" cy="139.342" r="3" />
	<circle cx="215" cy="122.863" r="3" />
	<circle cx="215" cy="118.263" r="3" />
	<circle cx="215" cy="139.161" r="3" />
	<circle cx="215" cy="134.874" r="3" />
	<circle cx="225" cy="215.856" r="3" />
	<circle cx="225" cy="94.793" r="3" />
	<circle cx="225" cy="114.861" r="3" />
	<circle cx="225" cy="132.56" r="3" />
	<circle cx="225" cy="99.601" r="3" />
	<circle cx="225" cy="121.839" r="3" />
	<circle cx="225" cy="136.557" r="3" />
	<circle cx="225" cy="118.582" r="3" />
	<circle cx="225" cy="136.7" r="3" />
	<circle cx="225" cy="159.52" r="3" />
	<circle cx="225" cy="133.123" r="3" />
	<circle cx="225" cy="140.279" r="3" />
	<circle cx="225" cy="142.102" r="3" />
	<circle cx="225" cy="157.831" r="3" />
	<circle cx="225" cy="142.482" r="3" />
	<circle cx="225" cy="114.008" r="3" />
	<circle cx="225" cy="127.938" r="3" />
	<circle cx="235" cy="224.499" r="3" />
	<circle cx="235" cy="108.732" r="3" />
	<circle cx="235" cy="114.9" r="3" />
	<circle cx="235" cy="91.603" r="3" />
	<circle cx="235" cy="120.73" r="3" />
	<circle cx="235" cy="117.321" r="3" />
	<circle cx="235" cy="80.577" r="3" />
	<circle cx="235" cy="128.831" r="3" />
	<circle cx="235" cy="125.799" r="3" />
	<circle cx="235" cy="113.579" r="3" />
	<circle cx="235" cy="126.832" r="3" />
	<circle cx="235" cy="163.946" r="3" />
	<circle cx="235" cy="122.309" r="3" />
	<circle cx="235" cy="122.894" r="3" />
	<circle cx="235" cy="101.414" r="3" />
	<circle cx="235" cy="97.686" r="3" />
	<circle cx="245" cy="223.859" r="3" />
	<circle cx="245" cy="107.197" r="3" />
	<circle cx="245" cy="150.445" r="3" />
	<circle cx="245" cy="176.652" r="3" />
	<circle cx="245" cy="152.579" r="3" />
	<circle cx="245" cy="128.022" r="3" />
	<circle cx="245" cy="100.542" r="3" />
	<circle cx="245" cy="51.796" r="3" />
	<circle cx="245" cy="97.891" r="3" />
	<circle cx="245" cy="156.551" r="3" />
	<circle cx="245" cy="120.346" r="3" />
	<circle cx="245" cy="92.85" r="3" />
	<circle cx="245" cy="19.989" r="3" />
	<circle cx="245" cy="137.867" r="3" />
	<circle cx="245" cy="107.663" r="3" />
	<circle cx="245" cy="40.453" r="3" />
	<circle cx="245" cy="95.999" r="3" />
	<circle cx="255" cy="218.737" r="3" />
	<circle cx="255" cy="74.953" r="3" />
	<circle cx="255" cy="63.343" r="3" />
	<circle cx="255" cy="30.25" r="3" />
	<circle cx="255" cy="127.967" r="3" />
	<circle cx="255" cy="79.021" r="3" />
	<circle cx="255" cy="59.471" r="3" />
	<circle cx="255" cy="111.295" r="3" />
	<circle cx="255" cy="95.429" r="3" />
	<circle cx="255" cy="93.718" r="3" />
	<circle cx="255" cy="72.468" r="3" />
	<circle cx="255" cy="52.852" r="3" />
	<circle cx="255" cy="81.831" r="3" />
	<circle cx="255" cy="105.713" r="3" />
	<circle cx="255" cy="138.863" r="3" />
	<circle cx="255" cy="126.623" r="3" />
	<circle cx="255" cy="107.129" r="3" />
	<circle cx="255" cy="103.496" r="3" />
	<circle cx="265" cy="216.044" r="3" />
	<circle cx="265" cy="99.235" r="3" />
	<circle cx="265" cy="71.231" r="3" />
	<circle cx="265" cy="60.341" r="3" />
	<circle cx="265" cy="71.235" r="3" />
	<circle cx="265" cy="83.674" r="3" />
	<circle cx="265" cy="102.186" r="3" />
	<circle cx="265" cy="60.945" r="3" />
	<circle cx="265" cy="94.3" r="3" />
	<circle cx="265" cy="114.336" r="3" />
	<circle cx="265" cy="92.446" r="3" />
	<circle cx="265" cy="95.28" r="3" />
	<circle cx="275" cy="220.385" r="3" />
	<circle cx="275" cy="59.199" r="3" />
	<circle cx="275" cy="84.85" r="3" />
	<circle cx="275" cy="117.688" r="3" />
	<circle cx="275" cy="36.122" r="3" />
	<circle cx="275" cy="106.545" r="3" />
	<circle cx="275" cy="116.778" r="3" />
	<circle cx="275" cy="59.916" r="3" />
	<circle cx="275" cy="63.358" r="3" />
	<circle cx="275" cy="124.965" r="3" />
	<circle cx="275" cy="106.143" r="3" />
	<circle cx="275" cy="68.684" r="3" />
	<circle cx="275" cy="51.023" r="3" />
	<circle cx="275" cy="93.068" r="3" /><!-- 
	Generated using the Perl SVG Module V2.36
	by Ronan Oger
	Info: http://www.roitsystems.com/
 -->
</svg>