<?xml version="1.0" encoding="UTF-8" standalone="yes"?>
<!DOCTYPE svg PUBLIC "-//W3C//DTD SVG 1.0//EN" "http://www.w3.org/TR/2001/REC-SVG-20010904/DTD/svg10.dtd">
<svg height="315" width="295" xmlns="http://www.w3.org/2000/svg" xmlns:xlink="http://www.w3.org/1999/xlink">
	<line style="stroke: blue; stroke-width: 1" x1="70" x2="280" y1="295" y2="295" />	<text text-anchor="end" x="70" y="295">0.00
	</text>
	<line style="stroke: blue; stroke-width: 1" x1="70" x2="280" y1="245" y2="245" />	<text text-anchor="end" x="70" y="245">0.01
	</text>
	<line style="stroke: blue; stroke-width: 1" x1="70" x2="280" y1="195" y2="195" />	<text text-anchor="end" x="70" y="195">0.02
	</text>
	<line style="stroke: blue; stroke-width: 1" x1="70" x2="280" y1="145" y2="145" />	<text text-anchor="end" x="70" y="145">0.03
	</text>
	<line style="stroke: blue; stroke-width: 1" x1="70" x2="280" y1="95" y2="95" />	<text text-anchor="end" x="70" y="95">0.04
	</text>
	<line style="stroke: blue; stroke-width: 1" x1="70" x2="280" y1="45" y2="45" />	<text text-anchor="end" x="70" y="45">0.05
	</text>
	<circle cx="75" cy="294.76" r="3" />
	<circle cx="75" cy="294.865" r="3" />
	<circle cx="75" cy="294.905" r="3" />
	<circle cx="75" cy="294.905" r="3" />
	<circle cx="75" cy="294.9" r="3" />
	<circle cx="75" cy="294.905" r="3" />
	<circle cx="75" cy="294.88" r="3" />
	<circle cx="75" cy="294.9" r="3" />
	<circle cx="75" cy="294.905" r="3" />
	<circle cx="75" cy="294.87" r="3" />
	<circle cx="75" cy="294.905" r="3" />
	<circle cx="75" cy="294.905" r="3" />
	<circle cx="75" cy="294.905" r="3" />
	<circle cx="75" cy="294.905" r="3" />
	<circle cx="75" cy="294.905" r="3" />
	<circle cx="85" cy="288.3" r="3" />
	<circle cx="85" cy="288.545" r="3" />
	<circle cx="85" cy="288.52" r="3" />
	<circle cx="85" cy="290.845" r="3" />
	<circle cx="85" cy="288.855" r="3" />
	<circle cx="85" cy="290.66" r="3" />
	<circle cx="85" cy="290.25" r="3" />
	<circle cx="85" cy="289.745" r="3" />
	<circle cx="85" cy="289.805" r="3" />
	<circle cx="85" cy="290.275" r="3" />
	<circle cx="85" cy="290.355" r="3" />
	<circle cx="85" cy="290.195" r="3" />
	<circle cx="85" cy="289.525" r="3" />
	<circle cx="85" cy="288.77" r="3" />
	<circle cx="85" cy="289.115" r="3" />
	<circle cx="85" cy="283.56" r="3" />
	<circle cx="95" cy="278.78" r="3" />
	<circle cx="95" cy="272.615" r="3" />
	<circle cx="95" cy="277.475" r="3" />
	<circle cx="95" cy="278.505" r="3" />
	<circle cx="95" cy="279.62" r="3" />
	<circle cx="95" cy="284.885" r="3" />
	<circle cx="95" cy="274.76" r="3" />
	<circle cx="95" cy="278.34" r="3" />
	<circle cx="95" cy="277.805" r="3" />
	<circle cx="95" cy="270.29" r="3" />
	<circle cx="95" cy="272.745" r="3" />
	<circle cx="95" cy="279.755" r="3" />
	<circle cx="95" cy="287.645" r="3" />
	<circle cx="95" cy="288.295" r="3" />
	<circle cx="95" cy="290.45" r="3" />
	<circle cx="95" cy="291.9" r="3" />
	<circle cx="95" cy="292.265" r="3" />
	<circle cx="95" cy="292.205" r="3" />
	<circle cx="95" cy="290.78" r="3" />
	<circle cx="95" cy="288.3" r="3" />
	<circle cx="95" cy="279.605" r="3" />
	<circle cx="95" cy="279.56" r="3" />
	<circle cx="95" cy="279.32" r="3" />
	<circle cx="95" cy="284.455" r="3" />
	<circle cx="95" cy="279.73" r="3" />
	<circle cx="95" cy="277.9" r="3" />
	<circle cx="95" cy="278.7" r="3" />
	<circle cx="95" cy="277.63" r="3" />
	<circle cx="95" cy="279.11" r="3" />
	<circle cx="95" cy="287.26" r="3" />
	<circle cx="95" cy="289.915" r="3" />
	<circle cx="95" cy="289.99" r="3" />
	<circle cx="95" cy="288.94" r="3" />
	<circle cx="95" cy="281.64" r="3" />
	<circle cx="95" cy="279.265" r="3" />
	<circle cx="95" cy="279.225" r="3" />
	<circle cx="95" cy="279.255" r="3" />
	<circle cx="95" cy="278.715" r="3" />
	<circle cx="105" cy="279.605" r="3" />
	<circle cx="105" cy="271" r="3" />
	<circle cx="105" cy="269.14" r="3" />
	<circle cx="105" cy="273.265" r="3" />
	<circle cx="105" cy="276.215" r="3" />
	<circle cx="105" cy="276.605" r="3" />
	<circle cx="105" cy="277.89" r="3" />
	<circle cx="105" cy="275.825" r="3" />
	<circle cx="105" cy="274.075" r="3" />
	<circle cx="105" cy="273.955" r="3" />
	<circle cx="105" cy="272.53" r="3" />
	<circle cx="105" cy="267.565" r="3" />
	<circle cx="105" cy="251.79" r="3" />
	<circle cx="105" cy="272.64" r="3" />
	<circle cx="105" cy="265.115" r="3" />
	<circle cx="105" cy="264.64" r="3" />
	<circle cx="105" cy="263.98" r="3" />
	<circle cx="105" cy="271.34" r="3" />
	<circle cx="105" cy="272.71" r="3" />
	<circle cx="105" cy="272.04" r="3" />
	<circle cx="105" cy="273.175" r="3" />
	<circle cx="105" cy="262.7" r="3" />
	<circle cx="115" cy="279.03" r="3" />
	<circle cx="115" cy="261.285" r="3" />
	<circle cx="115" cy="261.23" r="3" />
	<circle cx="115" cy="262.365" r="3" />
	<circle cx="115" cy="272.05" r="3" />
	<circle cx="115" cy="276.46" r="3" />
	<circle cx="115" cy="273.94" r="3" />
	<circle cx="115" cy="263.65" r="3" />
	<circle cx="115" cy="260.79" r="3" />
	<circle cx="115" cy="257.59" r="3" />
	<circle cx="115" cy="248.91" r="3" />
	<circle cx="115" cy="247.64" r="3" />
	<circle cx="115" cy="257.62" r="3" />
	<circle cx="115" cy="261.22" r="3" />
	<circle cx="115" cy="261.725" r="3" />
	<circle cx="115" cy="265.47" r="3" />
	<circle cx="115" cy="260.425" r="3" />
	<circle cx="115" cy="256.52" r="3" />
	<circle cx="115" cy="255.105" r="3" />
	<circle cx="115" cy="256.125" r="3" />
	<circle cx="115" cy="258.305" r="3" />
	<circle cx="115" cy="120.205" r="3" />
	<circle cx="125" cy="276.4" r="3" />
	<circle cx="125" cy="216.4" r="3" />
	<circle cx="125" cy="241.53" r="3" />
	<circle cx="125" cy="258.57" r="3" />
	<circle cx="125" cy="260.78" r="3" />
	<circle cx="125" cy="262.32" r="3" />
	<circle cx="125" cy="259.585" r="3" />
	<circle cx="125" cy="255.085" r="3" />
	<circle cx="125" cy="259.815" r="3" />
	<circle cx="125" cy="258.165" r="3" />
	<circle cx="125" cy="255.96" r="3" />
	<circle cx="125" cy="241.115" r="3" />
	<circle cx="125" cy="238.795" r="3" />
	<circle cx="125" cy="241.59" r="3" />
	<circle cx="125" cy="234.49" r="3" />
	<circle cx="135" cy="272.6" r="3" />
	<circle cx="135" cy="274.88" r="3" />
	<circle cx="135" cy="31.21" r="3" />
	<circle cx="135" cy="228.885" r="3" />
	<circle cx="135" cy="223.485" r="3" />
	<circle cx="135" cy="223.92" r="3" />
	<circle cx="135" cy="229.445" r="3" />
	<circle cx="135" cy="241.12" r="3" />
	<circle cx="135" cy="261.31" r="3" />
	<circle cx="135" cy="259.085" r="3" />
	<circle cx="135" cy="243.54" r="3" />
	<circle cx="135" cy="241.465" r="3" />
	<circle cx="135" cy="237.53" r="3" />
	<circle cx="135" cy="239.445" r="3" />
	<circle cx="135" cy="253.445" r="3" />
	<circle cx="135" cy="246.505" r="3" />
	<circle cx="135" cy="241.305" r="3" />
	<circle cx="135" cy="212.335" r="3" />
	<circle cx="135" cy="219.45" r="3" />
	<circle cx="145" cy="274.515" r="3" />
	<circle cx="145" cy="227.04" r="3" />
	<circle cx="145" cy="181.975" r="3" />
	<circle cx="145" cy="238.145" r="3" />
	<circle cx="145" cy="243.055" r="3" />
	<circle cx="145" cy="254.495" r="3" />
	<circle cx="145" cy="254.21" r="3" />
	<circle cx="145" cy="242.89" r="3" />
	<circle cx="145" cy="238.95" r="3" />
	<circle cx="145" cy="239.335" r="3" />
	<circle cx="145" cy="227.095" r="3" />
	<circle cx="145" cy="224.24" r="3" />
	<circle cx="145" cy="222.205" r="3" />
	<circle cx="145" cy="226.19" r="3" />
	<circle cx="145" cy="225.215" r="3" />
	<circle cx="145" cy="227.01" r="3" />
	<circle cx="155" cy="275.29" r="3" />
	<circle cx="155" cy="166.92" r="3" />
	<circle cx="155" cy="206.46" r="3" />
	<circle cx="155" cy="223.67" r="3" />
	<circle cx="155" cy="236.235" r="3" />
	<circle cx="155" cy="235.76" r="3" />
	<circle cx="155" cy="234.68" r="3" />
	<circle cx="155" cy="227.83" r="3" />
	<circle cx="155" cy="227.25" r="3" />
	<circle cx="155" cy="234.6" r="3" />
	<circle cx="155" cy="238.72" r="3" />
	<circle cx="155" cy="234.16" r="3" />
	<circle cx="155" cy="223.425" r="3" />
	<circle cx="155" cy="218.68" r="3" />
	<circle cx="155" cy="218.785" r="3" />
	<circle cx="155" cy="221.87" r="3" />
	<circle cx="155" cy="225.035" r="3" />
	<circle cx="155" cy="211.97" r="3" />
	<circle cx="165" cy="276.86" r="3" />
	<circle cx="165" cy="169.88" r="3" />
	<circle cx="165" cy="149.7" r="3" />
	<circle cx="165" cy="218.725" r="3" />
	<circle cx="165" cy="197.305" r="3" />
	<circle cx="165" cy="190.2" r="3" />
	<circle cx="165" cy="237.53" r="3" />
	<circle cx="165" cy="226.87" r="3" />
	<circle cx="165" cy="224.16" r="3" />
	<circle cx="165" cy="219.745" r="3" />
	<circle cx="165" cy="217.25" r="3" />
	<circle cx="165" cy="208.39" r="3" />
	<circle cx="165" cy="191.505" r="3" />
	<circle cx="165" cy="216.52" r="3" />
	<circle cx="175" cy="275.79" r="3" />
	<circle cx="175" cy="168.9" r="3" />
	<circle cx="175" cy="199.435" r="3" />
	<circle cx="175" cy="205.65" r="3" />
	<circle cx="175" cy="223.67" r="3" />
	<circle cx="175" cy="241.235" r="3" />
	<circle cx="175" cy="238.455" r="3" />
	<circle cx="175" cy="223.205" r="3" />
	<circle cx="175" cy="205.06" r="3" />
	<circle cx="175" cy="207.815" r="3" />
	<circle cx="175" cy="221.755" r="3" />
	<circle cx="175" cy="240" r="3" />
	<circle cx="175" cy="236.51" r="3" />
	<circle cx="175" cy="228.83" r="3" />
	<circle cx="175" cy="223.57" r="3" />
	<circle cx="185" cy="277.9" r="3" />
	<circle cx="185" cy="177.535" r="3" />
	<circle cx="185" cy="205.955" r="3" />
	<circle cx="185" cy="202.435" r="3" />
	<circle cx="185" cy="215.335" r="3" />
	<circle cx="185" cy="252.515" r="3" />
	<circle cx="185" cy="267.29" r="3" />
	<circle cx="185" cy="259.665" r="3" />
	<circle cx="185" cy="251.225" r="3" />
	<circle cx="185" cy="224.195" r="3" />
	<circle cx="185" cy="220.11" r="3" />
	<circle cx="185" cy="205.745" r="3" />
	<circle cx="185" cy="202.565" r="3" />
	<circle cx="185" cy="199.875" r="3" />
	<circle cx="185" cy="207.3" r="3" />
	<circle cx="185" cy="250.085" r="3" />
	<circle cx="185" cy="258.3" r="3" />
	<circle cx="185" cy="254.025" r="3" />
	<circle cx="185" cy="237.305" r="3" />
	<circle cx="185" cy="234.43" r="3" />
	<circle cx="185" cy="222.58" r="3" />
	<circle cx="185" cy="209.015" r="3" />
	<circle cx="195" cy="278.635" r="3" />
	<circle cx="195" cy="78.615" r="3" />
	<circle cx="195" cy="214.06" r="3" />
	<circle cx="195" cy="199.64" r="3" />
	<circle cx="195" cy="200.235" r="3" />
	<circle cx="195" cy="220.145" r="3" />
	<circle cx="195" cy="253.35" r="3" />
	<circle cx="195" cy="257.525" r="3" />
	<circle cx="195" cy="228.85" r="3" />
	<circle cx="195" cy="220.825" r="3" />
	<circle cx="195" cy="203.385" r="3" />
	<circle cx="195" cy="200.145" r="3" />
	<circle cx="195" cy="200.16" r="3" />
	<circle cx="195" cy="151.905" r="3" />
	<circle cx="195" cy="183.26" r="3" />
	<circle cx="195" cy="187.655" r="3" />
	<circle cx="195" cy="186.7" r="3" />
	<circle cx="195" cy="140.02" r="3" />
	<circle cx="205" cy="274.22" r="3" />
	<circle cx="205" cy="74.8" r="3" />
	<circle cx="205" cy="193.605" r="3" />
	<circle cx="205" cy="170.53" r="3" />
	<circle cx="205" cy="201.825" r="3" />
	<circle cx="205" cy="201.43" r="3" />
	<circle cx="205" cy="218.52" r="3" />
	<circle cx="205" cy="201.24" r="3" />
	<circle cx="205" cy="194.96" r="3" />
	<circle cx="205" cy="198.55" r="3" />
	<circle cx="205" cy="201.945" r="3" />
	<circle cx="205" cy="218.04" r="3" />
	<circle cx="205" cy="134.195" r="3" />
	<circle cx="205" cy="170.355" r="3" />
	<circle cx="205" cy="173.715" r="3" />
	<circle cx="205" cy="155.425" r="3" />
	<circle cx="205" cy="157.045" r="3" />
	<circle cx="215" cy="278.695" r="3" />
	<circle cx="215" cy="106.005" r="3" />
	<circle cx="215" cy="145.115" r="3" />
	<circle cx="215" cy="79.875" r="3" />
	<circle cx="215" cy="165.455" r="3" />
	<circle cx="215" cy="182.855" r="3" />
	<circle cx="215" cy="155.54" r="3" />
	<circle cx="215" cy="163.155" r="3" />
	<circle cx="215" cy="169.88" r="3" />
	<circle cx="215" cy="29.64" r="3" />
	<circle cx="215" cy="161.91" r="3" />
	<circle cx="215" cy="132.94" r="3" />
	<circle cx="215" cy="123.365" r="3" />
	<circle cx="215" cy="152.84" r="3" />
	<circle cx="215" cy="183.255" r="3" />
	<circle cx="215" cy="188" r="3" />
	<circle cx="215" cy="191.055" r="3" />
	<circle cx="215" cy="187.865" r="3" />
	<circle cx="225" cy="276.02" r="3" />
	<circle cx="225" cy="101.64" r="3" />
	<circle cx="225" cy="181.295" r="3" />
	<circle cx="225" cy="234.91" r="3" />
	<circle cx="225" cy="235.465" r="3" />
	<circle cx="225" cy="222.785" r="3" />
	<circle cx="225" cy="193.155" r="3" />
	<circle cx="225" cy="181.4" r="3" />
	<circle cx="225" cy="180.36" r="3" />
	<circle cx="225" cy="200.655" r="3" />
	<circle cx="225" cy="236.285" r="3" />
	<circle cx="225" cy="241.865" r="3" />
	<circle cx="225" cy="253.72" r="3" />
	<circle cx="225" cy="233.02" r="3" />
	<circle cx="225" cy="197.265" r="3" />
	<circle cx="225" cy="196.82" r="3" />
	<circle cx="225" cy="96.32" r="3" />
	<circle cx="235" cy="275.905" r="3" />
	<circle cx="235" cy="156.665" r="3" />
	<circle cx="235" cy="152.975" r="3" />
	<circle cx="235" cy="144.225" r="3" />
	<circle cx="235" cy="97.86" r="3" />
	<circle cx="235" cy="112.72" r="3" />
	<circle cx="235" cy="133.47" r="3" />
	<circle cx="235" cy="161.905" r="3" />
	<circle cx="235" cy="156.135" r="3" />
	<circle cx="235" cy="125.14" r="3" />
	<circle cx="235" cy="115.88" r="3" />
	<circle cx="235" cy="144.1" r="3" />
	<circle cx="245" cy="271.71" r="3" />
	<circle cx="245" cy="170.185" r="3" />
	<circle cx="245" cy="104.355" r="3" />
	<circle cx="245" cy="128.58" r="3" />
	<circle cx="245" cy="162.535" r="3" />
	<circle cx="245" cy="146.53" r="3" />
	<circle cx="245" cy="111.49" r="3" />
	<circle cx="245" cy="91.975" r="3" />
	<circle cx="245" cy="98.73" r="3" />
	<circle cx="245" cy="133.09" r="3" />
	<circle cx="245" cy="149.31" r="3" />
	<circle cx="245" cy="148.51" r="3" />
	<circle cx="245" cy="127.32" r="3" />
	<circle cx="245" cy="104.845" r="3" />
	<circle cx="245" cy="118.215" r="3" />
	<circle cx="245" cy="141.83" r="3" />
	<circle cx="255" cy="269.895" r="3" />
	<circle cx="255" cy="120.71" r="3" />
	<circle cx="255" cy="112.86" r="3" />
	<circle cx="255" cy="152.545" r="3" />
	<circle cx="255" cy="181.675" r="3" />
	<circle cx="255" cy="165.825" r="3" />
	<circle cx="255" cy="150.69" r="3" />
	<circle cx="255" cy="147.56" r="3" />
	<circle cx="255" cy="127.83" r="3" />
	<circle cx="255" cy="99.095" r="3" />
	<circle cx="255" cy="116.93" r="3" />
	<circle cx="255" cy="157.215" r="3" />
	<circle cx="255" cy="168.56" r="3" />
	<circle cx="255" cy="165.15" r="3" />
	<circle cx="255" cy="143.95" r="3" />
	<circle cx="255" cy="125.685" r="3" />
	<circle cx="255" cy="28.095" r="3" />
	<circle cx="255" cy="121.685" r="3" />
	<circle cx="265" cy="269.855" r="3" />
	<circle cx="265" cy="122.575" r="3" />
	<circle cx="265" cy="77.815" r="3" />
	<circle cx="265" cy="129.835" r="3" />
	<circle cx="265" cy="82.085" r="3" />
	<circle cx="265" cy="160.45" r="3" />
	<circle cx="265" cy="139.135" r="3" />
	<circle cx="265" cy="141.675" r="3" />
	<circle cx="265" cy="126.705" r="3" />
	<circle cx="265" cy="118.24" r="3" />
	<circle cx="265" cy="19.61" r="3" />
	<circle cx="265" cy="65.965" r="3" />
	<circle cx="265" cy="85.855" r="3" />
	<circle cx="265" cy="127.55" r="3" />
	<circle cx="265" cy="117.69" r="3" />
	<circle cx="275" cy="266.85" r="3" />
	<circle cx="275" cy="97.985" r="3" />
	<circle cx="275" cy="165.765" r="3" />
	<circle cx="275" cy="147.35" r="3" />
	<circle cx="275" cy="181.27" r="3" />
	<circle cx="275" cy="125.42" r="3" />
	<circle cx="275" cy="115.115" r="3" />
	<circle cx="275" cy="91.71" r="3" />
	<circle cx="275" cy="136.97" r="3" />
	<circle cx="275" cy="146.615" r="3" />
	<circle cx="275" cy="179.445" r="3" />
	<circle cx="275" cy="200.25" r="3" />
	<circle cx="275" cy="180.375" r="3" />
	<circle cx="275" cy="167.095" r="3" />
	<circle cx="275" cy="150.565" r="3" />
	<circle cx="275" cy="127.485" r="3" />
	<circle cx="275" cy="111.585" r="3" />
	<circle cx="275" cy="111.555" r="3" />
	<circle cx="275" cy="104.08" r="3" /><!-- 
	Generated using the Perl SVG Module V2.36
	by Ronan Oger
	Info: http://www.roitsystems.com/
 -->
</svg>