<?xml version="1.0" encoding="UTF-8" standalone="yes"?>
<!DOCTYPE svg PUBLIC "-//W3C//DTD SVG 1.0//EN" "http://www.w3.org/TR/2001/REC-SVG-20010904/DTD/svg10.dtd">
<svg height="271" width="295" xmlns="http://www.w3.org/2000/svg" xmlns:xlink="http://www.w3.org/1999/xlink">
	<line style="stroke: blue; stroke-width: 1" x1="70" x2="280" y1="251" y2="251" />	<text text-anchor="end" x="70" y="251">0.00
	</text>
	<line style="stroke: blue; stroke-width: 1" x1="70" x2="280" y1="201" y2="201" />	<text text-anchor="end" x="70" y="201">0.20
	</text>
	<line style="stroke: blue; stroke-width: 1" x1="70" x2="280" y1="151" y2="151" />	<text text-anchor="end" x="70" y="151">0.40
	</text>
	<line style="stroke: blue; stroke-width: 1" x1="70" x2="280" y1="101" y2="101" />	<text text-anchor="end" x="70" y="101">0.60
	</text>
	<line style="stroke: blue; stroke-width: 1" x1="70" x2="280" y1="51" y2="51" />	<text text-anchor="end" x="70" y="51">0.80
	</text>
	<circle cx="75" cy="250.989" r="3" />
	<circle cx="75" cy="250.99375" r="3" />
	<circle cx="75" cy="250.994" r="3" />
	<circle cx="75" cy="250.99525" r="3" />
	<circle cx="75" cy="250.99525" r="3" />
	<circle cx="75" cy="250.99525" r="3" />
	<circle cx="75" cy="250.99525" r="3" />
	<circle cx="75" cy="250.99525" r="3" />
	<circle cx="75" cy="250.99525" r="3" />
	<circle cx="75" cy="250.99525" r="3" />
	<circle cx="75" cy="250.9955" r="3" />
	<circle cx="75" cy="250.995" r="3" />
	<circle cx="75" cy="250.9955" r="3" />
	<circle cx="75" cy="250.99525" r="3" />
	<circle cx="75" cy="250.995" r="3" />
	<circle cx="75" cy="250.99525" r="3" />
	<circle cx="75" cy="250.995" r="3" />
	<circle cx="75" cy="250.99525" r="3" />
	<circle cx="75" cy="250.995" r="3" />
	<circle cx="75" cy="250.99525" r="3" />
	<circle cx="75" cy="250.99525" r="3" />
	<circle cx="75" cy="250.99525" r="3" />
	<circle cx="75" cy="250.99525" r="3" />
	<circle cx="75" cy="250.99525" r="3" />
	<circle cx="75" cy="250.99525" r="3" />
	<circle cx="75" cy="250.99525" r="3" />
	<circle cx="75" cy="250.995" r="3" />
	<circle cx="75" cy="250.99525" r="3" />
	<circle cx="75" cy="250.99525" r="3" />
	<circle cx="75" cy="250.99525" r="3" />
	<circle cx="75" cy="250.995" r="3" />
	<circle cx="85" cy="244.3855" r="3" />
	<circle cx="85" cy="236.9185" r="3" />
	<circle cx="85" cy="244.1995" r="3" />
	<circle cx="85" cy="245.59025" r="3" />
	<circle cx="85" cy="246.72875" r="3" />
	<circle cx="85" cy="248.06575" r="3" />
	<circle cx="85" cy="247.35675" r="3" />
	<circle cx="85" cy="246.38625" r="3" />
	<circle cx="85" cy="245.63" r="3" />
	<circle cx="85" cy="245.4775" r="3" />
	<circle cx="85" cy="243.0115" r="3" />
	<circle cx="85" cy="245.278" r="3" />
	<circle cx="85" cy="245.8765" r="3" />
	<circle cx="85" cy="245.5225" r="3" />
	<circle cx="85" cy="245.01625" r="3" />
	<circle cx="85" cy="240.27" r="3" />
	<circle cx="85" cy="243.51425" r="3" />
	<circle cx="85" cy="245.3345" r="3" />
	<circle cx="85" cy="244.41725" r="3" />
	<circle cx="85" cy="242.95425" r="3" />
	<circle cx="85" cy="244.47425" r="3" />
	<circle cx="85" cy="244.791" r="3" />
	<circle cx="85" cy="244.58875" r="3" />
	<circle cx="85" cy="243.72575" r="3" />
	<circle cx="85" cy="243.124" r="3" />
	<circle cx="95" cy="238.935" r="3" />
	<circle cx="95" cy="234.83025" r="3" />
	<circle cx="95" cy="236.20425" r="3" />
	<circle cx="95" cy="239.49975" r="3" />
	<circle cx="95" cy="240.3075" r="3" />
	<circle cx="95" cy="240.3905" r="3" />
	<circle cx="95" cy="240.291" r="3" />
	<circle cx="95" cy="232.86775" r="3" />
	<circle cx="95" cy="233.884" r="3" />
	<circle cx="95" cy="233.18775" r="3" />
	<circle cx="95" cy="228.50025" r="3" />
	<circle cx="95" cy="226.22075" r="3" />
	<circle cx="95" cy="229.48225" r="3" />
	<circle cx="95" cy="235.139" r="3" />
	<circle cx="95" cy="234.78725" r="3" />
	<circle cx="95" cy="234.898" r="3" />
	<circle cx="95" cy="234.18475" r="3" />
	<circle cx="95" cy="238.93825" r="3" />
	<circle cx="95" cy="239.4645" r="3" />
	<circle cx="95" cy="231.256" r="3" />
	<circle cx="95" cy="220.16375" r="3" />
	<circle cx="95" cy="226.0145" r="3" />
	<circle cx="95" cy="229.99" r="3" />
	<circle cx="105" cy="233.09625" r="3" />
	<circle cx="105" cy="215.99025" r="3" />
	<circle cx="105" cy="209.19375" r="3" />
	<circle cx="105" cy="218.83825" r="3" />
	<circle cx="105" cy="225.1835" r="3" />
	<circle cx="105" cy="229.48475" r="3" />
	<circle cx="105" cy="231.9225" r="3" />
	<circle cx="105" cy="229.48525" r="3" />
	<circle cx="105" cy="215.61975" r="3" />
	<circle cx="105" cy="214.96525" r="3" />
	<circle cx="105" cy="214.89" r="3" />
	<circle cx="105" cy="215.8175" r="3" />
	<circle cx="105" cy="212.25425" r="3" />
	<circle cx="105" cy="224.1615" r="3" />
	<circle cx="105" cy="223.052" r="3" />
	<circle cx="105" cy="225.19825" r="3" />
	<circle cx="115" cy="234.86475" r="3" />
	<circle cx="115" cy="204.5205" r="3" />
	<circle cx="115" cy="218.6895" r="3" />
	<circle cx="115" cy="226.2545" r="3" />
	<circle cx="115" cy="228.5595" r="3" />
	<circle cx="115" cy="233.7735" r="3" />
	<circle cx="115" cy="237.14725" r="3" />
	<circle cx="115" cy="234.94925" r="3" />
	<circle cx="115" cy="227.4395" r="3" />
	<circle cx="115" cy="218.94025" r="3" />
	<circle cx="115" cy="214.6435" r="3" />
	<circle cx="115" cy="218.3325" r="3" />
	<circle cx="115" cy="214.77575" r="3" />
	<circle cx="115" cy="220.34" r="3" />
	<circle cx="115" cy="228.90075" r="3" />
	<circle cx="115" cy="233.3165" r="3" />
	<circle cx="115" cy="232.6035" r="3" />
	<circle cx="115" cy="221.75375" r="3" />
	<circle cx="115" cy="224.14875" r="3" />
	<circle cx="115" cy="219.375" r="3" />
	<circle cx="115" cy="221.72275" r="3" />
	<circle cx="125" cy="237.2555" r="3" />
	<circle cx="125" cy="203.011" r="3" />
	<circle cx="125" cy="218.9135" r="3" />
	<circle cx="125" cy="218.243" r="3" />
	<circle cx="125" cy="223.51275" r="3" />
	<circle cx="125" cy="224.94425" r="3" />
	<circle cx="125" cy="218.09475" r="3" />
	<circle cx="125" cy="208.39675" r="3" />
	<circle cx="125" cy="204.306" r="3" />
	<circle cx="125" cy="216.304" r="3" />
	<circle cx="125" cy="221.87475" r="3" />
	<circle cx="125" cy="218.734" r="3" />
	<circle cx="125" cy="221.46275" r="3" />
	<circle cx="125" cy="211.63725" r="3" />
	<circle cx="125" cy="207.74425" r="3" />
	<circle cx="125" cy="201.8795" r="3" />
	<circle cx="125" cy="212.70225" r="3" />
	<circle cx="125" cy="213.0345" r="3" />
	<circle cx="125" cy="215.76925" r="3" />
	<circle cx="125" cy="210.5155" r="3" />
	<circle cx="125" cy="211.9295" r="3" />
	<circle cx="135" cy="236.14475" r="3" />
	<circle cx="135" cy="200.316" r="3" />
	<circle cx="135" cy="214.7465" r="3" />
	<circle cx="135" cy="208.35075" r="3" />
	<circle cx="135" cy="194.06675" r="3" />
	<circle cx="135" cy="198.02975" r="3" />
	<circle cx="135" cy="189.704" r="3" />
	<circle cx="135" cy="199.18525" r="3" />
	<circle cx="135" cy="201.01" r="3" />
	<circle cx="135" cy="211.6955" r="3" />
	<circle cx="135" cy="213.47425" r="3" />
	<circle cx="135" cy="203.49175" r="3" />
	<circle cx="135" cy="185.608" r="3" />
	<circle cx="135" cy="179.407" r="3" />
	<circle cx="135" cy="194.66375" r="3" />
	<circle cx="135" cy="197.1125" r="3" />
	<circle cx="135" cy="195.834" r="3" />
	<circle cx="145" cy="235.079" r="3" />
	<circle cx="145" cy="190.01825" r="3" />
	<circle cx="145" cy="202.603" r="3" />
	<circle cx="145" cy="196.3945" r="3" />
	<circle cx="145" cy="206.814" r="3" />
	<circle cx="145" cy="212.76925" r="3" />
	<circle cx="145" cy="190.4775" r="3" />
	<circle cx="145" cy="169.3695" r="3" />
	<circle cx="145" cy="179.3485" r="3" />
	<circle cx="145" cy="180.328" r="3" />
	<circle cx="145" cy="183.5035" r="3" />
	<circle cx="145" cy="176.64225" r="3" />
	<circle cx="145" cy="176.55025" r="3" />
	<circle cx="145" cy="188.05475" r="3" />
	<circle cx="145" cy="190.329" r="3" />
	<circle cx="145" cy="194.63175" r="3" />
	<circle cx="145" cy="177.12175" r="3" />
	<circle cx="145" cy="176.46625" r="3" />
	<circle cx="145" cy="178.37225" r="3" />
	<circle cx="145" cy="200.294" r="3" />
	<circle cx="145" cy="190.683" r="3" />
	<circle cx="145" cy="174.929" r="3" />
	<circle cx="145" cy="166.027" r="3" />
	<circle cx="145" cy="170.4785" r="3" />
	<circle cx="155" cy="231.4965" r="3" />
	<circle cx="155" cy="153.559" r="3" />
	<circle cx="155" cy="167.834" r="3" />
	<circle cx="155" cy="154.9535" r="3" />
	<circle cx="155" cy="184.60325" r="3" />
	<circle cx="155" cy="169.484" r="3" />
	<circle cx="155" cy="170.89125" r="3" />
	<circle cx="155" cy="161.0375" r="3" />
	<circle cx="155" cy="184.83075" r="3" />
	<circle cx="155" cy="202.676" r="3" />
	<circle cx="155" cy="203.528" r="3" />
	<circle cx="155" cy="186.01375" r="3" />
	<circle cx="155" cy="161.88525" r="3" />
	<circle cx="155" cy="149.3345" r="3" />
	<circle cx="155" cy="156.94525" r="3" />
	<circle cx="165" cy="229.7315" r="3" />
	<circle cx="165" cy="142.97975" r="3" />
	<circle cx="165" cy="165.48575" r="3" />
	<circle cx="165" cy="185.9855" r="3" />
	<circle cx="165" cy="182.68775" r="3" />
	<circle cx="165" cy="179.576" r="3" />
	<circle cx="165" cy="147.48225" r="3" />
	<circle cx="165" cy="148.432" r="3" />
	<circle cx="165" cy="192.01475" r="3" />
	<circle cx="165" cy="208.9365" r="3" />
	<circle cx="165" cy="206.2045" r="3" />
	<circle cx="165" cy="207.00125" r="3" />
	<circle cx="165" cy="188.72725" r="3" />
	<circle cx="165" cy="149.34675" r="3" />
	<circle cx="165" cy="149.07175" r="3" />
	<circle cx="165" cy="172.58225" r="3" />
	<circle cx="165" cy="212.679" r="3" />
	<circle cx="165" cy="195.9515" r="3" />
	<circle cx="165" cy="166.6515" r="3" />
	<circle cx="165" cy="148.48075" r="3" />
	<circle cx="165" cy="150.5455" r="3" />
	<circle cx="175" cy="229.85325" r="3" />
	<circle cx="175" cy="142.71375" r="3" />
	<circle cx="175" cy="172.00475" r="3" />
	<circle cx="175" cy="175.977" r="3" />
	<circle cx="175" cy="128.93" r="3" />
	<circle cx="175" cy="163.709" r="3" />
	<circle cx="175" cy="186.56025" r="3" />
	<circle cx="175" cy="179.51725" r="3" />
	<circle cx="175" cy="147.3605" r="3" />
	<circle cx="175" cy="147.19325" r="3" />
	<circle cx="175" cy="164.7655" r="3" />
	<circle cx="175" cy="198.39925" r="3" />
	<circle cx="175" cy="170.1055" r="3" />
	<circle cx="175" cy="136.9685" r="3" />
	<circle cx="175" cy="128.46225" r="3" />
	<circle cx="185" cy="228.95575" r="3" />
	<circle cx="185" cy="108.7095" r="3" />
	<circle cx="185" cy="164.85075" r="3" />
	<circle cx="185" cy="178.54225" r="3" />
	<circle cx="185" cy="131.71375" r="3" />
	<circle cx="185" cy="135.47075" r="3" />
	<circle cx="185" cy="175.50275" r="3" />
	<circle cx="185" cy="151.36325" r="3" />
	<circle cx="185" cy="120.56825" r="3" />
	<circle cx="185" cy="115.7875" r="3" />
	<circle cx="185" cy="169.845" r="3" />
	<circle cx="185" cy="193.44925" r="3" />
	<circle cx="185" cy="172.69" r="3" />
	<circle cx="185" cy="137.229" r="3" />
	<circle cx="185" cy="164.9185" r="3" />
	<circle cx="185" cy="189.7205" r="3" />
	<circle cx="185" cy="170.78725" r="3" />
	<circle cx="185" cy="117.02075" r="3" />
	<circle cx="185" cy="129.547" r="3" />
	<circle cx="185" cy="125.1285" r="3" />
	<circle cx="195" cy="229.89825" r="3" />
	<circle cx="195" cy="118.4965" r="3" />
	<circle cx="195" cy="141.6365" r="3" />
	<circle cx="195" cy="148.8775" r="3" />
	<circle cx="195" cy="161.104" r="3" />
	<circle cx="195" cy="147.10675" r="3" />
	<circle cx="195" cy="118.2545" r="3" />
	<circle cx="195" cy="101.8465" r="3" />
	<circle cx="195" cy="159.829" r="3" />
	<circle cx="195" cy="180.94275" r="3" />
	<circle cx="195" cy="177.56825" r="3" />
	<circle cx="195" cy="143.1035" r="3" />
	<circle cx="195" cy="120.792" r="3" />
	<circle cx="195" cy="106.12925" r="3" />
	<circle cx="195" cy="116.74825" r="3" />
	<circle cx="205" cy="228.4085" r="3" />
	<circle cx="205" cy="103.19825" r="3" />
	<circle cx="205" cy="124.1705" r="3" />
	<circle cx="205" cy="152.20875" r="3" />
	<circle cx="205" cy="179.19925" r="3" />
	<circle cx="205" cy="156.2395" r="3" />
	<circle cx="205" cy="87.65" r="3" />
	<circle cx="205" cy="158.30725" r="3" />
	<circle cx="205" cy="192.96225" r="3" />
	<circle cx="205" cy="212.84425" r="3" />
	<circle cx="205" cy="210.269" r="3" />
	<circle cx="205" cy="195.36375" r="3" />
	<circle cx="205" cy="174.8175" r="3" />
	<circle cx="205" cy="138.99125" r="3" />
	<circle cx="205" cy="114.175" r="3" />
	<circle cx="205" cy="103.8485" r="3" />
	<circle cx="205" cy="132.8655" r="3" />
	<circle cx="205" cy="164.6155" r="3" />
	<circle cx="205" cy="153.8975" r="3" />
	<circle cx="205" cy="125.31075" r="3" />
	<circle cx="205" cy="94.1605" r="3" />
	<circle cx="215" cy="228.39375" r="3" />
	<circle cx="215" cy="91.645" r="3" />
	<circle cx="215" cy="120.43775" r="3" />
	<circle cx="215" cy="157.80475" r="3" />
	<circle cx="215" cy="153.88775" r="3" />
	<circle cx="215" cy="66.10925" r="3" />
	<circle cx="215" cy="78.79775" r="3" />
	<circle cx="215" cy="133.11425" r="3" />
	<circle cx="215" cy="161.2785" r="3" />
	<circle cx="215" cy="140.6495" r="3" />
	<circle cx="215" cy="90.056" r="3" />
	<circle cx="215" cy="76.732" r="3" />
	<circle cx="215" cy="141.58975" r="3" />
	<circle cx="215" cy="159.962" r="3" />
	<circle cx="215" cy="159.75375" r="3" />
	<circle cx="215" cy="113.1015" r="3" />
	<circle cx="215" cy="91.47" r="3" />
	<circle cx="215" cy="86.36175" r="3" />
	<circle cx="215" cy="88.91975" r="3" />
	<circle cx="225" cy="226.72925" r="3" />
	<circle cx="225" cy="79.1645" r="3" />
	<circle cx="225" cy="92.425" r="3" />
	<circle cx="225" cy="136.647" r="3" />
	<circle cx="225" cy="105.54825" r="3" />
	<circle cx="225" cy="79.88575" r="3" />
	<circle cx="225" cy="93.96575" r="3" />
	<circle cx="225" cy="67.84925" r="3" />
	<circle cx="225" cy="110.1525" r="3" />
	<circle cx="225" cy="143.8195" r="3" />
	<circle cx="225" cy="114.805" r="3" />
	<circle cx="225" cy="71.811" r="3" />
	<circle cx="225" cy="100.08525" r="3" />
	<circle cx="225" cy="61.9295" r="3" />
	<circle cx="225" cy="108.9165" r="3" />
	<circle cx="225" cy="164.9175" r="3" />
	<circle cx="225" cy="144.122" r="3" />
	<circle cx="225" cy="68.45475" r="3" />
	<circle cx="225" cy="65.40725" r="3" />
	<circle cx="225" cy="66.98925" r="3" />
	<circle cx="225" cy="48.01075" r="3" />
	<circle cx="225" cy="37.266" r="3" />
	<circle cx="225" cy="144.986" r="3" />
	<circle cx="225" cy="152.37425" r="3" />
	<circle cx="225" cy="174.547" r="3" />
	<circle cx="225" cy="169.76875" r="3" />
	<circle cx="225" cy="151.58325" r="3" />
	<circle cx="225" cy="125.92125" r="3" />
	<circle cx="225" cy="148.05475" r="3" />
	<circle cx="225" cy="117.1855" r="3" />
	<circle cx="225" cy="78.85225" r="3" />
	<circle cx="225" cy="63.587" r="3" />
	<circle cx="225" cy="194.34125" r="3" />
	<circle cx="225" cy="194.3505" r="3" />
	<circle cx="225" cy="183.42125" r="3" />
	<circle cx="225" cy="135.9795" r="3" />
	<circle cx="225" cy="56.07525" r="3" />
	<circle cx="225" cy="68.6515" r="3" />
	<circle cx="225" cy="58.31" r="3" />
	<circle cx="225" cy="54.805" r="3" />
	<circle cx="235" cy="225.46125" r="3" />
	<circle cx="235" cy="25.81025" r="3" />
	<circle cx="235" cy="86.07275" r="3" />
	<circle cx="235" cy="136.4585" r="3" />
	<circle cx="235" cy="189.66025" r="3" />
	<circle cx="235" cy="179.1465" r="3" />
	<circle cx="235" cy="116.03975" r="3" />
	<circle cx="235" cy="81.045" r="3" />
	<circle cx="235" cy="72.48175" r="3" />
	<circle cx="235" cy="176.21175" r="3" />
	<circle cx="235" cy="191.45425" r="3" />
	<circle cx="235" cy="180.15475" r="3" />
	<circle cx="235" cy="131.6085" r="3" />
	<circle cx="235" cy="41.48225" r="3" />
	<circle cx="235" cy="49.5355" r="3" />
	<circle cx="235" cy="156.98075" r="3" />
	<circle cx="235" cy="165.134" r="3" />
	<circle cx="235" cy="106.17525" r="3" />
	<circle cx="235" cy="47.531" r="3" />
	<circle cx="235" cy="64.66" r="3" />
	<circle cx="235" cy="143.6515" r="3" />
	<circle cx="235" cy="151.9495" r="3" />
	<circle cx="235" cy="109.02025" r="3" />
	<circle cx="235" cy="70.176" r="3" />
	<circle cx="235" cy="53.706" r="3" />
	<circle cx="235" cy="35.44675" r="3" />
	<circle cx="245" cy="225.265" r="3" />
	<circle cx="245" cy="39.5895" r="3" />
	<circle cx="245" cy="77.0385" r="3" />
	<circle cx="245" cy="87.7795" r="3" />
	<circle cx="245" cy="110.093" r="3" />
	<circle cx="245" cy="90.7245" r="3" />
	<circle cx="245" cy="38.965" r="3" />
	<circle cx="245" cy="47.0185" r="3" />
	<circle cx="245" cy="121.639" r="3" />
	<circle cx="245" cy="163.40525" r="3" />
	<circle cx="245" cy="155.65075" r="3" />
	<circle cx="245" cy="141.904" r="3" />
	<circle cx="245" cy="97.32275" r="3" />
	<circle cx="245" cy="44.1315" r="3" />
	<circle cx="245" cy="25.84075" r="3" />
	<circle cx="245" cy="149.0495" r="3" />
	<circle cx="245" cy="154.244" r="3" />
	<circle cx="245" cy="178.55275" r="3" />
	<circle cx="245" cy="181.32675" r="3" />
	<circle cx="245" cy="190.33575" r="3" />
	<circle cx="245" cy="116.59325" r="3" />
	<circle cx="245" cy="60.7615" r="3" />
	<circle cx="245" cy="38.70875" r="3" />
	<circle cx="245" cy="36.81725" r="3" />
	<circle cx="255" cy="224.6145" r="3" />
	<circle cx="255" cy="19.7555" r="3" />
	<circle cx="255" cy="80.61275" r="3" />
	<circle cx="255" cy="79.89625" r="3" />
	<circle cx="255" cy="113.14175" r="3" />
	<circle cx="255" cy="119.36225" r="3" />
	<circle cx="255" cy="86.5725" r="3" />
	<circle cx="255" cy="53.38325" r="3" />
	<circle cx="255" cy="45.953" r="3" />
	<circle cx="255" cy="45.67725" r="3" />
	<circle cx="255" cy="99.1295" r="3" />
	<circle cx="255" cy="138.9975" r="3" />
	<circle cx="255" cy="152.54" r="3" />
	<circle cx="255" cy="127.69525" r="3" />
	<circle cx="255" cy="78.15775" r="3" />
	<circle cx="255" cy="29.06375" r="3" />
	<circle cx="255" cy="99.623" r="3" />
	<circle cx="255" cy="78.02525" r="3" />
	<circle cx="255" cy="110.023" r="3" />
	<circle cx="255" cy="119.06175" r="3" />
	<circle cx="255" cy="109.95025" r="3" />
	<circle cx="255" cy="69.72125" r="3" />
	<circle cx="255" cy="49.675" r="3" />
	<circle cx="255" cy="90.09325" r="3" />
	<circle cx="265" cy="230.26025" r="3" />
	<circle cx="265" cy="91.003" r="3" />
	<circle cx="265" cy="141.73475" r="3" />
	<circle cx="265" cy="169.0545" r="3" />
	<circle cx="265" cy="121.2255" r="3" />
	<circle cx="265" cy="88.4225" r="3" />
	<circle cx="265" cy="159.7915" r="3" />
	<circle cx="265" cy="223.86475" r="3" />
	<circle cx="265" cy="224.673" r="3" />
	<circle cx="265" cy="224.92175" r="3" />
	<circle cx="265" cy="206.09225" r="3" />
	<circle cx="265" cy="132.73275" r="3" />
	<circle cx="265" cy="94.044" r="3" />
	<circle cx="265" cy="60.52675" r="3" />
	<circle cx="265" cy="72.984" r="3" />
	<circle cx="265" cy="164.5055" r="3" />
	<circle cx="265" cy="203.82" r="3" />
	<circle cx="265" cy="193.41325" r="3" />
	<circle cx="265" cy="158.3055" r="3" />
	<circle cx="265" cy="115.87" r="3" />
	<circle cx="265" cy="104.052" r="3" />
	<circle cx="265" cy="47.69175" r="3" />
	<circle cx="265" cy="81.08825" r="3" />
	<circle cx="265" cy="81.2785" r="3" />
	<circle cx="275" cy="229.768" r="3" />
	<circle cx="275" cy="75.5865" r="3" />
	<circle cx="275" cy="119.8205" r="3" />
	<circle cx="275" cy="144.6915" r="3" />
	<circle cx="275" cy="176.5075" r="3" />
	<circle cx="275" cy="157.50975" r="3" />
	<circle cx="275" cy="112.8745" r="3" />
	<circle cx="275" cy="68.98025" r="3" />
	<circle cx="275" cy="144.17375" r="3" />
	<circle cx="275" cy="170.11675" r="3" />
	<circle cx="275" cy="153.55925" r="3" />
	<circle cx="275" cy="116.81975" r="3" />
	<circle cx="275" cy="70.87725" r="3" />
	<circle cx="275" cy="147.89825" r="3" />
	<circle cx="275" cy="162.4035" r="3" />
	<circle cx="275" cy="179.0155" r="3" />
	<circle cx="275" cy="172.69225" r="3" />
	<circle cx="275" cy="154.88925" r="3" />
	<circle cx="275" cy="87.588" r="3" />
	<circle cx="275" cy="63.00625" r="3" />
	<circle cx="275" cy="173.75575" r="3" />
	<circle cx="275" cy="181.59625" r="3" />
	<circle cx="275" cy="152.47525" r="3" />
	<circle cx="275" cy="83.67875" r="3" />
	<circle cx="275" cy="79.555" r="3" /><!-- 
	Generated using the Perl SVG Module V2.36
	by Ronan Oger
	Info: http://www.roitsystems.com/
 -->
</svg>