<?xml version="1.0" encoding="UTF-8" standalone="yes"?>
<!DOCTYPE svg PUBLIC "-//W3C//DTD SVG 1.0//EN" "http://www.w3.org/TR/2001/REC-SVG-20010904/DTD/svg10.dtd">
<svg height="299" width="295" xmlns="http://www.w3.org/2000/svg" xmlns:xlink="http://www.w3.org/1999/xlink">
	<line style="stroke: blue; stroke-width: 1" x1="70" x2="280" y1="279" y2="279" />	<text text-anchor="end" x="70" y="279">0.00
	</text>
	<line style="stroke: blue; stroke-width: 1" x1="70" x2="280" y1="229" y2="229" />	<text text-anchor="end" x="70" y="229">0.05
	</text>
	<line style="stroke: blue; stroke-width: 1" x1="70" x2="280" y1="179" y2="179" />	<text text-anchor="end" x="70" y="179">0.10
	</text>
	<line style="stroke: blue; stroke-width: 1" x1="70" x2="280" y1="129" y2="129" />	<text text-anchor="end" x="70" y="129">0.15
	</text>
	<line style="stroke: blue; stroke-width: 1" x1="70" x2="280" y1="79" y2="79" />	<text text-anchor="end" x="70" y="79">0.20
	</text>
	<line style="stroke: blue; stroke-width: 1" x1="70" x2="280" y1="29" y2="29" />	<text text-anchor="end" x="70" y="29">0.25
	</text>
	<circle cx="75" cy="278.961" r="3" />
	<circle cx="75" cy="278.975" r="3" />
	<circle cx="75" cy="278.975" r="3" />
	<circle cx="75" cy="278.98" r="3" />
	<circle cx="75" cy="278.981" r="3" />
	<circle cx="75" cy="278.981" r="3" />
	<circle cx="75" cy="278.98" r="3" />
	<circle cx="75" cy="278.981" r="3" />
	<circle cx="75" cy="278.979" r="3" />
	<circle cx="75" cy="278.98" r="3" />
	<circle cx="75" cy="278.981" r="3" />
	<circle cx="75" cy="278.98" r="3" />
	<circle cx="75" cy="278.981" r="3" />
	<circle cx="75" cy="278.98" r="3" />
	<circle cx="75" cy="278.981" r="3" />
	<circle cx="75" cy="278.981" r="3" />
	<circle cx="75" cy="278.98" r="3" />
	<circle cx="75" cy="278.98" r="3" />
	<circle cx="75" cy="278.981" r="3" />
	<circle cx="75" cy="278.98" r="3" />
	<circle cx="75" cy="278.98" r="3" />
	<circle cx="75" cy="278.981" r="3" />
	<circle cx="75" cy="278.98" r="3" />
	<circle cx="75" cy="278.98" r="3" />
	<circle cx="75" cy="278.979" r="3" />
	<circle cx="85" cy="273.774" r="3" />
	<circle cx="85" cy="271.158" r="3" />
	<circle cx="85" cy="268.036" r="3" />
	<circle cx="85" cy="271.355" r="3" />
	<circle cx="85" cy="272.288" r="3" />
	<circle cx="85" cy="272.801" r="3" />
	<circle cx="85" cy="271.908" r="3" />
	<circle cx="85" cy="270.853" r="3" />
	<circle cx="85" cy="269.195" r="3" />
	<circle cx="85" cy="271.495" r="3" />
	<circle cx="85" cy="272.437" r="3" />
	<circle cx="85" cy="274.339" r="3" />
	<circle cx="85" cy="274.12" r="3" />
	<circle cx="85" cy="272.45" r="3" />
	<circle cx="85" cy="271.471" r="3" />
	<circle cx="85" cy="269.286" r="3" />
	<circle cx="85" cy="271.883" r="3" />
	<circle cx="85" cy="274.055" r="3" />
	<circle cx="85" cy="274.441" r="3" />
	<circle cx="85" cy="272.97" r="3" />
	<circle cx="85" cy="271.553" r="3" />
	<circle cx="85" cy="271.792" r="3" />
	<circle cx="85" cy="272.902" r="3" />
	<circle cx="85" cy="274.382" r="3" />
	<circle cx="85" cy="274.243" r="3" />
	<circle cx="85" cy="272.371" r="3" />
	<circle cx="85" cy="271.737" r="3" />
	<circle cx="85" cy="270.538" r="3" />
	<circle cx="95" cy="264.733" r="3" />
	<circle cx="95" cy="254.079" r="3" />
	<circle cx="95" cy="263.932" r="3" />
	<circle cx="95" cy="270.455" r="3" />
	<circle cx="95" cy="270.707" r="3" />
	<circle cx="95" cy="264.776" r="3" />
	<circle cx="95" cy="262.718" r="3" />
	<circle cx="95" cy="267.29" r="3" />
	<circle cx="95" cy="271.217" r="3" />
	<circle cx="95" cy="271.04" r="3" />
	<circle cx="95" cy="267.799" r="3" />
	<circle cx="95" cy="263.64" r="3" />
	<circle cx="95" cy="260.846" r="3" />
	<circle cx="95" cy="260.729" r="3" />
	<circle cx="95" cy="265.538" r="3" />
	<circle cx="95" cy="267.242" r="3" />
	<circle cx="95" cy="261.614" r="3" />
	<circle cx="95" cy="259.585" r="3" />
	<circle cx="95" cy="258.587" r="3" />
	<circle cx="95" cy="258.171" r="3" />
	<circle cx="95" cy="263.372" r="3" />
	<circle cx="105" cy="260.176" r="3" />
	<circle cx="105" cy="228.441" r="3" />
	<circle cx="105" cy="246.421" r="3" />
	<circle cx="105" cy="252.289" r="3" />
	<circle cx="105" cy="245.13" r="3" />
	<circle cx="105" cy="259.304" r="3" />
	<circle cx="105" cy="261.072" r="3" />
	<circle cx="105" cy="248.293" r="3" />
	<circle cx="105" cy="248.232" r="3" />
	<circle cx="105" cy="257.335" r="3" />
	<circle cx="105" cy="259.667" r="3" />
	<circle cx="105" cy="253.395" r="3" />
	<circle cx="105" cy="252.588" r="3" />
	<circle cx="105" cy="246.65" r="3" />
	<circle cx="105" cy="259.87" r="3" />
	<circle cx="105" cy="260.75" r="3" />
	<circle cx="105" cy="241.902" r="3" />
	<circle cx="105" cy="251.415" r="3" />
	<circle cx="105" cy="249.869" r="3" />
	<circle cx="105" cy="244.973" r="3" />
	<circle cx="105" cy="243.025" r="3" />
	<circle cx="115" cy="259.052" r="3" />
	<circle cx="115" cy="193.445" r="3" />
	<circle cx="115" cy="234.822" r="3" />
	<circle cx="115" cy="233.398" r="3" />
	<circle cx="115" cy="229.076" r="3" />
	<circle cx="115" cy="219.218" r="3" />
	<circle cx="115" cy="240.303" r="3" />
	<circle cx="115" cy="230.679" r="3" />
	<circle cx="115" cy="225.716" r="3" />
	<circle cx="115" cy="231.773" r="3" />
	<circle cx="115" cy="237.985" r="3" />
	<circle cx="115" cy="232.736" r="3" />
	<circle cx="115" cy="229.429" r="3" />
	<circle cx="115" cy="236.035" r="3" />
	<circle cx="115" cy="239.317" r="3" />
	<circle cx="115" cy="234.426" r="3" />
	<circle cx="115" cy="231.649" r="3" />
	<circle cx="125" cy="258.575" r="3" />
	<circle cx="125" cy="207.797" r="3" />
	<circle cx="125" cy="217.603" r="3" />
	<circle cx="125" cy="230.741" r="3" />
	<circle cx="125" cy="228.457" r="3" />
	<circle cx="125" cy="207.502" r="3" />
	<circle cx="125" cy="213.546" r="3" />
	<circle cx="125" cy="221.486" r="3" />
	<circle cx="125" cy="232.209" r="3" />
	<circle cx="125" cy="220.532" r="3" />
	<circle cx="125" cy="232.142" r="3" />
	<circle cx="125" cy="220.02" r="3" />
	<circle cx="125" cy="218.708" r="3" />
	<circle cx="125" cy="227.218" r="3" />
	<circle cx="125" cy="224.946" r="3" />
	<circle cx="135" cy="260.109" r="3" />
	<circle cx="135" cy="190.513" r="3" />
	<circle cx="135" cy="211.166" r="3" />
	<circle cx="135" cy="247.41" r="3" />
	<circle cx="135" cy="239.41" r="3" />
	<circle cx="135" cy="237.919" r="3" />
	<circle cx="135" cy="255.412" r="3" />
	<circle cx="135" cy="253.678" r="3" />
	<circle cx="135" cy="259.627" r="3" />
	<circle cx="135" cy="251.776" r="3" />
	<circle cx="135" cy="247.519" r="3" />
	<circle cx="135" cy="220.259" r="3" />
	<circle cx="135" cy="240.021" r="3" />
	<circle cx="135" cy="253.025" r="3" />
	<circle cx="135" cy="253.156" r="3" />
	<circle cx="135" cy="242.565" r="3" />
	<circle cx="135" cy="240.935" r="3" />
	<circle cx="135" cy="233.071" r="3" />
	<circle cx="135" cy="228.765" r="3" />
	<circle cx="135" cy="225.349" r="3" />
	<circle cx="145" cy="262.321" r="3" />
	<circle cx="145" cy="192.548" r="3" />
	<circle cx="145" cy="212.915" r="3" />
	<circle cx="145" cy="244.162" r="3" />
	<circle cx="145" cy="241.906" r="3" />
	<circle cx="145" cy="236.862" r="3" />
	<circle cx="145" cy="222.19" r="3" />
	<circle cx="145" cy="213.533" r="3" />
	<circle cx="145" cy="233.54" r="3" />
	<circle cx="145" cy="235.881" r="3" />
	<circle cx="145" cy="233.734" r="3" />
	<circle cx="145" cy="207.023" r="3" />
	<circle cx="145" cy="229.62" r="3" />
	<circle cx="145" cy="241.662" r="3" />
	<circle cx="145" cy="211.494" r="3" />
	<circle cx="145" cy="223.605" r="3" />
	<circle cx="145" cy="214.578" r="3" />
	<circle cx="145" cy="210.766" r="3" />
	<circle cx="155" cy="260.667" r="3" />
	<circle cx="155" cy="205.172" r="3" />
	<circle cx="155" cy="186.158" r="3" />
	<circle cx="155" cy="206.263" r="3" />
	<circle cx="155" cy="206.626" r="3" />
	<circle cx="155" cy="197.207" r="3" />
	<circle cx="155" cy="194.253" r="3" />
	<circle cx="155" cy="201.422" r="3" />
	<circle cx="155" cy="205.643" r="3" />
	<circle cx="155" cy="234.06" r="3" />
	<circle cx="155" cy="217.426" r="3" />
	<circle cx="155" cy="190.684" r="3" />
	<circle cx="155" cy="180.525" r="3" />
	<circle cx="155" cy="218.204" r="3" />
	<circle cx="155" cy="184.058" r="3" />
	<circle cx="155" cy="188.122" r="3" />
	<circle cx="155" cy="201.103" r="3" />
	<circle cx="155" cy="179.937" r="3" />
	<circle cx="155" cy="188.172" r="3" />
	<circle cx="165" cy="259.218" r="3" />
	<circle cx="165" cy="145.004" r="3" />
	<circle cx="165" cy="189.026" r="3" />
	<circle cx="165" cy="199.455" r="3" />
	<circle cx="165" cy="164.759" r="3" />
	<circle cx="165" cy="176.223" r="3" />
	<circle cx="165" cy="194.853" r="3" />
	<circle cx="165" cy="175.32" r="3" />
	<circle cx="165" cy="200.429" r="3" />
	<circle cx="165" cy="205.122" r="3" />
	<circle cx="165" cy="186.782" r="3" />
	<circle cx="165" cy="206.679" r="3" />
	<circle cx="165" cy="209.859" r="3" />
	<circle cx="165" cy="188.963" r="3" />
	<circle cx="165" cy="192.834" r="3" />
	<circle cx="175" cy="260.702" r="3" />
	<circle cx="175" cy="171.132" r="3" />
	<circle cx="175" cy="176.038" r="3" />
	<circle cx="175" cy="221.855" r="3" />
	<circle cx="175" cy="203.093" r="3" />
	<circle cx="175" cy="191.482" r="3" />
	<circle cx="175" cy="232.429" r="3" />
	<circle cx="175" cy="240.56" r="3" />
	<circle cx="175" cy="225.173" r="3" />
	<circle cx="175" cy="228.989" r="3" />
	<circle cx="175" cy="198.349" r="3" />
	<circle cx="175" cy="177.336" r="3" />
	<circle cx="175" cy="237.538" r="3" />
	<circle cx="175" cy="232.678" r="3" />
	<circle cx="175" cy="216.969" r="3" />
	<circle cx="175" cy="203.155" r="3" />
	<circle cx="175" cy="189.227" r="3" />
	<circle cx="175" cy="173.265" r="3" />
	<circle cx="175" cy="184.006" r="3" />
	<circle cx="185" cy="259.468" r="3" />
	<circle cx="185" cy="117.32" r="3" />
	<circle cx="185" cy="178.386" r="3" />
	<circle cx="185" cy="151.25" r="3" />
	<circle cx="185" cy="165.684" r="3" />
	<circle cx="185" cy="220.172" r="3" />
	<circle cx="185" cy="201.188" r="3" />
	<circle cx="185" cy="174.882" r="3" />
	<circle cx="185" cy="175.61" r="3" />
	<circle cx="185" cy="184.433" r="3" />
	<circle cx="185" cy="167.503" r="3" />
	<circle cx="185" cy="179.579" r="3" />
	<circle cx="185" cy="173.111" r="3" />
	<circle cx="185" cy="150.18" r="3" />
	<circle cx="185" cy="177.277" r="3" />
	<circle cx="185" cy="173.961" r="3" />
	<circle cx="195" cy="259.002" r="3" />
	<circle cx="195" cy="122.697" r="3" />
	<circle cx="195" cy="173.409" r="3" />
	<circle cx="195" cy="198.718" r="3" />
	<circle cx="195" cy="179.245" r="3" />
	<circle cx="195" cy="207.405" r="3" />
	<circle cx="195" cy="170.371" r="3" />
	<circle cx="195" cy="141.605" r="3" />
	<circle cx="195" cy="197.142" r="3" />
	<circle cx="195" cy="147.369" r="3" />
	<circle cx="195" cy="163.663" r="3" />
	<circle cx="195" cy="181.702" r="3" />
	<circle cx="195" cy="156.583" r="3" />
	<circle cx="195" cy="191.793" r="3" />
	<circle cx="195" cy="160.563" r="3" />
	<circle cx="195" cy="128.686" r="3" />
	<circle cx="195" cy="150.467" r="3" />
	<circle cx="205" cy="256.556" r="3" />
	<circle cx="205" cy="140.82" r="3" />
	<circle cx="205" cy="129.761" r="3" />
	<circle cx="205" cy="135.301" r="3" />
	<circle cx="205" cy="126.202" r="3" />
	<circle cx="205" cy="171.002" r="3" />
	<circle cx="205" cy="135.84" r="3" />
	<circle cx="205" cy="175.7" r="3" />
	<circle cx="205" cy="128.47" r="3" />
	<circle cx="205" cy="165.481" r="3" />
	<circle cx="205" cy="194.406" r="3" />
	<circle cx="205" cy="182.804" r="3" />
	<circle cx="205" cy="160.633" r="3" />
	<circle cx="205" cy="171.496" r="3" />
	<circle cx="205" cy="145.711" r="3" />
	<circle cx="205" cy="136.372" r="3" />
	<circle cx="205" cy="144.545" r="3" />
	<circle cx="205" cy="135.062" r="3" />
	<circle cx="205" cy="162.36" r="3" />
	<circle cx="205" cy="184.382" r="3" />
	<circle cx="205" cy="137.754" r="3" />
	<circle cx="205" cy="171.886" r="3" />
	<circle cx="215" cy="259.707" r="3" />
	<circle cx="215" cy="135.281" r="3" />
	<circle cx="215" cy="180.435" r="3" />
	<circle cx="215" cy="222.304" r="3" />
	<circle cx="215" cy="202.595" r="3" />
	<circle cx="215" cy="178.595" r="3" />
	<circle cx="215" cy="214.137" r="3" />
	<circle cx="215" cy="219.212" r="3" />
	<circle cx="215" cy="179.302" r="3" />
	<circle cx="215" cy="170.95" r="3" />
	<circle cx="215" cy="161.904" r="3" />
	<circle cx="215" cy="202.858" r="3" />
	<circle cx="215" cy="228.074" r="3" />
	<circle cx="215" cy="231.442" r="3" />
	<circle cx="215" cy="206.036" r="3" />
	<circle cx="215" cy="171.614" r="3" />
	<circle cx="215" cy="160.665" r="3" />
	<circle cx="215" cy="174.011" r="3" />
	<circle cx="225" cy="260.361" r="3" />
	<circle cx="225" cy="146.761" r="3" />
	<circle cx="225" cy="160.355" r="3" />
	<circle cx="225" cy="160.389" r="3" />
	<circle cx="225" cy="136.661" r="3" />
	<circle cx="225" cy="168.498" r="3" />
	<circle cx="225" cy="167.175" r="3" />
	<circle cx="225" cy="109.669" r="3" />
	<circle cx="225" cy="179.479" r="3" />
	<circle cx="225" cy="162.649" r="3" />
	<circle cx="225" cy="173.385" r="3" />
	<circle cx="225" cy="162.783" r="3" />
	<circle cx="225" cy="159.487" r="3" />
	<circle cx="225" cy="184.003" r="3" />
	<circle cx="225" cy="174.447" r="3" />
	<circle cx="225" cy="143.258" r="3" />
	<circle cx="225" cy="177.401" r="3" />
	<circle cx="225" cy="181.964" r="3" />
	<circle cx="225" cy="197.799" r="3" />
	<circle cx="225" cy="127.375" r="3" />
	<circle cx="225" cy="139.24" r="3" />
	<circle cx="225" cy="117.025" r="3" />
	<circle cx="225" cy="122.737" r="3" />
	<circle cx="235" cy="259.8" r="3" />
	<circle cx="235" cy="131.119" r="3" />
	<circle cx="235" cy="103.1" r="3" />
	<circle cx="235" cy="172.806" r="3" />
	<circle cx="235" cy="158.411" r="3" />
	<circle cx="235" cy="146.232" r="3" />
	<circle cx="235" cy="105.472" r="3" />
	<circle cx="235" cy="108.879" r="3" />
	<circle cx="235" cy="140.358" r="3" />
	<circle cx="235" cy="179.698" r="3" />
	<circle cx="235" cy="175.06" r="3" />
	<circle cx="235" cy="130.806" r="3" />
	<circle cx="235" cy="123.565" r="3" />
	<circle cx="235" cy="151.55" r="3" />
	<circle cx="235" cy="189.477" r="3" />
	<circle cx="235" cy="174.221" r="3" />
	<circle cx="235" cy="146.022" r="3" />
	<circle cx="235" cy="161.935" r="3" />
	<circle cx="235" cy="191.942" r="3" />
	<circle cx="235" cy="171.175" r="3" />
	<circle cx="235" cy="147.435" r="3" />
	<circle cx="235" cy="131.778" r="3" />
	<circle cx="235" cy="147.792" r="3" />
	<circle cx="235" cy="185.946" r="3" />
	<circle cx="235" cy="158.62" r="3" />
	<circle cx="235" cy="108.643" r="3" />
	<circle cx="235" cy="103.777" r="3" />
	<circle cx="245" cy="254.581" r="3" />
	<circle cx="245" cy="84.696" r="3" />
	<circle cx="245" cy="99.141" r="3" />
	<circle cx="245" cy="79.382" r="3" />
	<circle cx="245" cy="78.289" r="3" />
	<circle cx="245" cy="62.187" r="3" />
	<circle cx="245" cy="164.261" r="3" />
	<circle cx="245" cy="105.389" r="3" />
	<circle cx="245" cy="76.034" r="3" />
	<circle cx="245" cy="46.967" r="3" />
	<circle cx="245" cy="154.243" r="3" />
	<circle cx="245" cy="150.999" r="3" />
	<circle cx="245" cy="135.2" r="3" />
	<circle cx="245" cy="120.315" r="3" />
	<circle cx="245" cy="169.818" r="3" />
	<circle cx="245" cy="116.274" r="3" />
	<circle cx="245" cy="110.514" r="3" />
	<circle cx="245" cy="32.618" r="3" />
	<circle cx="245" cy="100.198" r="3" />
	<circle cx="255" cy="253.346" r="3" />
	<circle cx="255" cy="89.201" r="3" />
	<circle cx="255" cy="151.922" r="3" />
	<circle cx="255" cy="112.443" r="3" />
	<circle cx="255" cy="172.495" r="3" />
	<circle cx="255" cy="162.515" r="3" />
	<circle cx="255" cy="177.588" r="3" />
	<circle cx="255" cy="176.442" r="3" />
	<circle cx="255" cy="93.608" r="3" />
	<circle cx="255" cy="79.54" r="3" />
	<circle cx="255" cy="152.072" r="3" />
	<circle cx="255" cy="135.719" r="3" />
	<circle cx="255" cy="91.28" r="3" />
	<circle cx="255" cy="119.717" r="3" />
	<circle cx="255" cy="129.091" r="3" />
	<circle cx="255" cy="50.706" r="3" />
	<circle cx="255" cy="90.834" r="3" />
	<circle cx="255" cy="102.178" r="3" />
	<circle cx="265" cy="256.449" r="3" />
	<circle cx="265" cy="59.558" r="3" />
	<circle cx="265" cy="105.256" r="3" />
	<circle cx="265" cy="122.496" r="3" />
	<circle cx="265" cy="174.057" r="3" />
	<circle cx="265" cy="88.759" r="3" />
	<circle cx="265" cy="132.501" r="3" />
	<circle cx="265" cy="150.842" r="3" />
	<circle cx="265" cy="79.848" r="3" />
	<circle cx="265" cy="64.488" r="3" />
	<circle cx="265" cy="119.585" r="3" />
	<circle cx="265" cy="142.088" r="3" />
	<circle cx="265" cy="103.709" r="3" />
	<circle cx="265" cy="47.214" r="3" />
	<circle cx="265" cy="74.026" r="3" />
	<circle cx="275" cy="253.212" r="3" />
	<circle cx="275" cy="19.195" r="3" />
	<circle cx="275" cy="87.839" r="3" />
	<circle cx="275" cy="102.285" r="3" />
	<circle cx="275" cy="79.754" r="3" />
	<circle cx="275" cy="119.163" r="3" />
	<circle cx="275" cy="62.026" r="3" />
	<circle cx="275" cy="135.1" r="3" />
	<circle cx="275" cy="152.693" r="3" />
	<circle cx="275" cy="108.888" r="3" />
	<circle cx="275" cy="86.139" r="3" />
	<circle cx="275" cy="137.665" r="3" />
	<circle cx="275" cy="136.862" r="3" />
	<circle cx="275" cy="77.403" r="3" />
	<circle cx="275" cy="61.287" r="3" />
	<circle cx="275" cy="121.737" r="3" />
	<circle cx="275" cy="89.684" r="3" />
	<circle cx="275" cy="105.697" r="3" />
	<circle cx="275" cy="87.422" r="3" />
	<circle cx="275" cy="82.619" r="3" />
	<circle cx="275" cy="83.119" r="3" /><!-- 
	Generated using the Perl SVG Module V2.36
	by Ronan Oger
	Info: http://www.roitsystems.com/
 -->
</svg>