<?xml version="1.0" encoding="UTF-8" standalone="yes"?>
<!DOCTYPE svg PUBLIC "-//W3C//DTD SVG 1.0//EN" "http://www.w3.org/TR/2001/REC-SVG-20010904/DTD/svg10.dtd">
<svg height="289" width="295" xmlns="http://www.w3.org/2000/svg" xmlns:xlink="http://www.w3.org/1999/xlink">
	<line style="stroke: blue; stroke-width: 1" x1="70" x2="280" y1="269" y2="269" />	<text text-anchor="end" x="70" y="269">0.00
	</text>
	<line style="stroke: blue; stroke-width: 1" x1="70" x2="280" y1="219" y2="219" />	<text text-anchor="end" x="70" y="219">0.02
	</text>
	<line style="stroke: blue; stroke-width: 1" x1="70" x2="280" y1="169" y2="169" />	<text text-anchor="end" x="70" y="169">0.04
	</text>
	<line style="stroke: blue; stroke-width: 1" x1="70" x2="280" y1="119" y2="119" />	<text text-anchor="end" x="70" y="119">0.06
	</text>
	<line style="stroke: blue; stroke-width: 1" x1="70" x2="280" y1="69" y2="69" />	<text text-anchor="end" x="70" y="69">0.08
	</text>
	<circle cx="75" cy="268.9125" r="3" />
	<circle cx="75" cy="268.945" r="3" />
	<circle cx="75" cy="268.95" r="3" />
	<circle cx="75" cy="268.955" r="3" />
	<circle cx="75" cy="268.9525" r="3" />
	<circle cx="75" cy="268.955" r="3" />
	<circle cx="75" cy="268.9525" r="3" />
	<circle cx="75" cy="268.9525" r="3" />
	<circle cx="75" cy="268.9525" r="3" />
	<circle cx="75" cy="268.955" r="3" />
	<circle cx="75" cy="268.9525" r="3" />
	<circle cx="75" cy="268.9525" r="3" />
	<circle cx="75" cy="268.9525" r="3" />
	<circle cx="75" cy="268.9525" r="3" />
	<circle cx="75" cy="268.955" r="3" />
	<circle cx="75" cy="268.955" r="3" />
	<circle cx="75" cy="268.955" r="3" />
	<circle cx="75" cy="268.9525" r="3" />
	<circle cx="75" cy="268.9525" r="3" />
	<circle cx="75" cy="268.9525" r="3" />
	<circle cx="75" cy="268.955" r="3" />
	<circle cx="75" cy="268.955" r="3" />
	<circle cx="75" cy="268.9525" r="3" />
	<circle cx="75" cy="268.9525" r="3" />
	<circle cx="85" cy="262.835" r="3" />
	<circle cx="85" cy="262.685" r="3" />
	<circle cx="85" cy="254.925" r="3" />
	<circle cx="85" cy="264.03" r="3" />
	<circle cx="85" cy="265.22" r="3" />
	<circle cx="85" cy="261.49" r="3" />
	<circle cx="85" cy="261.6075" r="3" />
	<circle cx="85" cy="260.7725" r="3" />
	<circle cx="85" cy="261.68" r="3" />
	<circle cx="85" cy="262.0425" r="3" />
	<circle cx="85" cy="265.6375" r="3" />
	<circle cx="85" cy="265.96" r="3" />
	<circle cx="85" cy="266.1425" r="3" />
	<circle cx="85" cy="266.235" r="3" />
	<circle cx="85" cy="264.9125" r="3" />
	<circle cx="85" cy="265.6875" r="3" />
	<circle cx="85" cy="261.0175" r="3" />
	<circle cx="85" cy="260.2325" r="3" />
	<circle cx="85" cy="261.0175" r="3" />
	<circle cx="95" cy="250.6625" r="3" />
	<circle cx="95" cy="246.0975" r="3" />
	<circle cx="95" cy="244.77" r="3" />
	<circle cx="95" cy="258.1925" r="3" />
	<circle cx="95" cy="260.1575" r="3" />
	<circle cx="95" cy="260.7275" r="3" />
	<circle cx="95" cy="259.9675" r="3" />
	<circle cx="95" cy="258.44" r="3" />
	<circle cx="95" cy="257.4825" r="3" />
	<circle cx="95" cy="253.6775" r="3" />
	<circle cx="95" cy="253.955" r="3" />
	<circle cx="95" cy="257.545" r="3" />
	<circle cx="95" cy="258.095" r="3" />
	<circle cx="95" cy="256.9275" r="3" />
	<circle cx="95" cy="253.5325" r="3" />
	<circle cx="95" cy="253.175" r="3" />
	<circle cx="95" cy="252.015" r="3" />
	<circle cx="105" cy="245.785" r="3" />
	<circle cx="105" cy="188.88" r="3" />
	<circle cx="105" cy="243.6425" r="3" />
	<circle cx="105" cy="249.415" r="3" />
	<circle cx="105" cy="248.5325" r="3" />
	<circle cx="105" cy="243.8325" r="3" />
	<circle cx="105" cy="242.165" r="3" />
	<circle cx="105" cy="241.7475" r="3" />
	<circle cx="105" cy="244.45" r="3" />
	<circle cx="105" cy="250.54" r="3" />
	<circle cx="105" cy="250.975" r="3" />
	<circle cx="105" cy="250.4925" r="3" />
	<circle cx="105" cy="249.655" r="3" />
	<circle cx="105" cy="250.7325" r="3" />
	<circle cx="105" cy="251.635" r="3" />
	<circle cx="105" cy="250.0475" r="3" />
	<circle cx="105" cy="243.73" r="3" />
	<circle cx="105" cy="242.6975" r="3" />
	<circle cx="105" cy="242.9075" r="3" />
	<circle cx="105" cy="240.165" r="3" />
	<circle cx="115" cy="252.415" r="3" />
	<circle cx="115" cy="220.9775" r="3" />
	<circle cx="115" cy="212.7275" r="3" />
	<circle cx="115" cy="241.775" r="3" />
	<circle cx="115" cy="252.265" r="3" />
	<circle cx="115" cy="250.625" r="3" />
	<circle cx="115" cy="243.8075" r="3" />
	<circle cx="115" cy="241.485" r="3" />
	<circle cx="115" cy="235.39" r="3" />
	<circle cx="115" cy="239.295" r="3" />
	<circle cx="115" cy="243.755" r="3" />
	<circle cx="115" cy="244.46" r="3" />
	<circle cx="115" cy="242.6625" r="3" />
	<circle cx="115" cy="240.875" r="3" />
	<circle cx="115" cy="239.8475" r="3" />
	<circle cx="115" cy="236.095" r="3" />
	<circle cx="115" cy="236.04" r="3" />
	<circle cx="115" cy="235.7125" r="3" />
	<circle cx="115" cy="233.885" r="3" />
	<circle cx="115" cy="233.195" r="3" />
	<circle cx="115" cy="235.36" r="3" />
	<circle cx="115" cy="241.52" r="3" />
	<circle cx="115" cy="242.8625" r="3" />
	<circle cx="115" cy="243.2675" r="3" />
	<circle cx="115" cy="171.5775" r="3" />
	<circle cx="125" cy="256.4875" r="3" />
	<circle cx="125" cy="225.685" r="3" />
	<circle cx="125" cy="232.11" r="3" />
	<circle cx="125" cy="224.7575" r="3" />
	<circle cx="125" cy="231.1475" r="3" />
	<circle cx="125" cy="234.6725" r="3" />
	<circle cx="125" cy="240.48" r="3" />
	<circle cx="125" cy="240.6975" r="3" />
	<circle cx="125" cy="232.51" r="3" />
	<circle cx="125" cy="231.8" r="3" />
	<circle cx="125" cy="232.475" r="3" />
	<circle cx="125" cy="230.35" r="3" />
	<circle cx="125" cy="225.5775" r="3" />
	<circle cx="125" cy="224.8575" r="3" />
	<circle cx="125" cy="233.9875" r="3" />
	<circle cx="125" cy="238.8975" r="3" />
	<circle cx="125" cy="241.3275" r="3" />
	<circle cx="125" cy="239.735" r="3" />
	<circle cx="125" cy="233.375" r="3" />
	<circle cx="125" cy="228.02" r="3" />
	<circle cx="135" cy="256.9425" r="3" />
	<circle cx="135" cy="226.19" r="3" />
	<circle cx="135" cy="225.4275" r="3" />
	<circle cx="135" cy="224.1925" r="3" />
	<circle cx="135" cy="232.6225" r="3" />
	<circle cx="135" cy="240.98" r="3" />
	<circle cx="135" cy="241.215" r="3" />
	<circle cx="135" cy="231.5625" r="3" />
	<circle cx="135" cy="223.455" r="3" />
	<circle cx="135" cy="222.2575" r="3" />
	<circle cx="135" cy="232.36" r="3" />
	<circle cx="135" cy="238.6425" r="3" />
	<circle cx="135" cy="233.495" r="3" />
	<circle cx="135" cy="231.7775" r="3" />
	<circle cx="135" cy="232.05" r="3" />
	<circle cx="135" cy="230.285" r="3" />
	<circle cx="135" cy="229.8375" r="3" />
	<circle cx="135" cy="227.0025" r="3" />
	<circle cx="135" cy="221.385" r="3" />
	<circle cx="145" cy="254.6625" r="3" />
	<circle cx="145" cy="201.065" r="3" />
	<circle cx="145" cy="225.75" r="3" />
	<circle cx="145" cy="206.7325" r="3" />
	<circle cx="145" cy="206.2975" r="3" />
	<circle cx="145" cy="213.225" r="3" />
	<circle cx="145" cy="223.0525" r="3" />
	<circle cx="145" cy="229.705" r="3" />
	<circle cx="145" cy="220.905" r="3" />
	<circle cx="145" cy="212.7625" r="3" />
	<circle cx="145" cy="209.5275" r="3" />
	<circle cx="145" cy="217.6475" r="3" />
	<circle cx="145" cy="218.4425" r="3" />
	<circle cx="145" cy="204.9625" r="3" />
	<circle cx="145" cy="218.735" r="3" />
	<circle cx="145" cy="205.7175" r="3" />
	<circle cx="145" cy="204.6175" r="3" />
	<circle cx="145" cy="205.51" r="3" />
	<circle cx="145" cy="170.225" r="3" />
	<circle cx="145" cy="202.535" r="3" />
	<circle cx="155" cy="250.035" r="3" />
	<circle cx="155" cy="179.7875" r="3" />
	<circle cx="155" cy="209.71" r="3" />
	<circle cx="155" cy="162.785" r="3" />
	<circle cx="155" cy="181.9" r="3" />
	<circle cx="155" cy="197.015" r="3" />
	<circle cx="155" cy="203.78" r="3" />
	<circle cx="155" cy="216.7925" r="3" />
	<circle cx="155" cy="180.3725" r="3" />
	<circle cx="155" cy="199.545" r="3" />
	<circle cx="155" cy="197.4475" r="3" />
	<circle cx="155" cy="197.1775" r="3" />
	<circle cx="155" cy="197.995" r="3" />
	<circle cx="155" cy="200.2275" r="3" />
	<circle cx="155" cy="194.91" r="3" />
	<circle cx="165" cy="243.9475" r="3" />
	<circle cx="165" cy="179.8925" r="3" />
	<circle cx="165" cy="181.0175" r="3" />
	<circle cx="165" cy="186.4475" r="3" />
	<circle cx="165" cy="212.7225" r="3" />
	<circle cx="165" cy="220.51" r="3" />
	<circle cx="165" cy="202.245" r="3" />
	<circle cx="165" cy="192.965" r="3" />
	<circle cx="165" cy="189.3925" r="3" />
	<circle cx="165" cy="210.59" r="3" />
	<circle cx="165" cy="222.9675" r="3" />
	<circle cx="165" cy="211.0725" r="3" />
	<circle cx="165" cy="189.13" r="3" />
	<circle cx="165" cy="186.5425" r="3" />
	<circle cx="165" cy="207.5025" r="3" />
	<circle cx="165" cy="215.3775" r="3" />
	<circle cx="165" cy="206.8775" r="3" />
	<circle cx="165" cy="195.825" r="3" />
	<circle cx="165" cy="180.19" r="3" />
	<circle cx="165" cy="190.665" r="3" />
	<circle cx="165" cy="200.705" r="3" />
	<circle cx="165" cy="155.26" r="3" />
	<circle cx="165" cy="203.97" r="3" />
	<circle cx="175" cy="246.39" r="3" />
	<circle cx="175" cy="169.3925" r="3" />
	<circle cx="175" cy="193.615" r="3" />
	<circle cx="175" cy="177.5775" r="3" />
	<circle cx="175" cy="164.335" r="3" />
	<circle cx="175" cy="152.0625" r="3" />
	<circle cx="175" cy="216.3025" r="3" />
	<circle cx="175" cy="207.16" r="3" />
	<circle cx="175" cy="196.555" r="3" />
	<circle cx="175" cy="189.8725" r="3" />
	<circle cx="175" cy="205.7" r="3" />
	<circle cx="175" cy="177.685" r="3" />
	<circle cx="175" cy="225.4225" r="3" />
	<circle cx="175" cy="227.79" r="3" />
	<circle cx="175" cy="212.4575" r="3" />
	<circle cx="175" cy="205.9125" r="3" />
	<circle cx="175" cy="207.7625" r="3" />
	<circle cx="175" cy="207.48" r="3" />
	<circle cx="185" cy="252.7175" r="3" />
	<circle cx="185" cy="204.1625" r="3" />
	<circle cx="185" cy="196.3875" r="3" />
	<circle cx="185" cy="218.5425" r="3" />
	<circle cx="185" cy="216.695" r="3" />
	<circle cx="185" cy="208.925" r="3" />
	<circle cx="185" cy="203.0775" r="3" />
	<circle cx="185" cy="189.9325" r="3" />
	<circle cx="185" cy="195.2775" r="3" />
	<circle cx="185" cy="220.25" r="3" />
	<circle cx="185" cy="211.575" r="3" />
	<circle cx="185" cy="200.0425" r="3" />
	<circle cx="185" cy="186.04" r="3" />
	<circle cx="185" cy="197.3025" r="3" />
	<circle cx="185" cy="202.675" r="3" />
	<circle cx="185" cy="211.405" r="3" />
	<circle cx="185" cy="196.7475" r="3" />
	<circle cx="185" cy="191.345" r="3" />
	<circle cx="185" cy="191.0675" r="3" />
	<circle cx="195" cy="257.0175" r="3" />
	<circle cx="195" cy="173.8575" r="3" />
	<circle cx="195" cy="199.38" r="3" />
	<circle cx="195" cy="204.725" r="3" />
	<circle cx="195" cy="174.795" r="3" />
	<circle cx="195" cy="173.3275" r="3" />
	<circle cx="195" cy="199.18" r="3" />
	<circle cx="195" cy="202.42" r="3" />
	<circle cx="195" cy="186.0925" r="3" />
	<circle cx="195" cy="139" r="3" />
	<circle cx="195" cy="202.795" r="3" />
	<circle cx="195" cy="186.3875" r="3" />
	<circle cx="195" cy="169.7025" r="3" />
	<circle cx="195" cy="161" r="3" />
	<circle cx="195" cy="171.1" r="3" />
	<circle cx="195" cy="172.7525" r="3" />
	<circle cx="205" cy="242.87" r="3" />
	<circle cx="205" cy="121.1125" r="3" />
	<circle cx="205" cy="162.9375" r="3" />
	<circle cx="205" cy="111.5575" r="3" />
	<circle cx="205" cy="151.8625" r="3" />
	<circle cx="205" cy="171.9325" r="3" />
	<circle cx="205" cy="185.2575" r="3" />
	<circle cx="205" cy="172.28" r="3" />
	<circle cx="205" cy="151.0325" r="3" />
	<circle cx="205" cy="167.9875" r="3" />
	<circle cx="205" cy="188.1725" r="3" />
	<circle cx="205" cy="173.07" r="3" />
	<circle cx="205" cy="155.325" r="3" />
	<circle cx="205" cy="139.34" r="3" />
	<circle cx="205" cy="172.95" r="3" />
	<circle cx="215" cy="250.3675" r="3" />
	<circle cx="215" cy="133.3975" r="3" />
	<circle cx="215" cy="150.7375" r="3" />
	<circle cx="215" cy="169.5275" r="3" />
	<circle cx="215" cy="156.0875" r="3" />
	<circle cx="215" cy="173.5375" r="3" />
	<circle cx="215" cy="160.335" r="3" />
	<circle cx="215" cy="193.0175" r="3" />
	<circle cx="215" cy="211.675" r="3" />
	<circle cx="215" cy="189.44" r="3" />
	<circle cx="215" cy="168.765" r="3" />
	<circle cx="215" cy="185.645" r="3" />
	<circle cx="215" cy="208.07" r="3" />
	<circle cx="215" cy="182.7075" r="3" />
	<circle cx="215" cy="177.0775" r="3" />
	<circle cx="215" cy="163.655" r="3" />
	<circle cx="225" cy="243.8375" r="3" />
	<circle cx="225" cy="88.6375" r="3" />
	<circle cx="225" cy="182.0675" r="3" />
	<circle cx="225" cy="194.01" r="3" />
	<circle cx="225" cy="204.5175" r="3" />
	<circle cx="225" cy="161.05" r="3" />
	<circle cx="225" cy="144.8975" r="3" />
	<circle cx="225" cy="161.9325" r="3" />
	<circle cx="225" cy="185.4325" r="3" />
	<circle cx="225" cy="170.4325" r="3" />
	<circle cx="225" cy="143.7175" r="3" />
	<circle cx="225" cy="152.065" r="3" />
	<circle cx="225" cy="161.9625" r="3" />
	<circle cx="225" cy="156.755" r="3" />
	<circle cx="225" cy="128.5375" r="3" />
	<circle cx="235" cy="242.9675" r="3" />
	<circle cx="235" cy="123.6925" r="3" />
	<circle cx="235" cy="149.04" r="3" />
	<circle cx="235" cy="130.025" r="3" />
	<circle cx="235" cy="185.7575" r="3" />
	<circle cx="235" cy="108.445" r="3" />
	<circle cx="235" cy="107.48" r="3" />
	<circle cx="235" cy="161.6425" r="3" />
	<circle cx="235" cy="170.015" r="3" />
	<circle cx="235" cy="161.6925" r="3" />
	<circle cx="235" cy="147.4775" r="3" />
	<circle cx="235" cy="128.9525" r="3" />
	<circle cx="235" cy="101.0525" r="3" />
	<circle cx="245" cy="243.415" r="3" />
	<circle cx="245" cy="125.6375" r="3" />
	<circle cx="245" cy="130.005" r="3" />
	<circle cx="245" cy="133.8875" r="3" />
	<circle cx="245" cy="147.8975" r="3" />
	<circle cx="245" cy="174.295" r="3" />
	<circle cx="245" cy="150.915" r="3" />
	<circle cx="245" cy="167.2125" r="3" />
	<circle cx="245" cy="111.2375" r="3" />
	<circle cx="245" cy="123.975" r="3" />
	<circle cx="245" cy="186.3725" r="3" />
	<circle cx="245" cy="155.1925" r="3" />
	<circle cx="245" cy="108.1375" r="3" />
	<circle cx="245" cy="151.1925" r="3" />
	<circle cx="245" cy="155.13" r="3" />
	<circle cx="245" cy="35.5725" r="3" />
	<circle cx="255" cy="243.7875" r="3" />
	<circle cx="255" cy="66.07" r="3" />
	<circle cx="255" cy="128.505" r="3" />
	<circle cx="255" cy="101.1825" r="3" />
	<circle cx="255" cy="98.4275" r="3" />
	<circle cx="255" cy="139.57" r="3" />
	<circle cx="255" cy="136.0625" r="3" />
	<circle cx="255" cy="106.555" r="3" />
	<circle cx="255" cy="126.19" r="3" />
	<circle cx="255" cy="163.875" r="3" />
	<circle cx="255" cy="129.0275" r="3" />
	<circle cx="255" cy="150.3575" r="3" />
	<circle cx="255" cy="153.1125" r="3" />
	<circle cx="255" cy="145.7325" r="3" />
	<circle cx="255" cy="122.2625" r="3" />
	<circle cx="255" cy="133.73" r="3" />
	<circle cx="265" cy="238.515" r="3" />
	<circle cx="265" cy="129.4325" r="3" />
	<circle cx="265" cy="116.2575" r="3" />
	<circle cx="265" cy="129.8325" r="3" />
	<circle cx="265" cy="107.3575" r="3" />
	<circle cx="265" cy="108.5625" r="3" />
	<circle cx="265" cy="134.335" r="3" />
	<circle cx="265" cy="161.5625" r="3" />
	<circle cx="265" cy="146.72" r="3" />
	<circle cx="265" cy="104.0275" r="3" />
	<circle cx="265" cy="47.7525" r="3" />
	<circle cx="265" cy="57.1775" r="3" />
	<circle cx="275" cy="236.8625" r="3" />
	<circle cx="275" cy="19.145" r="3" />
	<circle cx="275" cy="124.2575" r="3" />
	<circle cx="275" cy="155.4125" r="3" />
	<circle cx="275" cy="139.405" r="3" />
	<circle cx="275" cy="40.685" r="3" />
	<circle cx="275" cy="117.395" r="3" />
	<circle cx="275" cy="105.3075" r="3" />
	<circle cx="275" cy="103.745" r="3" />
	<circle cx="275" cy="100.7225" r="3" />
	<circle cx="275" cy="134.2975" r="3" />
	<circle cx="275" cy="121.8725" r="3" />
	<circle cx="275" cy="99.49" r="3" />
	<circle cx="275" cy="116.0625" r="3" />
	<circle cx="275" cy="136.835" r="3" />
	<circle cx="275" cy="116.67" r="3" />
	<circle cx="275" cy="93.715" r="3" />
	<circle cx="275" cy="61.74" r="3" />
	<circle cx="275" cy="89.995" r="3" /><!-- 
	Generated using the Perl SVG Module V2.36
	by Ronan Oger
	Info: http://www.roitsystems.com/
 -->
</svg>