<?xml version="1.0" encoding="UTF-8" standalone="yes"?>
<!DOCTYPE svg PUBLIC "-//W3C//DTD SVG 1.0//EN" "http://www.w3.org/TR/2001/REC-SVG-20010904/DTD/svg10.dtd">
<svg height="248" width="295" xmlns="http://www.w3.org/2000/svg" xmlns:xlink="http://www.w3.org/1999/xlink">
	<line style="stroke: blue; stroke-width: 1" x1="70" x2="280" y1="228" y2="228" />	<text text-anchor="end" x="70" y="228">0.00
	</text>
	<line style="stroke: blue; stroke-width: 1" x1="70" x2="280" y1="178" y2="178" />	<text text-anchor="end" x="70" y="178">0.10
	</text>
	<line style="stroke: blue; stroke-width: 1" x1="70" x2="280" y1="128" y2="128" />	<text text-anchor="end" x="70" y="128">0.20
	</text>
	<line style="stroke: blue; stroke-width: 1" x1="70" x2="280" y1="78" y2="78" />	<text text-anchor="end" x="70" y="78">0.30
	</text>
	<line style="stroke: blue; stroke-width: 1" x1="70" x2="280" y1="28" y2="28" />	<text text-anchor="end" x="70" y="28">0.40
	</text>
	<circle cx="75" cy="227.972" r="3" />
	<circle cx="75" cy="227.978" r="3" />
	<circle cx="75" cy="227.9865" r="3" />
	<circle cx="75" cy="227.99" r="3" />
	<circle cx="75" cy="227.9895" r="3" />
	<circle cx="75" cy="227.991" r="3" />
	<circle cx="75" cy="227.987" r="3" />
	<circle cx="75" cy="227.9905" r="3" />
	<circle cx="75" cy="227.99" r="3" />
	<circle cx="75" cy="227.99" r="3" />
	<circle cx="75" cy="227.99" r="3" />
	<circle cx="75" cy="227.99" r="3" />
	<circle cx="85" cy="221.649" r="3" />
	<circle cx="85" cy="222.1275" r="3" />
	<circle cx="85" cy="222.75" r="3" />
	<circle cx="85" cy="223.7435" r="3" />
	<circle cx="85" cy="222.453" r="3" />
	<circle cx="85" cy="222.608" r="3" />
	<circle cx="85" cy="224.4195" r="3" />
	<circle cx="85" cy="224.1805" r="3" />
	<circle cx="85" cy="222.6585" r="3" />
	<circle cx="85" cy="221.021" r="3" />
	<circle cx="85" cy="219.4735" r="3" />
	<circle cx="85" cy="219.416" r="3" />
	<circle cx="85" cy="222.169" r="3" />
	<circle cx="85" cy="224.164" r="3" />
	<circle cx="85" cy="224.079" r="3" />
	<circle cx="85" cy="222.3885" r="3" />
	<circle cx="85" cy="220.877" r="3" />
	<circle cx="85" cy="220.638" r="3" />
	<circle cx="85" cy="220.7045" r="3" />
	<circle cx="85" cy="220.678" r="3" />
	<circle cx="85" cy="219.2075" r="3" />
	<circle cx="85" cy="215.6415" r="3" />
	<circle cx="95" cy="216.5475" r="3" />
	<circle cx="95" cy="205.15" r="3" />
	<circle cx="95" cy="213.09" r="3" />
	<circle cx="95" cy="209.2335" r="3" />
	<circle cx="95" cy="219.2175" r="3" />
	<circle cx="95" cy="216.7865" r="3" />
	<circle cx="95" cy="214.44" r="3" />
	<circle cx="95" cy="212.212" r="3" />
	<circle cx="95" cy="213.672" r="3" />
	<circle cx="95" cy="216.7505" r="3" />
	<circle cx="95" cy="216.4855" r="3" />
	<circle cx="95" cy="211.8285" r="3" />
	<circle cx="95" cy="211.32" r="3" />
	<circle cx="105" cy="214.9955" r="3" />
	<circle cx="105" cy="193.5545" r="3" />
	<circle cx="105" cy="205.001" r="3" />
	<circle cx="105" cy="212.2175" r="3" />
	<circle cx="105" cy="212.311" r="3" />
	<circle cx="105" cy="201.748" r="3" />
	<circle cx="105" cy="200.645" r="3" />
	<circle cx="105" cy="201.3585" r="3" />
	<circle cx="105" cy="208.128" r="3" />
	<circle cx="105" cy="201.645" r="3" />
	<circle cx="105" cy="196.255" r="3" />
	<circle cx="105" cy="197.9925" r="3" />
	<circle cx="105" cy="196.698" r="3" />
	<circle cx="105" cy="196.9575" r="3" />
	<circle cx="115" cy="211.389" r="3" />
	<circle cx="115" cy="184.7515" r="3" />
	<circle cx="115" cy="192.713" r="3" />
	<circle cx="115" cy="188.1675" r="3" />
	<circle cx="115" cy="188.456" r="3" />
	<circle cx="115" cy="189.272" r="3" />
	<circle cx="115" cy="190.126" r="3" />
	<circle cx="115" cy="200.968" r="3" />
	<circle cx="115" cy="194.8705" r="3" />
	<circle cx="115" cy="179.46" r="3" />
	<circle cx="115" cy="184.739" r="3" />
	<circle cx="115" cy="162.9265" r="3" />
	<circle cx="125" cy="210.74" r="3" />
	<circle cx="125" cy="173.368" r="3" />
	<circle cx="125" cy="172.751" r="3" />
	<circle cx="125" cy="197.9465" r="3" />
	<circle cx="125" cy="206.078" r="3" />
	<circle cx="125" cy="201.6995" r="3" />
	<circle cx="125" cy="184.368" r="3" />
	<circle cx="125" cy="171.753" r="3" />
	<circle cx="125" cy="201.3945" r="3" />
	<circle cx="125" cy="181.007" r="3" />
	<circle cx="125" cy="172.2795" r="3" />
	<circle cx="125" cy="177.619" r="3" />
	<circle cx="125" cy="172.963" r="3" />
	<circle cx="125" cy="161.469" r="3" />
	<circle cx="125" cy="175.76" r="3" />
	<circle cx="135" cy="210.361" r="3" />
	<circle cx="135" cy="141.6105" r="3" />
	<circle cx="135" cy="159.459" r="3" />
	<circle cx="135" cy="171.2595" r="3" />
	<circle cx="135" cy="178.2675" r="3" />
	<circle cx="135" cy="170.2735" r="3" />
	<circle cx="135" cy="195.264" r="3" />
	<circle cx="135" cy="210.3735" r="3" />
	<circle cx="135" cy="215.04" r="3" />
	<circle cx="135" cy="214.517" r="3" />
	<circle cx="135" cy="202.7205" r="3" />
	<circle cx="135" cy="188.5065" r="3" />
	<circle cx="135" cy="183.1805" r="3" />
	<circle cx="135" cy="179.3565" r="3" />
	<circle cx="135" cy="168.671" r="3" />
	<circle cx="135" cy="161.488" r="3" />
	<circle cx="135" cy="185.17" r="3" />
	<circle cx="135" cy="163.7915" r="3" />
	<circle cx="135" cy="140.949" r="3" />
	<circle cx="135" cy="173.12" r="3" />
	<circle cx="145" cy="211.732" r="3" />
	<circle cx="145" cy="144.593" r="3" />
	<circle cx="145" cy="183.141" r="3" />
	<circle cx="145" cy="194.945" r="3" />
	<circle cx="145" cy="189.1755" r="3" />
	<circle cx="145" cy="179.429" r="3" />
	<circle cx="145" cy="172.2215" r="3" />
	<circle cx="145" cy="173.847" r="3" />
	<circle cx="145" cy="192.968" r="3" />
	<circle cx="145" cy="186.917" r="3" />
	<circle cx="145" cy="177.5555" r="3" />
	<circle cx="145" cy="170.646" r="3" />
	<circle cx="145" cy="147.11" r="3" />
	<circle cx="145" cy="168.9625" r="3" />
	<circle cx="155" cy="211.3835" r="3" />
	<circle cx="155" cy="150.556" r="3" />
	<circle cx="155" cy="152.752" r="3" />
	<circle cx="155" cy="173.1775" r="3" />
	<circle cx="155" cy="130.7795" r="3" />
	<circle cx="155" cy="156.44" r="3" />
	<circle cx="155" cy="180.151" r="3" />
	<circle cx="155" cy="179.4105" r="3" />
	<circle cx="155" cy="162.5765" r="3" />
	<circle cx="155" cy="165.614" r="3" />
	<circle cx="155" cy="146.193" r="3" />
	<circle cx="155" cy="140.1885" r="3" />
	<circle cx="155" cy="149.8935" r="3" />
	<circle cx="165" cy="210.854" r="3" />
	<circle cx="165" cy="120.784" r="3" />
	<circle cx="165" cy="149.3665" r="3" />
	<circle cx="165" cy="145.4075" r="3" />
	<circle cx="165" cy="130.5445" r="3" />
	<circle cx="165" cy="170.2245" r="3" />
	<circle cx="165" cy="156.848" r="3" />
	<circle cx="165" cy="149.828" r="3" />
	<circle cx="165" cy="149.885" r="3" />
	<circle cx="165" cy="149.533" r="3" />
	<circle cx="175" cy="210.551" r="3" />
	<circle cx="175" cy="122.5845" r="3" />
	<circle cx="175" cy="156.597" r="3" />
	<circle cx="175" cy="155.4795" r="3" />
	<circle cx="175" cy="136.078" r="3" />
	<circle cx="175" cy="172.704" r="3" />
	<circle cx="175" cy="178.837" r="3" />
	<circle cx="175" cy="151.503" r="3" />
	<circle cx="175" cy="145.9005" r="3" />
	<circle cx="175" cy="160.4805" r="3" />
	<circle cx="175" cy="149.202" r="3" />
	<circle cx="175" cy="136.8105" r="3" />
	<circle cx="175" cy="136.415" r="3" />
	<circle cx="175" cy="142.349" r="3" />
	<circle cx="175" cy="134.301" r="3" />
	<circle cx="175" cy="163.716" r="3" />
	<circle cx="175" cy="153.8775" r="3" />
	<circle cx="175" cy="149.735" r="3" />
	<circle cx="175" cy="105.5105" r="3" />
	<circle cx="175" cy="152.6015" r="3" />
	<circle cx="175" cy="134.0045" r="3" />
	<circle cx="175" cy="118.9275" r="3" />
	<circle cx="175" cy="154.668" r="3" />
	<circle cx="175" cy="142.3245" r="3" />
	<circle cx="175" cy="151.3255" r="3" />
	<circle cx="175" cy="167.205" r="3" />
	<circle cx="175" cy="147.289" r="3" />
	<circle cx="175" cy="157.8435" r="3" />
	<circle cx="175" cy="146.034" r="3" />
	<circle cx="175" cy="141.628" r="3" />
	<circle cx="185" cy="213.709" r="3" />
	<circle cx="185" cy="108.4415" r="3" />
	<circle cx="185" cy="159.91" r="3" />
	<circle cx="185" cy="141.7635" r="3" />
	<circle cx="185" cy="130.6425" r="3" />
	<circle cx="185" cy="115.916" r="3" />
	<circle cx="185" cy="148.0995" r="3" />
	<circle cx="185" cy="132.508" r="3" />
	<circle cx="185" cy="177.605" r="3" />
	<circle cx="185" cy="154.109" r="3" />
	<circle cx="185" cy="150.5535" r="3" />
	<circle cx="185" cy="149.032" r="3" />
	<circle cx="195" cy="211.758" r="3" />
	<circle cx="195" cy="127.4605" r="3" />
	<circle cx="195" cy="144.8765" r="3" />
	<circle cx="195" cy="174.9625" r="3" />
	<circle cx="195" cy="148.034" r="3" />
	<circle cx="195" cy="139.669" r="3" />
	<circle cx="195" cy="168.784" r="3" />
	<circle cx="195" cy="172.223" r="3" />
	<circle cx="195" cy="172.605" r="3" />
	<circle cx="195" cy="207.819" r="3" />
	<circle cx="195" cy="211.226" r="3" />
	<circle cx="195" cy="187.125" r="3" />
	<circle cx="195" cy="150.0635" r="3" />
	<circle cx="195" cy="129.8665" r="3" />
	<circle cx="195" cy="137.5195" r="3" />
	<circle cx="205" cy="212.03" r="3" />
	<circle cx="205" cy="129.829" r="3" />
	<circle cx="205" cy="77.5195" r="3" />
	<circle cx="205" cy="132.7115" r="3" />
	<circle cx="205" cy="134.2895" r="3" />
	<circle cx="205" cy="121.01" r="3" />
	<circle cx="205" cy="110.7835" r="3" />
	<circle cx="205" cy="127.819" r="3" />
	<circle cx="205" cy="105.3095" r="3" />
	<circle cx="205" cy="121.567" r="3" />
	<circle cx="205" cy="103.2735" r="3" />
	<circle cx="205" cy="118.4635" r="3" />
	<circle cx="215" cy="210.821" r="3" />
	<circle cx="215" cy="90.241" r="3" />
	<circle cx="215" cy="94.0965" r="3" />
	<circle cx="215" cy="116.4375" r="3" />
	<circle cx="215" cy="142.178" r="3" />
	<circle cx="215" cy="99.857" r="3" />
	<circle cx="215" cy="141.9935" r="3" />
	<circle cx="215" cy="138.1935" r="3" />
	<circle cx="215" cy="124.343" r="3" />
	<circle cx="215" cy="105.177" r="3" />
	<circle cx="215" cy="76.484" r="3" />
	<circle cx="225" cy="209.936" r="3" />
	<circle cx="225" cy="86.8995" r="3" />
	<circle cx="225" cy="90.5625" r="3" />
	<circle cx="225" cy="92.95" r="3" />
	<circle cx="225" cy="112.4985" r="3" />
	<circle cx="225" cy="112.0355" r="3" />
	<circle cx="225" cy="133.8885" r="3" />
	<circle cx="225" cy="115.318" r="3" />
	<circle cx="225" cy="107.9335" r="3" />
	<circle cx="225" cy="108.7095" r="3" />
	<circle cx="225" cy="109.614" r="3" />
	<circle cx="225" cy="110.46" r="3" />
	<circle cx="225" cy="109.9005" r="3" />
	<circle cx="225" cy="151.112" r="3" />
	<circle cx="225" cy="108.8135" r="3" />
	<circle cx="225" cy="155.1295" r="3" />
	<circle cx="225" cy="147.7275" r="3" />
	<circle cx="225" cy="106.7575" r="3" />
	<circle cx="225" cy="88.973" r="3" />
	<circle cx="225" cy="123.878" r="3" />
	<circle cx="235" cy="212.8445" r="3" />
	<circle cx="235" cy="96.4455" r="3" />
	<circle cx="235" cy="153.1915" r="3" />
	<circle cx="235" cy="185.051" r="3" />
	<circle cx="235" cy="140.599" r="3" />
	<circle cx="235" cy="100.8735" r="3" />
	<circle cx="235" cy="129.4915" r="3" />
	<circle cx="235" cy="112.1915" r="3" />
	<circle cx="235" cy="147.0855" r="3" />
	<circle cx="235" cy="110.2" r="3" />
	<circle cx="235" cy="108.3255" r="3" />
	<circle cx="235" cy="111.8255" r="3" />
	<circle cx="245" cy="211.013" r="3" />
	<circle cx="245" cy="92.1775" r="3" />
	<circle cx="245" cy="134.3175" r="3" />
	<circle cx="245" cy="175.39" r="3" />
	<circle cx="245" cy="137.8025" r="3" />
	<circle cx="245" cy="106.6025" r="3" />
	<circle cx="245" cy="83.181" r="3" />
	<circle cx="245" cy="147.4065" r="3" />
	<circle cx="245" cy="152.0655" r="3" />
	<circle cx="245" cy="105.4805" r="3" />
	<circle cx="245" cy="33.2705" r="3" />
	<circle cx="245" cy="65.859" r="3" />
	<circle cx="255" cy="208.703" r="3" />
	<circle cx="255" cy="59.7865" r="3" />
	<circle cx="255" cy="32.7595" r="3" />
	<circle cx="255" cy="21.4755" r="3" />
	<circle cx="255" cy="92.549" r="3" />
	<circle cx="255" cy="122.681" r="3" />
	<circle cx="255" cy="72.801" r="3" />
	<circle cx="255" cy="60.468" r="3" />
	<circle cx="255" cy="103.8085" r="3" />
	<circle cx="255" cy="75.088" r="3" />
	<circle cx="255" cy="76.01" r="3" />
	<circle cx="265" cy="210.061" r="3" />
	<circle cx="265" cy="55.8835" r="3" />
	<circle cx="265" cy="105.383" r="3" />
	<circle cx="265" cy="87.3485" r="3" />
	<circle cx="265" cy="72.4685" r="3" />
	<circle cx="265" cy="113.231" r="3" />
	<circle cx="265" cy="147.508" r="3" />
	<circle cx="265" cy="104.2005" r="3" />
	<circle cx="265" cy="61.7795" r="3" />
	<circle cx="265" cy="33.251" r="3" />
	<circle cx="265" cy="46.2255" r="3" />
	<circle cx="275" cy="206.1245" r="3" />
	<circle cx="275" cy="19.9515" r="3" />
	<circle cx="275" cy="83.058" r="3" />
	<circle cx="275" cy="31.4775" r="3" />
	<circle cx="275" cy="43.087" r="3" />
	<circle cx="275" cy="131.6315" r="3" />
	<circle cx="275" cy="120.8905" r="3" />
	<circle cx="275" cy="34.008" r="3" />
	<circle cx="275" cy="76.629" r="3" />
	<circle cx="275" cy="76.939" r="3" />
	<circle cx="275" cy="83.3735" r="3" />
	<circle cx="275" cy="21.2195" r="3" />
	<circle cx="275" cy="26.375" r="3" /><!-- 
	Generated using the Perl SVG Module V2.36
	by Ronan Oger
	Info: http://www.roitsystems.com/
 -->
</svg>