<?xml version="1.0" encoding="UTF-8" standalone="yes"?>
<!DOCTYPE svg PUBLIC "-//W3C//DTD SVG 1.0//EN" "http://www.w3.org/TR/2001/REC-SVG-20010904/DTD/svg10.dtd">
<svg height="297" width="295" xmlns="http://www.w3.org/2000/svg" xmlns:xlink="http://www.w3.org/1999/xlink">
	<line style="stroke: blue; stroke-width: 1" x1="70" x2="280" y1="277" y2="277" />	<text text-anchor="end" x="70" y="277">0.00
	</text>
	<line style="stroke: blue; stroke-width: 1" x1="70" x2="280" y1="227" y2="227" />	<text text-anchor="end" x="70" y="227">0.20
	</text>
	<line style="stroke: blue; stroke-width: 1" x1="70" x2="280" y1="177" y2="177" />	<text text-anchor="end" x="70" y="177">0.40
	</text>
	<line style="stroke: blue; stroke-width: 1" x1="70" x2="280" y1="127" y2="127" />	<text text-anchor="end" x="70" y="127">0.60
	</text>
	<line style="stroke: blue; stroke-width: 1" x1="70" x2="280" y1="77" y2="77" />	<text text-anchor="end" x="70" y="77">0.80
	</text>
	<line style="stroke: blue; stroke-width: 1" x1="70" x2="280" y1="27" y2="27" />	<text text-anchor="end" x="70" y="27">1.00
	</text>
	<circle cx="75" cy="276.9875" r="3" />
	<circle cx="75" cy="276.99425" r="3" />
	<circle cx="75" cy="276.99525" r="3" />
	<circle cx="75" cy="276.99525" r="3" />
	<circle cx="75" cy="276.99525" r="3" />
	<circle cx="75" cy="276.99525" r="3" />
	<circle cx="75" cy="276.9955" r="3" />
	<circle cx="75" cy="276.99525" r="3" />
	<circle cx="75" cy="276.99525" r="3" />
	<circle cx="75" cy="276.9955" r="3" />
	<circle cx="75" cy="276.995" r="3" />
	<circle cx="75" cy="276.99525" r="3" />
	<circle cx="75" cy="276.99525" r="3" />
	<circle cx="75" cy="276.9955" r="3" />
	<circle cx="75" cy="276.99525" r="3" />
	<circle cx="75" cy="276.99525" r="3" />
	<circle cx="75" cy="276.99525" r="3" />
	<circle cx="75" cy="276.99525" r="3" />
	<circle cx="75" cy="276.9955" r="3" />
	<circle cx="75" cy="276.9955" r="3" />
	<circle cx="75" cy="276.9955" r="3" />
	<circle cx="75" cy="276.99525" r="3" />
	<circle cx="75" cy="276.99525" r="3" />
	<circle cx="75" cy="276.99525" r="3" />
	<circle cx="75" cy="276.9955" r="3" />
	<circle cx="75" cy="276.99525" r="3" />
	<circle cx="85" cy="269.37" r="3" />
	<circle cx="85" cy="270.55" r="3" />
	<circle cx="85" cy="266.73775" r="3" />
	<circle cx="85" cy="270.69225" r="3" />
	<circle cx="85" cy="273.185" r="3" />
	<circle cx="85" cy="272.11075" r="3" />
	<circle cx="85" cy="271.15675" r="3" />
	<circle cx="85" cy="269.33825" r="3" />
	<circle cx="85" cy="268.9915" r="3" />
	<circle cx="85" cy="271.98925" r="3" />
	<circle cx="85" cy="273.5915" r="3" />
	<circle cx="85" cy="274.3805" r="3" />
	<circle cx="85" cy="274.03875" r="3" />
	<circle cx="85" cy="274.7695" r="3" />
	<circle cx="85" cy="274.99625" r="3" />
	<circle cx="85" cy="274.4595" r="3" />
	<circle cx="85" cy="274.60225" r="3" />
	<circle cx="85" cy="273.1155" r="3" />
	<circle cx="85" cy="271.302" r="3" />
	<circle cx="85" cy="269.8025" r="3" />
	<circle cx="85" cy="269.389" r="3" />
	<circle cx="85" cy="268.8385" r="3" />
	<circle cx="85" cy="268.97375" r="3" />
	<circle cx="85" cy="269.5005" r="3" />
	<circle cx="85" cy="270.25575" r="3" />
	<circle cx="85" cy="269.71675" r="3" />
	<circle cx="85" cy="269.87075" r="3" />
	<circle cx="85" cy="272.314" r="3" />
	<circle cx="85" cy="274.10925" r="3" />
	<circle cx="85" cy="274.56225" r="3" />
	<circle cx="85" cy="273.767" r="3" />
	<circle cx="85" cy="272.93775" r="3" />
	<circle cx="85" cy="271.45275" r="3" />
	<circle cx="85" cy="271.83525" r="3" />
	<circle cx="85" cy="270.07975" r="3" />
	<circle cx="85" cy="266.766" r="3" />
	<circle cx="85" cy="268.05975" r="3" />
	<circle cx="85" cy="270.00475" r="3" />
	<circle cx="85" cy="268.42275" r="3" />
	<circle cx="85" cy="264.72025" r="3" />
	<circle cx="85" cy="268.75325" r="3" />
	<circle cx="95" cy="263.91625" r="3" />
	<circle cx="95" cy="259.21275" r="3" />
	<circle cx="95" cy="261.54" r="3" />
	<circle cx="95" cy="261.93575" r="3" />
	<circle cx="95" cy="268.01225" r="3" />
	<circle cx="95" cy="269.05625" r="3" />
	<circle cx="95" cy="258.65725" r="3" />
	<circle cx="95" cy="261.22775" r="3" />
	<circle cx="95" cy="261.0235" r="3" />
	<circle cx="95" cy="263.44425" r="3" />
	<circle cx="95" cy="263.7355" r="3" />
	<circle cx="95" cy="263.42075" r="3" />
	<circle cx="95" cy="256.12925" r="3" />
	<circle cx="95" cy="253.732" r="3" />
	<circle cx="95" cy="258.01225" r="3" />
	<circle cx="95" cy="261.64575" r="3" />
	<circle cx="95" cy="257.1925" r="3" />
	<circle cx="95" cy="254.656" r="3" />
	<circle cx="95" cy="254.72725" r="3" />
	<circle cx="95" cy="250.201" r="3" />
	<circle cx="95" cy="258.59925" r="3" />
	<circle cx="105" cy="260.297" r="3" />
	<circle cx="105" cy="243.3325" r="3" />
	<circle cx="105" cy="252.21375" r="3" />
	<circle cx="105" cy="242.21975" r="3" />
	<circle cx="105" cy="254.74725" r="3" />
	<circle cx="105" cy="258.48475" r="3" />
	<circle cx="105" cy="259.72775" r="3" />
	<circle cx="105" cy="249.0665" r="3" />
	<circle cx="105" cy="248.206" r="3" />
	<circle cx="105" cy="252.37" r="3" />
	<circle cx="105" cy="252.10975" r="3" />
	<circle cx="105" cy="252.384" r="3" />
	<circle cx="105" cy="248.2215" r="3" />
	<circle cx="105" cy="240.9035" r="3" />
	<circle cx="105" cy="240.905" r="3" />
	<circle cx="105" cy="243.69675" r="3" />
	<circle cx="105" cy="241.5375" r="3" />
	<circle cx="115" cy="260.49575" r="3" />
	<circle cx="115" cy="228.20225" r="3" />
	<circle cx="115" cy="233.60325" r="3" />
	<circle cx="115" cy="228.809" r="3" />
	<circle cx="115" cy="248.939" r="3" />
	<circle cx="115" cy="243.554" r="3" />
	<circle cx="115" cy="229.02525" r="3" />
	<circle cx="115" cy="238.54575" r="3" />
	<circle cx="115" cy="246.797" r="3" />
	<circle cx="115" cy="253.6105" r="3" />
	<circle cx="115" cy="246.0115" r="3" />
	<circle cx="115" cy="245.7335" r="3" />
	<circle cx="115" cy="242.1635" r="3" />
	<circle cx="115" cy="243.36825" r="3" />
	<circle cx="115" cy="243.719" r="3" />
	<circle cx="125" cy="262.26675" r="3" />
	<circle cx="125" cy="225.61525" r="3" />
	<circle cx="125" cy="229.20275" r="3" />
	<circle cx="125" cy="232.793" r="3" />
	<circle cx="125" cy="230.86225" r="3" />
	<circle cx="125" cy="242.7525" r="3" />
	<circle cx="125" cy="243.42525" r="3" />
	<circle cx="125" cy="239.414" r="3" />
	<circle cx="125" cy="228.405" r="3" />
	<circle cx="125" cy="231.84025" r="3" />
	<circle cx="125" cy="244.42425" r="3" />
	<circle cx="125" cy="246.9225" r="3" />
	<circle cx="125" cy="237.503" r="3" />
	<circle cx="125" cy="229.65375" r="3" />
	<circle cx="125" cy="214.43825" r="3" />
	<circle cx="125" cy="223.55125" r="3" />
	<circle cx="135" cy="259.98175" r="3" />
	<circle cx="135" cy="207.22925" r="3" />
	<circle cx="135" cy="226.4965" r="3" />
	<circle cx="135" cy="222.08" r="3" />
	<circle cx="135" cy="217.37" r="3" />
	<circle cx="135" cy="208.83" r="3" />
	<circle cx="135" cy="219.01825" r="3" />
	<circle cx="135" cy="222.49025" r="3" />
	<circle cx="135" cy="215.193" r="3" />
	<circle cx="135" cy="214.20625" r="3" />
	<circle cx="135" cy="220.02325" r="3" />
	<circle cx="135" cy="215.9775" r="3" />
	<circle cx="135" cy="210.936" r="3" />
	<circle cx="135" cy="209.996" r="3" />
	<circle cx="135" cy="212.032" r="3" />
	<circle cx="145" cy="256.702" r="3" />
	<circle cx="145" cy="195.4105" r="3" />
	<circle cx="145" cy="200.05225" r="3" />
	<circle cx="145" cy="204.071" r="3" />
	<circle cx="145" cy="204.65575" r="3" />
	<circle cx="145" cy="184.25" r="3" />
	<circle cx="145" cy="189.512" r="3" />
	<circle cx="145" cy="192.84575" r="3" />
	<circle cx="145" cy="221.69725" r="3" />
	<circle cx="145" cy="211.9915" r="3" />
	<circle cx="145" cy="196.74325" r="3" />
	<circle cx="145" cy="194.8875" r="3" />
	<circle cx="145" cy="191.4175" r="3" />
	<circle cx="145" cy="197.69775" r="3" />
	<circle cx="155" cy="256.032" r="3" />
	<circle cx="155" cy="171.53" r="3" />
	<circle cx="155" cy="196.0105" r="3" />
	<circle cx="155" cy="197.91625" r="3" />
	<circle cx="155" cy="197.79325" r="3" />
	<circle cx="155" cy="202.96425" r="3" />
	<circle cx="155" cy="215.5855" r="3" />
	<circle cx="155" cy="193.95525" r="3" />
	<circle cx="155" cy="193.62625" r="3" />
	<circle cx="155" cy="187.73275" r="3" />
	<circle cx="165" cy="257.3345" r="3" />
	<circle cx="165" cy="174.66525" r="3" />
	<circle cx="165" cy="185.93075" r="3" />
	<circle cx="165" cy="221.2225" r="3" />
	<circle cx="165" cy="211.02625" r="3" />
	<circle cx="165" cy="203.31625" r="3" />
	<circle cx="165" cy="170.53175" r="3" />
	<circle cx="165" cy="194.1465" r="3" />
	<circle cx="165" cy="210.51475" r="3" />
	<circle cx="165" cy="204.40425" r="3" />
	<circle cx="165" cy="178.17275" r="3" />
	<circle cx="165" cy="189.65225" r="3" />
	<circle cx="175" cy="259.48175" r="3" />
	<circle cx="175" cy="187.4645" r="3" />
	<circle cx="175" cy="197.78825" r="3" />
	<circle cx="175" cy="199.17175" r="3" />
	<circle cx="175" cy="182.89925" r="3" />
	<circle cx="175" cy="176.76925" r="3" />
	<circle cx="175" cy="194.8155" r="3" />
	<circle cx="175" cy="186.36125" r="3" />
	<circle cx="175" cy="201.54025" r="3" />
	<circle cx="175" cy="217.39875" r="3" />
	<circle cx="175" cy="181.6885" r="3" />
	<circle cx="175" cy="179.66425" r="3" />
	<circle cx="175" cy="183.0615" r="3" />
	<circle cx="185" cy="256.59025" r="3" />
	<circle cx="185" cy="171.54675" r="3" />
	<circle cx="185" cy="193.66825" r="3" />
	<circle cx="185" cy="172.8245" r="3" />
	<circle cx="185" cy="166.88" r="3" />
	<circle cx="185" cy="171.2215" r="3" />
	<circle cx="185" cy="181.117" r="3" />
	<circle cx="185" cy="180.5105" r="3" />
	<circle cx="185" cy="203.01525" r="3" />
	<circle cx="185" cy="164.64125" r="3" />
	<circle cx="185" cy="188.8535" r="3" />
	<circle cx="185" cy="207.112" r="3" />
	<circle cx="185" cy="218.78225" r="3" />
	<circle cx="185" cy="204.986" r="3" />
	<circle cx="185" cy="144.5665" r="3" />
	<circle cx="185" cy="179.755" r="3" />
	<circle cx="185" cy="190.4395" r="3" />
	<circle cx="195" cy="260.24475" r="3" />
	<circle cx="195" cy="173.47725" r="3" />
	<circle cx="195" cy="170.3535" r="3" />
	<circle cx="195" cy="169.9105" r="3" />
	<circle cx="195" cy="225.598" r="3" />
	<circle cx="195" cy="228.87625" r="3" />
	<circle cx="195" cy="206.282" r="3" />
	<circle cx="195" cy="198.1675" r="3" />
	<circle cx="195" cy="199.3215" r="3" />
	<circle cx="195" cy="161.96675" r="3" />
	<circle cx="195" cy="206.67975" r="3" />
	<circle cx="195" cy="228.09525" r="3" />
	<circle cx="195" cy="232.953" r="3" />
	<circle cx="195" cy="231.33075" r="3" />
	<circle cx="195" cy="208.08175" r="3" />
	<circle cx="195" cy="199.577" r="3" />
	<circle cx="195" cy="190.04925" r="3" />
	<circle cx="195" cy="173.25475" r="3" />
	<circle cx="205" cy="260.30375" r="3" />
	<circle cx="205" cy="157.75875" r="3" />
	<circle cx="205" cy="165.44" r="3" />
	<circle cx="205" cy="198.448" r="3" />
	<circle cx="205" cy="223.36575" r="3" />
	<circle cx="205" cy="215.2335" r="3" />
	<circle cx="205" cy="179.8805" r="3" />
	<circle cx="205" cy="152.9595" r="3" />
	<circle cx="205" cy="211.582" r="3" />
	<circle cx="205" cy="214.38875" r="3" />
	<circle cx="205" cy="197.7925" r="3" />
	<circle cx="205" cy="145.9265" r="3" />
	<circle cx="205" cy="198.815" r="3" />
	<circle cx="205" cy="258.817" r="3" />
	<circle cx="205" cy="258.734" r="3" />
	<circle cx="205" cy="258.84725" r="3" />
	<circle cx="205" cy="250.034" r="3" />
	<circle cx="205" cy="220.5215" r="3" />
	<circle cx="205" cy="187.78475" r="3" />
	<circle cx="205" cy="153.9035" r="3" />
	<circle cx="205" cy="149.20875" r="3" />
	<circle cx="205" cy="170.60425" r="3" />
	<circle cx="205" cy="174.45775" r="3" />
	<circle cx="205" cy="168.34675" r="3" />
	<circle cx="215" cy="260.48175" r="3" />
	<circle cx="215" cy="159.48025" r="3" />
	<circle cx="215" cy="208.2915" r="3" />
	<circle cx="215" cy="213.81375" r="3" />
	<circle cx="215" cy="181.836" r="3" />
	<circle cx="215" cy="141.742" r="3" />
	<circle cx="215" cy="168.94625" r="3" />
	<circle cx="215" cy="148.27475" r="3" />
	<circle cx="215" cy="190.938" r="3" />
	<circle cx="215" cy="197.2315" r="3" />
	<circle cx="215" cy="189.57325" r="3" />
	<circle cx="215" cy="138.69175" r="3" />
	<circle cx="215" cy="137.96525" r="3" />
	<circle cx="215" cy="175.52875" r="3" />
	<circle cx="215" cy="192.646" r="3" />
	<circle cx="215" cy="156.43375" r="3" />
	<circle cx="215" cy="130.30125" r="3" />
	<circle cx="215" cy="166.30975" r="3" />
	<circle cx="215" cy="198.8105" r="3" />
	<circle cx="215" cy="219.803" r="3" />
	<circle cx="215" cy="219.92525" r="3" />
	<circle cx="215" cy="199.384" r="3" />
	<circle cx="215" cy="171.113" r="3" />
	<circle cx="215" cy="140.0475" r="3" />
	<circle cx="215" cy="177.49025" r="3" />
	<circle cx="215" cy="176.773" r="3" />
	<circle cx="225" cy="261.24225" r="3" />
	<circle cx="225" cy="164.2295" r="3" />
	<circle cx="225" cy="188.22325" r="3" />
	<circle cx="225" cy="215.686" r="3" />
	<circle cx="225" cy="205.532" r="3" />
	<circle cx="225" cy="175.03125" r="3" />
	<circle cx="225" cy="143.36625" r="3" />
	<circle cx="225" cy="172.95325" r="3" />
	<circle cx="225" cy="211.66125" r="3" />
	<circle cx="225" cy="220.85375" r="3" />
	<circle cx="225" cy="219.85825" r="3" />
	<circle cx="225" cy="205.722" r="3" />
	<circle cx="225" cy="184.1145" r="3" />
	<circle cx="225" cy="141.6065" r="3" />
	<circle cx="225" cy="127.17325" r="3" />
	<circle cx="225" cy="162.53925" r="3" />
	<circle cx="225" cy="202.1175" r="3" />
	<circle cx="225" cy="193.79825" r="3" />
	<circle cx="225" cy="156.7945" r="3" />
	<circle cx="225" cy="122.89925" r="3" />
	<circle cx="225" cy="129.379" r="3" />
	<circle cx="235" cy="257.1585" r="3" />
	<circle cx="235" cy="119.4635" r="3" />
	<circle cx="235" cy="190.55925" r="3" />
	<circle cx="235" cy="198.532" r="3" />
	<circle cx="235" cy="157.79625" r="3" />
	<circle cx="235" cy="252.52475" r="3" />
	<circle cx="235" cy="235.53075" r="3" />
	<circle cx="235" cy="211.132" r="3" />
	<circle cx="235" cy="153.909" r="3" />
	<circle cx="235" cy="150.3945" r="3" />
	<circle cx="235" cy="222.99475" r="3" />
	<circle cx="235" cy="230.81375" r="3" />
	<circle cx="235" cy="216.7495" r="3" />
	<circle cx="235" cy="178.5035" r="3" />
	<circle cx="235" cy="128.8325" r="3" />
	<circle cx="235" cy="111.07925" r="3" />
	<circle cx="235" cy="210.411" r="3" />
	<circle cx="235" cy="235.03125" r="3" />
	<circle cx="235" cy="240.4" r="3" />
	<circle cx="235" cy="236.2225" r="3" />
	<circle cx="235" cy="205.706" r="3" />
	<circle cx="235" cy="150.69475" r="3" />
	<circle cx="235" cy="122.454" r="3" />
	<circle cx="235" cy="120.833" r="3" />
	<circle cx="235" cy="105.77675" r="3" />
	<circle cx="235" cy="111.57325" r="3" />
	<circle cx="245" cy="255.4685" r="3" />
	<circle cx="245" cy="103.023" r="3" />
	<circle cx="245" cy="123.0075" r="3" />
	<circle cx="245" cy="159.88775" r="3" />
	<circle cx="245" cy="93.34375" r="3" />
	<circle cx="245" cy="75.452" r="3" />
	<circle cx="245" cy="72.67425" r="3" />
	<circle cx="245" cy="97.48075" r="3" />
	<circle cx="245" cy="120.94975" r="3" />
	<circle cx="245" cy="152.314" r="3" />
	<circle cx="245" cy="141.7525" r="3" />
	<circle cx="245" cy="94.1935" r="3" />
	<circle cx="245" cy="57.188" r="3" />
	<circle cx="245" cy="104.3575" r="3" />
	<circle cx="245" cy="140.65275" r="3" />
	<circle cx="245" cy="192.656" r="3" />
	<circle cx="245" cy="194.301" r="3" />
	<circle cx="245" cy="183.57625" r="3" />
	<circle cx="245" cy="136.0375" r="3" />
	<circle cx="245" cy="55.33775" r="3" />
	<circle cx="245" cy="87.77575" r="3" />
	<circle cx="245" cy="171.84975" r="3" />
	<circle cx="245" cy="180.64575" r="3" />
	<circle cx="245" cy="187.5345" r="3" />
	<circle cx="245" cy="153.63975" r="3" />
	<circle cx="245" cy="55.585" r="3" />
	<circle cx="245" cy="90.51325" r="3" />
	<circle cx="255" cy="253.8605" r="3" />
	<circle cx="255" cy="69.8465" r="3" />
	<circle cx="255" cy="86.9065" r="3" />
	<circle cx="255" cy="40.68625" r="3" />
	<circle cx="255" cy="77.297" r="3" />
	<circle cx="255" cy="116.83625" r="3" />
	<circle cx="255" cy="152.748" r="3" />
	<circle cx="255" cy="87.9015" r="3" />
	<circle cx="255" cy="84.953" r="3" />
	<circle cx="255" cy="64.17625" r="3" />
	<circle cx="255" cy="86.79275" r="3" />
	<circle cx="255" cy="128.5985" r="3" />
	<circle cx="255" cy="178.03125" r="3" />
	<circle cx="255" cy="200.3545" r="3" />
	<circle cx="255" cy="201.05825" r="3" />
	<circle cx="255" cy="138.85" r="3" />
	<circle cx="255" cy="66.68575" r="3" />
	<circle cx="255" cy="54.205" r="3" />
	<circle cx="255" cy="132.68275" r="3" />
	<circle cx="255" cy="146.87025" r="3" />
	<circle cx="255" cy="157.53175" r="3" />
	<circle cx="255" cy="68.748" r="3" />
	<circle cx="255" cy="58.71975" r="3" />
	<circle cx="265" cy="250.94425" r="3" />
	<circle cx="265" cy="47.793" r="3" />
	<circle cx="265" cy="92.4925" r="3" />
	<circle cx="265" cy="139.9105" r="3" />
	<circle cx="265" cy="136.99375" r="3" />
	<circle cx="265" cy="66.37325" r="3" />
	<circle cx="265" cy="163.74725" r="3" />
	<circle cx="265" cy="192.2765" r="3" />
	<circle cx="265" cy="158.972" r="3" />
	<circle cx="265" cy="135.01875" r="3" />
	<circle cx="265" cy="78.231" r="3" />
	<circle cx="265" cy="157.5145" r="3" />
	<circle cx="265" cy="208.72" r="3" />
	<circle cx="265" cy="202.92925" r="3" />
	<circle cx="265" cy="157.80275" r="3" />
	<circle cx="265" cy="94.84175" r="3" />
	<circle cx="265" cy="76.17625" r="3" />
	<circle cx="265" cy="98.19925" r="3" />
	<circle cx="265" cy="175.89775" r="3" />
	<circle cx="265" cy="186.573" r="3" />
	<circle cx="265" cy="144.0635" r="3" />
	<circle cx="265" cy="104.43025" r="3" />
	<circle cx="265" cy="55.078" r="3" />
	<circle cx="265" cy="66.69125" r="3" />
	<circle cx="265" cy="171.795" r="3" />
	<circle cx="265" cy="179.2515" r="3" />
	<circle cx="265" cy="164.07125" r="3" />
	<circle cx="265" cy="127.44575" r="3" />
	<circle cx="265" cy="65.9385" r="3" />
	<circle cx="265" cy="57.11425" r="3" />
	<circle cx="265" cy="136.88325" r="3" />
	<circle cx="265" cy="153.4295" r="3" />
	<circle cx="265" cy="182.08975" r="3" />
	<circle cx="265" cy="165.3335" r="3" />
	<circle cx="265" cy="77.7915" r="3" />
	<circle cx="265" cy="124.78725" r="3" />
	<circle cx="265" cy="155.70375" r="3" />
	<circle cx="265" cy="63.31575" r="3" />
	<circle cx="265" cy="137.78725" r="3" />
	<circle cx="265" cy="109.7925" r="3" />
	<circle cx="265" cy="105.0275" r="3" />
	<circle cx="275" cy="255.65" r="3" />
	<circle cx="275" cy="86.461" r="3" />
	<circle cx="275" cy="106.39675" r="3" />
	<circle cx="275" cy="19.07475" r="3" />
	<circle cx="275" cy="64.23925" r="3" />
	<circle cx="275" cy="152.99475" r="3" />
	<circle cx="275" cy="170.71" r="3" />
	<circle cx="275" cy="168.8285" r="3" />
	<circle cx="275" cy="132.05275" r="3" />
	<circle cx="275" cy="105.983" r="3" />
	<circle cx="275" cy="32.793" r="3" />
	<circle cx="275" cy="31.31475" r="3" />
	<circle cx="275" cy="165.9925" r="3" />
	<circle cx="275" cy="179.18325" r="3" />
	<circle cx="275" cy="118.54075" r="3" />
	<circle cx="275" cy="65.5435" r="3" />
	<circle cx="275" cy="128.87275" r="3" />
	<circle cx="275" cy="122.503" r="3" />
	<circle cx="275" cy="46.98925" r="3" />
	<circle cx="275" cy="38.6895" r="3" />
	<circle cx="275" cy="120.4475" r="3" /><!-- 
	Generated using the Perl SVG Module V2.36
	by Ronan Oger
	Info: http://www.roitsystems.com/
 -->
</svg>