<?xml version="1.0" encoding="UTF-8" standalone="yes"?>
<!DOCTYPE svg PUBLIC "-//W3C//DTD SVG 1.0//EN" "http://www.w3.org/TR/2001/REC-SVG-20010904/DTD/svg10.dtd">
<svg height="194" width="295" xmlns="http://www.w3.org/2000/svg" xmlns:xlink="http://www.w3.org/1999/xlink">
	<line style="stroke: blue; stroke-width: 1" x1="70" x2="280" y1="174" y2="174" />	<text text-anchor="end" x="70" y="174">0.00
	</text>
	<line style="stroke: blue; stroke-width: 1" x1="70" x2="280" y1="124" y2="124" />	<text text-anchor="end" x="70" y="124">0.02
	</text>
	<line style="stroke: blue; stroke-width: 1" x1="70" x2="280" y1="74" y2="74" />	<text text-anchor="end" x="70" y="74">0.04
	</text>
	<line style="stroke: blue; stroke-width: 1" x1="70" x2="280" y1="24" y2="24" />	<text text-anchor="end" x="70" y="24">0.06
	</text>
	<circle cx="75" cy="173.97" r="3" />
	<circle cx="75" cy="173.9775" r="3" />
	<circle cx="75" cy="173.9575" r="3" />
	<circle cx="75" cy="173.9625" r="3" />
	<circle cx="75" cy="173.955" r="3" />
	<circle cx="75" cy="173.9575" r="3" />
	<circle cx="75" cy="173.9575" r="3" />
	<circle cx="75" cy="173.9625" r="3" />
	<circle cx="75" cy="173.96" r="3" />
	<circle cx="75" cy="173.96" r="3" />
	<circle cx="75" cy="173.955" r="3" />
	<circle cx="75" cy="173.96" r="3" />
	<circle cx="75" cy="173.9575" r="3" />
	<circle cx="75" cy="173.9625" r="3" />
	<circle cx="75" cy="173.9575" r="3" />
	<circle cx="75" cy="173.9575" r="3" />
	<circle cx="75" cy="173.96" r="3" />
	<circle cx="75" cy="173.955" r="3" />
	<circle cx="75" cy="173.96" r="3" />
	<circle cx="75" cy="173.9575" r="3" />
	<circle cx="75" cy="173.96" r="3" />
	<circle cx="75" cy="173.955" r="3" />
	<circle cx="75" cy="173.9575" r="3" />
	<circle cx="75" cy="173.9575" r="3" />
	<circle cx="75" cy="173.96" r="3" />
	<circle cx="75" cy="173.96" r="3" />
	<circle cx="75" cy="173.96" r="3" />
	<circle cx="75" cy="173.9575" r="3" />
	<circle cx="75" cy="173.9525" r="3" />
	<circle cx="75" cy="173.9525" r="3" />
	<circle cx="75" cy="173.9525" r="3" />
	<circle cx="75" cy="173.96" r="3" />
	<circle cx="75" cy="173.965" r="3" />
	<circle cx="75" cy="173.9575" r="3" />
	<circle cx="75" cy="173.9575" r="3" />
	<circle cx="75" cy="173.9625" r="3" />
	<circle cx="85" cy="170.7525" r="3" />
	<circle cx="85" cy="170.33" r="3" />
	<circle cx="85" cy="171.3375" r="3" />
	<circle cx="85" cy="171.775" r="3" />
	<circle cx="85" cy="171.905" r="3" />
	<circle cx="85" cy="171.8825" r="3" />
	<circle cx="85" cy="171.8275" r="3" />
	<circle cx="85" cy="171.7575" r="3" />
	<circle cx="85" cy="171.585" r="3" />
	<circle cx="85" cy="171.545" r="3" />
	<circle cx="85" cy="171.47" r="3" />
	<circle cx="85" cy="171.7175" r="3" />
	<circle cx="85" cy="171.85" r="3" />
	<circle cx="85" cy="171.8725" r="3" />
	<circle cx="85" cy="171.7775" r="3" />
	<circle cx="85" cy="171.8" r="3" />
	<circle cx="85" cy="171.7" r="3" />
	<circle cx="85" cy="171.7625" r="3" />
	<circle cx="85" cy="171.7175" r="3" />
	<circle cx="85" cy="171.6275" r="3" />
	<circle cx="85" cy="171.5575" r="3" />
	<circle cx="85" cy="171.485" r="3" />
	<circle cx="85" cy="171.9575" r="3" />
	<circle cx="95" cy="172.22" r="3" />
	<circle cx="95" cy="170.8075" r="3" />
	<circle cx="95" cy="171.165" r="3" />
	<circle cx="95" cy="171.4325" r="3" />
	<circle cx="95" cy="171.5475" r="3" />
	<circle cx="95" cy="171.87" r="3" />
	<circle cx="95" cy="172.005" r="3" />
	<circle cx="95" cy="172.01" r="3" />
	<circle cx="95" cy="171.95" r="3" />
	<circle cx="95" cy="171.7575" r="3" />
	<circle cx="95" cy="171.6925" r="3" />
	<circle cx="95" cy="171.565" r="3" />
	<circle cx="95" cy="171.6075" r="3" />
	<circle cx="95" cy="171.6675" r="3" />
	<circle cx="95" cy="171.7875" r="3" />
	<circle cx="95" cy="171.84" r="3" />
	<circle cx="95" cy="171.7075" r="3" />
	<circle cx="95" cy="171.3" r="3" />
	<circle cx="95" cy="171.605" r="3" />
	<circle cx="95" cy="171.5925" r="3" />
	<circle cx="95" cy="171.64" r="3" />
	<circle cx="95" cy="171.735" r="3" />
	<circle cx="95" cy="171.915" r="3" />
	<circle cx="95" cy="171.8875" r="3" />
	<circle cx="95" cy="171.8525" r="3" />
	<circle cx="95" cy="171.28" r="3" />
	<circle cx="95" cy="171.565" r="3" />
	<circle cx="95" cy="171.5125" r="3" />
	<circle cx="95" cy="171.5075" r="3" />
	<circle cx="95" cy="171.015" r="3" />
	<circle cx="105" cy="171.3525" r="3" />
	<circle cx="105" cy="173.3275" r="3" />
	<circle cx="105" cy="171.195" r="3" />
	<circle cx="105" cy="171.05" r="3" />
	<circle cx="105" cy="171.1475" r="3" />
	<circle cx="105" cy="171.3675" r="3" />
	<circle cx="105" cy="171.5075" r="3" />
	<circle cx="105" cy="171.6625" r="3" />
	<circle cx="105" cy="171.595" r="3" />
	<circle cx="105" cy="173.4875" r="3" />
	<circle cx="105" cy="171.425" r="3" />
	<circle cx="105" cy="171.295" r="3" />
	<circle cx="105" cy="171.335" r="3" />
	<circle cx="105" cy="171.5225" r="3" />
	<circle cx="105" cy="171.6325" r="3" />
	<circle cx="105" cy="173.455" r="3" />
	<circle cx="105" cy="171.155" r="3" />
	<circle cx="105" cy="171.6" r="3" />
	<circle cx="105" cy="171.4775" r="3" />
	<circle cx="105" cy="171.385" r="3" />
	<circle cx="105" cy="171.0775" r="3" />
	<circle cx="105" cy="171.2425" r="3" />
	<circle cx="105" cy="170.8375" r="3" />
	<circle cx="105" cy="171.37" r="3" />
	<circle cx="105" cy="173.495" r="3" />
	<circle cx="115" cy="170.5875" r="3" />
	<circle cx="115" cy="171.2225" r="3" />
	<circle cx="115" cy="171.055" r="3" />
	<circle cx="115" cy="169.9875" r="3" />
	<circle cx="115" cy="171.19" r="3" />
	<circle cx="115" cy="170.675" r="3" />
	<circle cx="115" cy="171.29" r="3" />
	<circle cx="115" cy="170.945" r="3" />
	<circle cx="115" cy="171.1225" r="3" />
	<circle cx="115" cy="171.185" r="3" />
	<circle cx="115" cy="171.2575" r="3" />
	<circle cx="115" cy="171.3275" r="3" />
	<circle cx="115" cy="171.425" r="3" />
	<circle cx="115" cy="171.355" r="3" />
	<circle cx="115" cy="171.2425" r="3" />
	<circle cx="115" cy="170.9625" r="3" />
	<circle cx="115" cy="170.965" r="3" />
	<circle cx="115" cy="170.9875" r="3" />
	<circle cx="115" cy="171.055" r="3" />
	<circle cx="115" cy="171.0175" r="3" />
	<circle cx="115" cy="170.99" r="3" />
	<circle cx="115" cy="170.945" r="3" />
	<circle cx="115" cy="171.0275" r="3" />
	<circle cx="125" cy="169.5725" r="3" />
	<circle cx="125" cy="156.75" r="3" />
	<circle cx="125" cy="170.8825" r="3" />
	<circle cx="125" cy="170.7725" r="3" />
	<circle cx="125" cy="170.4825" r="3" />
	<circle cx="125" cy="171.0475" r="3" />
	<circle cx="125" cy="171.175" r="3" />
	<circle cx="125" cy="171.245" r="3" />
	<circle cx="125" cy="170.955" r="3" />
	<circle cx="125" cy="170.5725" r="3" />
	<circle cx="125" cy="170.7" r="3" />
	<circle cx="125" cy="170.71" r="3" />
	<circle cx="125" cy="170.975" r="3" />
	<circle cx="125" cy="170.945" r="3" />
	<circle cx="125" cy="170.745" r="3" />
	<circle cx="125" cy="170.6375" r="3" />
	<circle cx="125" cy="170.8025" r="3" />
	<circle cx="125" cy="170.8275" r="3" />
	<circle cx="125" cy="171.1225" r="3" />
	<circle cx="125" cy="171.035" r="3" />
	<circle cx="125" cy="170.98" r="3" />
	<circle cx="125" cy="170.5775" r="3" />
	<circle cx="125" cy="173.18" r="3" />
	<circle cx="125" cy="170.495" r="3" />
	<circle cx="135" cy="103.285" r="3" />
	<circle cx="135" cy="170.3325" r="3" />
	<circle cx="135" cy="170.635" r="3" />
	<circle cx="135" cy="170.62" r="3" />
	<circle cx="135" cy="170.8075" r="3" />
	<circle cx="135" cy="171.055" r="3" />
	<circle cx="135" cy="171.0225" r="3" />
	<circle cx="135" cy="170.9125" r="3" />
	<circle cx="135" cy="170.595" r="3" />
	<circle cx="135" cy="170.5575" r="3" />
	<circle cx="135" cy="170.7925" r="3" />
	<circle cx="135" cy="171.045" r="3" />
	<circle cx="135" cy="170.675" r="3" />
	<circle cx="135" cy="170.5825" r="3" />
	<circle cx="135" cy="170.5375" r="3" />
	<circle cx="135" cy="170.9975" r="3" />
	<circle cx="135" cy="171.04" r="3" />
	<circle cx="135" cy="170.9375" r="3" />
	<circle cx="135" cy="170.69" r="3" />
	<circle cx="135" cy="170.86" r="3" />
	<circle cx="135" cy="170.6175" r="3" />
	<circle cx="135" cy="170.5875" r="3" />
	<circle cx="135" cy="170.3025" r="3" />
	<circle cx="135" cy="170.6225" r="3" />
	<circle cx="145" cy="168.1275" r="3" />
	<circle cx="145" cy="170.525" r="3" />
	<circle cx="145" cy="170.3325" r="3" />
	<circle cx="145" cy="170.9175" r="3" />
	<circle cx="145" cy="170.6325" r="3" />
	<circle cx="145" cy="169.8675" r="3" />
	<circle cx="145" cy="170.445" r="3" />
	<circle cx="145" cy="170.38" r="3" />
	<circle cx="145" cy="170.6525" r="3" />
	<circle cx="145" cy="170.985" r="3" />
	<circle cx="145" cy="170.855" r="3" />
	<circle cx="145" cy="170.69" r="3" />
	<circle cx="145" cy="170.8425" r="3" />
	<circle cx="145" cy="170.8175" r="3" />
	<circle cx="145" cy="170.8575" r="3" />
	<circle cx="145" cy="170.645" r="3" />
	<circle cx="145" cy="170.6025" r="3" />
	<circle cx="145" cy="170.53" r="3" />
	<circle cx="145" cy="170.5425" r="3" />
	<circle cx="145" cy="170.6525" r="3" />
	<circle cx="145" cy="170.6425" r="3" />
	<circle cx="145" cy="172.89" r="3" />
	<circle cx="155" cy="139.885" r="3" />
	<circle cx="155" cy="169.745" r="3" />
	<circle cx="155" cy="170.4225" r="3" />
	<circle cx="155" cy="170.495" r="3" />
	<circle cx="155" cy="170.6625" r="3" />
	<circle cx="155" cy="170.875" r="3" />
	<circle cx="155" cy="170.61" r="3" />
	<circle cx="155" cy="170.675" r="3" />
	<circle cx="155" cy="170.69" r="3" />
	<circle cx="155" cy="170.8575" r="3" />
	<circle cx="155" cy="170.8075" r="3" />
	<circle cx="155" cy="172.58" r="3" />
	<circle cx="155" cy="170.685" r="3" />
	<circle cx="155" cy="170.7825" r="3" />
	<circle cx="155" cy="170.9925" r="3" />
	<circle cx="155" cy="170.8725" r="3" />
	<circle cx="155" cy="170.76" r="3" />
	<circle cx="155" cy="172.71" r="3" />
	<circle cx="155" cy="170.7975" r="3" />
	<circle cx="155" cy="170.7475" r="3" />
	<circle cx="155" cy="170.8125" r="3" />
	<circle cx="155" cy="170.6125" r="3" />
	<circle cx="155" cy="170.44" r="3" />
	<circle cx="155" cy="170.7825" r="3" />
	<circle cx="155" cy="172.7125" r="3" />
	<circle cx="155" cy="170.685" r="3" />
	<circle cx="155" cy="170.735" r="3" />
	<circle cx="155" cy="170.58" r="3" />
	<circle cx="155" cy="170.435" r="3" />
	<circle cx="155" cy="170.445" r="3" />
	<circle cx="165" cy="165.81" r="3" />
	<circle cx="165" cy="169.7425" r="3" />
	<circle cx="165" cy="170.51" r="3" />
	<circle cx="165" cy="170.4875" r="3" />
	<circle cx="165" cy="170.6225" r="3" />
	<circle cx="165" cy="170.6925" r="3" />
	<circle cx="165" cy="170.6375" r="3" />
	<circle cx="165" cy="170.425" r="3" />
	<circle cx="165" cy="170.4375" r="3" />
	<circle cx="165" cy="170.5925" r="3" />
	<circle cx="165" cy="170.4025" r="3" />
	<circle cx="165" cy="170.3725" r="3" />
	<circle cx="165" cy="170.5725" r="3" />
	<circle cx="165" cy="170.6275" r="3" />
	<circle cx="165" cy="170.6425" r="3" />
	<circle cx="165" cy="170.5875" r="3" />
	<circle cx="165" cy="170.425" r="3" />
	<circle cx="165" cy="170.3975" r="3" />
	<circle cx="165" cy="170.185" r="3" />
	<circle cx="175" cy="166.2675" r="3" />
	<circle cx="175" cy="170.81" r="3" />
	<circle cx="175" cy="170.2175" r="3" />
	<circle cx="175" cy="170.1225" r="3" />
	<circle cx="175" cy="170.4325" r="3" />
	<circle cx="175" cy="170.2925" r="3" />
	<circle cx="175" cy="170.0675" r="3" />
	<circle cx="175" cy="170.05" r="3" />
	<circle cx="175" cy="170.34" r="3" />
	<circle cx="175" cy="169.3325" r="3" />
	<circle cx="175" cy="170.25" r="3" />
	<circle cx="175" cy="170.18" r="3" />
	<circle cx="175" cy="170.12" r="3" />
	<circle cx="185" cy="165.02" r="3" />
	<circle cx="185" cy="172.4025" r="3" />
	<circle cx="185" cy="171.6875" r="3" />
	<circle cx="185" cy="168.8125" r="3" />
	<circle cx="185" cy="171.405" r="3" />
	<circle cx="185" cy="170.21" r="3" />
	<circle cx="185" cy="170.1075" r="3" />
	<circle cx="185" cy="169.815" r="3" />
	<circle cx="185" cy="169.7725" r="3" />
	<circle cx="185" cy="170.205" r="3" />
	<circle cx="185" cy="170.0975" r="3" />
	<circle cx="185" cy="169.8225" r="3" />
	<circle cx="185" cy="170.1375" r="3" />
	<circle cx="185" cy="170.2175" r="3" />
	<circle cx="185" cy="170.08" r="3" />
	<circle cx="185" cy="170.1225" r="3" />
	<circle cx="185" cy="170.115" r="3" />
	<circle cx="185" cy="170.1825" r="3" />
	<circle cx="185" cy="170.1775" r="3" />
	<circle cx="195" cy="133.9625" r="3" />
	<circle cx="195" cy="168.2275" r="3" />
	<circle cx="195" cy="172.16" r="3" />
	<circle cx="195" cy="171.4775" r="3" />
	<circle cx="195" cy="172.165" r="3" />
	<circle cx="195" cy="169.72" r="3" />
	<circle cx="195" cy="169.475" r="3" />
	<circle cx="195" cy="169.085" r="3" />
	<circle cx="195" cy="170.1675" r="3" />
	<circle cx="195" cy="169.055" r="3" />
	<circle cx="195" cy="171.2" r="3" />
	<circle cx="195" cy="170.1325" r="3" />
	<circle cx="195" cy="169.8475" r="3" />
	<circle cx="195" cy="172.1525" r="3" />
	<circle cx="195" cy="169.82" r="3" />
	<circle cx="195" cy="170.0525" r="3" />
	<circle cx="195" cy="170.245" r="3" />
	<circle cx="195" cy="170.185" r="3" />
	<circle cx="195" cy="170.055" r="3" />
	<circle cx="195" cy="170.0075" r="3" />
	<circle cx="195" cy="172.155" r="3" />
	<circle cx="195" cy="169.9975" r="3" />
	<circle cx="195" cy="169.925" r="3" />
	<circle cx="205" cy="138.1825" r="3" />
	<circle cx="205" cy="168.7375" r="3" />
	<circle cx="205" cy="169.9" r="3" />
	<circle cx="205" cy="169.955" r="3" />
	<circle cx="205" cy="168.965" r="3" />
	<circle cx="205" cy="169.6625" r="3" />
	<circle cx="205" cy="169.7025" r="3" />
	<circle cx="205" cy="169.2625" r="3" />
	<circle cx="205" cy="169.8825" r="3" />
	<circle cx="205" cy="169.94" r="3" />
	<circle cx="205" cy="170" r="3" />
	<circle cx="205" cy="169.8825" r="3" />
	<circle cx="205" cy="169.7625" r="3" />
	<circle cx="205" cy="169.445" r="3" />
	<circle cx="205" cy="169.775" r="3" />
	<circle cx="205" cy="169.7475" r="3" />
	<circle cx="215" cy="162.8" r="3" />
	<circle cx="215" cy="168.5275" r="3" />
	<circle cx="215" cy="169.465" r="3" />
	<circle cx="215" cy="169.67" r="3" />
	<circle cx="215" cy="164.9575" r="3" />
	<circle cx="215" cy="169.865" r="3" />
	<circle cx="215" cy="168.69" r="3" />
	<circle cx="215" cy="169.5075" r="3" />
	<circle cx="215" cy="169.24" r="3" />
	<circle cx="215" cy="169.605" r="3" />
	<circle cx="215" cy="169.585" r="3" />
	<circle cx="215" cy="169.4975" r="3" />
	<circle cx="215" cy="169.66" r="3" />
	<circle cx="215" cy="168.54" r="3" />
	<circle cx="215" cy="169.36" r="3" />
	<circle cx="215" cy="169.3875" r="3" />
	<circle cx="225" cy="161.3975" r="3" />
	<circle cx="225" cy="168.355" r="3" />
	<circle cx="225" cy="169.475" r="3" />
	<circle cx="225" cy="169.575" r="3" />
	<circle cx="225" cy="169.5125" r="3" />
	<circle cx="225" cy="169.4525" r="3" />
	<circle cx="225" cy="169.4575" r="3" />
	<circle cx="225" cy="169.455" r="3" />
	<circle cx="225" cy="169.27" r="3" />
	<circle cx="225" cy="169.5475" r="3" />
	<circle cx="225" cy="169.46" r="3" />
	<circle cx="225" cy="169.14" r="3" />
	<circle cx="225" cy="169.4475" r="3" />
	<circle cx="235" cy="92.0025" r="3" />
	<circle cx="235" cy="167.06" r="3" />
	<circle cx="235" cy="169.3725" r="3" />
	<circle cx="235" cy="169.395" r="3" />
	<circle cx="235" cy="169.3325" r="3" />
	<circle cx="235" cy="169.195" r="3" />
	<circle cx="235" cy="169.485" r="3" />
	<circle cx="235" cy="169.385" r="3" />
	<circle cx="235" cy="169.34" r="3" />
	<circle cx="235" cy="169.3025" r="3" />
	<circle cx="235" cy="169.6225" r="3" />
	<circle cx="235" cy="169.39" r="3" />
	<circle cx="235" cy="169.2125" r="3" />
	<circle cx="235" cy="169.2125" r="3" />
	<circle cx="235" cy="169.0425" r="3" />
	<circle cx="235" cy="169.2175" r="3" />
	<circle cx="245" cy="101.1175" r="3" />
	<circle cx="245" cy="170.6875" r="3" />
	<circle cx="245" cy="166.16" r="3" />
	<circle cx="245" cy="169.335" r="3" />
	<circle cx="245" cy="169.22" r="3" />
	<circle cx="245" cy="169.18" r="3" />
	<circle cx="245" cy="169.515" r="3" />
	<circle cx="245" cy="168.9325" r="3" />
	<circle cx="245" cy="171.5875" r="3" />
	<circle cx="245" cy="169.365" r="3" />
	<circle cx="245" cy="169.295" r="3" />
	<circle cx="245" cy="169.0775" r="3" />
	<circle cx="245" cy="169.22" r="3" />
	<circle cx="245" cy="169.1725" r="3" />
	<circle cx="245" cy="169.165" r="3" />
	<circle cx="245" cy="171.5675" r="3" />
	<circle cx="245" cy="169.48" r="3" />
	<circle cx="245" cy="169.4" r="3" />
	<circle cx="245" cy="169.0525" r="3" />
	<circle cx="245" cy="169.0975" r="3" />
	<circle cx="245" cy="169.2025" r="3" />
	<circle cx="255" cy="140.4125" r="3" />
	<circle cx="255" cy="167.0625" r="3" />
	<circle cx="255" cy="168.895" r="3" />
	<circle cx="255" cy="168.9475" r="3" />
	<circle cx="255" cy="169.08" r="3" />
	<circle cx="255" cy="169.005" r="3" />
	<circle cx="255" cy="168.655" r="3" />
	<circle cx="255" cy="169.4075" r="3" />
	<circle cx="255" cy="169.3075" r="3" />
	<circle cx="255" cy="169.0425" r="3" />
	<circle cx="255" cy="169.01" r="3" />
	<circle cx="255" cy="169.11" r="3" />
	<circle cx="255" cy="168.925" r="3" />
	<circle cx="255" cy="168.945" r="3" />
	<circle cx="255" cy="169.0175" r="3" />
	<circle cx="265" cy="161.1425" r="3" />
	<circle cx="265" cy="170.275" r="3" />
	<circle cx="265" cy="168.13" r="3" />
	<circle cx="265" cy="168.1675" r="3" />
	<circle cx="265" cy="168.7375" r="3" />
	<circle cx="265" cy="168.825" r="3" />
	<circle cx="265" cy="168.91" r="3" />
	<circle cx="265" cy="168.78" r="3" />
	<circle cx="265" cy="168.8225" r="3" />
	<circle cx="265" cy="168.995" r="3" />
	<circle cx="265" cy="168.78" r="3" />
	<circle cx="265" cy="82.07" r="3" />
	<circle cx="265" cy="168.72" r="3" />
	<circle cx="265" cy="168.6075" r="3" />
	<circle cx="265" cy="168.55" r="3" />
	<circle cx="275" cy="19.59" r="3" />
	<circle cx="275" cy="167.225" r="3" />
	<circle cx="275" cy="168.77" r="3" />
	<circle cx="275" cy="168.8525" r="3" />
	<circle cx="275" cy="168.6825" r="3" />
	<circle cx="275" cy="169.005" r="3" />
	<circle cx="275" cy="169.225" r="3" />
	<circle cx="275" cy="169.1375" r="3" />
	<circle cx="275" cy="168.9725" r="3" />
	<circle cx="275" cy="169.1575" r="3" />
	<circle cx="275" cy="169.2225" r="3" />
	<circle cx="275" cy="169.0075" r="3" />
	<circle cx="275" cy="168.755" r="3" />
	<circle cx="275" cy="168.7075" r="3" />
	<circle cx="275" cy="169.1625" r="3" />
	<circle cx="275" cy="169.1275" r="3" />
	<circle cx="275" cy="169.065" r="3" />
	<circle cx="275" cy="168.7675" r="3" />
	<circle cx="275" cy="168.75" r="3" />
	<circle cx="275" cy="168.915" r="3" />
	<circle cx="275" cy="168.8925" r="3" />
	<circle cx="275" cy="167.3575" r="3" />
	<circle cx="275" cy="168.755" r="3" />
	<circle cx="275" cy="168.22" r="3" /><!-- 
	Generated using the Perl SVG Module V2.36
	by Ronan Oger
	Info: http://www.roitsystems.com/
 -->
</svg>