<?xml version="1.0" encoding="UTF-8" standalone="yes"?>
<!DOCTYPE svg PUBLIC "-//W3C//DTD SVG 1.0//EN" "http://www.w3.org/TR/2001/REC-SVG-20010904/DTD/svg10.dtd">
<svg height="195" width="295" xmlns="http://www.w3.org/2000/svg" xmlns:xlink="http://www.w3.org/1999/xlink">
	<line style="stroke: blue; stroke-width: 1" x1="70" x2="280" y1="175" y2="175" />	<text text-anchor="end" x="70" y="175">0.00
	</text>
	<line style="stroke: blue; stroke-width: 1" x1="70" x2="280" y1="125" y2="125" />	<text text-anchor="end" x="70" y="125">0.10
	</text>
	<line style="stroke: blue; stroke-width: 1" x1="70" x2="280" y1="75" y2="75" />	<text text-anchor="end" x="70" y="75">0.20
	</text>
	<line style="stroke: blue; stroke-width: 1" x1="70" x2="280" y1="25" y2="25" />	<text text-anchor="end" x="70" y="25">0.30
	</text>
	<circle cx="75" cy="174.993" r="3" />
	<circle cx="75" cy="174.997" r="3" />
	<circle cx="75" cy="174.997" r="3" />
	<circle cx="75" cy="174.9935" r="3" />
	<circle cx="75" cy="174.994" r="3" />
	<circle cx="75" cy="174.9935" r="3" />
	<circle cx="75" cy="174.994" r="3" />
	<circle cx="75" cy="174.9935" r="3" />
	<circle cx="75" cy="174.9945" r="3" />
	<circle cx="75" cy="174.9945" r="3" />
	<circle cx="75" cy="174.9925" r="3" />
	<circle cx="75" cy="174.9935" r="3" />
	<circle cx="75" cy="174.995" r="3" />
	<circle cx="75" cy="174.994" r="3" />
	<circle cx="75" cy="174.995" r="3" />
	<circle cx="75" cy="174.9945" r="3" />
	<circle cx="75" cy="174.9955" r="3" />
	<circle cx="75" cy="174.9945" r="3" />
	<circle cx="75" cy="174.9945" r="3" />
	<circle cx="75" cy="174.995" r="3" />
	<circle cx="75" cy="174.994" r="3" />
	<circle cx="75" cy="174.994" r="3" />
	<circle cx="75" cy="174.9945" r="3" />
	<circle cx="75" cy="174.995" r="3" />
	<circle cx="75" cy="174.9945" r="3" />
	<circle cx="85" cy="170.963" r="3" />
	<circle cx="85" cy="172.507" r="3" />
	<circle cx="85" cy="170.832" r="3" />
	<circle cx="85" cy="171.981" r="3" />
	<circle cx="85" cy="172.532" r="3" />
	<circle cx="85" cy="172.5175" r="3" />
	<circle cx="85" cy="172.475" r="3" />
	<circle cx="85" cy="172.4655" r="3" />
	<circle cx="85" cy="168.8495" r="3" />
	<circle cx="85" cy="170.142" r="3" />
	<circle cx="85" cy="172.5475" r="3" />
	<circle cx="85" cy="171.5185" r="3" />
	<circle cx="85" cy="172.4695" r="3" />
	<circle cx="85" cy="172.48" r="3" />
	<circle cx="85" cy="162.0265" r="3" />
	<circle cx="85" cy="169.4135" r="3" />
	<circle cx="85" cy="172.4465" r="3" />
	<circle cx="85" cy="172.4895" r="3" />
	<circle cx="85" cy="172.106" r="3" />
	<circle cx="85" cy="172.4855" r="3" />
	<circle cx="85" cy="170.79" r="3" />
	<circle cx="85" cy="172.4575" r="3" />
	<circle cx="85" cy="172.3965" r="3" />
	<circle cx="85" cy="172.433" r="3" />
	<circle cx="95" cy="165.7525" r="3" />
	<circle cx="95" cy="168.288" r="3" />
	<circle cx="95" cy="170.3395" r="3" />
	<circle cx="95" cy="165.4495" r="3" />
	<circle cx="95" cy="170.2595" r="3" />
	<circle cx="95" cy="170.444" r="3" />
	<circle cx="95" cy="170.445" r="3" />
	<circle cx="95" cy="170.351" r="3" />
	<circle cx="95" cy="170.3165" r="3" />
	<circle cx="95" cy="170.3125" r="3" />
	<circle cx="95" cy="170.3535" r="3" />
	<circle cx="95" cy="163.3605" r="3" />
	<circle cx="95" cy="168.377" r="3" />
	<circle cx="95" cy="168.536" r="3" />
	<circle cx="95" cy="170.3035" r="3" />
	<circle cx="95" cy="169.928" r="3" />
	<circle cx="95" cy="170.353" r="3" />
	<circle cx="95" cy="170.3775" r="3" />
	<circle cx="105" cy="168.761" r="3" />
	<circle cx="105" cy="155.2085" r="3" />
	<circle cx="105" cy="168.1535" r="3" />
	<circle cx="105" cy="168.36" r="3" />
	<circle cx="105" cy="162.9435" r="3" />
	<circle cx="105" cy="163.346" r="3" />
	<circle cx="105" cy="168.1635" r="3" />
	<circle cx="105" cy="156.6305" r="3" />
	<circle cx="105" cy="168.227" r="3" />
	<circle cx="105" cy="168.293" r="3" />
	<circle cx="105" cy="160.584" r="3" />
	<circle cx="105" cy="168.323" r="3" />
	<circle cx="105" cy="163.8735" r="3" />
	<circle cx="105" cy="164.2785" r="3" />
	<circle cx="105" cy="160.5175" r="3" />
	<circle cx="105" cy="168.218" r="3" />
	<circle cx="105" cy="168.319" r="3" />
	<circle cx="105" cy="160.093" r="3" />
	<circle cx="115" cy="154.846" r="3" />
	<circle cx="115" cy="154.536" r="3" />
	<circle cx="115" cy="166.038" r="3" />
	<circle cx="115" cy="153.6395" r="3" />
	<circle cx="115" cy="166.2755" r="3" />
	<circle cx="115" cy="166.0255" r="3" />
	<circle cx="115" cy="166.071" r="3" />
	<circle cx="115" cy="155.147" r="3" />
	<circle cx="115" cy="165.801" r="3" />
	<circle cx="115" cy="166.3225" r="3" />
	<circle cx="115" cy="165.853" r="3" />
	<circle cx="115" cy="166.2065" r="3" />
	<circle cx="115" cy="166.1535" r="3" />
	<circle cx="115" cy="166.1" r="3" />
	<circle cx="115" cy="166.292" r="3" />
	<circle cx="115" cy="164.8845" r="3" />
	<circle cx="115" cy="153.4275" r="3" />
	<circle cx="115" cy="166.1045" r="3" />
	<circle cx="115" cy="156.1855" r="3" />
	<circle cx="115" cy="166.199" r="3" />
	<circle cx="115" cy="166.332" r="3" />
	<circle cx="115" cy="166.306" r="3" />
	<circle cx="115" cy="165.861" r="3" />
	<circle cx="115" cy="166.1235" r="3" />
	<circle cx="115" cy="156.945" r="3" />
	<circle cx="115" cy="166.272" r="3" />
	<circle cx="125" cy="163.131" r="3" />
	<circle cx="125" cy="162.484" r="3" />
	<circle cx="125" cy="164.0935" r="3" />
	<circle cx="125" cy="153.7705" r="3" />
	<circle cx="125" cy="146.8" r="3" />
	<circle cx="125" cy="148.101" r="3" />
	<circle cx="125" cy="147.5195" r="3" />
	<circle cx="125" cy="164.163" r="3" />
	<circle cx="125" cy="155.6" r="3" />
	<circle cx="125" cy="164.033" r="3" />
	<circle cx="125" cy="159.4095" r="3" />
	<circle cx="125" cy="152.983" r="3" />
	<circle cx="125" cy="146.755" r="3" />
	<circle cx="125" cy="156.6855" r="3" />
	<circle cx="125" cy="150.883" r="3" />
	<circle cx="125" cy="162.6185" r="3" />
	<circle cx="125" cy="151.1395" r="3" />
	<circle cx="135" cy="144.0605" r="3" />
	<circle cx="135" cy="138.8245" r="3" />
	<circle cx="135" cy="141.918" r="3" />
	<circle cx="135" cy="146.0305" r="3" />
	<circle cx="135" cy="162.174" r="3" />
	<circle cx="135" cy="143.2065" r="3" />
	<circle cx="135" cy="140.9215" r="3" />
	<circle cx="135" cy="140.3755" r="3" />
	<circle cx="135" cy="161.6855" r="3" />
	<circle cx="135" cy="161.951" r="3" />
	<circle cx="135" cy="145.261" r="3" />
	<circle cx="135" cy="150.324" r="3" />
	<circle cx="135" cy="161.967" r="3" />
	<circle cx="135" cy="162.1685" r="3" />
	<circle cx="135" cy="162.0925" r="3" />
	<circle cx="145" cy="136.692" r="3" />
	<circle cx="145" cy="134.026" r="3" />
	<circle cx="145" cy="134.0375" r="3" />
	<circle cx="145" cy="137.998" r="3" />
	<circle cx="145" cy="148.8455" r="3" />
	<circle cx="145" cy="135.2245" r="3" />
	<circle cx="145" cy="142.5745" r="3" />
	<circle cx="145" cy="132.991" r="3" />
	<circle cx="145" cy="143.6185" r="3" />
	<circle cx="145" cy="138.629" r="3" />
	<circle cx="145" cy="152.019" r="3" />
	<circle cx="145" cy="160.04" r="3" />
	<circle cx="145" cy="135.5875" r="3" />
	<circle cx="145" cy="160.0725" r="3" />
	<circle cx="145" cy="142.4025" r="3" />
	<circle cx="155" cy="127.4365" r="3" />
	<circle cx="155" cy="130.0745" r="3" />
	<circle cx="155" cy="129.1655" r="3" />
	<circle cx="155" cy="135.771" r="3" />
	<circle cx="155" cy="141.7895" r="3" />
	<circle cx="155" cy="126.884" r="3" />
	<circle cx="155" cy="133.8665" r="3" />
	<circle cx="155" cy="156.4595" r="3" />
	<circle cx="155" cy="137.6155" r="3" />
	<circle cx="155" cy="150.717" r="3" />
	<circle cx="155" cy="128.0565" r="3" />
	<circle cx="155" cy="135.517" r="3" />
	<circle cx="165" cy="123.6405" r="3" />
	<circle cx="165" cy="144.298" r="3" />
	<circle cx="165" cy="137.3075" r="3" />
	<circle cx="165" cy="131.564" r="3" />
	<circle cx="165" cy="138.857" r="3" />
	<circle cx="165" cy="123.595" r="3" />
	<circle cx="165" cy="127.028" r="3" />
	<circle cx="165" cy="139.5365" r="3" />
	<circle cx="165" cy="133.094" r="3" />
	<circle cx="165" cy="125.247" r="3" />
	<circle cx="165" cy="125.8665" r="3" />
	<circle cx="165" cy="131.697" r="3" />
	<circle cx="165" cy="119.4625" r="3" />
	<circle cx="165" cy="126.8655" r="3" />
	<circle cx="165" cy="125.348" r="3" />
	<circle cx="165" cy="139.413" r="3" />
	<circle cx="165" cy="124.207" r="3" />
	<circle cx="165" cy="136.833" r="3" />
	<circle cx="165" cy="129.6215" r="3" />
	<circle cx="175" cy="112.5055" r="3" />
	<circle cx="175" cy="126.188" r="3" />
	<circle cx="175" cy="135.9575" r="3" />
	<circle cx="175" cy="134.2805" r="3" />
	<circle cx="175" cy="128.5755" r="3" />
	<circle cx="175" cy="114.224" r="3" />
	<circle cx="175" cy="122.5985" r="3" />
	<circle cx="175" cy="127.884" r="3" />
	<circle cx="175" cy="129.2845" r="3" />
	<circle cx="175" cy="129.471" r="3" />
	<circle cx="175" cy="131.515" r="3" />
	<circle cx="175" cy="120.919" r="3" />
	<circle cx="175" cy="119.854" r="3" />
	<circle cx="175" cy="136.328" r="3" />
	<circle cx="175" cy="141.8535" r="3" />
	<circle cx="185" cy="114.605" r="3" />
	<circle cx="185" cy="123.608" r="3" />
	<circle cx="185" cy="113.16" r="3" />
	<circle cx="185" cy="151.046" r="3" />
	<circle cx="185" cy="132.521" r="3" />
	<circle cx="185" cy="127.5155" r="3" />
	<circle cx="185" cy="124.1905" r="3" />
	<circle cx="185" cy="116.4815" r="3" />
	<circle cx="185" cy="115.5215" r="3" />
	<circle cx="185" cy="114.891" r="3" />
	<circle cx="185" cy="117.592" r="3" />
	<circle cx="185" cy="121.5785" r="3" />
	<circle cx="185" cy="131.5605" r="3" />
	<circle cx="185" cy="127.077" r="3" />
	<circle cx="185" cy="116.2775" r="3" />
	<circle cx="185" cy="108.253" r="3" />
	<circle cx="185" cy="114.26" r="3" />
	<circle cx="185" cy="116.604" r="3" />
	<circle cx="185" cy="115.3445" r="3" />
	<circle cx="185" cy="125.7395" r="3" />
	<circle cx="185" cy="128.7685" r="3" />
	<circle cx="185" cy="97.891" r="3" />
	<circle cx="185" cy="129.2435" r="3" />
	<circle cx="195" cy="118.166" r="3" />
	<circle cx="195" cy="103.231" r="3" />
	<circle cx="195" cy="132.218" r="3" />
	<circle cx="195" cy="107.9295" r="3" />
	<circle cx="195" cy="105.7365" r="3" />
	<circle cx="195" cy="127.8495" r="3" />
	<circle cx="195" cy="109.3995" r="3" />
	<circle cx="195" cy="120.7505" r="3" />
	<circle cx="195" cy="115.842" r="3" />
	<circle cx="195" cy="104.1385" r="3" />
	<circle cx="195" cy="107.616" r="3" />
	<circle cx="195" cy="106.623" r="3" />
	<circle cx="205" cy="94.661" r="3" />
	<circle cx="205" cy="88.531" r="3" />
	<circle cx="205" cy="112.561" r="3" />
	<circle cx="205" cy="98.853" r="3" />
	<circle cx="205" cy="104.647" r="3" />
	<circle cx="205" cy="108.9295" r="3" />
	<circle cx="205" cy="117.0515" r="3" />
	<circle cx="205" cy="120.553" r="3" />
	<circle cx="205" cy="106.8465" r="3" />
	<circle cx="215" cy="94.8055" r="3" />
	<circle cx="215" cy="92.6425" r="3" />
	<circle cx="215" cy="98.3555" r="3" />
	<circle cx="215" cy="98.985" r="3" />
	<circle cx="215" cy="110.858" r="3" />
	<circle cx="215" cy="94.5" r="3" />
	<circle cx="215" cy="96.3565" r="3" />
	<circle cx="215" cy="105.6945" r="3" />
	<circle cx="215" cy="94.522" r="3" />
	<circle cx="225" cy="88.4865" r="3" />
	<circle cx="225" cy="91.8155" r="3" />
	<circle cx="225" cy="97.135" r="3" />
	<circle cx="225" cy="88.7035" r="3" />
	<circle cx="225" cy="98.4695" r="3" />
	<circle cx="225" cy="96.376" r="3" />
	<circle cx="225" cy="87.699" r="3" />
	<circle cx="225" cy="99.4665" r="3" />
	<circle cx="225" cy="96.9215" r="3" />
	<circle cx="225" cy="98.241" r="3" />
	<circle cx="225" cy="94.4745" r="3" />
	<circle cx="235" cy="83.846" r="3" />
	<circle cx="235" cy="83.7005" r="3" />
	<circle cx="235" cy="100.7235" r="3" />
	<circle cx="235" cy="84.199" r="3" />
	<circle cx="235" cy="90.908" r="3" />
	<circle cx="235" cy="90.2495" r="3" />
	<circle cx="235" cy="85.173" r="3" />
	<circle cx="235" cy="83.573" r="3" />
	<circle cx="235" cy="95.6425" r="3" />
	<circle cx="235" cy="86.094" r="3" />
	<circle cx="235" cy="84.7445" r="3" />
	<circle cx="235" cy="90.5955" r="3" />
	<circle cx="235" cy="92.2645" r="3" />
	<circle cx="235" cy="64.339" r="3" />
	<circle cx="235" cy="86.253" r="3" />
	<circle cx="245" cy="70.007" r="3" />
	<circle cx="245" cy="73.689" r="3" />
	<circle cx="245" cy="90.9" r="3" />
	<circle cx="245" cy="73.664" r="3" />
	<circle cx="245" cy="74.3285" r="3" />
	<circle cx="245" cy="85.066" r="3" />
	<circle cx="245" cy="80.3335" r="3" />
	<circle cx="245" cy="77.3075" r="3" />
	<circle cx="245" cy="78.8005" r="3" />
	<circle cx="245" cy="89.198" r="3" />
	<circle cx="245" cy="83.548" r="3" />
	<circle cx="255" cy="66.63" r="3" />
	<circle cx="255" cy="66.9815" r="3" />
	<circle cx="255" cy="75.594" r="3" />
	<circle cx="255" cy="72.449" r="3" />
	<circle cx="255" cy="74.4475" r="3" />
	<circle cx="255" cy="71.1925" r="3" />
	<circle cx="255" cy="69.6795" r="3" />
	<circle cx="255" cy="74.6085" r="3" />
	<circle cx="255" cy="73.0755" r="3" />
	<circle cx="255" cy="73.1525" r="3" />
	<circle cx="255" cy="65.0615" r="3" />
	<circle cx="265" cy="49.4815" r="3" />
	<circle cx="265" cy="60.039" r="3" />
	<circle cx="265" cy="61.102" r="3" />
	<circle cx="265" cy="64.7715" r="3" />
	<circle cx="265" cy="69.2605" r="3" />
	<circle cx="265" cy="63.4325" r="3" />
	<circle cx="265" cy="64.0625" r="3" />
	<circle cx="265" cy="66.5345" r="3" />
	<circle cx="265" cy="75.656" r="3" />
	<circle cx="265" cy="69.0105" r="3" />
	<circle cx="265" cy="64.2875" r="3" />
	<circle cx="265" cy="67.4885" r="3" />
	<circle cx="275" cy="49.018" r="3" />
	<circle cx="275" cy="64.7205" r="3" />
	<circle cx="275" cy="62.9895" r="3" />
	<circle cx="275" cy="77.8835" r="3" />
	<circle cx="275" cy="63.931" r="3" />
	<circle cx="275" cy="64.0715" r="3" />
	<circle cx="275" cy="56.9045" r="3" />
	<circle cx="275" cy="60.227" r="3" />
	<circle cx="275" cy="54.0745" r="3" />
	<circle cx="275" cy="62.1515" r="3" />
	<circle cx="275" cy="90.617" r="3" />
	<circle cx="275" cy="67.317" r="3" />
	<circle cx="275" cy="19.138" r="3" /><!-- 
	Generated using the Perl SVG Module V2.36
	by Ronan Oger
	Info: http://www.roitsystems.com/
 -->
</svg>