<?xml version="1.0" encoding="UTF-8" standalone="yes"?>
<!DOCTYPE svg PUBLIC "-//W3C//DTD SVG 1.0//EN" "http://www.w3.org/TR/2001/REC-SVG-20010904/DTD/svg10.dtd">
<svg height="170" width="295" xmlns="http://www.w3.org/2000/svg" xmlns:xlink="http://www.w3.org/1999/xlink">
	<line style="stroke: blue; stroke-width: 1" x1="70" x2="280" y1="150" y2="150" />	<text text-anchor="end" x="70" y="150">0.00
	</text>
	<line style="stroke: blue; stroke-width: 1" x1="70" x2="280" y1="100" y2="100" />	<text text-anchor="end" x="70" y="100">1.00
	</text>
	<line style="stroke: blue; stroke-width: 1" x1="70" x2="280" y1="50" y2="50" />	<text text-anchor="end" x="70" y="50">2.00
	</text>
	<circle cx="75" cy="149.9993" r="3" />
	<circle cx="75" cy="149.9998" r="3" />
	<circle cx="75" cy="149.9997" r="3" />
	<circle cx="75" cy="149.99935" r="3" />
	<circle cx="75" cy="149.99935" r="3" />
	<circle cx="75" cy="149.99925" r="3" />
	<circle cx="75" cy="149.9995" r="3" />
	<circle cx="75" cy="149.99945" r="3" />
	<circle cx="75" cy="149.9995" r="3" />
	<circle cx="75" cy="149.99935" r="3" />
	<circle cx="75" cy="149.99935" r="3" />
	<circle cx="75" cy="149.99935" r="3" />
	<circle cx="75" cy="149.99945" r="3" />
	<circle cx="75" cy="149.99935" r="3" />
	<circle cx="75" cy="149.9994" r="3" />
	<circle cx="75" cy="149.9995" r="3" />
	<circle cx="75" cy="149.9995" r="3" />
	<circle cx="75" cy="149.9994" r="3" />
	<circle cx="75" cy="149.99945" r="3" />
	<circle cx="75" cy="149.9994" r="3" />
	<circle cx="75" cy="149.9994" r="3" />
	<circle cx="85" cy="147.7055" r="3" />
	<circle cx="85" cy="146.9453" r="3" />
	<circle cx="85" cy="147.1622" r="3" />
	<circle cx="85" cy="147.8787" r="3" />
	<circle cx="85" cy="147.83485" r="3" />
	<circle cx="85" cy="147.86705" r="3" />
	<circle cx="85" cy="147.0549" r="3" />
	<circle cx="85" cy="147.1431" r="3" />
	<circle cx="85" cy="147.3974" r="3" />
	<circle cx="85" cy="147.8553" r="3" />
	<circle cx="85" cy="146.57645" r="3" />
	<circle cx="85" cy="146.7138" r="3" />
	<circle cx="85" cy="147.8642" r="3" />
	<circle cx="85" cy="144.7387" r="3" />
	<circle cx="85" cy="147.8178" r="3" />
	<circle cx="85" cy="147.81095" r="3" />
	<circle cx="95" cy="145.3503" r="3" />
	<circle cx="95" cy="144.06845" r="3" />
	<circle cx="95" cy="144.90255" r="3" />
	<circle cx="95" cy="145.76975" r="3" />
	<circle cx="95" cy="145.7624" r="3" />
	<circle cx="95" cy="144.521" r="3" />
	<circle cx="95" cy="145.52015" r="3" />
	<circle cx="95" cy="145.75985" r="3" />
	<circle cx="95" cy="145.78955" r="3" />
	<circle cx="95" cy="145.2972" r="3" />
	<circle cx="95" cy="145.61705" r="3" />
	<circle cx="95" cy="145.10585" r="3" />
	<circle cx="95" cy="145.6889" r="3" />
	<circle cx="95" cy="145.71645" r="3" />
	<circle cx="95" cy="145.2707" r="3" />
	<circle cx="105" cy="142.8074" r="3" />
	<circle cx="105" cy="141.28275" r="3" />
	<circle cx="105" cy="139.49895" r="3" />
	<circle cx="105" cy="142.4368" r="3" />
	<circle cx="105" cy="143.6448" r="3" />
	<circle cx="105" cy="142.8398" r="3" />
	<circle cx="105" cy="140.6362" r="3" />
	<circle cx="105" cy="142.2774" r="3" />
	<circle cx="105" cy="143.18375" r="3" />
	<circle cx="105" cy="143.0498" r="3" />
	<circle cx="105" cy="143.73115" r="3" />
	<circle cx="105" cy="142.9921" r="3" />
	<circle cx="105" cy="143.57265" r="3" />
	<circle cx="115" cy="137.1797" r="3" />
	<circle cx="115" cy="137.025" r="3" />
	<circle cx="115" cy="138.58935" r="3" />
	<circle cx="115" cy="138.8292" r="3" />
	<circle cx="115" cy="138.02495" r="3" />
	<circle cx="115" cy="138.40145" r="3" />
	<circle cx="115" cy="138.6976" r="3" />
	<circle cx="115" cy="138.5221" r="3" />
	<circle cx="115" cy="137.94245" r="3" />
	<circle cx="115" cy="126.73415" r="3" />
	<circle cx="115" cy="138.05685" r="3" />
	<circle cx="125" cy="131.76995" r="3" />
	<circle cx="125" cy="132.19075" r="3" />
	<circle cx="125" cy="133.99285" r="3" />
	<circle cx="125" cy="132.62555" r="3" />
	<circle cx="125" cy="132.25815" r="3" />
	<circle cx="125" cy="131.7438" r="3" />
	<circle cx="125" cy="132.66985" r="3" />
	<circle cx="125" cy="131.97105" r="3" />
	<circle cx="125" cy="132.15105" r="3" />
	<circle cx="125" cy="123.80145" r="3" />
	<circle cx="125" cy="132.8017" r="3" />
	<circle cx="135" cy="126.36915" r="3" />
	<circle cx="135" cy="126.87195" r="3" />
	<circle cx="135" cy="127.7545" r="3" />
	<circle cx="135" cy="126.70925" r="3" />
	<circle cx="135" cy="126.24855" r="3" />
	<circle cx="135" cy="118.81935" r="3" />
	<circle cx="135" cy="126.711" r="3" />
	<circle cx="145" cy="120.3374" r="3" />
	<circle cx="145" cy="121.0722" r="3" />
	<circle cx="145" cy="120.20795" r="3" />
	<circle cx="145" cy="122.5432" r="3" />
	<circle cx="145" cy="119.90175" r="3" />
	<circle cx="145" cy="121.3217" r="3" />
	<circle cx="145" cy="123.2469" r="3" />
	<circle cx="145" cy="121.37575" r="3" />
	<circle cx="145" cy="120.7814" r="3" />
	<circle cx="145" cy="121.29625" r="3" />
	<circle cx="155" cy="115.72895" r="3" />
	<circle cx="155" cy="115.6166" r="3" />
	<circle cx="155" cy="115.9631" r="3" />
	<circle cx="155" cy="115.0173" r="3" />
	<circle cx="155" cy="115.6504" r="3" />
	<circle cx="155" cy="111.10365" r="3" />
	<circle cx="155" cy="116.2346" r="3" />
	<circle cx="165" cy="110.39635" r="3" />
	<circle cx="165" cy="110.3794" r="3" />
	<circle cx="165" cy="112.0732" r="3" />
	<circle cx="165" cy="103.8025" r="3" />
	<circle cx="165" cy="109.70795" r="3" />
	<circle cx="165" cy="103.1169" r="3" />
	<circle cx="165" cy="110.2546" r="3" />
	<circle cx="165" cy="107.07935" r="3" />
	<circle cx="165" cy="113.3865" r="3" />
	<circle cx="165" cy="109.51825" r="3" />
	<circle cx="165" cy="110.4343" r="3" />
	<circle cx="165" cy="110.36385" r="3" />
	<circle cx="165" cy="109.8046" r="3" />
	<circle cx="175" cy="103.74985" r="3" />
	<circle cx="175" cy="104.2008" r="3" />
	<circle cx="175" cy="104.17115" r="3" />
	<circle cx="175" cy="103.28375" r="3" />
	<circle cx="175" cy="103.8738" r="3" />
	<circle cx="175" cy="103.18725" r="3" />
	<circle cx="175" cy="99.5562" r="3" />
	<circle cx="175" cy="104.03345" r="3" />
	<circle cx="185" cy="97.72185" r="3" />
	<circle cx="185" cy="98.09225" r="3" />
	<circle cx="185" cy="96.8227" r="3" />
	<circle cx="185" cy="85.37895" r="3" />
	<circle cx="185" cy="101.18555" r="3" />
	<circle cx="185" cy="93.23015" r="3" />
	<circle cx="185" cy="98.3389" r="3" />
	<circle cx="185" cy="99.17725" r="3" />
	<circle cx="195" cy="93.452" r="3" />
	<circle cx="195" cy="82.5051" r="3" />
	<circle cx="195" cy="91.43655" r="3" />
	<circle cx="195" cy="82.44505" r="3" />
	<circle cx="195" cy="94.5567" r="3" />
	<circle cx="195" cy="94.5013" r="3" />
	<circle cx="195" cy="92.3801" r="3" />
	<circle cx="195" cy="92.5784" r="3" />
	<circle cx="195" cy="92.631" r="3" />
	<circle cx="195" cy="82.98405" r="3" />
	<circle cx="195" cy="83.8348" r="3" />
	<circle cx="195" cy="90.5813" r="3" />
	<circle cx="205" cy="85.099" r="3" />
	<circle cx="205" cy="84.6668" r="3" />
	<circle cx="205" cy="86.7722" r="3" />
	<circle cx="205" cy="85.73245" r="3" />
	<circle cx="205" cy="86.9659" r="3" />
	<circle cx="205" cy="85.767" r="3" />
	<circle cx="205" cy="85.48315" r="3" />
	<circle cx="205" cy="84.33455" r="3" />
	<circle cx="205" cy="82.8962" r="3" />
	<circle cx="205" cy="91.50595" r="3" />
	<circle cx="205" cy="87.99505" r="3" />
	<circle cx="215" cy="82.4987" r="3" />
	<circle cx="215" cy="79.5067" r="3" />
	<circle cx="215" cy="82.8834" r="3" />
	<circle cx="215" cy="77.82505" r="3" />
	<circle cx="215" cy="82.6784" r="3" />
	<circle cx="215" cy="80.0517" r="3" />
	<circle cx="215" cy="82.2928" r="3" />
	<circle cx="215" cy="81.89815" r="3" />
	<circle cx="215" cy="81.1229" r="3" />
	<circle cx="215" cy="84.29175" r="3" />
	<circle cx="215" cy="81.637" r="3" />
	<circle cx="215" cy="80.92325" r="3" />
	<circle cx="215" cy="83.7193" r="3" />
	<circle cx="215" cy="83.5442" r="3" />
	<circle cx="215" cy="81.90745" r="3" />
	<circle cx="215" cy="79.9769" r="3" />
	<circle cx="215" cy="80.34135" r="3" />
	<circle cx="215" cy="75.56335" r="3" />
	<circle cx="215" cy="84.41265" r="3" />
	<circle cx="225" cy="78.5506" r="3" />
	<circle cx="225" cy="78.10305" r="3" />
	<circle cx="225" cy="76.05305" r="3" />
	<circle cx="225" cy="64.5927" r="3" />
	<circle cx="225" cy="77.2702" r="3" />
	<circle cx="225" cy="69.40195" r="3" />
	<circle cx="225" cy="75.50505" r="3" />
	<circle cx="235" cy="69.67425" r="3" />
	<circle cx="245" cy="64.1" r="3" />
	<circle cx="245" cy="63.11405" r="3" />
	<circle cx="245" cy="66.94965" r="3" />
	<circle cx="245" cy="66.32715" r="3" />
	<circle cx="245" cy="66.17365" r="3" />
	<circle cx="245" cy="61.4162" r="3" />
	<circle cx="245" cy="59.01615" r="3" />
	<circle cx="245" cy="54.5735" r="3" />
	<circle cx="245" cy="70.2715" r="3" />
	<circle cx="245" cy="67.251" r="3" />
	<circle cx="245" cy="61.4641" r="3" />
	<circle cx="245" cy="56.84525" r="3" />
	<circle cx="245" cy="63.9311" r="3" />
	<circle cx="245" cy="61.24205" r="3" />
	<circle cx="245" cy="63.40965" r="3" />
	<circle cx="245" cy="58.4668" r="3" />
	<circle cx="245" cy="65.5735" r="3" />
	<circle cx="255" cy="59.4913" r="3" />
	<circle cx="255" cy="57.2476" r="3" />
	<circle cx="255" cy="63.05905" r="3" />
	<circle cx="255" cy="57.701" r="3" />
	<circle cx="255" cy="46.8574" r="3" />
	<circle cx="255" cy="39.0969" r="3" />
	<circle cx="255" cy="51.7899" r="3" />
	<circle cx="255" cy="46.994" r="3" />
	<circle cx="255" cy="56.9353" r="3" />
	<circle cx="255" cy="53.80965" r="3" />
	<circle cx="255" cy="50.3933" r="3" />
	<circle cx="255" cy="53.89795" r="3" />
	<circle cx="255" cy="50.77295" r="3" />
	<circle cx="255" cy="52.22185" r="3" />
	<circle cx="255" cy="45.60355" r="3" />
	<circle cx="255" cy="58.8119" r="3" />
	<circle cx="255" cy="52.1492" r="3" />
	<circle cx="255" cy="52.654" r="3" />
	<circle cx="265" cy="48.527" r="3" />
	<circle cx="265" cy="42.7371" r="3" />
	<circle cx="265" cy="46.15935" r="3" />
	<circle cx="265" cy="37.443" r="3" />
	<circle cx="265" cy="57.0178" r="3" />
	<circle cx="265" cy="51.1504" r="3" />
	<circle cx="265" cy="48.8013" r="3" />
	<circle cx="275" cy="41.9845" r="3" />
	<circle cx="275" cy="19.0903" r="3" />
	<circle cx="275" cy="42.65145" r="3" />
	<circle cx="275" cy="43.5141" r="3" />
	<circle cx="275" cy="42.0232" r="3" />
	<circle cx="275" cy="43.2522" r="3" />
	<circle cx="275" cy="35.4684" r="3" />
	<circle cx="275" cy="45.10435" r="3" />
	<circle cx="275" cy="35.9708" r="3" />
	<circle cx="275" cy="41.45765" r="3" />
	<circle cx="275" cy="32.69455" r="3" />
	<circle cx="275" cy="48.44075" r="3" /><!-- 
	Generated using the Perl SVG Module V2.36
	by Ronan Oger
	Info: http://www.roitsystems.com/
 -->
</svg>