<?xml version="1.0" encoding="UTF-8" standalone="yes"?>
<!DOCTYPE svg PUBLIC "-//W3C//DTD SVG 1.0//EN" "http://www.w3.org/TR/2001/REC-SVG-20010904/DTD/svg10.dtd">
<svg height="266" width="295" xmlns="http://www.w3.org/2000/svg" xmlns:xlink="http://www.w3.org/1999/xlink">
	<line style="stroke: blue; stroke-width: 1" x1="70" x2="280" y1="246" y2="246" />	<text text-anchor="end" x="70" y="246">0.00
	</text>
	<line style="stroke: blue; stroke-width: 1" x1="70" x2="280" y1="196" y2="196" />	<text text-anchor="end" x="70" y="196">0.01
	</text>
	<line style="stroke: blue; stroke-width: 1" x1="70" x2="280" y1="146" y2="146" />	<text text-anchor="end" x="70" y="146">0.02
	</text>
	<line style="stroke: blue; stroke-width: 1" x1="70" x2="280" y1="96" y2="96" />	<text text-anchor="end" x="70" y="96">0.03
	</text>
	<line style="stroke: blue; stroke-width: 1" x1="70" x2="280" y1="46" y2="46" />	<text text-anchor="end" x="70" y="46">0.04
	</text>
	<circle cx="75" cy="245.93" r="3" />
	<circle cx="75" cy="245.985" r="3" />
	<circle cx="75" cy="245.985" r="3" />
	<circle cx="75" cy="245.985" r="3" />
	<circle cx="75" cy="245.955" r="3" />
	<circle cx="75" cy="245.94" r="3" />
	<circle cx="75" cy="245.95" r="3" />
	<circle cx="75" cy="245.945" r="3" />
	<circle cx="75" cy="245.94" r="3" />
	<circle cx="75" cy="245.94" r="3" />
	<circle cx="75" cy="245.955" r="3" />
	<circle cx="75" cy="245.935" r="3" />
	<circle cx="75" cy="245.945" r="3" />
	<circle cx="75" cy="245.945" r="3" />
	<circle cx="75" cy="245.95" r="3" />
	<circle cx="75" cy="245.95" r="3" />
	<circle cx="75" cy="245.945" r="3" />
	<circle cx="85" cy="237.16" r="3" />
	<circle cx="85" cy="238.145" r="3" />
	<circle cx="85" cy="239.69" r="3" />
	<circle cx="85" cy="240.005" r="3" />
	<circle cx="85" cy="239.09" r="3" />
	<circle cx="85" cy="240.28" r="3" />
	<circle cx="85" cy="240.165" r="3" />
	<circle cx="85" cy="239.95" r="3" />
	<circle cx="85" cy="238.52" r="3" />
	<circle cx="85" cy="240.075" r="3" />
	<circle cx="85" cy="239.855" r="3" />
	<circle cx="85" cy="239.665" r="3" />
	<circle cx="85" cy="239.63" r="3" />
	<circle cx="85" cy="239.455" r="3" />
	<circle cx="85" cy="239.55" r="3" />
	<circle cx="85" cy="240.165" r="3" />
	<circle cx="85" cy="240.49" r="3" />
	<circle cx="85" cy="240.37" r="3" />
	<circle cx="85" cy="240.51" r="3" />
	<circle cx="85" cy="240.535" r="3" />
	<circle cx="85" cy="239.6" r="3" />
	<circle cx="85" cy="240.52" r="3" />
	<circle cx="85" cy="240.515" r="3" />
	<circle cx="85" cy="240.09" r="3" />
	<circle cx="85" cy="240.035" r="3" />
	<circle cx="85" cy="240.015" r="3" />
	<circle cx="85" cy="239.95" r="3" />
	<circle cx="95" cy="241.76" r="3" />
	<circle cx="95" cy="235.815" r="3" />
	<circle cx="95" cy="232.185" r="3" />
	<circle cx="95" cy="238.24" r="3" />
	<circle cx="95" cy="238.17" r="3" />
	<circle cx="95" cy="237.84" r="3" />
	<circle cx="95" cy="237.55" r="3" />
	<circle cx="95" cy="237.59" r="3" />
	<circle cx="95" cy="236.92" r="3" />
	<circle cx="95" cy="237.125" r="3" />
	<circle cx="95" cy="237.19" r="3" />
	<circle cx="95" cy="237.81" r="3" />
	<circle cx="95" cy="237.99" r="3" />
	<circle cx="95" cy="237.975" r="3" />
	<circle cx="95" cy="237.825" r="3" />
	<circle cx="95" cy="237.68" r="3" />
	<circle cx="95" cy="237.625" r="3" />
	<circle cx="95" cy="237.615" r="3" />
	<circle cx="95" cy="237.58" r="3" />
	<circle cx="95" cy="241.87" r="3" />
	<circle cx="105" cy="236.685" r="3" />
	<circle cx="105" cy="235.635" r="3" />
	<circle cx="105" cy="235.57" r="3" />
	<circle cx="105" cy="235.6" r="3" />
	<circle cx="105" cy="235.855" r="3" />
	<circle cx="105" cy="235.905" r="3" />
	<circle cx="105" cy="235.655" r="3" />
	<circle cx="105" cy="235.825" r="3" />
	<circle cx="105" cy="239.665" r="3" />
	<circle cx="105" cy="235.685" r="3" />
	<circle cx="105" cy="235.435" r="3" />
	<circle cx="105" cy="235.66" r="3" />
	<circle cx="105" cy="236.02" r="3" />
	<circle cx="105" cy="236.305" r="3" />
	<circle cx="105" cy="236.015" r="3" />
	<circle cx="105" cy="235.965" r="3" />
	<circle cx="105" cy="236.31" r="3" />
	<circle cx="105" cy="236.295" r="3" />
	<circle cx="105" cy="236.25" r="3" />
	<circle cx="105" cy="236.185" r="3" />
	<circle cx="105" cy="235.85" r="3" />
	<circle cx="105" cy="235.82" r="3" />
	<circle cx="105" cy="234.105" r="3" />
	<circle cx="105" cy="235.55" r="3" />
	<circle cx="105" cy="235.54" r="3" />
	<circle cx="105" cy="235.655" r="3" />
	<circle cx="115" cy="233.71" r="3" />
	<circle cx="115" cy="229.475" r="3" />
	<circle cx="115" cy="237.785" r="3" />
	<circle cx="115" cy="233.69" r="3" />
	<circle cx="115" cy="233.64" r="3" />
	<circle cx="115" cy="233.205" r="3" />
	<circle cx="115" cy="233.25" r="3" />
	<circle cx="115" cy="233.06" r="3" />
	<circle cx="115" cy="233.05" r="3" />
	<circle cx="115" cy="233.54" r="3" />
	<circle cx="115" cy="233.935" r="3" />
	<circle cx="115" cy="233.825" r="3" />
	<circle cx="115" cy="237.75" r="3" />
	<circle cx="115" cy="229.685" r="3" />
	<circle cx="115" cy="233.97" r="3" />
	<circle cx="115" cy="229.16" r="3" />
	<circle cx="115" cy="229.145" r="3" />
	<circle cx="115" cy="233.025" r="3" />
	<circle cx="115" cy="233.165" r="3" />
	<circle cx="115" cy="233.315" r="3" />
	<circle cx="115" cy="233.155" r="3" />
	<circle cx="125" cy="230.645" r="3" />
	<circle cx="125" cy="225.945" r="3" />
	<circle cx="125" cy="226.31" r="3" />
	<circle cx="125" cy="231.57" r="3" />
	<circle cx="125" cy="225.95" r="3" />
	<circle cx="125" cy="230.745" r="3" />
	<circle cx="125" cy="230.215" r="3" />
	<circle cx="125" cy="230.64" r="3" />
	<circle cx="125" cy="210.665" r="3" />
	<circle cx="125" cy="231.48" r="3" />
	<circle cx="125" cy="230.2" r="3" />
	<circle cx="125" cy="226.09" r="3" />
	<circle cx="125" cy="230.895" r="3" />
	<circle cx="125" cy="230.5" r="3" />
	<circle cx="125" cy="230.76" r="3" />
	<circle cx="125" cy="231.045" r="3" />
	<circle cx="125" cy="231.165" r="3" />
	<circle cx="125" cy="231.74" r="3" />
	<circle cx="125" cy="231.5" r="3" />
	<circle cx="125" cy="231.545" r="3" />
	<circle cx="125" cy="231.26" r="3" />
	<circle cx="125" cy="230.96" r="3" />
	<circle cx="125" cy="230.79" r="3" />
	<circle cx="125" cy="230.57" r="3" />
	<circle cx="135" cy="227.65" r="3" />
	<circle cx="135" cy="221.725" r="3" />
	<circle cx="135" cy="228.595" r="3" />
	<circle cx="135" cy="228.705" r="3" />
	<circle cx="135" cy="229.345" r="3" />
	<circle cx="135" cy="229.115" r="3" />
	<circle cx="135" cy="227.305" r="3" />
	<circle cx="135" cy="228.41" r="3" />
	<circle cx="135" cy="228.79" r="3" />
	<circle cx="135" cy="229.305" r="3" />
	<circle cx="135" cy="228.81" r="3" />
	<circle cx="135" cy="229.57" r="3" />
	<circle cx="135" cy="229.455" r="3" />
	<circle cx="135" cy="229.325" r="3" />
	<circle cx="135" cy="229" r="3" />
	<circle cx="135" cy="228.77" r="3" />
	<circle cx="135" cy="228.3" r="3" />
	<circle cx="135" cy="228.365" r="3" />
	<circle cx="135" cy="228.355" r="3" />
	<circle cx="135" cy="228.645" r="3" />
	<circle cx="135" cy="229.32" r="3" />
	<circle cx="135" cy="229.375" r="3" />
	<circle cx="135" cy="229.29" r="3" />
	<circle cx="135" cy="229.135" r="3" />
	<circle cx="135" cy="228.985" r="3" />
	<circle cx="145" cy="224.44" r="3" />
	<circle cx="145" cy="219.805" r="3" />
	<circle cx="145" cy="226.67" r="3" />
	<circle cx="145" cy="226.7" r="3" />
	<circle cx="145" cy="227.135" r="3" />
	<circle cx="145" cy="227.11" r="3" />
	<circle cx="145" cy="227.245" r="3" />
	<circle cx="145" cy="227.055" r="3" />
	<circle cx="145" cy="226.73" r="3" />
	<circle cx="145" cy="226.145" r="3" />
	<circle cx="145" cy="226.71" r="3" />
	<circle cx="145" cy="226.94" r="3" />
	<circle cx="145" cy="227.13" r="3" />
	<circle cx="145" cy="227.53" r="3" />
	<circle cx="145" cy="227.405" r="3" />
	<circle cx="145" cy="227.15" r="3" />
	<circle cx="145" cy="226.89" r="3" />
	<circle cx="145" cy="226.735" r="3" />
	<circle cx="145" cy="227.075" r="3" />
	<circle cx="145" cy="227.525" r="3" />
	<circle cx="145" cy="227.435" r="3" />
	<circle cx="145" cy="227.52" r="3" />
	<circle cx="145" cy="226.965" r="3" />
	<circle cx="145" cy="220.155" r="3" />
	<circle cx="145" cy="226.525" r="3" />
	<circle cx="145" cy="226.675" r="3" />
	<circle cx="145" cy="226.93" r="3" />
	<circle cx="145" cy="227.025" r="3" />
	<circle cx="145" cy="227.02" r="3" />
	<circle cx="155" cy="229.22" r="3" />
	<circle cx="155" cy="216.2" r="3" />
	<circle cx="155" cy="224.65" r="3" />
	<circle cx="155" cy="224.69" r="3" />
	<circle cx="155" cy="223.995" r="3" />
	<circle cx="155" cy="224.165" r="3" />
	<circle cx="155" cy="224.615" r="3" />
	<circle cx="155" cy="224.67" r="3" />
	<circle cx="155" cy="224.88" r="3" />
	<circle cx="155" cy="224.68" r="3" />
	<circle cx="155" cy="224.44" r="3" />
	<circle cx="155" cy="224.305" r="3" />
	<circle cx="155" cy="223.335" r="3" />
	<circle cx="155" cy="217.325" r="3" />
	<circle cx="155" cy="225.275" r="3" />
	<circle cx="155" cy="225.36" r="3" />
	<circle cx="155" cy="225.095" r="3" />
	<circle cx="155" cy="224.82" r="3" />
	<circle cx="155" cy="224.435" r="3" />
	<circle cx="155" cy="224.44" r="3" />
	<circle cx="165" cy="218.445" r="3" />
	<circle cx="165" cy="213.21" r="3" />
	<circle cx="165" cy="212.59" r="3" />
	<circle cx="165" cy="222.42" r="3" />
	<circle cx="165" cy="222.945" r="3" />
	<circle cx="165" cy="222.995" r="3" />
	<circle cx="165" cy="222.96" r="3" />
	<circle cx="165" cy="222.51" r="3" />
	<circle cx="165" cy="221.045" r="3" />
	<circle cx="165" cy="213.41" r="3" />
	<circle cx="165" cy="221.68" r="3" />
	<circle cx="165" cy="222.74" r="3" />
	<circle cx="165" cy="222.485" r="3" />
	<circle cx="165" cy="222.105" r="3" />
	<circle cx="165" cy="222.035" r="3" />
	<circle cx="165" cy="222.4" r="3" />
	<circle cx="165" cy="223.18" r="3" />
	<circle cx="165" cy="223.3" r="3" />
	<circle cx="165" cy="223.285" r="3" />
	<circle cx="165" cy="223.185" r="3" />
	<circle cx="165" cy="222.885" r="3" />
	<circle cx="165" cy="222.015" r="3" />
	<circle cx="165" cy="221.775" r="3" />
	<circle cx="165" cy="222.63" r="3" />
	<circle cx="165" cy="222.49" r="3" />
	<circle cx="175" cy="215.405" r="3" />
	<circle cx="175" cy="210.53" r="3" />
	<circle cx="175" cy="220.66" r="3" />
	<circle cx="175" cy="221.12" r="3" />
	<circle cx="175" cy="205.565" r="3" />
	<circle cx="175" cy="220.02" r="3" />
	<circle cx="175" cy="221.11" r="3" />
	<circle cx="175" cy="221.165" r="3" />
	<circle cx="175" cy="220.95" r="3" />
	<circle cx="175" cy="220.065" r="3" />
	<circle cx="175" cy="220.79" r="3" />
	<circle cx="175" cy="220.81" r="3" />
	<circle cx="175" cy="221.395" r="3" />
	<circle cx="175" cy="221.36" r="3" />
	<circle cx="175" cy="221.525" r="3" />
	<circle cx="175" cy="225.35" r="3" />
	<circle cx="175" cy="221.53" r="3" />
	<circle cx="175" cy="211.415" r="3" />
	<circle cx="175" cy="220.865" r="3" />
	<circle cx="175" cy="220.105" r="3" />
	<circle cx="175" cy="220.225" r="3" />
	<circle cx="175" cy="201.18" r="3" />
	<circle cx="185" cy="212.295" r="3" />
	<circle cx="185" cy="213.105" r="3" />
	<circle cx="185" cy="217.99" r="3" />
	<circle cx="185" cy="217.83" r="3" />
	<circle cx="185" cy="219.075" r="3" />
	<circle cx="185" cy="208.49" r="3" />
	<circle cx="185" cy="217.765" r="3" />
	<circle cx="185" cy="218.575" r="3" />
	<circle cx="185" cy="218.105" r="3" />
	<circle cx="185" cy="217.99" r="3" />
	<circle cx="185" cy="218.61" r="3" />
	<circle cx="185" cy="219.33" r="3" />
	<circle cx="185" cy="219.695" r="3" />
	<circle cx="185" cy="219.075" r="3" />
	<circle cx="185" cy="219.19" r="3" />
	<circle cx="185" cy="218.925" r="3" />
	<circle cx="185" cy="218.605" r="3" />
	<circle cx="185" cy="218.205" r="3" />
	<circle cx="185" cy="218.175" r="3" />
	<circle cx="185" cy="218.105" r="3" />
	<circle cx="195" cy="209.085" r="3" />
	<circle cx="195" cy="215.82" r="3" />
	<circle cx="195" cy="204.385" r="3" />
	<circle cx="195" cy="168.08" r="3" />
	<circle cx="195" cy="216.555" r="3" />
	<circle cx="195" cy="216.81" r="3" />
	<circle cx="195" cy="216.595" r="3" />
	<circle cx="195" cy="215.585" r="3" />
	<circle cx="195" cy="204.55" r="3" />
	<circle cx="195" cy="216.53" r="3" />
	<circle cx="195" cy="217.22" r="3" />
	<circle cx="195" cy="217.69" r="3" />
	<circle cx="195" cy="205.81" r="3" />
	<circle cx="195" cy="217.1" r="3" />
	<circle cx="195" cy="217.23" r="3" />
	<circle cx="195" cy="217.015" r="3" />
	<circle cx="195" cy="221.055" r="3" />
	<circle cx="195" cy="216.88" r="3" />
	<circle cx="195" cy="215.98" r="3" />
	<circle cx="195" cy="221.075" r="3" />
	<circle cx="195" cy="215.985" r="3" />
	<circle cx="195" cy="216.24" r="3" />
	<circle cx="205" cy="206.38" r="3" />
	<circle cx="205" cy="201.03" r="3" />
	<circle cx="205" cy="209.545" r="3" />
	<circle cx="205" cy="214.7" r="3" />
	<circle cx="205" cy="215.33" r="3" />
	<circle cx="205" cy="169.815" r="3" />
	<circle cx="205" cy="214.72" r="3" />
	<circle cx="205" cy="219.215" r="3" />
	<circle cx="205" cy="194.47" r="3" />
	<circle cx="205" cy="201.49" r="3" />
	<circle cx="205" cy="215.39" r="3" />
	<circle cx="205" cy="215.385" r="3" />
	<circle cx="205" cy="215.17" r="3" />
	<circle cx="205" cy="215.14" r="3" />
	<circle cx="205" cy="210.515" r="3" />
	<circle cx="205" cy="201.165" r="3" />
	<circle cx="205" cy="19.955" r="3" />
	<circle cx="205" cy="214.61" r="3" />
	<circle cx="215" cy="203.17" r="3" />
	<circle cx="215" cy="204.155" r="3" />
	<circle cx="215" cy="211.72" r="3" />
	<circle cx="215" cy="213" r="3" />
	<circle cx="215" cy="213.36" r="3" />
	<circle cx="215" cy="163.455" r="3" />
	<circle cx="215" cy="213.28" r="3" />
	<circle cx="215" cy="212.365" r="3" />
	<circle cx="215" cy="212.02" r="3" />
	<circle cx="215" cy="211.625" r="3" />
	<circle cx="215" cy="203.525" r="3" />
	<circle cx="215" cy="203.35" r="3" />
	<circle cx="215" cy="213.065" r="3" />
	<circle cx="215" cy="212.95" r="3" />
	<circle cx="215" cy="212.84" r="3" />
	<circle cx="215" cy="199.13" r="3" />
	<circle cx="225" cy="199.425" r="3" />
	<circle cx="225" cy="196.365" r="3" />
	<circle cx="225" cy="196.56" r="3" />
	<circle cx="225" cy="211.09" r="3" />
	<circle cx="225" cy="210.37" r="3" />
	<circle cx="225" cy="211.39" r="3" />
	<circle cx="225" cy="211.43" r="3" />
	<circle cx="225" cy="211.48" r="3" />
	<circle cx="225" cy="211.125" r="3" />
	<circle cx="225" cy="210.36" r="3" />
	<circle cx="225" cy="210.785" r="3" />
	<circle cx="225" cy="211.06" r="3" />
	<circle cx="225" cy="201.985" r="3" />
	<circle cx="225" cy="210.515" r="3" />
	<circle cx="225" cy="211.31" r="3" />
	<circle cx="225" cy="210.43" r="3" />
	<circle cx="225" cy="209.525" r="3" />
	<circle cx="225" cy="210.625" r="3" />
	<circle cx="225" cy="210.17" r="3" />
	<circle cx="225" cy="210.2" r="3" />
	<circle cx="225" cy="210.95" r="3" />
	<circle cx="225" cy="211.52" r="3" />
	<circle cx="225" cy="211.205" r="3" />
	<circle cx="225" cy="211.41" r="3" />
	<circle cx="225" cy="215.49" r="3" />
	<circle cx="225" cy="210.44" r="3" />
	<circle cx="225" cy="210.065" r="3" />
	<circle cx="225" cy="215.38" r="3" />
	<circle cx="235" cy="197.05" r="3" />
	<circle cx="235" cy="208.44" r="3" />
	<circle cx="235" cy="208.49" r="3" />
	<circle cx="235" cy="170.215" r="3" />
	<circle cx="235" cy="209.19" r="3" />
	<circle cx="235" cy="209.1" r="3" />
	<circle cx="235" cy="145.1" r="3" />
	<circle cx="235" cy="202.515" r="3" />
	<circle cx="235" cy="208.84" r="3" />
	<circle cx="235" cy="194.985" r="3" />
	<circle cx="235" cy="207.99" r="3" />
	<circle cx="235" cy="208.845" r="3" />
	<circle cx="235" cy="175.375" r="3" />
	<circle cx="235" cy="209.145" r="3" />
	<circle cx="235" cy="193.74" r="3" />
	<circle cx="235" cy="208.975" r="3" />
	<circle cx="235" cy="158.375" r="3" />
	<circle cx="235" cy="209.155" r="3" />
	<circle cx="235" cy="193.475" r="3" />
	<circle cx="235" cy="208.175" r="3" />
	<circle cx="235" cy="156.26" r="3" />
	<circle cx="235" cy="193.135" r="3" />
	<circle cx="235" cy="208.335" r="3" />
	<circle cx="235" cy="208.745" r="3" />
	<circle cx="235" cy="209.135" r="3" />
	<circle cx="235" cy="193.94" r="3" />
	<circle cx="235" cy="209.08" r="3" />
	<circle cx="235" cy="161.75" r="3" />
	<circle cx="235" cy="192.94" r="3" />
	<circle cx="235" cy="209.02" r="3" />
	<circle cx="235" cy="208.06" r="3" />
	<circle cx="235" cy="207.725" r="3" />
	<circle cx="235" cy="156.93" r="3" />
	<circle cx="235" cy="213.15" r="3" />
	<circle cx="235" cy="209.345" r="3" />
	<circle cx="235" cy="209.425" r="3" />
	<circle cx="235" cy="209.28" r="3" />
	<circle cx="235" cy="213.31" r="3" />
	<circle cx="235" cy="209.025" r="3" />
	<circle cx="235" cy="208.795" r="3" />
	<circle cx="235" cy="198.12" r="3" />
	<circle cx="235" cy="208.705" r="3" />
	<circle cx="235" cy="209.4" r="3" />
	<circle cx="235" cy="209.41" r="3" />
	<circle cx="235" cy="134.005" r="3" />
	<circle cx="235" cy="209.04" r="3" />
	<circle cx="235" cy="193.875" r="3" />
	<circle cx="235" cy="212.5" r="3" />
	<circle cx="235" cy="197.9" r="3" />
	<circle cx="235" cy="198.45" r="3" />
	<circle cx="245" cy="194.095" r="3" />
	<circle cx="245" cy="211.145" r="3" />
	<circle cx="245" cy="143.56" r="3" />
	<circle cx="245" cy="211.06" r="3" />
	<circle cx="245" cy="206.615" r="3" />
	<circle cx="245" cy="206.65" r="3" />
	<circle cx="245" cy="206.95" r="3" />
	<circle cx="245" cy="211.06" r="3" />
	<circle cx="245" cy="198.245" r="3" />
	<circle cx="245" cy="211.035" r="3" />
	<circle cx="245" cy="206.25" r="3" />
	<circle cx="245" cy="211.045" r="3" />
	<circle cx="245" cy="148.5" r="3" />
	<circle cx="245" cy="206.735" r="3" />
	<circle cx="245" cy="210.405" r="3" />
	<circle cx="245" cy="211.23" r="3" />
	<circle cx="245" cy="211.03" r="3" />
	<circle cx="245" cy="211.06" r="3" />
	<circle cx="245" cy="211.3" r="3" />
	<circle cx="245" cy="206.47" r="3" />
	<circle cx="245" cy="206.25" r="3" />
	<circle cx="245" cy="211.14" r="3" />
	<circle cx="245" cy="210.42" r="3" />
	<circle cx="245" cy="205.035" r="3" />
	<circle cx="245" cy="155.66" r="3" />
	<circle cx="245" cy="206.955" r="3" />
	<circle cx="245" cy="206.835" r="3" />
	<circle cx="255" cy="191.405" r="3" />
	<circle cx="255" cy="191.545" r="3" />
	<circle cx="255" cy="198.33" r="3" />
	<circle cx="255" cy="186.49" r="3" />
	<circle cx="255" cy="204.91" r="3" />
	<circle cx="255" cy="205.11" r="3" />
	<circle cx="255" cy="205.495" r="3" />
	<circle cx="255" cy="205.78" r="3" />
	<circle cx="255" cy="205.73" r="3" />
	<circle cx="255" cy="205.63" r="3" />
	<circle cx="255" cy="209.18" r="3" />
	<circle cx="255" cy="209.195" r="3" />
	<circle cx="255" cy="204.715" r="3" />
	<circle cx="255" cy="204.81" r="3" />
	<circle cx="255" cy="209.225" r="3" />
	<circle cx="255" cy="205.235" r="3" />
	<circle cx="255" cy="205.39" r="3" />
	<circle cx="255" cy="209.255" r="3" />
	<circle cx="255" cy="205.01" r="3" />
	<circle cx="255" cy="205.195" r="3" />
	<circle cx="255" cy="205.065" r="3" />
	<circle cx="255" cy="152.185" r="3" />
	<circle cx="265" cy="188.2" r="3" />
	<circle cx="265" cy="184.63" r="3" />
	<circle cx="265" cy="184.695" r="3" />
	<circle cx="265" cy="155.38" r="3" />
	<circle cx="265" cy="155.435" r="3" />
	<circle cx="265" cy="201.825" r="3" />
	<circle cx="265" cy="202.825" r="3" />
	<circle cx="265" cy="168.67" r="3" />
	<circle cx="265" cy="202.405" r="3" />
	<circle cx="265" cy="153.92" r="3" />
	<circle cx="265" cy="203.21" r="3" />
	<circle cx="265" cy="146.52" r="3" />
	<circle cx="265" cy="203.275" r="3" />
	<circle cx="265" cy="185.445" r="3" />
	<circle cx="265" cy="203.495" r="3" />
	<circle cx="265" cy="203.36" r="3" />
	<circle cx="265" cy="203.27" r="3" />
	<circle cx="265" cy="203.055" r="3" />
	<circle cx="265" cy="144.28" r="3" />
	<circle cx="265" cy="207.065" r="3" />
	<circle cx="265" cy="202.845" r="3" />
	<circle cx="265" cy="202.545" r="3" />
	<circle cx="265" cy="131.6" r="3" />
	<circle cx="265" cy="202.91" r="3" />
	<circle cx="265" cy="207.095" r="3" />
	<circle cx="275" cy="184.805" r="3" />
	<circle cx="275" cy="181.66" r="3" />
	<circle cx="275" cy="199.96" r="3" />
	<circle cx="275" cy="193.815" r="3" />
	<circle cx="275" cy="197.875" r="3" />
	<circle cx="275" cy="130.92" r="3" />
	<circle cx="275" cy="200.54" r="3" />
	<circle cx="275" cy="200.61" r="3" />
	<circle cx="275" cy="126.205" r="3" />
	<circle cx="275" cy="200.74" r="3" />
	<circle cx="275" cy="200.43" r="3" />
	<circle cx="275" cy="200.455" r="3" />
	<circle cx="275" cy="200.615" r="3" />
	<circle cx="275" cy="200.99" r="3" />
	<circle cx="275" cy="200.63" r="3" />
	<circle cx="275" cy="147.99" r="3" />
	<circle cx="275" cy="124" r="3" />
	<circle cx="275" cy="200.41" r="3" />
	<circle cx="275" cy="200.48" r="3" />
	<circle cx="275" cy="136.615" r="3" />
	<circle cx="275" cy="200.87" r="3" />
	<circle cx="275" cy="188.975" r="3" />
	<circle cx="275" cy="158.205" r="3" />
	<circle cx="275" cy="149.905" r="3" />
	<circle cx="275" cy="132.6" r="3" />
	<circle cx="275" cy="199.95" r="3" />
	<circle cx="275" cy="199.895" r="3" />
	<circle cx="275" cy="200.33" r="3" /><!-- 
	Generated using the Perl SVG Module V2.36
	by Ronan Oger
	Info: http://www.roitsystems.com/
 -->
</svg>