<?xml version="1.0" encoding="UTF-8" standalone="yes"?>
<!DOCTYPE svg PUBLIC "-//W3C//DTD SVG 1.0//EN" "http://www.w3.org/TR/2001/REC-SVG-20010904/DTD/svg10.dtd">
<svg height="191" width="295" xmlns="http://www.w3.org/2000/svg" xmlns:xlink="http://www.w3.org/1999/xlink">
	<line style="stroke: blue; stroke-width: 1" x1="70" x2="280" y1="171" y2="171" />	<text text-anchor="end" x="70" y="171">0.00
	</text>
	<line style="stroke: blue; stroke-width: 1" x1="70" x2="280" y1="121" y2="121" />	<text text-anchor="end" x="70" y="121">0.01
	</text>
	<line style="stroke: blue; stroke-width: 1" x1="70" x2="280" y1="71" y2="71" />	<text text-anchor="end" x="70" y="71">0.02
	</text>
	<line style="stroke: blue; stroke-width: 1" x1="70" x2="280" y1="21" y2="21" />	<text text-anchor="end" x="70" y="21">0.03
	</text>
	<circle cx="75" cy="170.94" r="3" />
	<circle cx="75" cy="170.955" r="3" />
	<circle cx="75" cy="170.925" r="3" />
	<circle cx="75" cy="170.87" r="3" />
	<circle cx="75" cy="170.915" r="3" />
	<circle cx="75" cy="170.91" r="3" />
	<circle cx="75" cy="170.92" r="3" />
	<circle cx="75" cy="170.915" r="3" />
	<circle cx="75" cy="170.925" r="3" />
	<circle cx="75" cy="170.92" r="3" />
	<circle cx="75" cy="170.72" r="3" />
	<circle cx="75" cy="170.915" r="3" />
	<circle cx="75" cy="170.92" r="3" />
	<circle cx="75" cy="170.91" r="3" />
	<circle cx="75" cy="170.92" r="3" />
	<circle cx="75" cy="170.92" r="3" />
	<circle cx="75" cy="170.92" r="3" />
	<circle cx="85" cy="165.855" r="3" />
	<circle cx="85" cy="165.49" r="3" />
	<circle cx="85" cy="167.005" r="3" />
	<circle cx="85" cy="166.645" r="3" />
	<circle cx="85" cy="166.815" r="3" />
	<circle cx="85" cy="166.92" r="3" />
	<circle cx="85" cy="166.975" r="3" />
	<circle cx="85" cy="166.355" r="3" />
	<circle cx="85" cy="166.81" r="3" />
	<circle cx="85" cy="166.595" r="3" />
	<circle cx="85" cy="166.62" r="3" />
	<circle cx="85" cy="166.47" r="3" />
	<circle cx="85" cy="166.445" r="3" />
	<circle cx="85" cy="166.28" r="3" />
	<circle cx="85" cy="166.205" r="3" />
	<circle cx="85" cy="165.885" r="3" />
	<circle cx="85" cy="170.74" r="3" />
	<circle cx="85" cy="166.6" r="3" />
	<circle cx="85" cy="166.74" r="3" />
	<circle cx="85" cy="165.67" r="3" />
	<circle cx="85" cy="166.575" r="3" />
	<circle cx="85" cy="166.31" r="3" />
	<circle cx="85" cy="165.89" r="3" />
	<circle cx="85" cy="165.215" r="3" />
	<circle cx="95" cy="169.41" r="3" />
	<circle cx="95" cy="164.875" r="3" />
	<circle cx="95" cy="165.515" r="3" />
	<circle cx="95" cy="166.265" r="3" />
	<circle cx="95" cy="166.425" r="3" />
	<circle cx="95" cy="166.5" r="3" />
	<circle cx="95" cy="166.67" r="3" />
	<circle cx="95" cy="166.705" r="3" />
	<circle cx="95" cy="166.41" r="3" />
	<circle cx="95" cy="166.225" r="3" />
	<circle cx="95" cy="166.425" r="3" />
	<circle cx="95" cy="166.165" r="3" />
	<circle cx="95" cy="166.575" r="3" />
	<circle cx="95" cy="166.485" r="3" />
	<circle cx="95" cy="166.405" r="3" />
	<circle cx="95" cy="166.555" r="3" />
	<circle cx="95" cy="166.44" r="3" />
	<circle cx="95" cy="170.47" r="3" />
	<circle cx="95" cy="165.71" r="3" />
	<circle cx="95" cy="170.545" r="3" />
	<circle cx="95" cy="170.56" r="3" />
	<circle cx="105" cy="168.585" r="3" />
	<circle cx="105" cy="170.26" r="3" />
	<circle cx="105" cy="163.255" r="3" />
	<circle cx="105" cy="165.545" r="3" />
	<circle cx="105" cy="165.76" r="3" />
	<circle cx="105" cy="165.72" r="3" />
	<circle cx="105" cy="165.675" r="3" />
	<circle cx="105" cy="170.425" r="3" />
	<circle cx="105" cy="166.26" r="3" />
	<circle cx="105" cy="166.21" r="3" />
	<circle cx="105" cy="165.98" r="3" />
	<circle cx="105" cy="165.975" r="3" />
	<circle cx="105" cy="170.39" r="3" />
	<circle cx="105" cy="165.935" r="3" />
	<circle cx="105" cy="170.39" r="3" />
	<circle cx="105" cy="166.43" r="3" />
	<circle cx="105" cy="170.39" r="3" />
	<circle cx="105" cy="165.97" r="3" />
	<circle cx="105" cy="166.175" r="3" />
	<circle cx="105" cy="165.93" r="3" />
	<circle cx="105" cy="165.665" r="3" />
	<circle cx="115" cy="168.115" r="3" />
	<circle cx="115" cy="163.465" r="3" />
	<circle cx="115" cy="164.865" r="3" />
	<circle cx="115" cy="166.345" r="3" />
	<circle cx="115" cy="166.48" r="3" />
	<circle cx="115" cy="166.835" r="3" />
	<circle cx="115" cy="166.685" r="3" />
	<circle cx="115" cy="166.665" r="3" />
	<circle cx="115" cy="166.62" r="3" />
	<circle cx="115" cy="166.525" r="3" />
	<circle cx="115" cy="165.515" r="3" />
	<circle cx="115" cy="166.085" r="3" />
	<circle cx="115" cy="165.675" r="3" />
	<circle cx="115" cy="165.44" r="3" />
	<circle cx="115" cy="165.615" r="3" />
	<circle cx="115" cy="165.515" r="3" />
	<circle cx="115" cy="165.56" r="3" />
	<circle cx="125" cy="166.79" r="3" />
	<circle cx="125" cy="169.785" r="3" />
	<circle cx="125" cy="164.76" r="3" />
	<circle cx="125" cy="165.21" r="3" />
	<circle cx="125" cy="166.085" r="3" />
	<circle cx="125" cy="165.99" r="3" />
	<circle cx="125" cy="165.735" r="3" />
	<circle cx="125" cy="165.815" r="3" />
	<circle cx="125" cy="165.96" r="3" />
	<circle cx="125" cy="165.375" r="3" />
	<circle cx="125" cy="165.33" r="3" />
	<circle cx="125" cy="165.365" r="3" />
	<circle cx="125" cy="165.18" r="3" />
	<circle cx="125" cy="165.35" r="3" />
	<circle cx="125" cy="165.565" r="3" />
	<circle cx="125" cy="165.555" r="3" />
	<circle cx="125" cy="165.285" r="3" />
	<circle cx="125" cy="165.16" r="3" />
	<circle cx="125" cy="165.11" r="3" />
	<circle cx="135" cy="165.865" r="3" />
	<circle cx="135" cy="164.435" r="3" />
	<circle cx="135" cy="165.245" r="3" />
	<circle cx="135" cy="165.975" r="3" />
	<circle cx="135" cy="166.045" r="3" />
	<circle cx="135" cy="165.605" r="3" />
	<circle cx="135" cy="165.68" r="3" />
	<circle cx="135" cy="164.485" r="3" />
	<circle cx="135" cy="165.195" r="3" />
	<circle cx="135" cy="165.175" r="3" />
	<circle cx="135" cy="165.42" r="3" />
	<circle cx="135" cy="165.42" r="3" />
	<circle cx="135" cy="165.32" r="3" />
	<circle cx="135" cy="165.27" r="3" />
	<circle cx="135" cy="165.02" r="3" />
	<circle cx="135" cy="164.955" r="3" />
	<circle cx="135" cy="165.04" r="3" />
	<circle cx="145" cy="165.09" r="3" />
	<circle cx="145" cy="163.55" r="3" />
	<circle cx="145" cy="163.985" r="3" />
	<circle cx="145" cy="165.95" r="3" />
	<circle cx="145" cy="166.03" r="3" />
	<circle cx="145" cy="165.875" r="3" />
	<circle cx="145" cy="164.46" r="3" />
	<circle cx="145" cy="165.45" r="3" />
	<circle cx="145" cy="165.115" r="3" />
	<circle cx="145" cy="165.295" r="3" />
	<circle cx="145" cy="165.19" r="3" />
	<circle cx="145" cy="164.355" r="3" />
	<circle cx="145" cy="164.13" r="3" />
	<circle cx="145" cy="164.595" r="3" />
	<circle cx="145" cy="163.76" r="3" />
	<circle cx="145" cy="165.86" r="3" />
	<circle cx="145" cy="165.09" r="3" />
	<circle cx="145" cy="165.93" r="3" />
	<circle cx="145" cy="165.85" r="3" />
	<circle cx="145" cy="165.565" r="3" />
	<circle cx="145" cy="164.29" r="3" />
	<circle cx="145" cy="164.985" r="3" />
	<circle cx="155" cy="163.705" r="3" />
	<circle cx="155" cy="164.955" r="3" />
	<circle cx="155" cy="164.79" r="3" />
	<circle cx="155" cy="165.82" r="3" />
	<circle cx="155" cy="165.94" r="3" />
	<circle cx="155" cy="165.265" r="3" />
	<circle cx="155" cy="166.405" r="3" />
	<circle cx="155" cy="166.085" r="3" />
	<circle cx="155" cy="165.89" r="3" />
	<circle cx="155" cy="165.47" r="3" />
	<circle cx="155" cy="165.255" r="3" />
	<circle cx="155" cy="165.145" r="3" />
	<circle cx="165" cy="162.875" r="3" />
	<circle cx="165" cy="165.16" r="3" />
	<circle cx="165" cy="164.24" r="3" />
	<circle cx="165" cy="165.34" r="3" />
	<circle cx="165" cy="165.245" r="3" />
	<circle cx="165" cy="164.855" r="3" />
	<circle cx="165" cy="164.565" r="3" />
	<circle cx="165" cy="164.18" r="3" />
	<circle cx="165" cy="164.475" r="3" />
	<circle cx="165" cy="165.23" r="3" />
	<circle cx="165" cy="165.515" r="3" />
	<circle cx="165" cy="165.47" r="3" />
	<circle cx="165" cy="165.18" r="3" />
	<circle cx="165" cy="164.645" r="3" />
	<circle cx="165" cy="164.65" r="3" />
	<circle cx="165" cy="163.325" r="3" />
	<circle cx="165" cy="164.395" r="3" />
	<circle cx="175" cy="163.005" r="3" />
	<circle cx="175" cy="168.635" r="3" />
	<circle cx="175" cy="169.13" r="3" />
	<circle cx="175" cy="164.505" r="3" />
	<circle cx="175" cy="165.33" r="3" />
	<circle cx="175" cy="165.52" r="3" />
	<circle cx="175" cy="165.515" r="3" />
	<circle cx="175" cy="165.305" r="3" />
	<circle cx="175" cy="165" r="3" />
	<circle cx="175" cy="164.64" r="3" />
	<circle cx="175" cy="164.535" r="3" />
	<circle cx="175" cy="164.725" r="3" />
	<circle cx="175" cy="164.625" r="3" />
	<circle cx="175" cy="164.73" r="3" />
	<circle cx="175" cy="164.585" r="3" />
	<circle cx="175" cy="164.62" r="3" />
	<circle cx="185" cy="160.82" r="3" />
	<circle cx="185" cy="168.54" r="3" />
	<circle cx="185" cy="164.535" r="3" />
	<circle cx="185" cy="164.915" r="3" />
	<circle cx="185" cy="164.95" r="3" />
	<circle cx="185" cy="165.015" r="3" />
	<circle cx="185" cy="165.265" r="3" />
	<circle cx="185" cy="165.25" r="3" />
	<circle cx="185" cy="163.395" r="3" />
	<circle cx="185" cy="164.455" r="3" />
	<circle cx="185" cy="164.85" r="3" />
	<circle cx="185" cy="164.915" r="3" />
	<circle cx="185" cy="165.37" r="3" />
	<circle cx="185" cy="165.49" r="3" />
	<circle cx="185" cy="165.19" r="3" />
	<circle cx="185" cy="165.12" r="3" />
	<circle cx="185" cy="164.985" r="3" />
	<circle cx="185" cy="164.24" r="3" />
	<circle cx="185" cy="169.135" r="3" />
	<circle cx="185" cy="163.765" r="3" />
	<circle cx="195" cy="159.95" r="3" />
	<circle cx="195" cy="162.725" r="3" />
	<circle cx="195" cy="162.635" r="3" />
	<circle cx="195" cy="164.25" r="3" />
	<circle cx="195" cy="165.155" r="3" />
	<circle cx="195" cy="165.03" r="3" />
	<circle cx="195" cy="164.595" r="3" />
	<circle cx="195" cy="163.975" r="3" />
	<circle cx="195" cy="163.925" r="3" />
	<circle cx="195" cy="164.015" r="3" />
	<circle cx="195" cy="164.31" r="3" />
	<circle cx="195" cy="164.805" r="3" />
	<circle cx="195" cy="164.585" r="3" />
	<circle cx="195" cy="164.66" r="3" />
	<circle cx="195" cy="164.39" r="3" />
	<circle cx="195" cy="164.085" r="3" />
	<circle cx="195" cy="164.12" r="3" />
	<circle cx="195" cy="164" r="3" />
	<circle cx="195" cy="164.025" r="3" />
	<circle cx="195" cy="169.035" r="3" />
	<circle cx="205" cy="160.26" r="3" />
	<circle cx="205" cy="161.28" r="3" />
	<circle cx="205" cy="163.81" r="3" />
	<circle cx="205" cy="164.14" r="3" />
	<circle cx="205" cy="165.035" r="3" />
	<circle cx="205" cy="164.785" r="3" />
	<circle cx="205" cy="164.55" r="3" />
	<circle cx="205" cy="164.15" r="3" />
	<circle cx="205" cy="163.625" r="3" />
	<circle cx="205" cy="163.67" r="3" />
	<circle cx="205" cy="162.505" r="3" />
	<circle cx="205" cy="164.775" r="3" />
	<circle cx="205" cy="164.92" r="3" />
	<circle cx="205" cy="164.895" r="3" />
	<circle cx="205" cy="164.94" r="3" />
	<circle cx="205" cy="164.335" r="3" />
	<circle cx="205" cy="164.33" r="3" />
	<circle cx="205" cy="164.3" r="3" />
	<circle cx="205" cy="164.33" r="3" />
	<circle cx="205" cy="164.54" r="3" />
	<circle cx="205" cy="164.28" r="3" />
	<circle cx="205" cy="163.85" r="3" />
	<circle cx="205" cy="163.825" r="3" />
	<circle cx="205" cy="168.83" r="3" />
	<circle cx="215" cy="158.315" r="3" />
	<circle cx="215" cy="161.765" r="3" />
	<circle cx="215" cy="163.8" r="3" />
	<circle cx="215" cy="163.78" r="3" />
	<circle cx="215" cy="164.25" r="3" />
	<circle cx="215" cy="164.7" r="3" />
	<circle cx="215" cy="164.195" r="3" />
	<circle cx="215" cy="163.97" r="3" />
	<circle cx="215" cy="163.515" r="3" />
	<circle cx="215" cy="163.42" r="3" />
	<circle cx="215" cy="164.165" r="3" />
	<circle cx="215" cy="164.735" r="3" />
	<circle cx="215" cy="164.38" r="3" />
	<circle cx="215" cy="164.02" r="3" />
	<circle cx="215" cy="163.625" r="3" />
	<circle cx="215" cy="163.88" r="3" />
	<circle cx="215" cy="164.705" r="3" />
	<circle cx="215" cy="164.745" r="3" />
	<circle cx="215" cy="164.69" r="3" />
	<circle cx="215" cy="164.335" r="3" />
	<circle cx="215" cy="164.15" r="3" />
	<circle cx="215" cy="163.895" r="3" />
	<circle cx="215" cy="163.735" r="3" />
	<circle cx="215" cy="163.54" r="3" />
	<circle cx="215" cy="163.575" r="3" />
	<circle cx="215" cy="163.56" r="3" />
	<circle cx="215" cy="163.695" r="3" />
	<circle cx="215" cy="163.73" r="3" />
	<circle cx="215" cy="163.695" r="3" />
	<circle cx="215" cy="163.48" r="3" />
	<circle cx="215" cy="163.475" r="3" />
	<circle cx="215" cy="161.885" r="3" />
	<circle cx="215" cy="163.7" r="3" />
	<circle cx="215" cy="164.55" r="3" />
	<circle cx="215" cy="164.815" r="3" />
	<circle cx="215" cy="164.685" r="3" />
	<circle cx="215" cy="163.785" r="3" />
	<circle cx="215" cy="163.695" r="3" />
	<circle cx="215" cy="163.56" r="3" />
	<circle cx="215" cy="163.5" r="3" />
	<circle cx="215" cy="163.525" r="3" />
	<circle cx="225" cy="158.065" r="3" />
	<circle cx="225" cy="163.515" r="3" />
	<circle cx="225" cy="163.98" r="3" />
	<circle cx="225" cy="162.73" r="3" />
	<circle cx="225" cy="162.59" r="3" />
	<circle cx="225" cy="163.18" r="3" />
	<circle cx="225" cy="163.295" r="3" />
	<circle cx="225" cy="163.335" r="3" />
	<circle cx="225" cy="163.58" r="3" />
	<circle cx="225" cy="164.055" r="3" />
	<circle cx="225" cy="158.3" r="3" />
	<circle cx="225" cy="163.615" r="3" />
	<circle cx="225" cy="164.125" r="3" />
	<circle cx="235" cy="19.525" r="3" />
	<circle cx="235" cy="162.275" r="3" />
	<circle cx="235" cy="163.685" r="3" />
	<circle cx="235" cy="164.57" r="3" />
	<circle cx="235" cy="164.18" r="3" />
	<circle cx="235" cy="163.88" r="3" />
	<circle cx="235" cy="163.865" r="3" />
	<circle cx="235" cy="163.89" r="3" />
	<circle cx="235" cy="164.47" r="3" />
	<circle cx="235" cy="163.025" r="3" />
	<circle cx="235" cy="164.265" r="3" />
	<circle cx="235" cy="163.72" r="3" />
	<circle cx="235" cy="163.87" r="3" />
	<circle cx="235" cy="163.725" r="3" />
	<circle cx="245" cy="155.605" r="3" />
	<circle cx="245" cy="163.115" r="3" />
	<circle cx="245" cy="163.785" r="3" />
	<circle cx="245" cy="164.12" r="3" />
	<circle cx="245" cy="164.135" r="3" />
	<circle cx="245" cy="164.4" r="3" />
	<circle cx="245" cy="163.895" r="3" />
	<circle cx="245" cy="163.5" r="3" />
	<circle cx="245" cy="163.135" r="3" />
	<circle cx="245" cy="163.875" r="3" />
	<circle cx="245" cy="164.035" r="3" />
	<circle cx="245" cy="164.35" r="3" />
	<circle cx="245" cy="168.455" r="3" />
	<circle cx="245" cy="163.75" r="3" />
	<circle cx="245" cy="163.63" r="3" />
	<circle cx="255" cy="155.69" r="3" />
	<circle cx="255" cy="167.24" r="3" />
	<circle cx="255" cy="163.53" r="3" />
	<circle cx="255" cy="163.35" r="3" />
	<circle cx="255" cy="163.785" r="3" />
	<circle cx="255" cy="163.92" r="3" />
	<circle cx="255" cy="164.21" r="3" />
	<circle cx="255" cy="163.925" r="3" />
	<circle cx="255" cy="163.595" r="3" />
	<circle cx="255" cy="163.035" r="3" />
	<circle cx="255" cy="163.705" r="3" />
	<circle cx="255" cy="164.145" r="3" />
	<circle cx="255" cy="163.825" r="3" />
	<circle cx="255" cy="164.085" r="3" />
	<circle cx="255" cy="163.825" r="3" />
	<circle cx="255" cy="163.32" r="3" />
	<circle cx="255" cy="163.585" r="3" />
	<circle cx="265" cy="154.605" r="3" />
	<circle cx="265" cy="163.495" r="3" />
	<circle cx="265" cy="163.43" r="3" />
	<circle cx="265" cy="162.76" r="3" />
	<circle cx="265" cy="163.405" r="3" />
	<circle cx="265" cy="163.38" r="3" />
	<circle cx="265" cy="163.345" r="3" />
	<circle cx="265" cy="162.8" r="3" />
	<circle cx="265" cy="163.375" r="3" />
	<circle cx="265" cy="163.225" r="3" />
	<circle cx="265" cy="163.47" r="3" />
	<circle cx="265" cy="163.05" r="3" />
	<circle cx="265" cy="163.315" r="3" />
	<circle cx="265" cy="163.275" r="3" />
	<circle cx="265" cy="163.48" r="3" />
	<circle cx="265" cy="163.38" r="3" />
	<circle cx="275" cy="149.045" r="3" />
	<circle cx="275" cy="161.22" r="3" />
	<circle cx="275" cy="162.96" r="3" />
	<circle cx="275" cy="163.74" r="3" />
	<circle cx="275" cy="163.615" r="3" />
	<circle cx="275" cy="163.15" r="3" />
	<circle cx="275" cy="163.08" r="3" />
	<circle cx="275" cy="162.87" r="3" />
	<circle cx="275" cy="163.31" r="3" />
	<circle cx="275" cy="163.96" r="3" />
	<circle cx="275" cy="164.075" r="3" />
	<circle cx="275" cy="164.11" r="3" />
	<circle cx="275" cy="163.77" r="3" />
	<circle cx="275" cy="163.35" r="3" />
	<circle cx="275" cy="163.3" r="3" />
	<circle cx="275" cy="163.205" r="3" />
	<circle cx="275" cy="163.195" r="3" />
	<circle cx="275" cy="163.115" r="3" />
	<circle cx="275" cy="163" r="3" /><!-- 
	Generated using the Perl SVG Module V2.36
	by Ronan Oger
	Info: http://www.roitsystems.com/
 -->
</svg>