<?xml version="1.0" encoding="UTF-8" standalone="yes"?>
<!DOCTYPE svg PUBLIC "-//W3C//DTD SVG 1.0//EN" "http://www.w3.org/TR/2001/REC-SVG-20010904/DTD/svg10.dtd">
<svg height="161" width="295" xmlns="http://www.w3.org/2000/svg" xmlns:xlink="http://www.w3.org/1999/xlink">
	<line style="stroke: blue; stroke-width: 1" x1="70" x2="280" y1="141" y2="141" />	<text text-anchor="end" x="70" y="141">0.00
	</text>
	<line style="stroke: blue; stroke-width: 1" x1="70" x2="280" y1="91" y2="91" />	<text text-anchor="end" x="70" y="91">0.10
	</text>
	<line style="stroke: blue; stroke-width: 1" x1="70" x2="280" y1="41" y2="41" />	<text text-anchor="end" x="70" y="41">0.20
	</text>
	<circle cx="75" cy="140.9895" r="3" />
	<circle cx="75" cy="140.9975" r="3" />
	<circle cx="75" cy="140.996" r="3" />
	<circle cx="75" cy="140.992" r="3" />
	<circle cx="75" cy="140.986" r="3" />
	<circle cx="75" cy="140.992" r="3" />
	<circle cx="75" cy="140.9915" r="3" />
	<circle cx="75" cy="140.99" r="3" />
	<circle cx="75" cy="140.992" r="3" />
	<circle cx="75" cy="140.9915" r="3" />
	<circle cx="75" cy="140.992" r="3" />
	<circle cx="75" cy="140.991" r="3" />
	<circle cx="75" cy="140.9685" r="3" />
	<circle cx="75" cy="140.9915" r="3" />
	<circle cx="75" cy="140.992" r="3" />
	<circle cx="75" cy="140.992" r="3" />
	<circle cx="75" cy="140.9915" r="3" />
	<circle cx="75" cy="140.9975" r="3" />
	<circle cx="75" cy="140.9915" r="3" />
	<circle cx="75" cy="140.992" r="3" />
	<circle cx="75" cy="140.992" r="3" />
	<circle cx="75" cy="140.997" r="3" />
	<circle cx="85" cy="131.1155" r="3" />
	<circle cx="85" cy="140.3795" r="3" />
	<circle cx="85" cy="140.4285" r="3" />
	<circle cx="85" cy="140.409" r="3" />
	<circle cx="85" cy="140.3535" r="3" />
	<circle cx="85" cy="140.3585" r="3" />
	<circle cx="85" cy="140.2025" r="3" />
	<circle cx="85" cy="140.3785" r="3" />
	<circle cx="85" cy="140.444" r="3" />
	<circle cx="85" cy="140.412" r="3" />
	<circle cx="85" cy="140.4255" r="3" />
	<circle cx="85" cy="140.3715" r="3" />
	<circle cx="85" cy="140.3855" r="3" />
	<circle cx="85" cy="140.413" r="3" />
	<circle cx="85" cy="140.429" r="3" />
	<circle cx="85" cy="140.392" r="3" />
	<circle cx="85" cy="140.3745" r="3" />
	<circle cx="85" cy="140.382" r="3" />
	<circle cx="85" cy="140.353" r="3" />
	<circle cx="85" cy="140.378" r="3" />
	<circle cx="95" cy="134.072" r="3" />
	<circle cx="95" cy="140.2155" r="3" />
	<circle cx="95" cy="140.211" r="3" />
	<circle cx="95" cy="140.216" r="3" />
	<circle cx="95" cy="140.206" r="3" />
	<circle cx="95" cy="140.28" r="3" />
	<circle cx="95" cy="140.265" r="3" />
	<circle cx="95" cy="140.218" r="3" />
	<circle cx="95" cy="140.221" r="3" />
	<circle cx="95" cy="140.2145" r="3" />
	<circle cx="95" cy="140.267" r="3" />
	<circle cx="95" cy="140.3" r="3" />
	<circle cx="95" cy="140.303" r="3" />
	<circle cx="95" cy="140.283" r="3" />
	<circle cx="95" cy="140.258" r="3" />
	<circle cx="95" cy="140.225" r="3" />
	<circle cx="95" cy="140.222" r="3" />
	<circle cx="95" cy="140.1995" r="3" />
	<circle cx="105" cy="138.267" r="3" />
	<circle cx="105" cy="140.058" r="3" />
	<circle cx="105" cy="140.0245" r="3" />
	<circle cx="105" cy="140.075" r="3" />
	<circle cx="105" cy="140.1875" r="3" />
	<circle cx="105" cy="139.9745" r="3" />
	<circle cx="105" cy="140.108" r="3" />
	<circle cx="105" cy="140.087" r="3" />
	<circle cx="105" cy="140.1405" r="3" />
	<circle cx="105" cy="140.1575" r="3" />
	<circle cx="105" cy="140.146" r="3" />
	<circle cx="105" cy="140.142" r="3" />
	<circle cx="105" cy="140.0605" r="3" />
	<circle cx="105" cy="140.0855" r="3" />
	<circle cx="105" cy="140.0685" r="3" />
	<circle cx="115" cy="137.4675" r="3" />
	<circle cx="115" cy="139.6525" r="3" />
	<circle cx="115" cy="139.895" r="3" />
	<circle cx="115" cy="139.924" r="3" />
	<circle cx="115" cy="140.032" r="3" />
	<circle cx="115" cy="139.992" r="3" />
	<circle cx="115" cy="139.9355" r="3" />
	<circle cx="115" cy="139.9485" r="3" />
	<circle cx="115" cy="139.9545" r="3" />
	<circle cx="115" cy="140.028" r="3" />
	<circle cx="115" cy="140.01" r="3" />
	<circle cx="115" cy="139.9955" r="3" />
	<circle cx="115" cy="139.9205" r="3" />
	<circle cx="115" cy="139.8945" r="3" />
	<circle cx="115" cy="139.939" r="3" />
	<circle cx="115" cy="139.94" r="3" />
	<circle cx="125" cy="137.5045" r="3" />
	<circle cx="125" cy="139.428" r="3" />
	<circle cx="125" cy="139.8045" r="3" />
	<circle cx="125" cy="139.781" r="3" />
	<circle cx="125" cy="139.8655" r="3" />
	<circle cx="125" cy="139.8245" r="3" />
	<circle cx="125" cy="139.7575" r="3" />
	<circle cx="125" cy="139.799" r="3" />
	<circle cx="125" cy="139.862" r="3" />
	<circle cx="125" cy="139.737" r="3" />
	<circle cx="125" cy="140.304" r="3" />
	<circle cx="125" cy="139.8035" r="3" />
	<circle cx="125" cy="139.7935" r="3" />
	<circle cx="125" cy="139.6615" r="3" />
	<circle cx="125" cy="139.7445" r="3" />
	<circle cx="125" cy="139.7475" r="3" />
	<circle cx="125" cy="139.795" r="3" />
	<circle cx="125" cy="139.783" r="3" />
	<circle cx="135" cy="135.834" r="3" />
	<circle cx="135" cy="139.2475" r="3" />
	<circle cx="135" cy="139.6795" r="3" />
	<circle cx="135" cy="139.721" r="3" />
	<circle cx="135" cy="139.657" r="3" />
	<circle cx="135" cy="139.6645" r="3" />
	<circle cx="135" cy="139.6325" r="3" />
	<circle cx="135" cy="139.1865" r="3" />
	<circle cx="135" cy="139.675" r="3" />
	<circle cx="135" cy="139.7325" r="3" />
	<circle cx="135" cy="139.716" r="3" />
	<circle cx="135" cy="139.669" r="3" />
	<circle cx="135" cy="139.6645" r="3" />
	<circle cx="135" cy="139.7435" r="3" />
	<circle cx="135" cy="139.628" r="3" />
	<circle cx="135" cy="139.516" r="3" />
	<circle cx="135" cy="139.674" r="3" />
	<circle cx="135" cy="139.734" r="3" />
	<circle cx="135" cy="139.6625" r="3" />
	<circle cx="135" cy="139.654" r="3" />
	<circle cx="135" cy="139.468" r="3" />
	<circle cx="135" cy="139.629" r="3" />
	<circle cx="135" cy="139.645" r="3" />
	<circle cx="135" cy="139.6455" r="3" />
	<circle cx="135" cy="139.664" r="3" />
	<circle cx="135" cy="139.644" r="3" />
	<circle cx="135" cy="139.378" r="3" />
	<circle cx="145" cy="135.1095" r="3" />
	<circle cx="145" cy="139.3355" r="3" />
	<circle cx="145" cy="100.758" r="3" />
	<circle cx="145" cy="139.1385" r="3" />
	<circle cx="145" cy="139.599" r="3" />
	<circle cx="145" cy="139.5315" r="3" />
	<circle cx="145" cy="139.5105" r="3" />
	<circle cx="145" cy="139.518" r="3" />
	<circle cx="145" cy="139.546" r="3" />
	<circle cx="145" cy="139.5725" r="3" />
	<circle cx="145" cy="139.531" r="3" />
	<circle cx="145" cy="139.5055" r="3" />
	<circle cx="145" cy="139.482" r="3" />
	<circle cx="155" cy="134.844" r="3" />
	<circle cx="155" cy="139.385" r="3" />
	<circle cx="155" cy="139.3535" r="3" />
	<circle cx="155" cy="139.382" r="3" />
	<circle cx="155" cy="139.455" r="3" />
	<circle cx="155" cy="139.4545" r="3" />
	<circle cx="155" cy="139.4315" r="3" />
	<circle cx="155" cy="139.4745" r="3" />
	<circle cx="155" cy="139.463" r="3" />
	<circle cx="155" cy="139.4385" r="3" />
	<circle cx="155" cy="139.405" r="3" />
	<circle cx="155" cy="139.3765" r="3" />
	<circle cx="165" cy="134.362" r="3" />
	<circle cx="165" cy="139.2315" r="3" />
	<circle cx="165" cy="116.5015" r="3" />
	<circle cx="165" cy="139.198" r="3" />
	<circle cx="165" cy="139.294" r="3" />
	<circle cx="165" cy="139.2955" r="3" />
	<circle cx="165" cy="139.3415" r="3" />
	<circle cx="165" cy="139.3615" r="3" />
	<circle cx="165" cy="139.3155" r="3" />
	<circle cx="165" cy="139.2785" r="3" />
	<circle cx="165" cy="139.2535" r="3" />
	<circle cx="165" cy="139.274" r="3" />
	<circle cx="165" cy="139.2515" r="3" />
	<circle cx="165" cy="139.235" r="3" />
	<circle cx="175" cy="132.6335" r="3" />
	<circle cx="175" cy="138.467" r="3" />
	<circle cx="175" cy="139.1845" r="3" />
	<circle cx="175" cy="139.145" r="3" />
	<circle cx="175" cy="139.1075" r="3" />
	<circle cx="175" cy="139.1525" r="3" />
	<circle cx="175" cy="139.2295" r="3" />
	<circle cx="175" cy="139.162" r="3" />
	<circle cx="175" cy="139.137" r="3" />
	<circle cx="175" cy="139.1765" r="3" />
	<circle cx="175" cy="139.075" r="3" />
	<circle cx="175" cy="139.141" r="3" />
	<circle cx="175" cy="139.214" r="3" />
	<circle cx="175" cy="139.1975" r="3" />
	<circle cx="175" cy="139.1295" r="3" />
	<circle cx="175" cy="139.1025" r="3" />
	<circle cx="175" cy="139.05" r="3" />
	<circle cx="185" cy="133.0845" r="3" />
	<circle cx="185" cy="138.9625" r="3" />
	<circle cx="185" cy="138.987" r="3" />
	<circle cx="185" cy="139.057" r="3" />
	<circle cx="185" cy="139.04" r="3" />
	<circle cx="185" cy="138.977" r="3" />
	<circle cx="185" cy="139.079" r="3" />
	<circle cx="185" cy="139.0685" r="3" />
	<circle cx="185" cy="139.0655" r="3" />
	<circle cx="185" cy="138.988" r="3" />
	<circle cx="185" cy="139.0255" r="3" />
	<circle cx="185" cy="139.025" r="3" />
	<circle cx="185" cy="138.9625" r="3" />
	<circle cx="185" cy="138.9795" r="3" />
	<circle cx="185" cy="138.9615" r="3" />
	<circle cx="195" cy="132.204" r="3" />
	<circle cx="195" cy="138.1315" r="3" />
	<circle cx="195" cy="138.9025" r="3" />
	<circle cx="195" cy="138.8835" r="3" />
	<circle cx="195" cy="138.852" r="3" />
	<circle cx="195" cy="138.933" r="3" />
	<circle cx="195" cy="138.917" r="3" />
	<circle cx="195" cy="138.893" r="3" />
	<circle cx="195" cy="138.8405" r="3" />
	<circle cx="195" cy="138.9145" r="3" />
	<circle cx="195" cy="138.945" r="3" />
	<circle cx="195" cy="138.92" r="3" />
	<circle cx="195" cy="138.9315" r="3" />
	<circle cx="195" cy="138.9645" r="3" />
	<circle cx="195" cy="138.9235" r="3" />
	<circle cx="195" cy="138.8935" r="3" />
	<circle cx="195" cy="138.8785" r="3" />
	<circle cx="195" cy="138.8635" r="3" />
	<circle cx="195" cy="138.846" r="3" />
	<circle cx="205" cy="132.1015" r="3" />
	<circle cx="205" cy="137.9475" r="3" />
	<circle cx="205" cy="138.72" r="3" />
	<circle cx="205" cy="138.7755" r="3" />
	<circle cx="205" cy="138.3425" r="3" />
	<circle cx="205" cy="138.806" r="3" />
	<circle cx="205" cy="138.833" r="3" />
	<circle cx="205" cy="138.795" r="3" />
	<circle cx="205" cy="138.7615" r="3" />
	<circle cx="205" cy="138.6865" r="3" />
	<circle cx="205" cy="138.757" r="3" />
	<circle cx="205" cy="138.8105" r="3" />
	<circle cx="205" cy="138.8275" r="3" />
	<circle cx="205" cy="138.8145" r="3" />
	<circle cx="205" cy="138.7335" r="3" />
	<circle cx="205" cy="138.7205" r="3" />
	<circle cx="205" cy="138.524" r="3" />
	<circle cx="205" cy="138.707" r="3" />
	<circle cx="205" cy="137.6685" r="3" />
	<circle cx="215" cy="128.8475" r="3" />
	<circle cx="215" cy="137.6735" r="3" />
	<circle cx="215" cy="138.672" r="3" />
	<circle cx="215" cy="138.6035" r="3" />
	<circle cx="215" cy="138.579" r="3" />
	<circle cx="215" cy="138.68" r="3" />
	<circle cx="215" cy="138.6625" r="3" />
	<circle cx="215" cy="138.6675" r="3" />
	<circle cx="215" cy="138.6495" r="3" />
	<circle cx="215" cy="138.604" r="3" />
	<circle cx="215" cy="138.601" r="3" />
	<circle cx="215" cy="138.6445" r="3" />
	<circle cx="215" cy="138.6795" r="3" />
	<circle cx="215" cy="138.619" r="3" />
	<circle cx="215" cy="138.689" r="3" />
	<circle cx="215" cy="138.661" r="3" />
	<circle cx="215" cy="138.5975" r="3" />
	<circle cx="215" cy="138.5685" r="3" />
	<circle cx="215" cy="138.556" r="3" />
	<circle cx="225" cy="127.833" r="3" />
	<circle cx="225" cy="137.5155" r="3" />
	<circle cx="225" cy="138.4435" r="3" />
	<circle cx="225" cy="138.435" r="3" />
	<circle cx="225" cy="101.7425" r="3" />
	<circle cx="225" cy="138.5505" r="3" />
	<circle cx="225" cy="138.5075" r="3" />
	<circle cx="225" cy="138.4705" r="3" />
	<circle cx="225" cy="138.483" r="3" />
	<circle cx="225" cy="138.462" r="3" />
	<circle cx="225" cy="138.485" r="3" />
	<circle cx="225" cy="138.556" r="3" />
	<circle cx="225" cy="138.558" r="3" />
	<circle cx="225" cy="138.4875" r="3" />
	<circle cx="225" cy="138.442" r="3" />
	<circle cx="225" cy="138.4655" r="3" />
	<circle cx="225" cy="138.4465" r="3" />
	<circle cx="225" cy="138.422" r="3" />
	<circle cx="235" cy="129.349" r="3" />
	<circle cx="235" cy="137.36" r="3" />
	<circle cx="235" cy="138.213" r="3" />
	<circle cx="235" cy="138.35" r="3" />
	<circle cx="235" cy="138.366" r="3" />
	<circle cx="235" cy="138.273" r="3" />
	<circle cx="235" cy="138.3505" r="3" />
	<circle cx="235" cy="138.3905" r="3" />
	<circle cx="235" cy="138.367" r="3" />
	<circle cx="235" cy="90.9255" r="3" />
	<circle cx="235" cy="138.3345" r="3" />
	<circle cx="235" cy="138.8055" r="3" />
	<circle cx="235" cy="138.2825" r="3" />
	<circle cx="235" cy="138.285" r="3" />
	<circle cx="235" cy="138.2665" r="3" />
	<circle cx="235" cy="138.787" r="3" />
	<circle cx="245" cy="128.686" r="3" />
	<circle cx="245" cy="138.1145" r="3" />
	<circle cx="245" cy="138.197" r="3" />
	<circle cx="245" cy="138.2435" r="3" />
	<circle cx="245" cy="138.1225" r="3" />
	<circle cx="245" cy="138.2355" r="3" />
	<circle cx="245" cy="138.232" r="3" />
	<circle cx="245" cy="138.2255" r="3" />
	<circle cx="245" cy="138.1405" r="3" />
	<circle cx="245" cy="138.1695" r="3" />
	<circle cx="245" cy="138.2585" r="3" />
	<circle cx="245" cy="138.206" r="3" />
	<circle cx="245" cy="138.198" r="3" />
	<circle cx="245" cy="137.9025" r="3" />
	<circle cx="255" cy="128.3455" r="3" />
	<circle cx="255" cy="136.6065" r="3" />
	<circle cx="255" cy="137.2765" r="3" />
	<circle cx="255" cy="138.0135" r="3" />
	<circle cx="255" cy="138.095" r="3" />
	<circle cx="255" cy="138.104" r="3" />
	<circle cx="255" cy="138.045" r="3" />
	<circle cx="255" cy="138.0825" r="3" />
	<circle cx="255" cy="138.066" r="3" />
	<circle cx="255" cy="138.0595" r="3" />
	<circle cx="255" cy="137.3335" r="3" />
	<circle cx="255" cy="138.113" r="3" />
	<circle cx="255" cy="138.0865" r="3" />
	<circle cx="255" cy="138.054" r="3" />
	<circle cx="255" cy="138.078" r="3" />
	<circle cx="255" cy="138.0195" r="3" />
	<circle cx="255" cy="138.047" r="3" />
	<circle cx="255" cy="138.04" r="3" />
	<circle cx="265" cy="127.698" r="3" />
	<circle cx="265" cy="136.608" r="3" />
	<circle cx="265" cy="137.677" r="3" />
	<circle cx="265" cy="137.8425" r="3" />
	<circle cx="265" cy="137.84" r="3" />
	<circle cx="265" cy="137.844" r="3" />
	<circle cx="265" cy="137.9235" r="3" />
	<circle cx="265" cy="137.9105" r="3" />
	<circle cx="265" cy="137.836" r="3" />
	<circle cx="265" cy="137.8845" r="3" />
	<circle cx="265" cy="137.959" r="3" />
	<circle cx="265" cy="35.7635" r="3" />
	<circle cx="265" cy="136.7845" r="3" />
	<circle cx="265" cy="137.8815" r="3" />
	<circle cx="265" cy="137.8285" r="3" />
	<circle cx="275" cy="127.007" r="3" />
	<circle cx="275" cy="137.714" r="3" />
	<circle cx="275" cy="137.8655" r="3" />
	<circle cx="275" cy="137.829" r="3" />
	<circle cx="275" cy="137.8255" r="3" />
	<circle cx="275" cy="137.881" r="3" />
	<circle cx="275" cy="137.7785" r="3" />
	<circle cx="275" cy="137.852" r="3" />
	<circle cx="275" cy="137.8585" r="3" />
	<circle cx="275" cy="137.798" r="3" />
	<circle cx="275" cy="137.7805" r="3" />
	<circle cx="275" cy="137.7935" r="3" />
	<circle cx="275" cy="137.8085" r="3" />
	<circle cx="275" cy="137.7675" r="3" />
	<circle cx="275" cy="19.051" r="3" />
	<circle cx="275" cy="137.745" r="3" /><!-- 
	Generated using the Perl SVG Module V2.36
	by Ronan Oger
	Info: http://www.roitsystems.com/
 -->
</svg>