<?xml version="1.0" encoding="UTF-8" standalone="yes"?>
<!DOCTYPE svg PUBLIC "-//W3C//DTD SVG 1.0//EN" "http://www.w3.org/TR/2001/REC-SVG-20010904/DTD/svg10.dtd">
<svg height="187" width="295" xmlns="http://www.w3.org/2000/svg" xmlns:xlink="http://www.w3.org/1999/xlink">
	<line style="stroke: blue; stroke-width: 1" x1="70" x2="280" y1="167" y2="167" />	<text text-anchor="end" x="70" y="167">0.00
	</text>
	<line style="stroke: blue; stroke-width: 1" x1="70" x2="280" y1="117" y2="117" />	<text text-anchor="end" x="70" y="117">0.20
	</text>
	<line style="stroke: blue; stroke-width: 1" x1="70" x2="280" y1="67" y2="67" />	<text text-anchor="end" x="70" y="67">0.40
	</text>
	<circle cx="75" cy="166.997" r="3" />
	<circle cx="75" cy="166.99775" r="3" />
	<circle cx="75" cy="166.99775" r="3" />
	<circle cx="75" cy="166.99575" r="3" />
	<circle cx="75" cy="166.99375" r="3" />
	<circle cx="75" cy="166.9955" r="3" />
	<circle cx="75" cy="166.996" r="3" />
	<circle cx="75" cy="166.99475" r="3" />
	<circle cx="75" cy="166.9935" r="3" />
	<circle cx="75" cy="166.996" r="3" />
	<circle cx="75" cy="166.99625" r="3" />
	<circle cx="75" cy="166.997" r="3" />
	<circle cx="75" cy="166.99575" r="3" />
	<circle cx="75" cy="166.9955" r="3" />
	<circle cx="75" cy="166.9955" r="3" />
	<circle cx="75" cy="166.996" r="3" />
	<circle cx="75" cy="166.99625" r="3" />
	<circle cx="75" cy="166.99575" r="3" />
	<circle cx="75" cy="166.99525" r="3" />
	<circle cx="75" cy="166.99625" r="3" />
	<circle cx="75" cy="166.996" r="3" />
	<circle cx="75" cy="166.996" r="3" />
	<circle cx="75" cy="166.9985" r="3" />
	<circle cx="75" cy="166.996" r="3" />
	<circle cx="75" cy="166.99575" r="3" />
	<circle cx="85" cy="165.6975" r="3" />
	<circle cx="85" cy="166.3845" r="3" />
	<circle cx="85" cy="166.55875" r="3" />
	<circle cx="85" cy="166.4485" r="3" />
	<circle cx="85" cy="166.55025" r="3" />
	<circle cx="85" cy="166.4825" r="3" />
	<circle cx="85" cy="166.667" r="3" />
	<circle cx="85" cy="166.65" r="3" />
	<circle cx="85" cy="166.6655" r="3" />
	<circle cx="85" cy="166.642" r="3" />
	<circle cx="85" cy="166.295" r="3" />
	<circle cx="85" cy="166.6175" r="3" />
	<circle cx="85" cy="166.51475" r="3" />
	<circle cx="85" cy="166.643" r="3" />
	<circle cx="85" cy="166.654" r="3" />
	<circle cx="85" cy="166.62875" r="3" />
	<circle cx="85" cy="166.552" r="3" />
	<circle cx="85" cy="166.5285" r="3" />
	<circle cx="85" cy="166.591" r="3" />
	<circle cx="95" cy="162.9385" r="3" />
	<circle cx="95" cy="166.306" r="3" />
	<circle cx="95" cy="165.90875" r="3" />
	<circle cx="95" cy="166.51475" r="3" />
	<circle cx="95" cy="166.51725" r="3" />
	<circle cx="95" cy="166.40925" r="3" />
	<circle cx="95" cy="166.297" r="3" />
	<circle cx="95" cy="166.49425" r="3" />
	<circle cx="95" cy="166.3145" r="3" />
	<circle cx="95" cy="166.45525" r="3" />
	<circle cx="95" cy="166.50925" r="3" />
	<circle cx="95" cy="166.40125" r="3" />
	<circle cx="95" cy="166.50925" r="3" />
	<circle cx="95" cy="166.5395" r="3" />
	<circle cx="95" cy="165.75325" r="3" />
	<circle cx="95" cy="166.45775" r="3" />
	<circle cx="95" cy="166.496" r="3" />
	<circle cx="95" cy="166.37925" r="3" />
	<circle cx="95" cy="165.996" r="3" />
	<circle cx="95" cy="166.47525" r="3" />
	<circle cx="95" cy="166.48175" r="3" />
	<circle cx="95" cy="166.4815" r="3" />
	<circle cx="95" cy="166.47525" r="3" />
	<circle cx="95" cy="166.52325" r="3" />
	<circle cx="95" cy="166.52775" r="3" />
	<circle cx="95" cy="166.515" r="3" />
	<circle cx="95" cy="166.50675" r="3" />
	<circle cx="95" cy="166.3915" r="3" />
	<circle cx="95" cy="166.47725" r="3" />
	<circle cx="95" cy="166.471" r="3" />
	<circle cx="95" cy="166.397" r="3" />
	<circle cx="95" cy="166.02925" r="3" />
	<circle cx="95" cy="166.44475" r="3" />
	<circle cx="95" cy="166.45825" r="3" />
	<circle cx="105" cy="160.212" r="3" />
	<circle cx="105" cy="155.11225" r="3" />
	<circle cx="105" cy="166.3515" r="3" />
	<circle cx="105" cy="166.08" r="3" />
	<circle cx="105" cy="166.37425" r="3" />
	<circle cx="105" cy="166.37375" r="3" />
	<circle cx="105" cy="166.344" r="3" />
	<circle cx="105" cy="165.24675" r="3" />
	<circle cx="105" cy="166.04" r="3" />
	<circle cx="105" cy="166.27325" r="3" />
	<circle cx="105" cy="166.3095" r="3" />
	<circle cx="105" cy="152.5235" r="3" />
	<circle cx="105" cy="166.15" r="3" />
	<circle cx="105" cy="166.3325" r="3" />
	<circle cx="105" cy="166.19975" r="3" />
	<circle cx="105" cy="166.32625" r="3" />
	<circle cx="105" cy="166.162" r="3" />
	<circle cx="105" cy="166.24225" r="3" />
	<circle cx="105" cy="166.3135" r="3" />
	<circle cx="105" cy="166.304" r="3" />
	<circle cx="115" cy="164.171" r="3" />
	<circle cx="115" cy="165.3865" r="3" />
	<circle cx="115" cy="166.171" r="3" />
	<circle cx="115" cy="166.19975" r="3" />
	<circle cx="115" cy="166.2285" r="3" />
	<circle cx="115" cy="166.18" r="3" />
	<circle cx="115" cy="166.19025" r="3" />
	<circle cx="115" cy="145.9835" r="3" />
	<circle cx="115" cy="165.9455" r="3" />
	<circle cx="115" cy="166.25675" r="3" />
	<circle cx="115" cy="166.229" r="3" />
	<circle cx="115" cy="166.20075" r="3" />
	<circle cx="115" cy="166.1925" r="3" />
	<circle cx="115" cy="166.093" r="3" />
	<circle cx="115" cy="166.16725" r="3" />
	<circle cx="125" cy="162.80325" r="3" />
	<circle cx="125" cy="165.76325" r="3" />
	<circle cx="125" cy="166.04975" r="3" />
	<circle cx="125" cy="147.20675" r="3" />
	<circle cx="125" cy="165.98275" r="3" />
	<circle cx="125" cy="166.05525" r="3" />
	<circle cx="125" cy="155.85925" r="3" />
	<circle cx="125" cy="165.957" r="3" />
	<circle cx="125" cy="166.0465" r="3" />
	<circle cx="125" cy="165.989" r="3" />
	<circle cx="125" cy="165.91175" r="3" />
	<circle cx="125" cy="165.95875" r="3" />
	<circle cx="125" cy="164.983" r="3" />
	<circle cx="125" cy="166.05475" r="3" />
	<circle cx="135" cy="162.60825" r="3" />
	<circle cx="135" cy="165.51275" r="3" />
	<circle cx="135" cy="145.91775" r="3" />
	<circle cx="135" cy="165.887" r="3" />
	<circle cx="135" cy="165.91575" r="3" />
	<circle cx="135" cy="165.65925" r="3" />
	<circle cx="135" cy="165.9405" r="3" />
	<circle cx="135" cy="165.587" r="3" />
	<circle cx="135" cy="165.2235" r="3" />
	<circle cx="135" cy="165.761" r="3" />
	<circle cx="135" cy="165.86025" r="3" />
	<circle cx="135" cy="165.34" r="3" />
	<circle cx="135" cy="165.90025" r="3" />
	<circle cx="135" cy="165.96675" r="3" />
	<circle cx="135" cy="165.6095" r="3" />
	<circle cx="135" cy="136.13075" r="3" />
	<circle cx="135" cy="165.76375" r="3" />
	<circle cx="135" cy="165.903" r="3" />
	<circle cx="135" cy="165.696" r="3" />
	<circle cx="145" cy="161.3585" r="3" />
	<circle cx="145" cy="165.26575" r="3" />
	<circle cx="145" cy="157.3085" r="3" />
	<circle cx="145" cy="165.7225" r="3" />
	<circle cx="145" cy="165.568" r="3" />
	<circle cx="145" cy="165.7745" r="3" />
	<circle cx="145" cy="165.799" r="3" />
	<circle cx="145" cy="165.76775" r="3" />
	<circle cx="145" cy="166.043" r="3" />
	<circle cx="145" cy="165.44425" r="3" />
	<circle cx="145" cy="165.759" r="3" />
	<circle cx="145" cy="165.78625" r="3" />
	<circle cx="145" cy="165.5" r="3" />
	<circle cx="145" cy="165.75925" r="3" />
	<circle cx="145" cy="164.98875" r="3" />
	<circle cx="155" cy="117.71075" r="3" />
	<circle cx="155" cy="165.4635" r="3" />
	<circle cx="155" cy="164.9005" r="3" />
	<circle cx="155" cy="122.53675" r="3" />
	<circle cx="155" cy="156.307" r="3" />
	<circle cx="155" cy="165.5005" r="3" />
	<circle cx="155" cy="165.461" r="3" />
	<circle cx="155" cy="125.147" r="3" />
	<circle cx="155" cy="165.40375" r="3" />
	<circle cx="155" cy="165.63625" r="3" />
	<circle cx="155" cy="165.59125" r="3" />
	<circle cx="155" cy="165.50925" r="3" />
	<circle cx="155" cy="165.63175" r="3" />
	<circle cx="155" cy="165.555" r="3" />
	<circle cx="155" cy="165.379" r="3" />
	<circle cx="155" cy="165.60475" r="3" />
	<circle cx="165" cy="111.789" r="3" />
	<circle cx="165" cy="156.16" r="3" />
	<circle cx="165" cy="165.39575" r="3" />
	<circle cx="165" cy="165.494" r="3" />
	<circle cx="165" cy="165.43475" r="3" />
	<circle cx="165" cy="165.3695" r="3" />
	<circle cx="165" cy="165.53075" r="3" />
	<circle cx="165" cy="165.52775" r="3" />
	<circle cx="165" cy="158.51325" r="3" />
	<circle cx="165" cy="165.355" r="3" />
	<circle cx="165" cy="119.06575" r="3" />
	<circle cx="165" cy="165.3745" r="3" />
	<circle cx="165" cy="165.37075" r="3" />
	<circle cx="165" cy="165.01025" r="3" />
	<circle cx="165" cy="165.29675" r="3" />
	<circle cx="175" cy="158.49775" r="3" />
	<circle cx="175" cy="138.85125" r="3" />
	<circle cx="175" cy="118.74525" r="3" />
	<circle cx="175" cy="165.1735" r="3" />
	<circle cx="175" cy="106.665" r="3" />
	<circle cx="175" cy="165.296" r="3" />
	<circle cx="175" cy="165.2695" r="3" />
	<circle cx="175" cy="165.26525" r="3" />
	<circle cx="175" cy="120.9295" r="3" />
	<circle cx="175" cy="165.3215" r="3" />
	<circle cx="175" cy="165.254" r="3" />
	<circle cx="175" cy="165.36425" r="3" />
	<circle cx="175" cy="164.9195" r="3" />
	<circle cx="175" cy="165.301" r="3" />
	<circle cx="175" cy="162.3645" r="3" />
	<circle cx="175" cy="165.309" r="3" />
	<circle cx="175" cy="165.34975" r="3" />
	<circle cx="175" cy="165.273" r="3" />
	<circle cx="175" cy="165.30875" r="3" />
	<circle cx="175" cy="165.337" r="3" />
	<circle cx="175" cy="165.3065" r="3" />
	<circle cx="185" cy="98.4315" r="3" />
	<circle cx="185" cy="97.30975" r="3" />
	<circle cx="185" cy="99.63025" r="3" />
	<circle cx="185" cy="101.85775" r="3" />
	<circle cx="185" cy="101.47175" r="3" />
	<circle cx="185" cy="159.96475" r="3" />
	<circle cx="185" cy="104.982" r="3" />
	<circle cx="185" cy="95.685" r="3" />
	<circle cx="185" cy="94.854" r="3" />
	<circle cx="185" cy="96.847" r="3" />
	<circle cx="185" cy="99.41525" r="3" />
	<circle cx="185" cy="159.7375" r="3" />
	<circle cx="185" cy="100.5775" r="3" />
	<circle cx="185" cy="99.61975" r="3" />
	<circle cx="185" cy="98.72475" r="3" />
	<circle cx="195" cy="91.1175" r="3" />
	<circle cx="195" cy="91.07925" r="3" />
	<circle cx="195" cy="91.65125" r="3" />
	<circle cx="195" cy="95.617" r="3" />
	<circle cx="195" cy="92.82275" r="3" />
	<circle cx="195" cy="98.13575" r="3" />
	<circle cx="195" cy="94.76975" r="3" />
	<circle cx="195" cy="92.2545" r="3" />
	<circle cx="195" cy="94.096" r="3" />
	<circle cx="195" cy="151.945" r="3" />
	<circle cx="195" cy="90.55225" r="3" />
	<circle cx="195" cy="90.53325" r="3" />
	<circle cx="195" cy="92.01225" r="3" />
	<circle cx="195" cy="93.1425" r="3" />
	<circle cx="195" cy="92.7455" r="3" />
	<circle cx="195" cy="92.1105" r="3" />
	<circle cx="205" cy="83.761" r="3" />
	<circle cx="205" cy="84.47625" r="3" />
	<circle cx="205" cy="86.7255" r="3" />
	<circle cx="205" cy="88.67775" r="3" />
	<circle cx="205" cy="89.53825" r="3" />
	<circle cx="205" cy="90.18075" r="3" />
	<circle cx="205" cy="86.617" r="3" />
	<circle cx="205" cy="85.90375" r="3" />
	<circle cx="205" cy="82.958" r="3" />
	<circle cx="205" cy="83.40225" r="3" />
	<circle cx="205" cy="83.0895" r="3" />
	<circle cx="205" cy="86.786" r="3" />
	<circle cx="205" cy="87.12075" r="3" />
	<circle cx="205" cy="90.341" r="3" />
	<circle cx="205" cy="86.292" r="3" />
	<circle cx="205" cy="110.89075" r="3" />
	<circle cx="205" cy="85.4685" r="3" />
	<circle cx="205" cy="84.761" r="3" />
	<circle cx="205" cy="86.4245" r="3" />
	<circle cx="205" cy="82.0065" r="3" />
	<circle cx="205" cy="84.19425" r="3" />
	<circle cx="205" cy="83.70875" r="3" />
	<circle cx="215" cy="74.485" r="3" />
	<circle cx="215" cy="76.77475" r="3" />
	<circle cx="215" cy="76.6485" r="3" />
	<circle cx="215" cy="78.88" r="3" />
	<circle cx="215" cy="84.8005" r="3" />
	<circle cx="215" cy="82.41675" r="3" />
	<circle cx="215" cy="79.36775" r="3" />
	<circle cx="215" cy="76.77975" r="3" />
	<circle cx="215" cy="74.30775" r="3" />
	<circle cx="215" cy="75.36175" r="3" />
	<circle cx="215" cy="75.3965" r="3" />
	<circle cx="215" cy="76.059" r="3" />
	<circle cx="215" cy="76.7625" r="3" />
	<circle cx="215" cy="80.1525" r="3" />
	<circle cx="215" cy="78.943" r="3" />
	<circle cx="215" cy="83.019" r="3" />
	<circle cx="215" cy="83.62425" r="3" />
	<circle cx="215" cy="78.2335" r="3" />
	<circle cx="215" cy="78.9765" r="3" />
	<circle cx="215" cy="75.66325" r="3" />
	<circle cx="215" cy="133.94525" r="3" />
	<circle cx="215" cy="69.97875" r="3" />
	<circle cx="215" cy="71.90825" r="3" />
	<circle cx="215" cy="73.56325" r="3" />
	<circle cx="225" cy="67.0135" r="3" />
	<circle cx="225" cy="68.1835" r="3" />
	<circle cx="225" cy="70.3185" r="3" />
	<circle cx="225" cy="72.2165" r="3" />
	<circle cx="225" cy="75.793" r="3" />
	<circle cx="225" cy="76.2805" r="3" />
	<circle cx="225" cy="79.94725" r="3" />
	<circle cx="225" cy="72.10025" r="3" />
	<circle cx="225" cy="71.1885" r="3" />
	<circle cx="225" cy="70.94725" r="3" />
	<circle cx="225" cy="71.779" r="3" />
	<circle cx="225" cy="68.27475" r="3" />
	<circle cx="225" cy="71.03175" r="3" />
	<circle cx="225" cy="71.909" r="3" />
	<circle cx="225" cy="70.6625" r="3" />
	<circle cx="225" cy="74.461" r="3" />
	<circle cx="225" cy="76.4545" r="3" />
	<circle cx="225" cy="77.42475" r="3" />
	<circle cx="225" cy="71.13975" r="3" />
	<circle cx="225" cy="70.73875" r="3" />
	<circle cx="225" cy="66.44175" r="3" />
	<circle cx="225" cy="66.34725" r="3" />
	<circle cx="225" cy="68.26625" r="3" />
	<circle cx="225" cy="76.976" r="3" />
	<circle cx="225" cy="73.37425" r="3" />
	<circle cx="225" cy="125.193" r="3" />
	<circle cx="225" cy="80.02875" r="3" />
	<circle cx="225" cy="79.814" r="3" />
	<circle cx="225" cy="72.2115" r="3" />
	<circle cx="225" cy="64.8965" r="3" />
	<circle cx="225" cy="70.29325" r="3" />
	<circle cx="225" cy="67.0765" r="3" />
	<circle cx="225" cy="68.444" r="3" />
	<circle cx="225" cy="69.62575" r="3" />
	<circle cx="225" cy="75.374" r="3" />
	<circle cx="225" cy="72.415" r="3" />
	<circle cx="225" cy="80.4295" r="3" />
	<circle cx="225" cy="76.40975" r="3" />
	<circle cx="225" cy="70.562" r="3" />
	<circle cx="225" cy="70.96025" r="3" />
	<circle cx="225" cy="66.657" r="3" />
	<circle cx="225" cy="69.79325" r="3" />
	<circle cx="235" cy="60.36925" r="3" />
	<circle cx="235" cy="63.41525" r="3" />
	<circle cx="235" cy="62.29775" r="3" />
	<circle cx="235" cy="72.5885" r="3" />
	<circle cx="235" cy="69.33025" r="3" />
	<circle cx="235" cy="66.556" r="3" />
	<circle cx="235" cy="65.50975" r="3" />
	<circle cx="235" cy="60.891" r="3" />
	<circle cx="235" cy="65.54675" r="3" />
	<circle cx="235" cy="69.35675" r="3" />
	<circle cx="235" cy="64.16225" r="3" />
	<circle cx="235" cy="63.71475" r="3" />
	<circle cx="235" cy="61.58725" r="3" />
	<circle cx="235" cy="57.95575" r="3" />
	<circle cx="235" cy="61.8295" r="3" />
	<circle cx="235" cy="58.25875" r="3" />
	<circle cx="235" cy="66.89875" r="3" />
	<circle cx="235" cy="67.1245" r="3" />
	<circle cx="235" cy="70.41825" r="3" />
	<circle cx="235" cy="71.34675" r="3" />
	<circle cx="235" cy="69.7055" r="3" />
	<circle cx="235" cy="64.6615" r="3" />
	<circle cx="235" cy="62.7135" r="3" />
	<circle cx="235" cy="60.49475" r="3" />
	<circle cx="235" cy="62.78025" r="3" />
	<circle cx="235" cy="64.632" r="3" />
	<circle cx="235" cy="64.0635" r="3" />
	<circle cx="235" cy="59.11675" r="3" />
	<circle cx="235" cy="63.1315" r="3" />
	<circle cx="245" cy="52.3385" r="3" />
	<circle cx="245" cy="55.3215" r="3" />
	<circle cx="245" cy="57.506" r="3" />
	<circle cx="245" cy="51.3615" r="3" />
	<circle cx="245" cy="57.576" r="3" />
	<circle cx="245" cy="60.15" r="3" />
	<circle cx="245" cy="60.73825" r="3" />
	<circle cx="245" cy="53.09925" r="3" />
	<circle cx="245" cy="56.49" r="3" />
	<circle cx="245" cy="56.59925" r="3" />
	<circle cx="245" cy="61.4595" r="3" />
	<circle cx="245" cy="55.3965" r="3" />
	<circle cx="245" cy="53.26625" r="3" />
	<circle cx="245" cy="48.0075" r="3" />
	<circle cx="245" cy="49.80925" r="3" />
	<circle cx="245" cy="54.77675" r="3" />
	<circle cx="245" cy="60.66875" r="3" />
	<circle cx="245" cy="57.57725" r="3" />
	<circle cx="245" cy="61.278" r="3" />
	<circle cx="245" cy="59.3695" r="3" />
	<circle cx="245" cy="59.21" r="3" />
	<circle cx="245" cy="52.22825" r="3" />
	<circle cx="245" cy="56.71325" r="3" />
	<circle cx="245" cy="49.27275" r="3" />
	<circle cx="245" cy="54.55025" r="3" />
	<circle cx="245" cy="49.8215" r="3" />
	<circle cx="245" cy="53.1495" r="3" />
	<circle cx="245" cy="58.7685" r="3" />
	<circle cx="245" cy="60.36425" r="3" />
	<circle cx="245" cy="63.5375" r="3" />
	<circle cx="245" cy="60.955" r="3" />
	<circle cx="245" cy="58.386" r="3" />
	<circle cx="245" cy="52.6685" r="3" />
	<circle cx="245" cy="50.9405" r="3" />
	<circle cx="245" cy="49.11625" r="3" />
	<circle cx="245" cy="112.113" r="3" />
	<circle cx="245" cy="51.97275" r="3" />
	<circle cx="255" cy="43.8705" r="3" />
	<circle cx="255" cy="47.9135" r="3" />
	<circle cx="255" cy="48.3875" r="3" />
	<circle cx="255" cy="53.16425" r="3" />
	<circle cx="255" cy="48.7795" r="3" />
	<circle cx="255" cy="56.7455" r="3" />
	<circle cx="255" cy="48.95525" r="3" />
	<circle cx="255" cy="51.95675" r="3" />
	<circle cx="255" cy="49.777" r="3" />
	<circle cx="255" cy="57.8675" r="3" />
	<circle cx="255" cy="52.801" r="3" />
	<circle cx="255" cy="52.82" r="3" />
	<circle cx="255" cy="49.9945" r="3" />
	<circle cx="255" cy="48.45775" r="3" />
	<circle cx="255" cy="46.371" r="3" />
	<circle cx="255" cy="53.3955" r="3" />
	<circle cx="255" cy="55.08325" r="3" />
	<circle cx="255" cy="55.393" r="3" />
	<circle cx="255" cy="48.20175" r="3" />
	<circle cx="255" cy="52.04925" r="3" />
	<circle cx="255" cy="41.14725" r="3" />
	<circle cx="255" cy="43.187" r="3" />
	<circle cx="255" cy="53.87225" r="3" />
	<circle cx="255" cy="51.4605" r="3" />
	<circle cx="255" cy="54.7865" r="3" />
	<circle cx="255" cy="57.0995" r="3" />
	<circle cx="255" cy="55.56575" r="3" />
	<circle cx="255" cy="53.08125" r="3" />
	<circle cx="255" cy="50.929" r="3" />
	<circle cx="255" cy="51.47925" r="3" />
	<circle cx="255" cy="58.27675" r="3" />
	<circle cx="255" cy="57.35625" r="3" />
	<circle cx="255" cy="53.8925" r="3" />
	<circle cx="255" cy="48.9695" r="3" />
	<circle cx="255" cy="48.43" r="3" />
	<circle cx="255" cy="43.23875" r="3" />
	<circle cx="255" cy="44.70275" r="3" />
	<circle cx="255" cy="47.0755" r="3" />
	<circle cx="255" cy="48.7865" r="3" />
	<circle cx="265" cy="37.92775" r="3" />
	<circle cx="265" cy="41.84575" r="3" />
	<circle cx="265" cy="37.65375" r="3" />
	<circle cx="265" cy="44.71" r="3" />
	<circle cx="265" cy="47.3335" r="3" />
	<circle cx="265" cy="48.6285" r="3" />
	<circle cx="265" cy="44.40575" r="3" />
	<circle cx="265" cy="45.76725" r="3" />
	<circle cx="265" cy="35.25875" r="3" />
	<circle cx="265" cy="39.5355" r="3" />
	<circle cx="265" cy="42.446" r="3" />
	<circle cx="265" cy="44.568" r="3" />
	<circle cx="265" cy="47.02825" r="3" />
	<circle cx="265" cy="39.3025" r="3" />
	<circle cx="265" cy="39.1515" r="3" />
	<circle cx="265" cy="38.614" r="3" />
	<circle cx="265" cy="35.1685" r="3" />
	<circle cx="265" cy="47.00725" r="3" />
	<circle cx="265" cy="51.64" r="3" />
	<circle cx="265" cy="52.5225" r="3" />
	<circle cx="265" cy="50.489" r="3" />
	<circle cx="265" cy="48.37425" r="3" />
	<circle cx="265" cy="46.04125" r="3" />
	<circle cx="265" cy="46.2765" r="3" />
	<circle cx="265" cy="39.35575" r="3" />
	<circle cx="265" cy="43.244" r="3" />
	<circle cx="265" cy="37.45275" r="3" />
	<circle cx="265" cy="38.326" r="3" />
	<circle cx="275" cy="28.398" r="3" />
	<circle cx="275" cy="31.2615" r="3" />
	<circle cx="275" cy="31.85475" r="3" />
	<circle cx="275" cy="33.89475" r="3" />
	<circle cx="275" cy="39.06925" r="3" />
	<circle cx="275" cy="27.141" r="3" />
	<circle cx="275" cy="29.37725" r="3" />
	<circle cx="275" cy="31.39825" r="3" />
	<circle cx="275" cy="39.3485" r="3" />
	<circle cx="275" cy="36.2925" r="3" />
	<circle cx="275" cy="34.881" r="3" />
	<circle cx="275" cy="36.3465" r="3" />
	<circle cx="275" cy="34.28825" r="3" />
	<circle cx="275" cy="38.51775" r="3" />
	<circle cx="275" cy="33.7065" r="3" />
	<circle cx="275" cy="25.60175" r="3" />
	<circle cx="275" cy="30.936" r="3" />
	<circle cx="275" cy="25.92225" r="3" />
	<circle cx="275" cy="33.914" r="3" />
	<circle cx="275" cy="36.38675" r="3" />
	<circle cx="275" cy="33.82" r="3" />
	<circle cx="275" cy="37.82075" r="3" />
	<circle cx="275" cy="37.47925" r="3" />
	<circle cx="275" cy="36.39725" r="3" />
	<circle cx="275" cy="29.28225" r="3" />
	<circle cx="275" cy="32.362" r="3" />
	<circle cx="275" cy="27.076" r="3" />
	<circle cx="275" cy="26.051" r="3" />
	<circle cx="275" cy="33.96025" r="3" />
	<circle cx="275" cy="33.3405" r="3" />
	<circle cx="275" cy="33.65875" r="3" />
	<circle cx="275" cy="39.3715" r="3" />
	<circle cx="275" cy="40.5765" r="3" />
	<circle cx="275" cy="36.424" r="3" />
	<circle cx="275" cy="28.78425" r="3" />
	<circle cx="275" cy="28.80725" r="3" />
	<circle cx="275" cy="19.615" r="3" />
	<circle cx="275" cy="26.01225" r="3" /><!-- 
	Generated using the Perl SVG Module V2.36
	by Ronan Oger
	Info: http://www.roitsystems.com/
 -->
</svg>