<?xml version="1.0" encoding="UTF-8" standalone="yes"?>
<!DOCTYPE svg PUBLIC "-//W3C//DTD SVG 1.0//EN" "http://www.w3.org/TR/2001/REC-SVG-20010904/DTD/svg10.dtd">
<svg height="170" width="295" xmlns="http://www.w3.org/2000/svg" xmlns:xlink="http://www.w3.org/1999/xlink">
	<line style="stroke: blue; stroke-width: 1" x1="70" x2="280" y1="150" y2="150" />	<text text-anchor="end" x="70" y="150">0.00
	</text>
	<line style="stroke: blue; stroke-width: 1" x1="70" x2="280" y1="100" y2="100" />	<text text-anchor="end" x="70" y="100">0.02
	</text>
	<line style="stroke: blue; stroke-width: 1" x1="70" x2="280" y1="50" y2="50" />	<text text-anchor="end" x="70" y="50">0.04
	</text>
	<circle cx="75" cy="149.9675" r="3" />
	<circle cx="75" cy="149.985" r="3" />
	<circle cx="75" cy="149.9725" r="3" />
	<circle cx="75" cy="149.9775" r="3" />
	<circle cx="75" cy="149.9675" r="3" />
	<circle cx="75" cy="149.9675" r="3" />
	<circle cx="75" cy="149.9675" r="3" />
	<circle cx="75" cy="149.9675" r="3" />
	<circle cx="75" cy="149.9725" r="3" />
	<circle cx="75" cy="149.97" r="3" />
	<circle cx="75" cy="149.995" r="3" />
	<circle cx="75" cy="149.9725" r="3" />
	<circle cx="75" cy="149.975" r="3" />
	<circle cx="75" cy="149.97" r="3" />
	<circle cx="75" cy="149.97" r="3" />
	<circle cx="75" cy="149.97" r="3" />
	<circle cx="75" cy="149.9725" r="3" />
	<circle cx="75" cy="149.97" r="3" />
	<circle cx="75" cy="149.9775" r="3" />
	<circle cx="75" cy="149.9675" r="3" />
	<circle cx="75" cy="149.9725" r="3" />
	<circle cx="75" cy="149.9725" r="3" />
	<circle cx="75" cy="149.97" r="3" />
	<circle cx="75" cy="149.975" r="3" />
	<circle cx="75" cy="149.97" r="3" />
	<circle cx="75" cy="149.97" r="3" />
	<circle cx="75" cy="149.97" r="3" />
	<circle cx="75" cy="149.9725" r="3" />
	<circle cx="85" cy="145.36" r="3" />
	<circle cx="85" cy="144.1825" r="3" />
	<circle cx="85" cy="145.335" r="3" />
	<circle cx="85" cy="145.655" r="3" />
	<circle cx="85" cy="145.5375" r="3" />
	<circle cx="85" cy="145.9025" r="3" />
	<circle cx="85" cy="145.8125" r="3" />
	<circle cx="85" cy="145.635" r="3" />
	<circle cx="85" cy="144.92" r="3" />
	<circle cx="85" cy="145.825" r="3" />
	<circle cx="85" cy="145.9575" r="3" />
	<circle cx="85" cy="145.775" r="3" />
	<circle cx="85" cy="145.615" r="3" />
	<circle cx="85" cy="145.6325" r="3" />
	<circle cx="85" cy="145.8275" r="3" />
	<circle cx="85" cy="145.78" r="3" />
	<circle cx="85" cy="145.8425" r="3" />
	<circle cx="85" cy="145.84" r="3" />
	<circle cx="85" cy="144.7025" r="3" />
	<circle cx="85" cy="145.7225" r="3" />
	<circle cx="85" cy="145.6525" r="3" />
	<circle cx="85" cy="145.37" r="3" />
	<circle cx="85" cy="145.5525" r="3" />
	<circle cx="85" cy="144.495" r="3" />
	<circle cx="95" cy="144.0525" r="3" />
	<circle cx="95" cy="143.925" r="3" />
	<circle cx="95" cy="129.955" r="3" />
	<circle cx="95" cy="141.47" r="3" />
	<circle cx="95" cy="143.655" r="3" />
	<circle cx="95" cy="143.445" r="3" />
	<circle cx="95" cy="143.59" r="3" />
	<circle cx="95" cy="143.1975" r="3" />
	<circle cx="95" cy="143.7875" r="3" />
	<circle cx="95" cy="142.7175" r="3" />
	<circle cx="95" cy="143.5375" r="3" />
	<circle cx="95" cy="143.6225" r="3" />
	<circle cx="95" cy="143.935" r="3" />
	<circle cx="95" cy="143.785" r="3" />
	<circle cx="95" cy="142.495" r="3" />
	<circle cx="95" cy="143.57" r="3" />
	<circle cx="95" cy="143.4575" r="3" />
	<circle cx="105" cy="141.1175" r="3" />
	<circle cx="105" cy="137.98" r="3" />
	<circle cx="105" cy="141.4475" r="3" />
	<circle cx="105" cy="141.655" r="3" />
	<circle cx="105" cy="141.6275" r="3" />
	<circle cx="105" cy="141.5075" r="3" />
	<circle cx="105" cy="141.38" r="3" />
	<circle cx="105" cy="141.3275" r="3" />
	<circle cx="105" cy="141.63" r="3" />
	<circle cx="105" cy="141.255" r="3" />
	<circle cx="105" cy="141.155" r="3" />
	<circle cx="105" cy="141.28" r="3" />
	<circle cx="105" cy="141.3925" r="3" />
	<circle cx="105" cy="141.41" r="3" />
	<circle cx="105" cy="141.3975" r="3" />
	<circle cx="105" cy="141.3425" r="3" />
	<circle cx="105" cy="141.12" r="3" />
	<circle cx="115" cy="138.165" r="3" />
	<circle cx="115" cy="133.35" r="3" />
	<circle cx="115" cy="138.915" r="3" />
	<circle cx="115" cy="139.305" r="3" />
	<circle cx="115" cy="139.42" r="3" />
	<circle cx="115" cy="138.975" r="3" />
	<circle cx="115" cy="138.9325" r="3" />
	<circle cx="115" cy="138.135" r="3" />
	<circle cx="115" cy="138.8975" r="3" />
	<circle cx="115" cy="139.1475" r="3" />
	<circle cx="115" cy="134.59" r="3" />
	<circle cx="115" cy="139.425" r="3" />
	<circle cx="115" cy="139.365" r="3" />
	<circle cx="115" cy="139.2975" r="3" />
	<circle cx="115" cy="139.035" r="3" />
	<circle cx="115" cy="123.35" r="3" />
	<circle cx="115" cy="138.945" r="3" />
	<circle cx="115" cy="138.8" r="3" />
	<circle cx="125" cy="130.1825" r="3" />
	<circle cx="125" cy="123.2425" r="3" />
	<circle cx="125" cy="118.9425" r="3" />
	<circle cx="125" cy="136.3525" r="3" />
	<circle cx="125" cy="136.895" r="3" />
	<circle cx="125" cy="136.5225" r="3" />
	<circle cx="125" cy="137.02" r="3" />
	<circle cx="125" cy="137.2575" r="3" />
	<circle cx="125" cy="137.645" r="3" />
	<circle cx="125" cy="137.645" r="3" />
	<circle cx="125" cy="132.4925" r="3" />
	<circle cx="125" cy="137.535" r="3" />
	<circle cx="125" cy="137.6275" r="3" />
	<circle cx="125" cy="137.465" r="3" />
	<circle cx="125" cy="137.56" r="3" />
	<circle cx="125" cy="137.2875" r="3" />
	<circle cx="125" cy="137.31" r="3" />
	<circle cx="125" cy="132.2325" r="3" />
	<circle cx="125" cy="137.1125" r="3" />
	<circle cx="125" cy="137.4175" r="3" />
	<circle cx="125" cy="137.3925" r="3" />
	<circle cx="125" cy="137.3275" r="3" />
	<circle cx="125" cy="137.22" r="3" />
	<circle cx="125" cy="137.1975" r="3" />
	<circle cx="125" cy="137.0525" r="3" />
	<circle cx="125" cy="136.1875" r="3" />
	<circle cx="135" cy="132.3775" r="3" />
	<circle cx="135" cy="128.76" r="3" />
	<circle cx="135" cy="135.16" r="3" />
	<circle cx="135" cy="135.1975" r="3" />
	<circle cx="135" cy="131.62" r="3" />
	<circle cx="135" cy="134.8225" r="3" />
	<circle cx="135" cy="129.7825" r="3" />
	<circle cx="135" cy="135.1425" r="3" />
	<circle cx="135" cy="134.79" r="3" />
	<circle cx="135" cy="134.8375" r="3" />
	<circle cx="135" cy="134.4225" r="3" />
	<circle cx="135" cy="134.9525" r="3" />
	<circle cx="135" cy="134.8625" r="3" />
	<circle cx="135" cy="134.435" r="3" />
	<circle cx="135" cy="130.1775" r="3" />
	<circle cx="135" cy="137.4775" r="3" />
	<circle cx="135" cy="134.82" r="3" />
	<circle cx="135" cy="134.92" r="3" />
	<circle cx="135" cy="135.08" r="3" />
	<circle cx="135" cy="135.4025" r="3" />
	<circle cx="135" cy="135.2225" r="3" />
	<circle cx="135" cy="134.665" r="3" />
	<circle cx="135" cy="134.855" r="3" />
	<circle cx="135" cy="134.6925" r="3" />
	<circle cx="135" cy="134.885" r="3" />
	<circle cx="135" cy="134.82" r="3" />
	<circle cx="145" cy="129.4475" r="3" />
	<circle cx="145" cy="127.1225" r="3" />
	<circle cx="145" cy="132.84" r="3" />
	<circle cx="145" cy="132.0625" r="3" />
	<circle cx="145" cy="128.645" r="3" />
	<circle cx="145" cy="132.205" r="3" />
	<circle cx="145" cy="125.7675" r="3" />
	<circle cx="145" cy="132.7" r="3" />
	<circle cx="145" cy="122.0475" r="3" />
	<circle cx="145" cy="118.0125" r="3" />
	<circle cx="145" cy="132.6825" r="3" />
	<circle cx="145" cy="125.9725" r="3" />
	<circle cx="145" cy="116.765" r="3" />
	<circle cx="145" cy="132.84" r="3" />
	<circle cx="145" cy="126.225" r="3" />
	<circle cx="145" cy="132.365" r="3" />
	<circle cx="145" cy="125.99" r="3" />
	<circle cx="145" cy="132.9" r="3" />
	<circle cx="145" cy="135.295" r="3" />
	<circle cx="145" cy="132.64" r="3" />
	<circle cx="145" cy="132.9925" r="3" />
	<circle cx="145" cy="132.91" r="3" />
	<circle cx="145" cy="108.26" r="3" />
	<circle cx="145" cy="133.11" r="3" />
	<circle cx="145" cy="132.9075" r="3" />
	<circle cx="145" cy="113.4875" r="3" />
	<circle cx="145" cy="132.9525" r="3" />
	<circle cx="145" cy="135.3975" r="3" />
	<circle cx="145" cy="133.0125" r="3" />
	<circle cx="145" cy="135.3525" r="3" />
	<circle cx="155" cy="123.01" r="3" />
	<circle cx="155" cy="122.5075" r="3" />
	<circle cx="155" cy="130.1375" r="3" />
	<circle cx="155" cy="130.045" r="3" />
	<circle cx="155" cy="129.6025" r="3" />
	<circle cx="155" cy="130.4625" r="3" />
	<circle cx="155" cy="130.5875" r="3" />
	<circle cx="155" cy="130.6675" r="3" />
	<circle cx="155" cy="130.7525" r="3" />
	<circle cx="155" cy="130.715" r="3" />
	<circle cx="155" cy="130.3375" r="3" />
	<circle cx="155" cy="131.195" r="3" />
	<circle cx="155" cy="103.645" r="3" />
	<circle cx="155" cy="131.1875" r="3" />
	<circle cx="155" cy="127.905" r="3" />
	<circle cx="155" cy="130.695" r="3" />
	<circle cx="155" cy="130.785" r="3" />
	<circle cx="155" cy="130.7725" r="3" />
	<circle cx="155" cy="130.6975" r="3" />
	<circle cx="155" cy="130.54" r="3" />
	<circle cx="155" cy="116.96" r="3" />
	<circle cx="165" cy="123.475" r="3" />
	<circle cx="165" cy="119.8575" r="3" />
	<circle cx="165" cy="128.5375" r="3" />
	<circle cx="165" cy="128.9675" r="3" />
	<circle cx="165" cy="128.76" r="3" />
	<circle cx="165" cy="104.2475" r="3" />
	<circle cx="165" cy="128.77" r="3" />
	<circle cx="165" cy="122.0625" r="3" />
	<circle cx="165" cy="128.8" r="3" />
	<circle cx="165" cy="128.6875" r="3" />
	<circle cx="165" cy="105.095" r="3" />
	<circle cx="165" cy="99.965" r="3" />
	<circle cx="165" cy="128.4025" r="3" />
	<circle cx="165" cy="128.6675" r="3" />
	<circle cx="165" cy="128.9675" r="3" />
	<circle cx="165" cy="128.5675" r="3" />
	<circle cx="165" cy="128.6925" r="3" />
	<circle cx="165" cy="128.7325" r="3" />
	<circle cx="165" cy="128.565" r="3" />
	<circle cx="165" cy="128.3825" r="3" />
	<circle cx="165" cy="126.8575" r="3" />
	<circle cx="175" cy="120.5625" r="3" />
	<circle cx="175" cy="123.4925" r="3" />
	<circle cx="175" cy="110.0725" r="3" />
	<circle cx="175" cy="126.965" r="3" />
	<circle cx="175" cy="126.15" r="3" />
	<circle cx="175" cy="87.6375" r="3" />
	<circle cx="175" cy="126.6" r="3" />
	<circle cx="175" cy="126.6875" r="3" />
	<circle cx="175" cy="85.9125" r="3" />
	<circle cx="175" cy="126.5525" r="3" />
	<circle cx="175" cy="126.8175" r="3" />
	<circle cx="175" cy="90.22" r="3" />
	<circle cx="175" cy="125.7625" r="3" />
	<circle cx="175" cy="116.6025" r="3" />
	<circle cx="175" cy="89.97" r="3" />
	<circle cx="175" cy="126.4275" r="3" />
	<circle cx="175" cy="126.345" r="3" />
	<circle cx="175" cy="126.13" r="3" />
	<circle cx="175" cy="126.7925" r="3" />
	<circle cx="175" cy="126.51" r="3" />
	<circle cx="175" cy="126.4825" r="3" />
	<circle cx="175" cy="125.2875" r="3" />
	<circle cx="185" cy="117.415" r="3" />
	<circle cx="185" cy="98.87" r="3" />
	<circle cx="185" cy="82.28" r="3" />
	<circle cx="185" cy="106.885" r="3" />
	<circle cx="185" cy="124.2025" r="3" />
	<circle cx="185" cy="123.2225" r="3" />
	<circle cx="185" cy="123.7075" r="3" />
	<circle cx="185" cy="94.475" r="3" />
	<circle cx="185" cy="124.515" r="3" />
	<circle cx="185" cy="124.4525" r="3" />
	<circle cx="185" cy="124.2525" r="3" />
	<circle cx="185" cy="124.515" r="3" />
	<circle cx="185" cy="124.165" r="3" />
	<circle cx="185" cy="107.22" r="3" />
	<circle cx="185" cy="124.385" r="3" />
	<circle cx="185" cy="122.315" r="3" />
	<circle cx="185" cy="123.965" r="3" />
	<circle cx="185" cy="41.53" r="3" />
	<circle cx="185" cy="124.04" r="3" />
	<circle cx="185" cy="124.2675" r="3" />
	<circle cx="195" cy="114.795" r="3" />
	<circle cx="195" cy="109.725" r="3" />
	<circle cx="195" cy="115.7675" r="3" />
	<circle cx="195" cy="122.42" r="3" />
	<circle cx="195" cy="97.4325" r="3" />
	<circle cx="195" cy="79.865" r="3" />
	<circle cx="195" cy="122.0825" r="3" />
	<circle cx="195" cy="92.0275" r="3" />
	<circle cx="195" cy="122.3775" r="3" />
	<circle cx="195" cy="121.2325" r="3" />
	<circle cx="195" cy="122.165" r="3" />
	<circle cx="195" cy="122.4875" r="3" />
	<circle cx="195" cy="122.25" r="3" />
	<circle cx="195" cy="122.02" r="3" />
	<circle cx="195" cy="121.9875" r="3" />
	<circle cx="195" cy="122.4325" r="3" />
	<circle cx="195" cy="94.005" r="3" />
	<circle cx="195" cy="122.805" r="3" />
	<circle cx="195" cy="101.885" r="3" />
	<circle cx="195" cy="121.2075" r="3" />
	<circle cx="195" cy="122.0175" r="3" />
	<circle cx="195" cy="122.48" r="3" />
	<circle cx="195" cy="112.155" r="3" />
	<circle cx="195" cy="122.455" r="3" />
	<circle cx="195" cy="121.7575" r="3" />
	<circle cx="195" cy="121.41" r="3" />
	<circle cx="195" cy="122.3125" r="3" />
	<circle cx="195" cy="122.365" r="3" />
	<circle cx="205" cy="111.355" r="3" />
	<circle cx="205" cy="107.1175" r="3" />
	<circle cx="205" cy="115.9275" r="3" />
	<circle cx="205" cy="120.1525" r="3" />
	<circle cx="205" cy="119.585" r="3" />
	<circle cx="205" cy="93.15" r="3" />
	<circle cx="205" cy="86.15" r="3" />
	<circle cx="205" cy="120.8175" r="3" />
	<circle cx="205" cy="120.695" r="3" />
	<circle cx="205" cy="119.8525" r="3" />
	<circle cx="205" cy="120.615" r="3" />
	<circle cx="205" cy="83.48" r="3" />
	<circle cx="205" cy="118.7025" r="3" />
	<circle cx="205" cy="120.1925" r="3" />
	<circle cx="205" cy="120.79" r="3" />
	<circle cx="205" cy="98.1125" r="3" />
	<circle cx="205" cy="95.63" r="3" />
	<circle cx="205" cy="79.9425" r="3" />
	<circle cx="205" cy="107.31" r="3" />
	<circle cx="205" cy="120.3925" r="3" />
	<circle cx="205" cy="91.39" r="3" />
	<circle cx="205" cy="119.9675" r="3" />
	<circle cx="205" cy="96.5" r="3" />
	<circle cx="215" cy="117.565" r="3" />
	<circle cx="215" cy="104.3825" r="3" />
	<circle cx="215" cy="118.1875" r="3" />
	<circle cx="215" cy="117.5575" r="3" />
	<circle cx="215" cy="117.6975" r="3" />
	<circle cx="215" cy="117.56" r="3" />
	<circle cx="215" cy="116.9575" r="3" />
	<circle cx="215" cy="117.4175" r="3" />
	<circle cx="215" cy="104.045" r="3" />
	<circle cx="215" cy="112.38" r="3" />
	<circle cx="215" cy="91.41" r="3" />
	<circle cx="215" cy="88.0125" r="3" />
	<circle cx="215" cy="74.2825" r="3" />
	<circle cx="215" cy="118.205" r="3" />
	<circle cx="215" cy="118.4275" r="3" />
	<circle cx="215" cy="118.235" r="3" />
	<circle cx="215" cy="118.815" r="3" />
	<circle cx="215" cy="112.975" r="3" />
	<circle cx="215" cy="109.905" r="3" />
	<circle cx="215" cy="78.0775" r="3" />
	<circle cx="215" cy="92.2325" r="3" />
	<circle cx="215" cy="118.21" r="3" />
	<circle cx="215" cy="118.2175" r="3" />
	<circle cx="225" cy="102.56" r="3" />
	<circle cx="225" cy="93.06" r="3" />
	<circle cx="225" cy="77.34" r="3" />
	<circle cx="225" cy="87.01" r="3" />
	<circle cx="225" cy="116.2575" r="3" />
	<circle cx="225" cy="116.5175" r="3" />
	<circle cx="225" cy="102.095" r="3" />
	<circle cx="225" cy="101.6275" r="3" />
	<circle cx="225" cy="103.475" r="3" />
	<circle cx="225" cy="115.51" r="3" />
	<circle cx="225" cy="115.4275" r="3" />
	<circle cx="225" cy="116.2925" r="3" />
	<circle cx="225" cy="116.0875" r="3" />
	<circle cx="225" cy="110.9775" r="3" />
	<circle cx="225" cy="81.435" r="3" />
	<circle cx="225" cy="82.2525" r="3" />
	<circle cx="225" cy="115.63" r="3" />
	<circle cx="225" cy="115.9375" r="3" />
	<circle cx="225" cy="115.1525" r="3" />
	<circle cx="225" cy="89.8375" r="3" />
	<circle cx="225" cy="116.615" r="3" />
	<circle cx="225" cy="116.2575" r="3" />
	<circle cx="225" cy="116.315" r="3" />
	<circle cx="225" cy="74.2825" r="3" />
	<circle cx="225" cy="115.46" r="3" />
	<circle cx="225" cy="115.72" r="3" />
	<circle cx="225" cy="116.31" r="3" />
	<circle cx="225" cy="102.8925" r="3" />
	<circle cx="235" cy="102.215" r="3" />
	<circle cx="235" cy="80.8825" r="3" />
	<circle cx="235" cy="113.9125" r="3" />
	<circle cx="235" cy="96.9475" r="3" />
	<circle cx="235" cy="114.3975" r="3" />
	<circle cx="235" cy="112.83" r="3" />
	<circle cx="235" cy="114.2" r="3" />
	<circle cx="235" cy="114.1775" r="3" />
	<circle cx="235" cy="114.6475" r="3" />
	<circle cx="235" cy="98.0825" r="3" />
	<circle cx="235" cy="113.985" r="3" />
	<circle cx="235" cy="114.83" r="3" />
	<circle cx="235" cy="82.6925" r="3" />
	<circle cx="235" cy="79.3975" r="3" />
	<circle cx="235" cy="114.3975" r="3" />
	<circle cx="235" cy="88.6725" r="3" />
	<circle cx="235" cy="114.305" r="3" />
	<circle cx="235" cy="114.015" r="3" />
	<circle cx="235" cy="114.085" r="3" />
	<circle cx="235" cy="113.0425" r="3" />
	<circle cx="235" cy="113.8175" r="3" />
	<circle cx="235" cy="113.745" r="3" />
	<circle cx="235" cy="113.9375" r="3" />
	<circle cx="235" cy="113.7875" r="3" />
	<circle cx="235" cy="114.1475" r="3" />
	<circle cx="235" cy="97.6625" r="3" />
	<circle cx="245" cy="99.0325" r="3" />
	<circle cx="245" cy="93.695" r="3" />
	<circle cx="245" cy="111.6775" r="3" />
	<circle cx="245" cy="111.39" r="3" />
	<circle cx="245" cy="111.18" r="3" />
	<circle cx="245" cy="112.395" r="3" />
	<circle cx="245" cy="110.82" r="3" />
	<circle cx="245" cy="112.205" r="3" />
	<circle cx="245" cy="73.8275" r="3" />
	<circle cx="245" cy="111.24" r="3" />
	<circle cx="245" cy="69.72" r="3" />
	<circle cx="245" cy="79.445" r="3" />
	<circle cx="245" cy="109.48" r="3" />
	<circle cx="245" cy="78.6975" r="3" />
	<circle cx="245" cy="112.3325" r="3" />
	<circle cx="245" cy="111.585" r="3" />
	<circle cx="245" cy="111.7575" r="3" />
	<circle cx="245" cy="112.3225" r="3" />
	<circle cx="245" cy="112.03" r="3" />
	<circle cx="245" cy="111.5975" r="3" />
	<circle cx="255" cy="19.335" r="3" />
	<circle cx="255" cy="92.3125" r="3" />
	<circle cx="255" cy="108.4525" r="3" />
	<circle cx="255" cy="110.025" r="3" />
	<circle cx="255" cy="109.8825" r="3" />
	<circle cx="255" cy="47.15" r="3" />
	<circle cx="255" cy="97.6725" r="3" />
	<circle cx="255" cy="93.005" r="3" />
	<circle cx="255" cy="106.455" r="3" />
	<circle cx="255" cy="109.995" r="3" />
	<circle cx="255" cy="109.8725" r="3" />
	<circle cx="255" cy="110.325" r="3" />
	<circle cx="255" cy="110.0275" r="3" />
	<circle cx="255" cy="62.06" r="3" />
	<circle cx="255" cy="104.2075" r="3" />
	<circle cx="255" cy="109.39" r="3" />
	<circle cx="255" cy="109.7525" r="3" />
	<circle cx="255" cy="109.5925" r="3" />
	<circle cx="255" cy="81.915" r="3" />
	<circle cx="265" cy="94.2575" r="3" />
	<circle cx="265" cy="107.0275" r="3" />
	<circle cx="265" cy="107.585" r="3" />
	<circle cx="265" cy="104.965" r="3" />
	<circle cx="265" cy="107.5925" r="3" />
	<circle cx="265" cy="108.1275" r="3" />
	<circle cx="265" cy="107.6875" r="3" />
	<circle cx="265" cy="94.6625" r="3" />
	<circle cx="265" cy="92.615" r="3" />
	<circle cx="265" cy="107.7175" r="3" />
	<circle cx="265" cy="107.9725" r="3" />
	<circle cx="265" cy="71.38" r="3" />
	<circle cx="265" cy="71.8625" r="3" />
	<circle cx="265" cy="107.925" r="3" />
	<circle cx="265" cy="108.2" r="3" />
	<circle cx="265" cy="108.3625" r="3" />
	<circle cx="265" cy="80.92" r="3" />
	<circle cx="265" cy="106.785" r="3" />
	<circle cx="265" cy="108.49" r="3" />
	<circle cx="265" cy="108.2675" r="3" />
	<circle cx="265" cy="93.56" r="3" />
	<circle cx="265" cy="107.8575" r="3" />
	<circle cx="265" cy="109.72" r="3" />
	<circle cx="265" cy="80.805" r="3" />
	<circle cx="265" cy="107.445" r="3" />
	<circle cx="275" cy="90.68" r="3" />
	<circle cx="275" cy="104.915" r="3" />
	<circle cx="275" cy="104.94" r="3" />
	<circle cx="275" cy="105.625" r="3" />
	<circle cx="275" cy="106.35" r="3" />
	<circle cx="275" cy="105.9825" r="3" />
	<circle cx="275" cy="105.8025" r="3" />
	<circle cx="275" cy="104.85" r="3" />
	<circle cx="275" cy="105.1275" r="3" />
	<circle cx="275" cy="61.96" r="3" />
	<circle cx="275" cy="102.9475" r="3" />
	<circle cx="275" cy="105.46" r="3" />
	<circle cx="275" cy="105.8925" r="3" />
	<circle cx="275" cy="105.3125" r="3" />
	<circle cx="275" cy="105.165" r="3" />
	<circle cx="275" cy="95.965" r="3" />
	<circle cx="275" cy="105.8775" r="3" />
	<circle cx="275" cy="74.89" r="3" />
	<circle cx="275" cy="105.5875" r="3" />
	<circle cx="275" cy="106.6025" r="3" />
	<circle cx="275" cy="106.5375" r="3" />
	<circle cx="275" cy="106.355" r="3" />
	<circle cx="275" cy="106.22" r="3" />
	<circle cx="275" cy="106.2825" r="3" />
	<circle cx="275" cy="76.4775" r="3" />
	<circle cx="275" cy="105.475" r="3" />
	<circle cx="275" cy="105.88" r="3" />
	<circle cx="275" cy="105.27" r="3" />
	<circle cx="275" cy="41.41" r="3" /><!-- 
	Generated using the Perl SVG Module V2.36
	by Ronan Oger
	Info: http://www.roitsystems.com/
 -->
</svg>