<?xml version="1.0" encoding="UTF-8" standalone="yes"?>
<!DOCTYPE svg PUBLIC "-//W3C//DTD SVG 1.0//EN" "http://www.w3.org/TR/2001/REC-SVG-20010904/DTD/svg10.dtd">
<svg height="177" width="295" xmlns="http://www.w3.org/2000/svg" xmlns:xlink="http://www.w3.org/1999/xlink">
	<line style="stroke: blue; stroke-width: 1" x1="70" x2="280" y1="157" y2="157" />	<text text-anchor="end" x="70" y="157">0.00
	</text>
	<line style="stroke: blue; stroke-width: 1" x1="70" x2="280" y1="107" y2="107" />	<text text-anchor="end" x="70" y="107">0.20
	</text>
	<line style="stroke: blue; stroke-width: 1" x1="70" x2="280" y1="57" y2="57" />	<text text-anchor="end" x="70" y="57">0.40
	</text>
	<circle cx="75" cy="156.9965" r="3" />
	<circle cx="75" cy="156.9985" r="3" />
	<circle cx="75" cy="156.9985" r="3" />
	<circle cx="75" cy="156.9955" r="3" />
	<circle cx="75" cy="156.99675" r="3" />
	<circle cx="75" cy="156.99625" r="3" />
	<circle cx="75" cy="156.9975" r="3" />
	<circle cx="75" cy="156.9975" r="3" />
	<circle cx="75" cy="156.99775" r="3" />
	<circle cx="75" cy="156.997" r="3" />
	<circle cx="75" cy="156.9975" r="3" />
	<circle cx="75" cy="156.99925" r="3" />
	<circle cx="75" cy="156.998" r="3" />
	<circle cx="75" cy="156.99725" r="3" />
	<circle cx="75" cy="156.99775" r="3" />
	<circle cx="75" cy="156.997" r="3" />
	<circle cx="75" cy="156.9975" r="3" />
	<circle cx="75" cy="156.997" r="3" />
	<circle cx="75" cy="156.99725" r="3" />
	<circle cx="75" cy="156.99725" r="3" />
	<circle cx="75" cy="156.99575" r="3" />
	<circle cx="75" cy="156.9975" r="3" />
	<circle cx="75" cy="156.99725" r="3" />
	<circle cx="85" cy="153.4885" r="3" />
	<circle cx="85" cy="151.79775" r="3" />
	<circle cx="85" cy="150.21875" r="3" />
	<circle cx="85" cy="154.464" r="3" />
	<circle cx="85" cy="154.4665" r="3" />
	<circle cx="85" cy="154.56" r="3" />
	<circle cx="85" cy="154.39675" r="3" />
	<circle cx="85" cy="154.687" r="3" />
	<circle cx="85" cy="154.6475" r="3" />
	<circle cx="85" cy="153.044" r="3" />
	<circle cx="85" cy="154.64825" r="3" />
	<circle cx="85" cy="154.629" r="3" />
	<circle cx="85" cy="154.00525" r="3" />
	<circle cx="85" cy="154.317" r="3" />
	<circle cx="85" cy="153.4635" r="3" />
	<circle cx="85" cy="154.56525" r="3" />
	<circle cx="85" cy="154.63925" r="3" />
	<circle cx="85" cy="151.02175" r="3" />
	<circle cx="85" cy="150.847" r="3" />
	<circle cx="85" cy="153.624" r="3" />
	<circle cx="85" cy="154.43375" r="3" />
	<circle cx="85" cy="151.23175" r="3" />
	<circle cx="85" cy="154.66525" r="3" />
	<circle cx="85" cy="154.6025" r="3" />
	<circle cx="85" cy="152.21225" r="3" />
	<circle cx="85" cy="154.5825" r="3" />
	<circle cx="85" cy="153.37" r="3" />
	<circle cx="85" cy="154.59925" r="3" />
	<circle cx="95" cy="150.732" r="3" />
	<circle cx="95" cy="150.1855" r="3" />
	<circle cx="95" cy="152.3905" r="3" />
	<circle cx="95" cy="152.32125" r="3" />
	<circle cx="95" cy="152.04075" r="3" />
	<circle cx="95" cy="151.95" r="3" />
	<circle cx="95" cy="148.15075" r="3" />
	<circle cx="95" cy="145.599" r="3" />
	<circle cx="95" cy="145.6105" r="3" />
	<circle cx="95" cy="150.4155" r="3" />
	<circle cx="95" cy="146.20075" r="3" />
	<circle cx="95" cy="145.3565" r="3" />
	<circle cx="95" cy="151.90475" r="3" />
	<circle cx="95" cy="151.8915" r="3" />
	<circle cx="95" cy="152.44225" r="3" />
	<circle cx="95" cy="149.17825" r="3" />
	<circle cx="95" cy="148.301" r="3" />
	<circle cx="95" cy="144.96975" r="3" />
	<circle cx="95" cy="152.41325" r="3" />
	<circle cx="95" cy="152.4625" r="3" />
	<circle cx="95" cy="144.97125" r="3" />
	<circle cx="95" cy="146.543" r="3" />
	<circle cx="95" cy="145.62" r="3" />
	<circle cx="95" cy="152.257" r="3" />
	<circle cx="95" cy="143.9785" r="3" />
	<circle cx="95" cy="148.54475" r="3" />
	<circle cx="95" cy="152.27525" r="3" />
	<circle cx="95" cy="148.17175" r="3" />
	<circle cx="95" cy="151.29425" r="3" />
	<circle cx="95" cy="152.05625" r="3" />
	<circle cx="95" cy="151.1885" r="3" />
	<circle cx="95" cy="147.96725" r="3" />
	<circle cx="95" cy="152.32425" r="3" />
	<circle cx="105" cy="140.9855" r="3" />
	<circle cx="105" cy="144.26725" r="3" />
	<circle cx="105" cy="145.82" r="3" />
	<circle cx="105" cy="141.8085" r="3" />
	<circle cx="105" cy="150.361" r="3" />
	<circle cx="105" cy="150.29475" r="3" />
	<circle cx="105" cy="142.6415" r="3" />
	<circle cx="105" cy="141.51125" r="3" />
	<circle cx="105" cy="146.357" r="3" />
	<circle cx="105" cy="139.29325" r="3" />
	<circle cx="105" cy="139.8445" r="3" />
	<circle cx="105" cy="149.1685" r="3" />
	<circle cx="105" cy="148.99025" r="3" />
	<circle cx="105" cy="147.1295" r="3" />
	<circle cx="105" cy="146.6375" r="3" />
	<circle cx="105" cy="149.62675" r="3" />
	<circle cx="105" cy="150.1545" r="3" />
	<circle cx="105" cy="140.7785" r="3" />
	<circle cx="105" cy="148.89825" r="3" />
	<circle cx="105" cy="147.717" r="3" />
	<circle cx="105" cy="144.829" r="3" />
	<circle cx="105" cy="139.47375" r="3" />
	<circle cx="105" cy="150.6775" r="3" />
	<circle cx="105" cy="150.37325" r="3" />
	<circle cx="105" cy="150.4145" r="3" />
	<circle cx="105" cy="141.1825" r="3" />
	<circle cx="105" cy="150.63375" r="3" />
	<circle cx="115" cy="139.10775" r="3" />
	<circle cx="115" cy="142.137" r="3" />
	<circle cx="115" cy="132.178" r="3" />
	<circle cx="115" cy="134.32225" r="3" />
	<circle cx="115" cy="146.542" r="3" />
	<circle cx="115" cy="143.12325" r="3" />
	<circle cx="115" cy="133.25825" r="3" />
	<circle cx="115" cy="144.24125" r="3" />
	<circle cx="115" cy="140.3255" r="3" />
	<circle cx="115" cy="134.0835" r="3" />
	<circle cx="115" cy="136.90175" r="3" />
	<circle cx="115" cy="144.80675" r="3" />
	<circle cx="115" cy="134.16425" r="3" />
	<circle cx="115" cy="131.947" r="3" />
	<circle cx="115" cy="133.9235" r="3" />
	<circle cx="115" cy="144.7495" r="3" />
	<circle cx="115" cy="140.4565" r="3" />
	<circle cx="115" cy="146.50275" r="3" />
	<circle cx="115" cy="141.12025" r="3" />
	<circle cx="115" cy="133.9715" r="3" />
	<circle cx="115" cy="132.05175" r="3" />
	<circle cx="115" cy="131.68225" r="3" />
	<circle cx="125" cy="130.64475" r="3" />
	<circle cx="125" cy="126.43625" r="3" />
	<circle cx="125" cy="127.36075" r="3" />
	<circle cx="125" cy="131.30725" r="3" />
	<circle cx="125" cy="127.96075" r="3" />
	<circle cx="125" cy="131.51775" r="3" />
	<circle cx="125" cy="138.7405" r="3" />
	<circle cx="125" cy="134.0035" r="3" />
	<circle cx="125" cy="130.448" r="3" />
	<circle cx="125" cy="128.27925" r="3" />
	<circle cx="125" cy="131.41" r="3" />
	<circle cx="125" cy="128.96625" r="3" />
	<circle cx="125" cy="132.34025" r="3" />
	<circle cx="125" cy="128.1925" r="3" />
	<circle cx="125" cy="124.78825" r="3" />
	<circle cx="135" cy="113.3265" r="3" />
	<circle cx="135" cy="127.20125" r="3" />
	<circle cx="135" cy="120.76925" r="3" />
	<circle cx="135" cy="121.4145" r="3" />
	<circle cx="135" cy="119.067" r="3" />
	<circle cx="135" cy="132.334" r="3" />
	<circle cx="135" cy="127.319" r="3" />
	<circle cx="135" cy="125.216" r="3" />
	<circle cx="135" cy="119.06" r="3" />
	<circle cx="135" cy="114.22725" r="3" />
	<circle cx="135" cy="121.576" r="3" />
	<circle cx="135" cy="121.5545" r="3" />
	<circle cx="135" cy="128.94" r="3" />
	<circle cx="135" cy="125.1685" r="3" />
	<circle cx="135" cy="122.8985" r="3" />
	<circle cx="135" cy="126.09275" r="3" />
	<circle cx="135" cy="121.5255" r="3" />
	<circle cx="135" cy="123.33075" r="3" />
	<circle cx="135" cy="127.30325" r="3" />
	<circle cx="135" cy="132.7255" r="3" />
	<circle cx="135" cy="122.66375" r="3" />
	<circle cx="135" cy="131.68825" r="3" />
	<circle cx="135" cy="118.8805" r="3" />
	<circle cx="135" cy="118.836" r="3" />
	<circle cx="145" cy="113.4815" r="3" />
	<circle cx="145" cy="111.0535" r="3" />
	<circle cx="145" cy="113.5845" r="3" />
	<circle cx="145" cy="114.5725" r="3" />
	<circle cx="145" cy="114.44725" r="3" />
	<circle cx="145" cy="115.08925" r="3" />
	<circle cx="145" cy="116.33325" r="3" />
	<circle cx="145" cy="114.90225" r="3" />
	<circle cx="145" cy="115.8625" r="3" />
	<circle cx="145" cy="114.62225" r="3" />
	<circle cx="145" cy="119.255" r="3" />
	<circle cx="145" cy="117.2275" r="3" />
	<circle cx="145" cy="116.355" r="3" />
	<circle cx="145" cy="119.2615" r="3" />
	<circle cx="145" cy="119.50775" r="3" />
	<circle cx="145" cy="111.15025" r="3" />
	<circle cx="145" cy="115.05575" r="3" />
	<circle cx="145" cy="128.19075" r="3" />
	<circle cx="145" cy="117.34" r="3" />
	<circle cx="145" cy="121.751" r="3" />
	<circle cx="145" cy="113.502" r="3" />
	<circle cx="145" cy="113.894" r="3" />
	<circle cx="145" cy="120.51275" r="3" />
	<circle cx="145" cy="120.33625" r="3" />
	<circle cx="145" cy="114.28475" r="3" />
	<circle cx="145" cy="119.554" r="3" />
	<circle cx="145" cy="126.64275" r="3" />
	<circle cx="145" cy="123.98925" r="3" />
	<circle cx="145" cy="113.5835" r="3" />
	<circle cx="145" cy="115.19225" r="3" />
	<circle cx="145" cy="106.97375" r="3" />
	<circle cx="145" cy="114.19075" r="3" />
	<circle cx="155" cy="111.67875" r="3" />
	<circle cx="155" cy="108.66275" r="3" />
	<circle cx="155" cy="113.4265" r="3" />
	<circle cx="155" cy="110.416" r="3" />
	<circle cx="155" cy="122.43325" r="3" />
	<circle cx="155" cy="110.202" r="3" />
	<circle cx="155" cy="107.82525" r="3" />
	<circle cx="155" cy="108.42225" r="3" />
	<circle cx="155" cy="108.7875" r="3" />
	<circle cx="155" cy="109.1265" r="3" />
	<circle cx="155" cy="109.6505" r="3" />
	<circle cx="155" cy="114.84125" r="3" />
	<circle cx="155" cy="114.951" r="3" />
	<circle cx="155" cy="104.097" r="3" />
	<circle cx="155" cy="121.42925" r="3" />
	<circle cx="165" cy="100.11475" r="3" />
	<circle cx="165" cy="98.0665" r="3" />
	<circle cx="165" cy="105.4935" r="3" />
	<circle cx="165" cy="103.20925" r="3" />
	<circle cx="165" cy="103.182" r="3" />
	<circle cx="165" cy="102.4435" r="3" />
	<circle cx="165" cy="106.37325" r="3" />
	<circle cx="165" cy="108.79825" r="3" />
	<circle cx="165" cy="99.609" r="3" />
	<circle cx="165" cy="104.24175" r="3" />
	<circle cx="165" cy="103.3345" r="3" />
	<circle cx="165" cy="104.206" r="3" />
	<circle cx="165" cy="99.0915" r="3" />
	<circle cx="165" cy="100.971" r="3" />
	<circle cx="165" cy="102.1685" r="3" />
	<circle cx="165" cy="103.9005" r="3" />
	<circle cx="165" cy="102.05025" r="3" />
	<circle cx="165" cy="91.37575" r="3" />
	<circle cx="165" cy="99.16075" r="3" />
	<circle cx="175" cy="94.29175" r="3" />
	<circle cx="175" cy="95.14625" r="3" />
	<circle cx="175" cy="97.63275" r="3" />
	<circle cx="175" cy="95.08" r="3" />
	<circle cx="175" cy="101.1145" r="3" />
	<circle cx="175" cy="93.234" r="3" />
	<circle cx="175" cy="95.93725" r="3" />
	<circle cx="175" cy="94.69875" r="3" />
	<circle cx="175" cy="101.09075" r="3" />
	<circle cx="175" cy="100.269" r="3" />
	<circle cx="175" cy="93.7655" r="3" />
	<circle cx="175" cy="97.04775" r="3" />
	<circle cx="175" cy="96.1515" r="3" />
	<circle cx="175" cy="100.80875" r="3" />
	<circle cx="175" cy="100.0525" r="3" />
	<circle cx="175" cy="103.328" r="3" />
	<circle cx="175" cy="103.14" r="3" />
	<circle cx="175" cy="99.10025" r="3" />
	<circle cx="175" cy="102.68775" r="3" />
	<circle cx="175" cy="89.388" r="3" />
	<circle cx="175" cy="107.4775" r="3" />
	<circle cx="185" cy="81.9725" r="3" />
	<circle cx="185" cy="90.11525" r="3" />
	<circle cx="185" cy="88.1335" r="3" />
	<circle cx="185" cy="95.05775" r="3" />
	<circle cx="185" cy="97.26675" r="3" />
	<circle cx="185" cy="98.5" r="3" />
	<circle cx="185" cy="90.32825" r="3" />
	<circle cx="185" cy="90.513" r="3" />
	<circle cx="185" cy="91.85325" r="3" />
	<circle cx="185" cy="91.56075" r="3" />
	<circle cx="185" cy="88.938" r="3" />
	<circle cx="185" cy="91.11275" r="3" />
	<circle cx="185" cy="98.44725" r="3" />
	<circle cx="185" cy="109.14775" r="3" />
	<circle cx="185" cy="91.918" r="3" />
	<circle cx="185" cy="91.90225" r="3" />
	<circle cx="185" cy="81.4875" r="3" />
	<circle cx="185" cy="91.0535" r="3" />
	<circle cx="195" cy="75.424" r="3" />
	<circle cx="195" cy="77.809" r="3" />
	<circle cx="195" cy="90.6595" r="3" />
	<circle cx="195" cy="85.95325" r="3" />
	<circle cx="195" cy="85.5855" r="3" />
	<circle cx="195" cy="88.691" r="3" />
	<circle cx="195" cy="98.82625" r="3" />
	<circle cx="195" cy="85.2495" r="3" />
	<circle cx="195" cy="88.0575" r="3" />
	<circle cx="195" cy="83.5485" r="3" />
	<circle cx="195" cy="81.628" r="3" />
	<circle cx="195" cy="83.39275" r="3" />
	<circle cx="195" cy="83.24525" r="3" />
	<circle cx="195" cy="82.91875" r="3" />
	<circle cx="195" cy="83.02425" r="3" />
	<circle cx="195" cy="90.6655" r="3" />
	<circle cx="195" cy="79.622" r="3" />
	<circle cx="195" cy="85.1445" r="3" />
	<circle cx="195" cy="88.6775" r="3" />
	<circle cx="195" cy="88.01375" r="3" />
	<circle cx="195" cy="85.71775" r="3" />
	<circle cx="195" cy="100.2015" r="3" />
	<circle cx="195" cy="80.272" r="3" />
	<circle cx="195" cy="82.09725" r="3" />
	<circle cx="195" cy="84.42325" r="3" />
	<circle cx="195" cy="87.56525" r="3" />
	<circle cx="195" cy="83.28725" r="3" />
	<circle cx="195" cy="86.61725" r="3" />
	<circle cx="195" cy="93.6815" r="3" />
	<circle cx="195" cy="88.985" r="3" />
	<circle cx="195" cy="86.15475" r="3" />
	<circle cx="195" cy="81.36625" r="3" />
	<circle cx="195" cy="80.2425" r="3" />
	<circle cx="205" cy="77.41775" r="3" />
	<circle cx="205" cy="90.4915" r="3" />
	<circle cx="205" cy="79.156" r="3" />
	<circle cx="205" cy="83.86825" r="3" />
	<circle cx="205" cy="85.0715" r="3" />
	<circle cx="205" cy="88.46125" r="3" />
	<circle cx="205" cy="83.53925" r="3" />
	<circle cx="205" cy="77.07825" r="3" />
	<circle cx="205" cy="83.23875" r="3" />
	<circle cx="205" cy="86.36125" r="3" />
	<circle cx="205" cy="79.05025" r="3" />
	<circle cx="205" cy="82.79875" r="3" />
	<circle cx="205" cy="87.2575" r="3" />
	<circle cx="205" cy="91.861" r="3" />
	<circle cx="205" cy="76.11025" r="3" />
	<circle cx="205" cy="75.874" r="3" />
	<circle cx="205" cy="77.537" r="3" />
	<circle cx="205" cy="72.37375" r="3" />
	<circle cx="205" cy="75.12625" r="3" />
	<circle cx="215" cy="63.726" r="3" />
	<circle cx="215" cy="60.93325" r="3" />
	<circle cx="215" cy="71.2745" r="3" />
	<circle cx="215" cy="74.96925" r="3" />
	<circle cx="215" cy="74.94725" r="3" />
	<circle cx="215" cy="78.00925" r="3" />
	<circle cx="215" cy="78.422" r="3" />
	<circle cx="215" cy="84.121" r="3" />
	<circle cx="215" cy="79.08075" r="3" />
	<circle cx="215" cy="79.6105" r="3" />
	<circle cx="215" cy="70.63125" r="3" />
	<circle cx="215" cy="67.3035" r="3" />
	<circle cx="215" cy="71.0915" r="3" />
	<circle cx="215" cy="79.1555" r="3" />
	<circle cx="215" cy="77.306" r="3" />
	<circle cx="215" cy="77.993" r="3" />
	<circle cx="215" cy="77.59925" r="3" />
	<circle cx="215" cy="74.68375" r="3" />
	<circle cx="215" cy="69.93775" r="3" />
	<circle cx="215" cy="70.40575" r="3" />
	<circle cx="215" cy="73.41325" r="3" />
	<circle cx="215" cy="67.457" r="3" />
	<circle cx="215" cy="61.57025" r="3" />
	<circle cx="215" cy="69.19475" r="3" />
	<circle cx="225" cy="60.20525" r="3" />
	<circle cx="225" cy="53.75925" r="3" />
	<circle cx="225" cy="66.7785" r="3" />
	<circle cx="225" cy="73.53325" r="3" />
	<circle cx="225" cy="67.917" r="3" />
	<circle cx="225" cy="70.34125" r="3" />
	<circle cx="225" cy="63.25475" r="3" />
	<circle cx="225" cy="66.86475" r="3" />
	<circle cx="225" cy="68.82225" r="3" />
	<circle cx="225" cy="72.984" r="3" />
	<circle cx="225" cy="66.89175" r="3" />
	<circle cx="225" cy="66.642" r="3" />
	<circle cx="225" cy="70.84625" r="3" />
	<circle cx="225" cy="75.331" r="3" />
	<circle cx="225" cy="63.163" r="3" />
	<circle cx="225" cy="63.262" r="3" />
	<circle cx="225" cy="59.77925" r="3" />
	<circle cx="225" cy="66.226" r="3" />
	<circle cx="225" cy="59.9355" r="3" />
	<circle cx="225" cy="69.93425" r="3" />
	<circle cx="225" cy="61.55625" r="3" />
	<circle cx="225" cy="66.87925" r="3" />
	<circle cx="225" cy="70.08025" r="3" />
	<circle cx="225" cy="60.8055" r="3" />
	<circle cx="225" cy="66.94275" r="3" />
	<circle cx="225" cy="62.53" r="3" />
	<circle cx="235" cy="53.05" r="3" />
	<circle cx="235" cy="52.63225" r="3" />
	<circle cx="235" cy="52.7455" r="3" />
	<circle cx="235" cy="54.65525" r="3" />
	<circle cx="235" cy="57.544" r="3" />
	<circle cx="235" cy="57.4245" r="3" />
	<circle cx="235" cy="58.53925" r="3" />
	<circle cx="235" cy="58.08975" r="3" />
	<circle cx="235" cy="61.60525" r="3" />
	<circle cx="235" cy="61.6215" r="3" />
	<circle cx="235" cy="70.69675" r="3" />
	<circle cx="235" cy="65.31875" r="3" />
	<circle cx="235" cy="54.638" r="3" />
	<circle cx="235" cy="57.63575" r="3" />
	<circle cx="235" cy="62.5535" r="3" />
	<circle cx="235" cy="56.7375" r="3" />
	<circle cx="235" cy="62.793" r="3" />
	<circle cx="235" cy="56.17525" r="3" />
	<circle cx="235" cy="58.761" r="3" />
	<circle cx="235" cy="64.12875" r="3" />
	<circle cx="235" cy="51.48625" r="3" />
	<circle cx="235" cy="57.40725" r="3" />
	<circle cx="245" cy="42.4455" r="3" />
	<circle cx="245" cy="52.77875" r="3" />
	<circle cx="245" cy="57.7965" r="3" />
	<circle cx="245" cy="59.855" r="3" />
	<circle cx="245" cy="63.272" r="3" />
	<circle cx="245" cy="56.12475" r="3" />
	<circle cx="245" cy="51.604" r="3" />
	<circle cx="245" cy="46.233" r="3" />
	<circle cx="245" cy="55.39825" r="3" />
	<circle cx="245" cy="55.6075" r="3" />
	<circle cx="245" cy="53.20125" r="3" />
	<circle cx="245" cy="53.90475" r="3" />
	<circle cx="245" cy="50.35" r="3" />
	<circle cx="245" cy="52.74875" r="3" />
	<circle cx="245" cy="51.6105" r="3" />
	<circle cx="245" cy="49.737" r="3" />
	<circle cx="245" cy="51.637" r="3" />
	<circle cx="245" cy="65.7325" r="3" />
	<circle cx="245" cy="60.70175" r="3" />
	<circle cx="245" cy="61.23775" r="3" />
	<circle cx="245" cy="46.882" r="3" />
	<circle cx="245" cy="55.65525" r="3" />
	<circle cx="245" cy="36.93425" r="3" />
	<circle cx="245" cy="47.99275" r="3" />
	<circle cx="255" cy="37.529" r="3" />
	<circle cx="255" cy="56.28" r="3" />
	<circle cx="255" cy="47.90425" r="3" />
	<circle cx="255" cy="43.083" r="3" />
	<circle cx="255" cy="49.07775" r="3" />
	<circle cx="255" cy="45.95375" r="3" />
	<circle cx="255" cy="41.60025" r="3" />
	<circle cx="255" cy="42.9605" r="3" />
	<circle cx="255" cy="45.45425" r="3" />
	<circle cx="255" cy="48.554" r="3" />
	<circle cx="255" cy="41.42825" r="3" />
	<circle cx="255" cy="44.6935" r="3" />
	<circle cx="255" cy="42.00775" r="3" />
	<circle cx="255" cy="49.874" r="3" />
	<circle cx="255" cy="48.4785" r="3" />
	<circle cx="255" cy="55.6295" r="3" />
	<circle cx="255" cy="62.3765" r="3" />
	<circle cx="255" cy="40.4485" r="3" />
	<circle cx="255" cy="35.2205" r="3" />
	<circle cx="255" cy="47.958" r="3" />
	<circle cx="265" cy="46.82225" r="3" />
	<circle cx="265" cy="34.73525" r="3" />
	<circle cx="265" cy="35.105" r="3" />
	<circle cx="265" cy="43.41925" r="3" />
	<circle cx="265" cy="48.185" r="3" />
	<circle cx="265" cy="45.672" r="3" />
	<circle cx="265" cy="36.663" r="3" />
	<circle cx="265" cy="44.50025" r="3" />
	<circle cx="265" cy="41.3825" r="3" />
	<circle cx="265" cy="33.40125" r="3" />
	<circle cx="265" cy="33.93275" r="3" />
	<circle cx="265" cy="31.5715" r="3" />
	<circle cx="265" cy="35.7665" r="3" />
	<circle cx="265" cy="44.6075" r="3" />
	<circle cx="265" cy="43.492" r="3" />
	<circle cx="265" cy="45.0935" r="3" />
	<circle cx="265" cy="43.35725" r="3" />
	<circle cx="265" cy="41.26" r="3" />
	<circle cx="265" cy="42.73575" r="3" />
	<circle cx="265" cy="31.743" r="3" />
	<circle cx="265" cy="49.59575" r="3" />
	<circle cx="265" cy="43.336" r="3" />
	<circle cx="265" cy="44.02775" r="3" />
	<circle cx="265" cy="38.61775" r="3" />
	<circle cx="265" cy="37.82925" r="3" />
	<circle cx="265" cy="37.12875" r="3" />
	<circle cx="265" cy="30.3405" r="3" />
	<circle cx="265" cy="37.5445" r="3" />
	<circle cx="275" cy="24.1285" r="3" />
	<circle cx="275" cy="28.791" r="3" />
	<circle cx="275" cy="35.90775" r="3" />
	<circle cx="275" cy="41.338" r="3" />
	<circle cx="275" cy="42.37125" r="3" />
	<circle cx="275" cy="53.3275" r="3" />
	<circle cx="275" cy="34.63075" r="3" />
	<circle cx="275" cy="33.56425" r="3" />
	<circle cx="275" cy="30.38125" r="3" />
	<circle cx="275" cy="31.9375" r="3" />
	<circle cx="275" cy="32.33925" r="3" />
	<circle cx="275" cy="29.566" r="3" />
	<circle cx="275" cy="34.106" r="3" />
	<circle cx="275" cy="42.14425" r="3" />
	<circle cx="275" cy="39.72" r="3" />
	<circle cx="275" cy="46.661" r="3" />
	<circle cx="275" cy="45.731" r="3" />
	<circle cx="275" cy="50.504" r="3" />
	<circle cx="275" cy="38.0565" r="3" />
	<circle cx="275" cy="41.10675" r="3" />
	<circle cx="275" cy="34.34525" r="3" />
	<circle cx="275" cy="33.7805" r="3" />
	<circle cx="275" cy="31.967" r="3" />
	<circle cx="275" cy="30.8725" r="3" />
	<circle cx="275" cy="32.58025" r="3" />
	<circle cx="275" cy="29.5895" r="3" />
	<circle cx="275" cy="19.602" r="3" />
	<circle cx="275" cy="37.994" r="3" /><!-- 
	Generated using the Perl SVG Module V2.36
	by Ronan Oger
	Info: http://www.roitsystems.com/
 -->
</svg>