<?xml version="1.0" encoding="UTF-8" standalone="yes"?>
<!DOCTYPE svg PUBLIC "-//W3C//DTD SVG 1.0//EN" "http://www.w3.org/TR/2001/REC-SVG-20010904/DTD/svg10.dtd">
<svg height="156" width="295" xmlns="http://www.w3.org/2000/svg" xmlns:xlink="http://www.w3.org/1999/xlink">
	<line style="stroke: blue; stroke-width: 1" x1="70" x2="280" y1="136" y2="136" />	<text text-anchor="end" x="70" y="136">0.00
	</text>
	<line style="stroke: blue; stroke-width: 1" x1="70" x2="280" y1="86" y2="86" />	<text text-anchor="end" x="70" y="86">0.05
	</text>
	<line style="stroke: blue; stroke-width: 1" x1="70" x2="280" y1="36" y2="36" />	<text text-anchor="end" x="70" y="36">0.10
	</text>
	<circle cx="75" cy="135.986" r="3" />
	<circle cx="75" cy="135.995" r="3" />
	<circle cx="75" cy="135.992" r="3" />
	<circle cx="75" cy="135.992" r="3" />
	<circle cx="75" cy="135.99" r="3" />
	<circle cx="75" cy="135.99" r="3" />
	<circle cx="75" cy="135.981" r="3" />
	<circle cx="75" cy="135.99" r="3" />
	<circle cx="75" cy="135.99" r="3" />
	<circle cx="75" cy="135.989" r="3" />
	<circle cx="75" cy="135.99" r="3" />
	<circle cx="75" cy="135.99" r="3" />
	<circle cx="75" cy="135.99" r="3" />
	<circle cx="75" cy="135.99" r="3" />
	<circle cx="75" cy="135.991" r="3" />
	<circle cx="75" cy="135.992" r="3" />
	<circle cx="75" cy="135.992" r="3" />
	<circle cx="75" cy="135.99" r="3" />
	<circle cx="75" cy="135.991" r="3" />
	<circle cx="75" cy="135.991" r="3" />
	<circle cx="75" cy="135.993" r="3" />
	<circle cx="75" cy="135.989" r="3" />
	<circle cx="75" cy="135.987" r="3" />
	<circle cx="75" cy="135.989" r="3" />
	<circle cx="75" cy="135.99" r="3" />
	<circle cx="75" cy="135.991" r="3" />
	<circle cx="75" cy="135.991" r="3" />
	<circle cx="75" cy="135.99" r="3" />
	<circle cx="75" cy="135.99" r="3" />
	<circle cx="75" cy="135.991" r="3" />
	<circle cx="75" cy="135.991" r="3" />
	<circle cx="75" cy="135.99" r="3" />
	<circle cx="75" cy="135.989" r="3" />
	<circle cx="75" cy="135.989" r="3" />
	<circle cx="75" cy="135.988" r="3" />
	<circle cx="75" cy="135.997" r="3" />
	<circle cx="75" cy="135.997" r="3" />
	<circle cx="75" cy="135.99" r="3" />
	<circle cx="75" cy="135.997" r="3" />
	<circle cx="75" cy="135.992" r="3" />
	<circle cx="85" cy="132.118" r="3" />
	<circle cx="85" cy="132.159" r="3" />
	<circle cx="85" cy="132.188" r="3" />
	<circle cx="85" cy="133.149" r="3" />
	<circle cx="85" cy="133.202" r="3" />
	<circle cx="85" cy="133.23" r="3" />
	<circle cx="85" cy="132.974" r="3" />
	<circle cx="85" cy="132.971" r="3" />
	<circle cx="85" cy="131.973" r="3" />
	<circle cx="85" cy="132.161" r="3" />
	<circle cx="85" cy="133.014" r="3" />
	<circle cx="85" cy="133.192" r="3" />
	<circle cx="85" cy="133.136" r="3" />
	<circle cx="85" cy="133.14" r="3" />
	<circle cx="85" cy="133.069" r="3" />
	<circle cx="85" cy="133.069" r="3" />
	<circle cx="85" cy="132.102" r="3" />
	<circle cx="85" cy="132.162" r="3" />
	<circle cx="85" cy="133.201" r="3" />
	<circle cx="85" cy="133.202" r="3" />
	<circle cx="85" cy="133.203" r="3" />
	<circle cx="85" cy="133.217" r="3" />
	<circle cx="85" cy="133.193" r="3" />
	<circle cx="85" cy="133.139" r="3" />
	<circle cx="85" cy="133.136" r="3" />
	<circle cx="85" cy="132.937" r="3" />
	<circle cx="85" cy="133.109" r="3" />
	<circle cx="85" cy="133.057" r="3" />
	<circle cx="85" cy="133.036" r="3" />
	<circle cx="95" cy="130.057" r="3" />
	<circle cx="95" cy="128.806" r="3" />
	<circle cx="95" cy="129.537" r="3" />
	<circle cx="95" cy="131.081" r="3" />
	<circle cx="95" cy="131.048" r="3" />
	<circle cx="95" cy="124.256" r="3" />
	<circle cx="95" cy="130.766" r="3" />
	<circle cx="95" cy="130.962" r="3" />
	<circle cx="95" cy="128.972" r="3" />
	<circle cx="95" cy="131.018" r="3" />
	<circle cx="95" cy="130.961" r="3" />
	<circle cx="95" cy="131.105" r="3" />
	<circle cx="95" cy="129.05" r="3" />
	<circle cx="95" cy="129.019" r="3" />
	<circle cx="95" cy="130.949" r="3" />
	<circle cx="95" cy="129.423" r="3" />
	<circle cx="95" cy="130.863" r="3" />
	<circle cx="95" cy="130.633" r="3" />
	<circle cx="95" cy="124.942" r="3" />
	<circle cx="95" cy="130.836" r="3" />
	<circle cx="95" cy="124.734" r="3" />
	<circle cx="105" cy="127.137" r="3" />
	<circle cx="105" cy="125.785" r="3" />
	<circle cx="105" cy="121.332" r="3" />
	<circle cx="105" cy="128.556" r="3" />
	<circle cx="105" cy="128.745" r="3" />
	<circle cx="105" cy="129.684" r="3" />
	<circle cx="105" cy="117.707" r="3" />
	<circle cx="105" cy="128.694" r="3" />
	<circle cx="105" cy="128.847" r="3" />
	<circle cx="105" cy="128.507" r="3" />
	<circle cx="105" cy="125.96" r="3" />
	<circle cx="105" cy="128.811" r="3" />
	<circle cx="105" cy="125.102" r="3" />
	<circle cx="105" cy="128.774" r="3" />
	<circle cx="105" cy="128.58" r="3" />
	<circle cx="105" cy="128.817" r="3" />
	<circle cx="105" cy="128.82" r="3" />
	<circle cx="105" cy="128.818" r="3" />
	<circle cx="115" cy="100.467" r="3" />
	<circle cx="115" cy="123.742" r="3" />
	<circle cx="115" cy="115.233" r="3" />
	<circle cx="115" cy="126.704" r="3" />
	<circle cx="115" cy="126.755" r="3" />
	<circle cx="115" cy="126.595" r="3" />
	<circle cx="115" cy="126.409" r="3" />
	<circle cx="115" cy="126.6" r="3" />
	<circle cx="115" cy="115.545" r="3" />
	<circle cx="115" cy="126.7" r="3" />
	<circle cx="115" cy="122.965" r="3" />
	<circle cx="115" cy="126.335" r="3" />
	<circle cx="115" cy="112.266" r="3" />
	<circle cx="115" cy="126.819" r="3" />
	<circle cx="115" cy="126.829" r="3" />
	<circle cx="115" cy="126.891" r="3" />
	<circle cx="115" cy="126.829" r="3" />
	<circle cx="115" cy="127.66" r="3" />
	<circle cx="115" cy="126.652" r="3" />
	<circle cx="115" cy="126.579" r="3" />
	<circle cx="115" cy="127.652" r="3" />
	<circle cx="125" cy="99.131" r="3" />
	<circle cx="125" cy="119.288" r="3" />
	<circle cx="125" cy="124.3" r="3" />
	<circle cx="125" cy="124.019" r="3" />
	<circle cx="125" cy="124.392" r="3" />
	<circle cx="125" cy="115.474" r="3" />
	<circle cx="125" cy="124.543" r="3" />
	<circle cx="125" cy="124.084" r="3" />
	<circle cx="125" cy="124.815" r="3" />
	<circle cx="125" cy="124.847" r="3" />
	<circle cx="125" cy="124.667" r="3" />
	<circle cx="125" cy="119.65" r="3" />
	<circle cx="125" cy="124.67" r="3" />
	<circle cx="125" cy="124.753" r="3" />
	<circle cx="125" cy="124.737" r="3" />
	<circle cx="125" cy="109.002" r="3" />
	<circle cx="125" cy="108.194" r="3" />
	<circle cx="125" cy="119.092" r="3" />
	<circle cx="125" cy="108.965" r="3" />
	<circle cx="125" cy="124.823" r="3" />
	<circle cx="125" cy="124.605" r="3" />
	<circle cx="125" cy="117.297" r="3" />
	<circle cx="125" cy="124.623" r="3" />
	<circle cx="125" cy="124.574" r="3" />
	<circle cx="125" cy="124.577" r="3" />
	<circle cx="135" cy="118.051" r="3" />
	<circle cx="135" cy="116.374" r="3" />
	<circle cx="135" cy="109.902" r="3" />
	<circle cx="135" cy="122.76" r="3" />
	<circle cx="135" cy="122.092" r="3" />
	<circle cx="135" cy="116.592" r="3" />
	<circle cx="135" cy="122.531" r="3" />
	<circle cx="135" cy="122.64" r="3" />
	<circle cx="135" cy="122.693" r="3" />
	<circle cx="135" cy="122.633" r="3" />
	<circle cx="135" cy="122.725" r="3" />
	<circle cx="135" cy="111.908" r="3" />
	<circle cx="135" cy="113.146" r="3" />
	<circle cx="135" cy="107.397" r="3" />
	<circle cx="135" cy="122.504" r="3" />
	<circle cx="135" cy="122.231" r="3" />
	<circle cx="135" cy="122.599" r="3" />
	<circle cx="135" cy="122.545" r="3" />
	<circle cx="135" cy="108.127" r="3" />
	<circle cx="145" cy="91.984" r="3" />
	<circle cx="145" cy="113.322" r="3" />
	<circle cx="145" cy="120.175" r="3" />
	<circle cx="145" cy="120.366" r="3" />
	<circle cx="145" cy="120.63" r="3" />
	<circle cx="145" cy="93.437" r="3" />
	<circle cx="145" cy="120.576" r="3" />
	<circle cx="145" cy="107.661" r="3" />
	<circle cx="145" cy="120.458" r="3" />
	<circle cx="145" cy="106.897" r="3" />
	<circle cx="145" cy="120.43" r="3" />
	<circle cx="145" cy="120.395" r="3" />
	<circle cx="145" cy="119.995" r="3" />
	<circle cx="145" cy="120.527" r="3" />
	<circle cx="145" cy="120.439" r="3" />
	<circle cx="145" cy="120.249" r="3" />
	<circle cx="145" cy="120.349" r="3" />
	<circle cx="145" cy="120.473" r="3" />
	<circle cx="145" cy="120.49" r="3" />
	<circle cx="145" cy="120.394" r="3" />
	<circle cx="155" cy="81.71" r="3" />
	<circle cx="155" cy="103.983" r="3" />
	<circle cx="155" cy="99.756" r="3" />
	<circle cx="155" cy="117.972" r="3" />
	<circle cx="155" cy="110.422" r="3" />
	<circle cx="155" cy="118.301" r="3" />
	<circle cx="155" cy="103.321" r="3" />
	<circle cx="155" cy="100.937" r="3" />
	<circle cx="155" cy="118.112" r="3" />
	<circle cx="155" cy="100.298" r="3" />
	<circle cx="155" cy="106.34" r="3" />
	<circle cx="155" cy="113.357" r="3" />
	<circle cx="155" cy="117.742" r="3" />
	<circle cx="155" cy="118.119" r="3" />
	<circle cx="155" cy="118.416" r="3" />
	<circle cx="155" cy="118.1" r="3" />
	<circle cx="155" cy="117.879" r="3" />
	<circle cx="155" cy="117.011" r="3" />
	<circle cx="155" cy="118.034" r="3" />
	<circle cx="155" cy="113.748" r="3" />
	<circle cx="155" cy="118.462" r="3" />
	<circle cx="155" cy="84.79" r="3" />
	<circle cx="155" cy="117.862" r="3" />
	<circle cx="165" cy="85.745" r="3" />
	<circle cx="165" cy="107.64" r="3" />
	<circle cx="165" cy="115.754" r="3" />
	<circle cx="165" cy="112.767" r="3" />
	<circle cx="165" cy="115.659" r="3" />
	<circle cx="165" cy="114.843" r="3" />
	<circle cx="165" cy="115.879" r="3" />
	<circle cx="165" cy="116.182" r="3" />
	<circle cx="165" cy="91.606" r="3" />
	<circle cx="165" cy="116.271" r="3" />
	<circle cx="165" cy="116.094" r="3" />
	<circle cx="165" cy="115.035" r="3" />
	<circle cx="165" cy="116.324" r="3" />
	<circle cx="165" cy="116.097" r="3" />
	<circle cx="165" cy="116.395" r="3" />
	<circle cx="165" cy="106.628" r="3" />
	<circle cx="165" cy="116.242" r="3" />
	<circle cx="165" cy="115.861" r="3" />
	<circle cx="175" cy="78.86" r="3" />
	<circle cx="175" cy="104.143" r="3" />
	<circle cx="175" cy="113.155" r="3" />
	<circle cx="175" cy="105.201" r="3" />
	<circle cx="175" cy="89.727" r="3" />
	<circle cx="175" cy="83.304" r="3" />
	<circle cx="175" cy="114.397" r="3" />
	<circle cx="175" cy="89.631" r="3" />
	<circle cx="175" cy="104.778" r="3" />
	<circle cx="175" cy="91.981" r="3" />
	<circle cx="175" cy="86.953" r="3" />
	<circle cx="175" cy="113.232" r="3" />
	<circle cx="175" cy="101.601" r="3" />
	<circle cx="175" cy="114.227" r="3" />
	<circle cx="175" cy="113.881" r="3" />
	<circle cx="175" cy="75.933" r="3" />
	<circle cx="175" cy="60.089" r="3" />
	<circle cx="175" cy="114.226" r="3" />
	<circle cx="185" cy="83.258" r="3" />
	<circle cx="185" cy="102.235" r="3" />
	<circle cx="185" cy="112.072" r="3" />
	<circle cx="185" cy="111.99" r="3" />
	<circle cx="185" cy="110.91" r="3" />
	<circle cx="185" cy="109.009" r="3" />
	<circle cx="185" cy="111.937" r="3" />
	<circle cx="185" cy="82.799" r="3" />
	<circle cx="185" cy="111.817" r="3" />
	<circle cx="185" cy="111.944" r="3" />
	<circle cx="185" cy="111.973" r="3" />
	<circle cx="185" cy="112.129" r="3" />
	<circle cx="185" cy="112.034" r="3" />
	<circle cx="185" cy="111.989" r="3" />
	<circle cx="185" cy="100.187" r="3" />
	<circle cx="185" cy="112.479" r="3" />
	<circle cx="185" cy="77.909" r="3" />
	<circle cx="185" cy="104.931" r="3" />
	<circle cx="185" cy="99.789" r="3" />
	<circle cx="185" cy="112.01" r="3" />
	<circle cx="185" cy="78.524" r="3" />
	<circle cx="185" cy="112.321" r="3" />
	<circle cx="185" cy="58.8" r="3" />
	<circle cx="185" cy="112.111" r="3" />
	<circle cx="195" cy="65.966" r="3" />
	<circle cx="195" cy="101.861" r="3" />
	<circle cx="195" cy="97.604" r="3" />
	<circle cx="195" cy="105.131" r="3" />
	<circle cx="195" cy="109.523" r="3" />
	<circle cx="195" cy="109.975" r="3" />
	<circle cx="195" cy="93.901" r="3" />
	<circle cx="195" cy="76.383" r="3" />
	<circle cx="195" cy="102.04" r="3" />
	<circle cx="195" cy="110.252" r="3" />
	<circle cx="195" cy="109.842" r="3" />
	<circle cx="195" cy="78.707" r="3" />
	<circle cx="195" cy="109.915" r="3" />
	<circle cx="195" cy="109.93" r="3" />
	<circle cx="195" cy="103.758" r="3" />
	<circle cx="195" cy="110.092" r="3" />
	<circle cx="195" cy="98.094" r="3" />
	<circle cx="195" cy="103.828" r="3" />
	<circle cx="195" cy="85.425" r="3" />
	<circle cx="195" cy="109.924" r="3" />
	<circle cx="195" cy="109.727" r="3" />
	<circle cx="195" cy="79.218" r="3" />
	<circle cx="195" cy="109.931" r="3" />
	<circle cx="195" cy="109.885" r="3" />
	<circle cx="195" cy="60.421" r="3" />
	<circle cx="195" cy="109.702" r="3" />
	<circle cx="205" cy="72.281" r="3" />
	<circle cx="205" cy="95.165" r="3" />
	<circle cx="205" cy="108.276" r="3" />
	<circle cx="205" cy="107.892" r="3" />
	<circle cx="205" cy="107.836" r="3" />
	<circle cx="205" cy="98.287" r="3" />
	<circle cx="205" cy="85.4" r="3" />
	<circle cx="205" cy="107.974" r="3" />
	<circle cx="205" cy="76.361" r="3" />
	<circle cx="205" cy="107.596" r="3" />
	<circle cx="205" cy="107.663" r="3" />
	<circle cx="205" cy="83.626" r="3" />
	<circle cx="205" cy="105.928" r="3" />
	<circle cx="205" cy="107.483" r="3" />
	<circle cx="205" cy="91.705" r="3" />
	<circle cx="205" cy="99.552" r="3" />
	<circle cx="205" cy="107.627" r="3" />
	<circle cx="205" cy="107.426" r="3" />
	<circle cx="205" cy="107.89" r="3" />
	<circle cx="205" cy="106.977" r="3" />
	<circle cx="205" cy="96.896" r="3" />
	<circle cx="205" cy="107.327" r="3" />
	<circle cx="205" cy="107.602" r="3" />
	<circle cx="205" cy="98.472" r="3" />
	<circle cx="205" cy="107.089" r="3" />
	<circle cx="215" cy="78.163" r="3" />
	<circle cx="215" cy="92.158" r="3" />
	<circle cx="215" cy="81.712" r="3" />
	<circle cx="215" cy="105.292" r="3" />
	<circle cx="215" cy="105.516" r="3" />
	<circle cx="215" cy="74.23" r="3" />
	<circle cx="215" cy="100.998" r="3" />
	<circle cx="215" cy="105.723" r="3" />
	<circle cx="215" cy="105.794" r="3" />
	<circle cx="215" cy="75.11" r="3" />
	<circle cx="215" cy="90.092" r="3" />
	<circle cx="215" cy="105.621" r="3" />
	<circle cx="215" cy="74.383" r="3" />
	<circle cx="215" cy="102.741" r="3" />
	<circle cx="215" cy="74.483" r="3" />
	<circle cx="215" cy="105.252" r="3" />
	<circle cx="215" cy="105.537" r="3" />
	<circle cx="215" cy="105.698" r="3" />
	<circle cx="215" cy="106.145" r="3" />
	<circle cx="215" cy="105.514" r="3" />
	<circle cx="225" cy="66.504" r="3" />
	<circle cx="225" cy="88.938" r="3" />
	<circle cx="225" cy="89.997" r="3" />
	<circle cx="225" cy="103.184" r="3" />
	<circle cx="225" cy="103.177" r="3" />
	<circle cx="225" cy="88.598" r="3" />
	<circle cx="225" cy="103.805" r="3" />
	<circle cx="225" cy="71.412" r="3" />
	<circle cx="225" cy="81.123" r="3" />
	<circle cx="225" cy="104.025" r="3" />
	<circle cx="225" cy="72.174" r="3" />
	<circle cx="225" cy="103.662" r="3" />
	<circle cx="225" cy="98.191" r="3" />
	<circle cx="225" cy="103.237" r="3" />
	<circle cx="225" cy="102.413" r="3" />
	<circle cx="225" cy="103.522" r="3" />
	<circle cx="225" cy="103.282" r="3" />
	<circle cx="225" cy="103.954" r="3" />
	<circle cx="225" cy="103.608" r="3" />
	<circle cx="225" cy="103.633" r="3" />
	<circle cx="225" cy="92.936" r="3" />
	<circle cx="225" cy="92.606" r="3" />
	<circle cx="225" cy="103.856" r="3" />
	<circle cx="225" cy="103.973" r="3" />
	<circle cx="235" cy="85.351" r="3" />
	<circle cx="235" cy="83.535" r="3" />
	<circle cx="235" cy="100.54" r="3" />
	<circle cx="235" cy="100.708" r="3" />
	<circle cx="235" cy="98.824" r="3" />
	<circle cx="235" cy="101.358" r="3" />
	<circle cx="235" cy="101.66" r="3" />
	<circle cx="235" cy="101.109" r="3" />
	<circle cx="235" cy="101.232" r="3" />
	<circle cx="235" cy="101.642" r="3" />
	<circle cx="235" cy="101.256" r="3" />
	<circle cx="235" cy="88.851" r="3" />
	<circle cx="235" cy="101.308" r="3" />
	<circle cx="235" cy="102.426" r="3" />
	<circle cx="235" cy="101.346" r="3" />
	<circle cx="235" cy="101.423" r="3" />
	<circle cx="235" cy="88.936" r="3" />
	<circle cx="235" cy="101.575" r="3" />
	<circle cx="235" cy="101.732" r="3" />
	<circle cx="235" cy="75.182" r="3" />
	<circle cx="235" cy="101.292" r="3" />
	<circle cx="235" cy="77.952" r="3" />
	<circle cx="235" cy="102.332" r="3" />
	<circle cx="235" cy="58.179" r="3" />
	<circle cx="235" cy="84.695" r="3" />
	<circle cx="235" cy="28.808" r="3" />
	<circle cx="235" cy="100.925" r="3" />
	<circle cx="245" cy="63.954" r="3" />
	<circle cx="245" cy="84.021" r="3" />
	<circle cx="245" cy="99.077" r="3" />
	<circle cx="245" cy="99.974" r="3" />
	<circle cx="245" cy="99.317" r="3" />
	<circle cx="245" cy="99.13" r="3" />
	<circle cx="245" cy="99.428" r="3" />
	<circle cx="245" cy="99.398" r="3" />
	<circle cx="245" cy="99.576" r="3" />
	<circle cx="245" cy="99.501" r="3" />
	<circle cx="245" cy="88.876" r="3" />
	<circle cx="245" cy="87.959" r="3" />
	<circle cx="245" cy="86.68" r="3" />
	<circle cx="245" cy="99.03" r="3" />
	<circle cx="245" cy="67.523" r="3" />
	<circle cx="245" cy="88.349" r="3" />
	<circle cx="245" cy="88.118" r="3" />
	<circle cx="245" cy="98.954" r="3" />
	<circle cx="255" cy="81.987" r="3" />
	<circle cx="255" cy="79.98" r="3" />
	<circle cx="255" cy="96.866" r="3" />
	<circle cx="255" cy="97.023" r="3" />
	<circle cx="255" cy="97.158" r="3" />
	<circle cx="255" cy="97.485" r="3" />
	<circle cx="255" cy="97.31" r="3" />
	<circle cx="255" cy="97.249" r="3" />
	<circle cx="255" cy="80.298" r="3" />
	<circle cx="255" cy="72.251" r="3" />
	<circle cx="255" cy="66.366" r="3" />
	<circle cx="255" cy="97.562" r="3" />
	<circle cx="255" cy="95.127" r="3" />
	<circle cx="255" cy="87.393" r="3" />
	<circle cx="255" cy="97.41" r="3" />
	<circle cx="255" cy="80.653" r="3" />
	<circle cx="255" cy="97.253" r="3" />
	<circle cx="255" cy="97.324" r="3" />
	<circle cx="255" cy="87.729" r="3" />
	<circle cx="255" cy="97.344" r="3" />
	<circle cx="255" cy="96.747" r="3" />
	<circle cx="255" cy="97.189" r="3" />
	<circle cx="265" cy="79.464" r="3" />
	<circle cx="265" cy="93.209" r="3" />
	<circle cx="265" cy="94.772" r="3" />
	<circle cx="265" cy="94.816" r="3" />
	<circle cx="265" cy="77.036" r="3" />
	<circle cx="265" cy="93.684" r="3" />
	<circle cx="265" cy="94.353" r="3" />
	<circle cx="265" cy="94.874" r="3" />
	<circle cx="265" cy="95.301" r="3" />
	<circle cx="265" cy="93.492" r="3" />
	<circle cx="265" cy="95.199" r="3" />
	<circle cx="265" cy="70.319" r="3" />
	<circle cx="265" cy="51.18" r="3" />
	<circle cx="265" cy="95.333" r="3" />
	<circle cx="265" cy="95.186" r="3" />
	<circle cx="265" cy="92.113" r="3" />
	<circle cx="265" cy="94.435" r="3" />
	<circle cx="265" cy="79.483" r="3" />
	<circle cx="265" cy="94.778" r="3" />
	<circle cx="265" cy="95.178" r="3" />
	<circle cx="265" cy="41.063" r="3" />
	<circle cx="265" cy="87.94" r="3" />
	<circle cx="275" cy="49.111" r="3" />
	<circle cx="275" cy="74.854" r="3" />
	<circle cx="275" cy="92.85" r="3" />
	<circle cx="275" cy="44.054" r="3" />
	<circle cx="275" cy="93.189" r="3" />
	<circle cx="275" cy="93.033" r="3" />
	<circle cx="275" cy="49.026" r="3" />
	<circle cx="275" cy="78.942" r="3" />
	<circle cx="275" cy="92.398" r="3" />
	<circle cx="275" cy="93.29" r="3" />
	<circle cx="275" cy="19.741" r="3" />
	<circle cx="275" cy="94.216" r="3" />
	<circle cx="275" cy="78.958" r="3" />
	<circle cx="275" cy="68.645" r="3" />
	<circle cx="275" cy="92.748" r="3" />
	<circle cx="275" cy="93.211" r="3" />
	<circle cx="275" cy="38.87" r="3" />
	<circle cx="275" cy="92.971" r="3" />
	<circle cx="275" cy="94.125" r="3" />
	<circle cx="275" cy="62.645" r="3" />
	<circle cx="275" cy="93.161" r="3" />
	<circle cx="275" cy="93.27" r="3" />
	<circle cx="275" cy="93.246" r="3" />
	<circle cx="275" cy="93.081" r="3" />
	<circle cx="275" cy="84.969" r="3" />
	<circle cx="275" cy="93.359" r="3" />
	<circle cx="275" cy="92.984" r="3" />
	<circle cx="275" cy="93.026" r="3" />
	<circle cx="275" cy="48.751" r="3" />
	<circle cx="275" cy="93.001" r="3" />
	<circle cx="275" cy="75.852" r="3" /><!-- 
	Generated using the Perl SVG Module V2.36
	by Ronan Oger
	Info: http://www.roitsystems.com/
 -->
</svg>