<?xml version="1.0" encoding="UTF-8" standalone="yes"?>
<!DOCTYPE svg PUBLIC "-//W3C//DTD SVG 1.0//EN" "http://www.w3.org/TR/2001/REC-SVG-20010904/DTD/svg10.dtd">
<svg height="126" width="295" xmlns="http://www.w3.org/2000/svg" xmlns:xlink="http://www.w3.org/1999/xlink">
	<line style="stroke: blue; stroke-width: 1" x1="70" x2="280" y1="106" y2="106" />	<text text-anchor="end" x="70" y="106">0.00
	</text>
	<line style="stroke: blue; stroke-width: 1" x1="70" x2="280" y1="56" y2="56" />	<text text-anchor="end" x="70" y="56">0.05
	</text>
	<circle cx="75" cy="105.987" r="3" />
	<circle cx="75" cy="105.991" r="3" />
	<circle cx="75" cy="105.986" r="3" />
	<circle cx="75" cy="105.985" r="3" />
	<circle cx="75" cy="105.985" r="3" />
	<circle cx="75" cy="105.984" r="3" />
	<circle cx="75" cy="105.986" r="3" />
	<circle cx="75" cy="105.985" r="3" />
	<circle cx="75" cy="105.985" r="3" />
	<circle cx="75" cy="105.985" r="3" />
	<circle cx="75" cy="105.996" r="3" />
	<circle cx="75" cy="105.984" r="3" />
	<circle cx="75" cy="105.986" r="3" />
	<circle cx="75" cy="105.987" r="3" />
	<circle cx="75" cy="105.986" r="3" />
	<circle cx="75" cy="105.985" r="3" />
	<circle cx="75" cy="105.985" r="3" />
	<circle cx="75" cy="105.985" r="3" />
	<circle cx="75" cy="105.985" r="3" />
	<circle cx="75" cy="105.986" r="3" />
	<circle cx="75" cy="105.986" r="3" />
	<circle cx="75" cy="105.988" r="3" />
	<circle cx="75" cy="105.987" r="3" />
	<circle cx="75" cy="105.986" r="3" />
	<circle cx="75" cy="105.985" r="3" />
	<circle cx="75" cy="105.986" r="3" />
	<circle cx="75" cy="105.984" r="3" />
	<circle cx="75" cy="105.986" r="3" />
	<circle cx="75" cy="105.986" r="3" />
	<circle cx="75" cy="105.986" r="3" />
	<circle cx="75" cy="105.985" r="3" />
	<circle cx="85" cy="103.791" r="3" />
	<circle cx="85" cy="104.744" r="3" />
	<circle cx="85" cy="104.881" r="3" />
	<circle cx="85" cy="104.924" r="3" />
	<circle cx="85" cy="104.635" r="3" />
	<circle cx="85" cy="105" r="3" />
	<circle cx="85" cy="105.049" r="3" />
	<circle cx="85" cy="104.985" r="3" />
	<circle cx="85" cy="104.942" r="3" />
	<circle cx="85" cy="104.926" r="3" />
	<circle cx="85" cy="104.931" r="3" />
	<circle cx="85" cy="104.96" r="3" />
	<circle cx="85" cy="105.036" r="3" />
	<circle cx="85" cy="105.007" r="3" />
	<circle cx="85" cy="105.112" r="3" />
	<circle cx="85" cy="105.065" r="3" />
	<circle cx="85" cy="105.071" r="3" />
	<circle cx="85" cy="104.969" r="3" />
	<circle cx="85" cy="104.979" r="3" />
	<circle cx="85" cy="104.963" r="3" />
	<circle cx="85" cy="104.971" r="3" />
	<circle cx="85" cy="104.899" r="3" />
	<circle cx="85" cy="104.918" r="3" />
	<circle cx="85" cy="104.858" r="3" />
	<circle cx="95" cy="104.086" r="3" />
	<circle cx="95" cy="104.475" r="3" />
	<circle cx="95" cy="104.729" r="3" />
	<circle cx="95" cy="104.883" r="3" />
	<circle cx="95" cy="104.883" r="3" />
	<circle cx="95" cy="104.88" r="3" />
	<circle cx="95" cy="104.828" r="3" />
	<circle cx="95" cy="104.809" r="3" />
	<circle cx="95" cy="104.898" r="3" />
	<circle cx="95" cy="104.937" r="3" />
	<circle cx="95" cy="104.55" r="3" />
	<circle cx="95" cy="104.978" r="3" />
	<circle cx="95" cy="104.937" r="3" />
	<circle cx="95" cy="104.925" r="3" />
	<circle cx="95" cy="98.137" r="3" />
	<circle cx="95" cy="104.827" r="3" />
	<circle cx="95" cy="104.818" r="3" />
	<circle cx="95" cy="104.774" r="3" />
	<circle cx="95" cy="104.752" r="3" />
	<circle cx="95" cy="104.867" r="3" />
	<circle cx="95" cy="104.827" r="3" />
	<circle cx="95" cy="104.727" r="3" />
	<circle cx="95" cy="104.736" r="3" />
	<circle cx="95" cy="104.706" r="3" />
	<circle cx="95" cy="104.41" r="3" />
	<circle cx="95" cy="104.725" r="3" />
	<circle cx="105" cy="103.783" r="3" />
	<circle cx="105" cy="104.266" r="3" />
	<circle cx="105" cy="104.625" r="3" />
	<circle cx="105" cy="104.571" r="3" />
	<circle cx="105" cy="104.626" r="3" />
	<circle cx="105" cy="104.62" r="3" />
	<circle cx="105" cy="104.683" r="3" />
	<circle cx="105" cy="104.734" r="3" />
	<circle cx="105" cy="104.701" r="3" />
	<circle cx="105" cy="104.643" r="3" />
	<circle cx="105" cy="104.576" r="3" />
	<circle cx="105" cy="104.621" r="3" />
	<circle cx="105" cy="104.448" r="3" />
	<circle cx="105" cy="104.607" r="3" />
	<circle cx="105" cy="104.671" r="3" />
	<circle cx="105" cy="104.741" r="3" />
	<circle cx="105" cy="104.721" r="3" />
	<circle cx="105" cy="104.703" r="3" />
	<circle cx="105" cy="104.348" r="3" />
	<circle cx="105" cy="104.617" r="3" />
	<circle cx="105" cy="104.549" r="3" />
	<circle cx="115" cy="102.533" r="3" />
	<circle cx="115" cy="104.028" r="3" />
	<circle cx="115" cy="104.48" r="3" />
	<circle cx="115" cy="104.571" r="3" />
	<circle cx="115" cy="104.469" r="3" />
	<circle cx="115" cy="104.476" r="3" />
	<circle cx="115" cy="104.531" r="3" />
	<circle cx="115" cy="104.562" r="3" />
	<circle cx="115" cy="104.459" r="3" />
	<circle cx="115" cy="104.336" r="3" />
	<circle cx="115" cy="104.598" r="3" />
	<circle cx="115" cy="104.58" r="3" />
	<circle cx="115" cy="104.666" r="3" />
	<circle cx="115" cy="104.587" r="3" />
	<circle cx="115" cy="104.232" r="3" />
	<circle cx="115" cy="104.083" r="3" />
	<circle cx="115" cy="104.576" r="3" />
	<circle cx="115" cy="104.355" r="3" />
	<circle cx="115" cy="105.401" r="3" />
	<circle cx="115" cy="104.607" r="3" />
	<circle cx="115" cy="104.542" r="3" />
	<circle cx="115" cy="104.464" r="3" />
	<circle cx="115" cy="104.491" r="3" />
	<circle cx="115" cy="105.401" r="3" />
	<circle cx="115" cy="104.468" r="3" />
	<circle cx="115" cy="105.405" r="3" />
	<circle cx="115" cy="105.404" r="3" />
	<circle cx="115" cy="104.483" r="3" />
	<circle cx="115" cy="104.477" r="3" />
	<circle cx="125" cy="101.278" r="3" />
	<circle cx="125" cy="104.974" r="3" />
	<circle cx="125" cy="104.263" r="3" />
	<circle cx="125" cy="104.249" r="3" />
	<circle cx="125" cy="104.24" r="3" />
	<circle cx="125" cy="104.323" r="3" />
	<circle cx="125" cy="104.279" r="3" />
	<circle cx="125" cy="104.34" r="3" />
	<circle cx="125" cy="104.109" r="3" />
	<circle cx="125" cy="104.275" r="3" />
	<circle cx="125" cy="104.275" r="3" />
	<circle cx="125" cy="104.392" r="3" />
	<circle cx="125" cy="104.32" r="3" />
	<circle cx="125" cy="104.249" r="3" />
	<circle cx="125" cy="104.273" r="3" />
	<circle cx="125" cy="104.306" r="3" />
	<circle cx="125" cy="104.249" r="3" />
	<circle cx="125" cy="104.25" r="3" />
	<circle cx="135" cy="100.406" r="3" />
	<circle cx="135" cy="104.05" r="3" />
	<circle cx="135" cy="104.113" r="3" />
	<circle cx="135" cy="104.279" r="3" />
	<circle cx="135" cy="104.194" r="3" />
	<circle cx="135" cy="104.038" r="3" />
	<circle cx="135" cy="103.379" r="3" />
	<circle cx="135" cy="104.149" r="3" />
	<circle cx="135" cy="104.209" r="3" />
	<circle cx="135" cy="104.257" r="3" />
	<circle cx="135" cy="104.182" r="3" />
	<circle cx="135" cy="104.106" r="3" />
	<circle cx="135" cy="104.116" r="3" />
	<circle cx="135" cy="104.164" r="3" />
	<circle cx="135" cy="103.675" r="3" />
	<circle cx="135" cy="104.169" r="3" />
	<circle cx="135" cy="104.16" r="3" />
	<circle cx="135" cy="104.103" r="3" />
	<circle cx="135" cy="104.122" r="3" />
	<circle cx="135" cy="104.111" r="3" />
	<circle cx="145" cy="101.153" r="3" />
	<circle cx="145" cy="103.13" r="3" />
	<circle cx="145" cy="104.025" r="3" />
	<circle cx="145" cy="104.108" r="3" />
	<circle cx="145" cy="104.145" r="3" />
	<circle cx="145" cy="104.075" r="3" />
	<circle cx="145" cy="104.089" r="3" />
	<circle cx="145" cy="104.168" r="3" />
	<circle cx="145" cy="104.176" r="3" />
	<circle cx="145" cy="104.191" r="3" />
	<circle cx="145" cy="104.16" r="3" />
	<circle cx="145" cy="104.067" r="3" />
	<circle cx="145" cy="103.974" r="3" />
	<circle cx="145" cy="104.022" r="3" />
	<circle cx="145" cy="103.993" r="3" />
	<circle cx="145" cy="104.11" r="3" />
	<circle cx="145" cy="104.192" r="3" />
	<circle cx="145" cy="104.144" r="3" />
	<circle cx="145" cy="104.205" r="3" />
	<circle cx="145" cy="104.106" r="3" />
	<circle cx="145" cy="104.025" r="3" />
	<circle cx="145" cy="103.975" r="3" />
	<circle cx="145" cy="104.013" r="3" />
	<circle cx="155" cy="99.124" r="3" />
	<circle cx="155" cy="103.231" r="3" />
	<circle cx="155" cy="103.909" r="3" />
	<circle cx="155" cy="103.962" r="3" />
	<circle cx="155" cy="103.853" r="3" />
	<circle cx="155" cy="103.757" r="3" />
	<circle cx="155" cy="103.922" r="3" />
	<circle cx="155" cy="104.06" r="3" />
	<circle cx="155" cy="104.007" r="3" />
	<circle cx="155" cy="103.857" r="3" />
	<circle cx="155" cy="103.888" r="3" />
	<circle cx="155" cy="103.944" r="3" />
	<circle cx="155" cy="103.869" r="3" />
	<circle cx="155" cy="103.863" r="3" />
	<circle cx="155" cy="103.808" r="3" />
	<circle cx="155" cy="103.933" r="3" />
	<circle cx="155" cy="103.969" r="3" />
	<circle cx="155" cy="103.783" r="3" />
	<circle cx="155" cy="103.87" r="3" />
	<circle cx="155" cy="103.351" r="3" />
	<circle cx="155" cy="103.825" r="3" />
	<circle cx="165" cy="98.252" r="3" />
	<circle cx="165" cy="103.099" r="3" />
	<circle cx="165" cy="103.781" r="3" />
	<circle cx="165" cy="103.679" r="3" />
	<circle cx="165" cy="103.567" r="3" />
	<circle cx="165" cy="103.757" r="3" />
	<circle cx="165" cy="103.721" r="3" />
	<circle cx="165" cy="67.12" r="3" />
	<circle cx="165" cy="103.722" r="3" />
	<circle cx="165" cy="103.69" r="3" />
	<circle cx="165" cy="103.752" r="3" />
	<circle cx="165" cy="103.744" r="3" />
	<circle cx="165" cy="103.752" r="3" />
	<circle cx="165" cy="103.819" r="3" />
	<circle cx="165" cy="103.732" r="3" />
	<circle cx="165" cy="103.709" r="3" />
	<circle cx="165" cy="103.703" r="3" />
	<circle cx="165" cy="104.715" r="3" />
	<circle cx="165" cy="103.666" r="3" />
	<circle cx="165" cy="103.556" r="3" />
	<circle cx="165" cy="103.683" r="3" />
	<circle cx="175" cy="75.365" r="3" />
	<circle cx="175" cy="104.022" r="3" />
	<circle cx="175" cy="103.402" r="3" />
	<circle cx="175" cy="103.649" r="3" />
	<circle cx="175" cy="103.873" r="3" />
	<circle cx="175" cy="103.587" r="3" />
	<circle cx="175" cy="103.58" r="3" />
	<circle cx="175" cy="103.748" r="3" />
	<circle cx="175" cy="103.767" r="3" />
	<circle cx="175" cy="103.753" r="3" />
	<circle cx="175" cy="103.609" r="3" />
	<circle cx="175" cy="103.6" r="3" />
	<circle cx="175" cy="103.605" r="3" />
	<circle cx="175" cy="103.637" r="3" />
	<circle cx="175" cy="103.746" r="3" />
	<circle cx="175" cy="103.732" r="3" />
	<circle cx="175" cy="103.803" r="3" />
	<circle cx="175" cy="103.714" r="3" />
	<circle cx="175" cy="103.689" r="3" />
	<circle cx="175" cy="103.757" r="3" />
	<circle cx="175" cy="103.659" r="3" />
	<circle cx="175" cy="103.743" r="3" />
	<circle cx="175" cy="103.529" r="3" />
	<circle cx="175" cy="103.592" r="3" />
	<circle cx="175" cy="103.534" r="3" />
	<circle cx="185" cy="96.888" r="3" />
	<circle cx="185" cy="102.584" r="3" />
	<circle cx="185" cy="103.542" r="3" />
	<circle cx="185" cy="103.514" r="3" />
	<circle cx="185" cy="103.604" r="3" />
	<circle cx="185" cy="103.568" r="3" />
	<circle cx="185" cy="103.365" r="3" />
	<circle cx="185" cy="103.41" r="3" />
	<circle cx="185" cy="103.385" r="3" />
	<circle cx="185" cy="103.384" r="3" />
	<circle cx="185" cy="103.568" r="3" />
	<circle cx="185" cy="72.027" r="3" />
	<circle cx="185" cy="102.856" r="3" />
	<circle cx="185" cy="103.507" r="3" />
	<circle cx="185" cy="103.578" r="3" />
	<circle cx="185" cy="103.7" r="3" />
	<circle cx="185" cy="103.555" r="3" />
	<circle cx="185" cy="103.417" r="3" />
	<circle cx="185" cy="103.449" r="3" />
	<circle cx="185" cy="103.43" r="3" />
	<circle cx="185" cy="103.413" r="3" />
	<circle cx="195" cy="96.287" r="3" />
	<circle cx="195" cy="102.266" r="3" />
	<circle cx="195" cy="103.416" r="3" />
	<circle cx="195" cy="103.063" r="3" />
	<circle cx="195" cy="103.449" r="3" />
	<circle cx="195" cy="103.526" r="3" />
	<circle cx="195" cy="103.279" r="3" />
	<circle cx="195" cy="101.716" r="3" />
	<circle cx="195" cy="103.387" r="3" />
	<circle cx="195" cy="103.515" r="3" />
	<circle cx="195" cy="103.495" r="3" />
	<circle cx="195" cy="103.231" r="3" />
	<circle cx="195" cy="103.456" r="3" />
	<circle cx="195" cy="103.442" r="3" />
	<circle cx="195" cy="103.266" r="3" />
	<circle cx="195" cy="103.326" r="3" />
	<circle cx="195" cy="103.47" r="3" />
	<circle cx="195" cy="103.491" r="3" />
	<circle cx="195" cy="103.539" r="3" />
	<circle cx="195" cy="103.534" r="3" />
	<circle cx="195" cy="103.477" r="3" />
	<circle cx="195" cy="103.236" r="3" />
	<circle cx="195" cy="103.293" r="3" />
	<circle cx="195" cy="103.201" r="3" />
	<circle cx="205" cy="92.143" r="3" />
	<circle cx="205" cy="103.13" r="3" />
	<circle cx="205" cy="103.222" r="3" />
	<circle cx="205" cy="103.244" r="3" />
	<circle cx="205" cy="103.219" r="3" />
	<circle cx="205" cy="103.298" r="3" />
	<circle cx="205" cy="103.417" r="3" />
	<circle cx="205" cy="103.274" r="3" />
	<circle cx="205" cy="104.143" r="3" />
	<circle cx="205" cy="103.22" r="3" />
	<circle cx="205" cy="103.119" r="3" />
	<circle cx="205" cy="102.672" r="3" />
	<circle cx="205" cy="103.297" r="3" />
	<circle cx="205" cy="103.271" r="3" />
	<circle cx="205" cy="101.614" r="3" />
	<circle cx="205" cy="103.264" r="3" />
	<circle cx="205" cy="103.235" r="3" />
	<circle cx="205" cy="103.219" r="3" />
	<circle cx="205" cy="103.194" r="3" />
	<circle cx="205" cy="103.261" r="3" />
	<circle cx="205" cy="103.245" r="3" />
	<circle cx="215" cy="94.926" r="3" />
	<circle cx="215" cy="103.024" r="3" />
	<circle cx="215" cy="103.038" r="3" />
	<circle cx="215" cy="103.046" r="3" />
	<circle cx="215" cy="103.028" r="3" />
	<circle cx="215" cy="103.118" r="3" />
	<circle cx="215" cy="103.181" r="3" />
	<circle cx="215" cy="104.035" r="3" />
	<circle cx="215" cy="103.044" r="3" />
	<circle cx="215" cy="103.115" r="3" />
	<circle cx="215" cy="103.205" r="3" />
	<circle cx="215" cy="57.96" r="3" />
	<circle cx="215" cy="103.113" r="3" />
	<circle cx="215" cy="103.175" r="3" />
	<circle cx="215" cy="103.215" r="3" />
	<circle cx="215" cy="102.952" r="3" />
	<circle cx="215" cy="103.297" r="3" />
	<circle cx="215" cy="103.257" r="3" />
	<circle cx="215" cy="103.09" r="3" />
	<circle cx="215" cy="103.09" r="3" />
	<circle cx="225" cy="94.107" r="3" />
	<circle cx="225" cy="102.914" r="3" />
	<circle cx="225" cy="103.066" r="3" />
	<circle cx="225" cy="102.942" r="3" />
	<circle cx="225" cy="103.092" r="3" />
	<circle cx="225" cy="103.168" r="3" />
	<circle cx="225" cy="103.231" r="3" />
	<circle cx="225" cy="103.137" r="3" />
	<circle cx="225" cy="103.054" r="3" />
	<circle cx="225" cy="102.948" r="3" />
	<circle cx="225" cy="102.937" r="3" />
	<circle cx="225" cy="102.99" r="3" />
	<circle cx="225" cy="103.154" r="3" />
	<circle cx="225" cy="103.095" r="3" />
	<circle cx="225" cy="102.803" r="3" />
	<circle cx="225" cy="103.012" r="3" />
	<circle cx="225" cy="102.959" r="3" />
	<circle cx="235" cy="92.515" r="3" />
	<circle cx="235" cy="101.832" r="3" />
	<circle cx="235" cy="102.892" r="3" />
	<circle cx="235" cy="103.047" r="3" />
	<circle cx="235" cy="102.944" r="3" />
	<circle cx="235" cy="102.831" r="3" />
	<circle cx="235" cy="102.895" r="3" />
	<circle cx="235" cy="102.839" r="3" />
	<circle cx="235" cy="102.868" r="3" />
	<circle cx="235" cy="102.979" r="3" />
	<circle cx="235" cy="102.899" r="3" />
	<circle cx="235" cy="102.476" r="3" />
	<circle cx="235" cy="102.844" r="3" />
	<circle cx="235" cy="102.873" r="3" />
	<circle cx="235" cy="102.908" r="3" />
	<circle cx="235" cy="101.814" r="3" />
	<circle cx="235" cy="102.761" r="3" />
	<circle cx="245" cy="91.279" r="3" />
	<circle cx="245" cy="101.546" r="3" />
	<circle cx="245" cy="102.437" r="3" />
	<circle cx="245" cy="102.284" r="3" />
	<circle cx="245" cy="102.738" r="3" />
	<circle cx="245" cy="102.833" r="3" />
	<circle cx="245" cy="102.727" r="3" />
	<circle cx="245" cy="102.69" r="3" />
	<circle cx="245" cy="102.712" r="3" />
	<circle cx="245" cy="102.69" r="3" />
	<circle cx="245" cy="102.657" r="3" />
	<circle cx="245" cy="102.648" r="3" />
	<circle cx="245" cy="102.643" r="3" />
	<circle cx="255" cy="90.181" r="3" />
	<circle cx="255" cy="102.07" r="3" />
	<circle cx="255" cy="102.632" r="3" />
	<circle cx="255" cy="102.386" r="3" />
	<circle cx="255" cy="102.49" r="3" />
	<circle cx="255" cy="102.674" r="3" />
	<circle cx="255" cy="102.652" r="3" />
	<circle cx="255" cy="102.644" r="3" />
	<circle cx="255" cy="102.545" r="3" />
	<circle cx="255" cy="102.65" r="3" />
	<circle cx="255" cy="102.704" r="3" />
	<circle cx="255" cy="102.672" r="3" />
	<circle cx="255" cy="102.587" r="3" />
	<circle cx="255" cy="19.562" r="3" />
	<circle cx="265" cy="91.392" r="3" />
	<circle cx="265" cy="100.843" r="3" />
	<circle cx="265" cy="102.398" r="3" />
	<circle cx="265" cy="102.061" r="3" />
	<circle cx="265" cy="102.439" r="3" />
	<circle cx="265" cy="102.424" r="3" />
	<circle cx="265" cy="102.543" r="3" />
	<circle cx="265" cy="102.351" r="3" />
	<circle cx="265" cy="102.414" r="3" />
	<circle cx="265" cy="102.54" r="3" />
	<circle cx="265" cy="102.402" r="3" />
	<circle cx="265" cy="102.407" r="3" />
	<circle cx="265" cy="102.294" r="3" />
	<circle cx="265" cy="102.451" r="3" />
	<circle cx="265" cy="102.486" r="3" />
	<circle cx="265" cy="102.355" r="3" />
	<circle cx="265" cy="102.4" r="3" />
	<circle cx="265" cy="102.549" r="3" />
	<circle cx="265" cy="102.543" r="3" />
	<circle cx="265" cy="35.677" r="3" />
	<circle cx="265" cy="102.431" r="3" />
	<circle cx="265" cy="101.977" r="3" />
	<circle cx="265" cy="102.413" r="3" />
	<circle cx="265" cy="102.338" r="3" />
	<circle cx="275" cy="89.912" r="3" />
	<circle cx="275" cy="100.293" r="3" />
	<circle cx="275" cy="102.441" r="3" />
	<circle cx="275" cy="101.921" r="3" />
	<circle cx="275" cy="102.363" r="3" />
	<circle cx="275" cy="102.496" r="3" />
	<circle cx="275" cy="102.542" r="3" />
	<circle cx="275" cy="102.494" r="3" />
	<circle cx="275" cy="102.473" r="3" />
	<circle cx="275" cy="102.339" r="3" />
	<circle cx="275" cy="102.269" r="3" />
	<circle cx="275" cy="102.444" r="3" />
	<circle cx="275" cy="102.533" r="3" />
	<circle cx="275" cy="102.484" r="3" />
	<circle cx="275" cy="102.419" r="3" />
	<circle cx="275" cy="102.277" r="3" />
	<circle cx="275" cy="102.282" r="3" />
	<circle cx="275" cy="102.257" r="3" />
	<circle cx="275" cy="102.059" r="3" />
	<circle cx="275" cy="102.356" r="3" />
	<circle cx="275" cy="102.392" r="3" />
	<circle cx="275" cy="102.363" r="3" />
	<circle cx="275" cy="102.24" r="3" />
	<circle cx="275" cy="102.26" r="3" /><!-- 
	Generated using the Perl SVG Module V2.36
	by Ronan Oger
	Info: http://www.roitsystems.com/
 -->
</svg>