<?xml version="1.0" encoding="UTF-8" standalone="yes"?>
<!DOCTYPE svg PUBLIC "-//W3C//DTD SVG 1.0//EN" "http://www.w3.org/TR/2001/REC-SVG-20010904/DTD/svg10.dtd">
<svg height="226" width="295" xmlns="http://www.w3.org/2000/svg" xmlns:xlink="http://www.w3.org/1999/xlink">
	<line style="stroke: blue; stroke-width: 1" x1="70" x2="280" y1="206" y2="206" />	<text text-anchor="end" x="70" y="206">0.00
	</text>
	<line style="stroke: blue; stroke-width: 1" x1="70" x2="280" y1="156" y2="156" />	<text text-anchor="end" x="70" y="156">1.00
	</text>
	<line style="stroke: blue; stroke-width: 1" x1="70" x2="280" y1="106" y2="106" />	<text text-anchor="end" x="70" y="106">2.00
	</text>
	<line style="stroke: blue; stroke-width: 1" x1="70" x2="280" y1="56" y2="56" />	<text text-anchor="end" x="70" y="56">3.00
	</text>
	<circle cx="75" cy="205.99895" r="3" />
	<circle cx="75" cy="205.99955" r="3" />
	<circle cx="75" cy="205.99915" r="3" />
	<circle cx="75" cy="205.99905" r="3" />
	<circle cx="75" cy="205.99915" r="3" />
	<circle cx="75" cy="205.99865" r="3" />
	<circle cx="75" cy="205.9992" r="3" />
	<circle cx="75" cy="205.99915" r="3" />
	<circle cx="75" cy="205.9993" r="3" />
	<circle cx="75" cy="205.9992" r="3" />
	<circle cx="75" cy="205.99915" r="3" />
	<circle cx="75" cy="205.9992" r="3" />
	<circle cx="75" cy="205.99915" r="3" />
	<circle cx="75" cy="205.9991" r="3" />
	<circle cx="75" cy="205.99915" r="3" />
	<circle cx="75" cy="205.99915" r="3" />
	<circle cx="75" cy="205.99915" r="3" />
	<circle cx="75" cy="205.9993" r="3" />
	<circle cx="75" cy="205.99975" r="3" />
	<circle cx="75" cy="205.99875" r="3" />
	<circle cx="85" cy="205.26165" r="3" />
	<circle cx="85" cy="205.7971" r="3" />
	<circle cx="85" cy="205.8232" r="3" />
	<circle cx="85" cy="205.8215" r="3" />
	<circle cx="85" cy="205.81105" r="3" />
	<circle cx="85" cy="205.8234" r="3" />
	<circle cx="85" cy="205.81355" r="3" />
	<circle cx="85" cy="205.81655" r="3" />
	<circle cx="85" cy="205.80165" r="3" />
	<circle cx="85" cy="205.79805" r="3" />
	<circle cx="85" cy="205.8221" r="3" />
	<circle cx="85" cy="205.81735" r="3" />
	<circle cx="85" cy="205.80865" r="3" />
	<circle cx="85" cy="205.81505" r="3" />
	<circle cx="85" cy="205.81205" r="3" />
	<circle cx="95" cy="204.57205" r="3" />
	<circle cx="95" cy="205.5566" r="3" />
	<circle cx="95" cy="205.72775" r="3" />
	<circle cx="95" cy="205.67335" r="3" />
	<circle cx="95" cy="205.7285" r="3" />
	<circle cx="95" cy="205.6813" r="3" />
	<circle cx="95" cy="205.6728" r="3" />
	<circle cx="95" cy="205.6741" r="3" />
	<circle cx="95" cy="196.37525" r="3" />
	<circle cx="95" cy="205.67635" r="3" />
	<circle cx="95" cy="205.68135" r="3" />
	<circle cx="95" cy="205.6715" r="3" />
	<circle cx="95" cy="205.67665" r="3" />
	<circle cx="95" cy="205.6793" r="3" />
	<circle cx="105" cy="188.05395" r="3" />
	<circle cx="105" cy="188.086" r="3" />
	<circle cx="105" cy="187.80575" r="3" />
	<circle cx="105" cy="187.89055" r="3" />
	<circle cx="105" cy="188.54945" r="3" />
	<circle cx="105" cy="187.73715" r="3" />
	<circle cx="105" cy="187.36995" r="3" />
	<circle cx="105" cy="187.8095" r="3" />
	<circle cx="105" cy="188.08765" r="3" />
	<circle cx="105" cy="187.3391" r="3" />
	<circle cx="105" cy="187.43325" r="3" />
	<circle cx="105" cy="187.814" r="3" />
	<circle cx="105" cy="187.7606" r="3" />
	<circle cx="105" cy="186.5492" r="3" />
	<circle cx="105" cy="187.5798" r="3" />
	<circle cx="115" cy="180.5861" r="3" />
	<circle cx="115" cy="180.64535" r="3" />
	<circle cx="115" cy="181.6995" r="3" />
	<circle cx="115" cy="180.8822" r="3" />
	<circle cx="115" cy="180.5297" r="3" />
	<circle cx="115" cy="181.2093" r="3" />
	<circle cx="115" cy="182.411" r="3" />
	<circle cx="115" cy="182.09075" r="3" />
	<circle cx="115" cy="181.01755" r="3" />
	<circle cx="115" cy="180.95515" r="3" />
	<circle cx="115" cy="179.7602" r="3" />
	<circle cx="115" cy="180.36" r="3" />
	<circle cx="125" cy="173.22245" r="3" />
	<circle cx="125" cy="173.1116" r="3" />
	<circle cx="125" cy="174.4872" r="3" />
	<circle cx="125" cy="174.9555" r="3" />
	<circle cx="125" cy="173.72305" r="3" />
	<circle cx="125" cy="173.15225" r="3" />
	<circle cx="125" cy="173.6367" r="3" />
	<circle cx="125" cy="175.3074" r="3" />
	<circle cx="125" cy="174.0374" r="3" />
	<circle cx="125" cy="173.5561" r="3" />
	<circle cx="125" cy="173.703" r="3" />
	<circle cx="135" cy="166.5448" r="3" />
	<circle cx="135" cy="166.38065" r="3" />
	<circle cx="135" cy="167.98575" r="3" />
	<circle cx="135" cy="168.1854" r="3" />
	<circle cx="135" cy="166.54255" r="3" />
	<circle cx="135" cy="169.3098" r="3" />
	<circle cx="135" cy="169.75835" r="3" />
	<circle cx="135" cy="166.74775" r="3" />
	<circle cx="135" cy="166.28575" r="3" />
	<circle cx="135" cy="169.81755" r="3" />
	<circle cx="135" cy="168.3408" r="3" />
	<circle cx="135" cy="165.53405" r="3" />
	<circle cx="135" cy="166.67585" r="3" />
	<circle cx="145" cy="159.8441" r="3" />
	<circle cx="145" cy="159.57625" r="3" />
	<circle cx="145" cy="162.32725" r="3" />
	<circle cx="145" cy="161.1274" r="3" />
	<circle cx="145" cy="158.6703" r="3" />
	<circle cx="145" cy="159.14025" r="3" />
	<circle cx="145" cy="157.725" r="3" />
	<circle cx="145" cy="162.20935" r="3" />
	<circle cx="145" cy="161.679" r="3" />
	<circle cx="145" cy="160.0368" r="3" />
	<circle cx="145" cy="159.8391" r="3" />
	<circle cx="155" cy="152.898" r="3" />
	<circle cx="155" cy="152.6587" r="3" />
	<circle cx="155" cy="153.5368" r="3" />
	<circle cx="155" cy="148.34235" r="3" />
	<circle cx="155" cy="156.65615" r="3" />
	<circle cx="155" cy="155.6395" r="3" />
	<circle cx="155" cy="151.8971" r="3" />
	<circle cx="155" cy="152.2304" r="3" />
	<circle cx="165" cy="145.1158" r="3" />
	<circle cx="165" cy="142.32895" r="3" />
	<circle cx="165" cy="139.81225" r="3" />
	<circle cx="165" cy="138.21495" r="3" />
	<circle cx="165" cy="140.6804" r="3" />
	<circle cx="165" cy="139.44795" r="3" />
	<circle cx="165" cy="145.271" r="3" />
	<circle cx="175" cy="135.2312" r="3" />
	<circle cx="175" cy="126.1081" r="3" />
	<circle cx="175" cy="136.64955" r="3" />
	<circle cx="175" cy="138.5126" r="3" />
	<circle cx="175" cy="141.2917" r="3" />
	<circle cx="175" cy="138.5571" r="3" />
	<circle cx="185" cy="128.32235" r="3" />
	<circle cx="185" cy="89.2332" r="3" />
	<circle cx="185" cy="128.4653" r="3" />
	<circle cx="185" cy="132.0775" r="3" />
	<circle cx="185" cy="131.59545" r="3" />
	<circle cx="185" cy="129.3655" r="3" />
	<circle cx="185" cy="131.71465" r="3" />
	<circle cx="195" cy="123.5708" r="3" />
	<circle cx="195" cy="96.7697" r="3" />
	<circle cx="195" cy="122.80695" r="3" />
	<circle cx="195" cy="124.37505" r="3" />
	<circle cx="195" cy="123.9598" r="3" />
	<circle cx="205" cy="114.59215" r="3" />
	<circle cx="205" cy="106.9269" r="3" />
	<circle cx="205" cy="121.47995" r="3" />
	<circle cx="205" cy="114.1171" r="3" />
	<circle cx="205" cy="113.732" r="3" />
	<circle cx="205" cy="116.4708" r="3" />
	<circle cx="215" cy="106.71035" r="3" />
	<circle cx="215" cy="87.4783" r="3" />
	<circle cx="215" cy="107.62305" r="3" />
	<circle cx="215" cy="109.0045" r="3" />
	<circle cx="225" cy="100.24645" r="3" />
	<circle cx="225" cy="75.45595" r="3" />
	<circle cx="225" cy="102.8007" r="3" />
	<circle cx="225" cy="103.7807" r="3" />
	<circle cx="235" cy="94.0489" r="3" />
	<circle cx="235" cy="80.7652" r="3" />
	<circle cx="235" cy="79.78515" r="3" />
	<circle cx="235" cy="93.69215" r="3" />
	<circle cx="235" cy="95.41805" r="3" />
	<circle cx="245" cy="84.1942" r="3" />
	<circle cx="245" cy="32.9715" r="3" />
	<circle cx="245" cy="83.52165" r="3" />
	<circle cx="245" cy="89.60435" r="3" />
	<circle cx="255" cy="80.34495" r="3" />
	<circle cx="255" cy="60.38445" r="3" />
	<circle cx="255" cy="75.0653" r="3" />
	<circle cx="255" cy="77.3729" r="3" />
	<circle cx="255" cy="75.2037" r="3" />
	<circle cx="255" cy="81.57205" r="3" />
	<circle cx="265" cy="70.0728" r="3" />
	<circle cx="265" cy="19.76525" r="3" />
	<circle cx="265" cy="78.33845" r="3" />
	<circle cx="265" cy="74.0148" r="3" />
	<circle cx="265" cy="60.03155" r="3" />
	<circle cx="265" cy="71.0222" r="3" />
	<circle cx="275" cy="63.58845" r="3" />
	<circle cx="275" cy="35.4709" r="3" />
	<circle cx="275" cy="69.2877" r="3" /><!-- 
	Generated using the Perl SVG Module V2.36
	by Ronan Oger
	Info: http://www.roitsystems.com/
 -->
</svg>